%TF.GenerationSoftware,Altium Limited,Altium Designer,26.5.0 (11)*%
G04 Layer_Physical_Order=4*
G04 Layer_Color=16711680*
G04 Board_Origin=23340945|23900000*
%FSLAX45Y45*%
%MOMM*%
%TF.SameCoordinates,B825AC53-504F-4258-B26F-6CDAE949C360*%
%TF.FilePolarity,Positive*%
%TF.FileFunction,Copper,L4,Bot,Signal*%
%TF.Part,Single*%
G01*
G75*
%TA.AperFunction,Conductor*%
%ADD52C,0.15000*%
%ADD54C,0.25400*%
%ADD56C,0.30314*%
%TA.AperFunction,ComponentPad*%
%ADD59C,1.65000*%
%ADD60R,1.65000X1.65000*%
%ADD61C,0.65000*%
%ADD62O,2.40000X0.90000*%
%ADD63O,1.70000X0.90000*%
%ADD64R,1.95000X1.95000*%
%ADD65C,1.95000*%
%TA.AperFunction,ViaPad*%
%ADD66C,0.85000*%
%ADD67C,0.50000*%
G36*
X7002780Y4968240D02*
Y2998D01*
X6992162Y-7597D01*
X9387Y7578D01*
X3662Y21442D01*
X5080Y22860D01*
Y4998720D01*
X6972300D01*
X7002780Y4968240D01*
D02*
G37*
%LPC*%
G36*
X2844800Y4867492D02*
Y4813300D01*
X2898992D01*
X2895373Y4826808D01*
X2886434Y4842292D01*
X2873792Y4854934D01*
X2858308Y4863873D01*
X2844800Y4867492D01*
D02*
G37*
G36*
X2819400D02*
X2805892Y4863873D01*
X2790408Y4854934D01*
X2777766Y4842292D01*
X2768827Y4826808D01*
X2765208Y4813300D01*
X2819400D01*
Y4867492D01*
D02*
G37*
G36*
X5078312Y4798060D02*
X5024120D01*
Y4743868D01*
X5037628Y4747487D01*
X5053112Y4756426D01*
X5065754Y4769068D01*
X5074693Y4784552D01*
X5078312Y4798060D01*
D02*
G37*
G36*
X4998720D02*
X4944528D01*
X4948147Y4784552D01*
X4957086Y4769068D01*
X4969728Y4756426D01*
X4985212Y4747487D01*
X4998720Y4743868D01*
Y4798060D01*
D02*
G37*
G36*
X1649737Y4362800D02*
X1626863D01*
X1605729Y4354046D01*
X1589554Y4337871D01*
X1580800Y4316737D01*
Y4293863D01*
X1589554Y4272729D01*
X1605729Y4256554D01*
X1626863Y4247800D01*
X1649737D01*
X1670871Y4256554D01*
X1687046Y4272729D01*
X1695800Y4293863D01*
Y4316737D01*
X1687046Y4337871D01*
X1670871Y4354046D01*
X1649737Y4362800D01*
D02*
G37*
G36*
X5262880Y4916601D02*
X3956400D01*
X3947621Y4914854D01*
X3940179Y4909881D01*
X3770938Y4740641D01*
X2889379D01*
X2883166Y4755640D01*
X2886434Y4758908D01*
X2895373Y4774392D01*
X2898992Y4787900D01*
X2765208D01*
X2768827Y4774392D01*
X2777766Y4758908D01*
X2781034Y4755640D01*
X2774821Y4740641D01*
X1903380D01*
X1894601Y4738894D01*
X1887159Y4733921D01*
X1848139Y4694901D01*
X1843166Y4687459D01*
X1841419Y4678680D01*
Y3786482D01*
X1738018Y3683081D01*
X1038913D01*
X1030134Y3681334D01*
X1022692Y3676361D01*
X1011631Y3665301D01*
X929640D01*
X920861Y3663554D01*
X913419Y3658581D01*
X736689Y3481852D01*
X731717Y3474410D01*
X729970Y3465631D01*
Y3180892D01*
X640339Y3091261D01*
X386080D01*
X377301Y3089514D01*
X369859Y3084541D01*
X369858Y3084541D01*
X286979Y3001662D01*
X282006Y2994219D01*
X281610Y2992228D01*
X275088Y2988912D01*
X265821Y2986991D01*
X253304Y2996596D01*
X236178Y3003690D01*
X217800Y3006110D01*
X190500D01*
Y2935102D01*
Y2864095D01*
X217800D01*
X236178Y2866514D01*
X253304Y2873608D01*
X265260Y2882782D01*
X275023Y2879925D01*
X280260Y2876216D01*
Y2128986D01*
X275023Y2125277D01*
X265260Y2122420D01*
X253304Y2131594D01*
X236178Y2138688D01*
X217800Y2141107D01*
X190500D01*
Y2070100D01*
Y1999093D01*
X213910D01*
X219391Y1989774D01*
X220327Y1984296D01*
X179359Y1943328D01*
X174386Y1935885D01*
X172639Y1927106D01*
Y1673255D01*
X163009Y1669266D01*
X146834Y1653091D01*
X142798Y1643347D01*
X129426D01*
X120647Y1641601D01*
X113205Y1636628D01*
X49819Y1573241D01*
X44846Y1565799D01*
X43099Y1557020D01*
Y523240D01*
X44846Y514461D01*
X49819Y507019D01*
X116589Y440248D01*
X105987Y421883D01*
X98320Y393271D01*
Y363649D01*
X105987Y335037D01*
X120798Y309383D01*
X141743Y288438D01*
X167397Y273627D01*
X196009Y265960D01*
X225631D01*
X254243Y273627D01*
X279897Y288438D01*
X300842Y309383D01*
X315653Y335037D01*
X323320Y363649D01*
Y393271D01*
X315653Y421883D01*
X300842Y447537D01*
X279897Y468482D01*
X254243Y483293D01*
X225631Y490960D01*
X196009D01*
X167397Y483293D01*
X149032Y472691D01*
X88981Y532742D01*
Y1547518D01*
X130250Y1588788D01*
X146834Y1587949D01*
X163009Y1571774D01*
X184143Y1563020D01*
X207017D01*
X228151Y1571774D01*
X244326Y1587949D01*
X253080Y1609083D01*
Y1631957D01*
X244326Y1653091D01*
X228151Y1669266D01*
X218521Y1673255D01*
Y1917604D01*
X319422Y2018505D01*
X324394Y2025947D01*
X326141Y2034726D01*
X326141Y2034727D01*
Y2975938D01*
X395582Y3045379D01*
X649842D01*
X658621Y3047126D01*
X666063Y3052099D01*
X725667Y3111702D01*
X740060Y3104882D01*
Y3087363D01*
X748814Y3066229D01*
X764989Y3050054D01*
X786123Y3041300D01*
X808997D01*
X830131Y3050054D01*
X846306Y3066229D01*
X855060Y3087363D01*
Y3110237D01*
X851071Y3119868D01*
X925919Y3194716D01*
X983948D01*
X990161Y3179716D01*
X988023Y3177577D01*
X979269Y3156444D01*
Y3133569D01*
X986611Y3115842D01*
X813073Y2942304D01*
X811537Y2942940D01*
X788663D01*
X767529Y2934186D01*
X751354Y2918011D01*
X742600Y2896877D01*
Y2874003D01*
X751354Y2852869D01*
X767529Y2836694D01*
X788663Y2827940D01*
X811537D01*
X832671Y2836694D01*
X848846Y2852869D01*
X857600Y2874003D01*
Y2896877D01*
X850258Y2914603D01*
X1023796Y3088142D01*
X1025331Y3087506D01*
X1048206D01*
X1069340Y3096260D01*
X1085515Y3112435D01*
X1094269Y3133569D01*
Y3156444D01*
X1085515Y3177577D01*
X1083377Y3179716D01*
X1089590Y3194716D01*
X1921421D01*
X2014139Y3101998D01*
Y2982971D01*
X1999140Y2976758D01*
X1995991Y2979906D01*
X1974857Y2988660D01*
X1951983D01*
X1930849Y2979906D01*
X1914674Y2963731D01*
X1905920Y2942597D01*
Y2938861D01*
X1390345D01*
X1387350Y2941824D01*
X1381558Y2953861D01*
X1388460Y2970523D01*
Y2993397D01*
X1384027Y3004099D01*
X1412608Y3032679D01*
X1839003D01*
X1849569Y3022114D01*
X1870703Y3013360D01*
X1893577D01*
X1914711Y3022114D01*
X1930886Y3038289D01*
X1939640Y3059423D01*
Y3082297D01*
X1930886Y3103431D01*
X1914711Y3119606D01*
X1893577Y3128360D01*
X1870703D01*
X1849569Y3119606D01*
X1833394Y3103431D01*
X1824640Y3082297D01*
Y3078561D01*
X1403106D01*
X1394327Y3076814D01*
X1386884Y3071841D01*
X1386884Y3071841D01*
X1350957Y3035914D01*
X1342397Y3039460D01*
X1319523D01*
X1298389Y3030706D01*
X1282214Y3014531D01*
X1275935Y2999373D01*
X1212530D01*
X1203751Y2997627D01*
X1196309Y2992654D01*
X1130328Y2926674D01*
X1125356Y2919232D01*
X1123609Y2910453D01*
Y2195489D01*
X1125356Y2186710D01*
X1130328Y2179268D01*
X1152197Y2157400D01*
X1143920Y2137417D01*
Y2114543D01*
X1152674Y2093409D01*
X1168849Y2077234D01*
X1189983Y2068480D01*
X1212857D01*
X1233991Y2077234D01*
X1250166Y2093409D01*
X1258920Y2114543D01*
Y2137417D01*
X1250166Y2158551D01*
X1233991Y2174726D01*
X1212857Y2183480D01*
X1191002D01*
X1169490Y2204992D01*
Y2827539D01*
X1183654Y2833406D01*
X1186565Y2831677D01*
X1186629Y2831614D01*
X1186773Y2831554D01*
X1196259Y2825922D01*
Y2247825D01*
X1198006Y2239046D01*
X1202979Y2231604D01*
X1431682Y2002900D01*
X1425469Y1987900D01*
X1418583D01*
X1397449Y1979146D01*
X1381274Y1962971D01*
X1372520Y1941837D01*
Y1918963D01*
X1381274Y1897829D01*
X1397449Y1881654D01*
X1408924Y1876900D01*
X1405941Y1861901D01*
X621695D01*
X617706Y1871531D01*
X601531Y1887706D01*
X580397Y1896460D01*
X557523D01*
X536389Y1887706D01*
X520214Y1871531D01*
X511460Y1850397D01*
Y1827523D01*
X515449Y1817892D01*
X448599Y1751041D01*
X443626Y1743599D01*
X441879Y1734820D01*
Y1518920D01*
X443626Y1510141D01*
X448599Y1502699D01*
X530779Y1420518D01*
Y984862D01*
X490878Y944961D01*
X368301D01*
X368300Y944961D01*
X359521Y943214D01*
X352079Y938241D01*
X284403Y870566D01*
X279430Y863123D01*
X277684Y854344D01*
Y841480D01*
X267129D01*
X238517Y833813D01*
X212863Y819002D01*
X191918Y798057D01*
X177107Y772403D01*
X169440Y743791D01*
Y714169D01*
X177107Y685557D01*
X191918Y659903D01*
X212863Y638958D01*
X238517Y624147D01*
X267129Y616480D01*
X296751D01*
X325363Y624147D01*
X351017Y638958D01*
X371962Y659903D01*
X386773Y685557D01*
X394440Y714169D01*
Y743791D01*
X386773Y772403D01*
X371962Y798057D01*
X351017Y819002D01*
X328617Y831935D01*
X326858Y844301D01*
X327494Y848771D01*
X377802Y899079D01*
X500380D01*
X509159Y900826D01*
X516601Y905799D01*
X569941Y959139D01*
X574914Y966581D01*
X576661Y975360D01*
Y1430019D01*
X576661Y1430020D01*
X574914Y1438799D01*
X569941Y1446241D01*
X487761Y1528422D01*
Y1725318D01*
X547892Y1785449D01*
X557523Y1781460D01*
X580397D01*
X601531Y1790214D01*
X617706Y1806389D01*
X621695Y1816019D01*
X1406681D01*
X1412894Y1801020D01*
X1411246Y1799372D01*
X1402307Y1783888D01*
X1398688Y1770380D01*
X1465580D01*
Y1757680D01*
X1478280D01*
Y1690788D01*
X1491788Y1694407D01*
X1507272Y1703346D01*
X1519914Y1715988D01*
X1528853Y1731472D01*
X1533480Y1748741D01*
Y1755915D01*
X1537661Y1759588D01*
X1548480Y1763019D01*
X1554399Y1757546D01*
Y1650395D01*
X1544769Y1646406D01*
X1528594Y1630231D01*
X1519840Y1609097D01*
Y1586223D01*
X1528594Y1565089D01*
X1544769Y1548914D01*
X1565903Y1540160D01*
X1588777D01*
X1609911Y1548914D01*
X1626086Y1565089D01*
X1634840Y1586223D01*
Y1609097D01*
X1626086Y1630231D01*
X1609911Y1646406D01*
X1600281Y1650395D01*
Y1772920D01*
X1598534Y1781699D01*
X1593561Y1789142D01*
X1527522Y1855181D01*
X1480555Y1902148D01*
X1487520Y1918963D01*
Y1925849D01*
X1502520Y1932062D01*
X1694099Y1740483D01*
Y1152502D01*
X1563178Y1021581D01*
X1558206Y1014139D01*
X1556684Y1006492D01*
X1553339Y1004350D01*
X1541459Y1000504D01*
X1481802Y1060161D01*
X1474359Y1065134D01*
X1465580Y1066881D01*
X1449735D01*
X1445746Y1076511D01*
X1429571Y1092686D01*
X1408437Y1101440D01*
X1385563D01*
X1364429Y1092686D01*
X1348254Y1076511D01*
X1339500Y1055377D01*
Y1032503D01*
X1348254Y1011369D01*
X1364429Y995194D01*
X1385563Y986440D01*
X1408437D01*
X1429571Y995194D01*
X1445746Y1011369D01*
X1463074Y1014004D01*
X1510979Y966098D01*
Y546572D01*
X1495979Y540358D01*
X1310721Y725617D01*
Y967740D01*
X1308974Y976519D01*
X1304001Y983961D01*
X1265901Y1022061D01*
X1258459Y1027034D01*
X1249680Y1028781D01*
X1209115D01*
X1200336Y1027034D01*
X1192893Y1022061D01*
X1175310Y1004478D01*
X1173908Y1002380D01*
X1154423D01*
X1133289Y993626D01*
X1117114Y977451D01*
X1108360Y956317D01*
Y933443D01*
X1117114Y912309D01*
X1126381Y903041D01*
X1122989Y885400D01*
X1120589Y884406D01*
X1104414Y868231D01*
X1095660Y847097D01*
Y824223D01*
X1104414Y803089D01*
X1120589Y786914D01*
X1130219Y782925D01*
Y703580D01*
X1131966Y694801D01*
X1136939Y687359D01*
X1187739Y636559D01*
X1195181Y631586D01*
X1203960Y629839D01*
X1203961Y629839D01*
X1277294D01*
X1309573Y597561D01*
Y566875D01*
X1311319Y558096D01*
X1316292Y550654D01*
X1338627Y528318D01*
X1330740Y509277D01*
Y486403D01*
X1339494Y465269D01*
X1355669Y449094D01*
X1376803Y440340D01*
X1399677D01*
X1420811Y449094D01*
X1436986Y465269D01*
X1445740Y486403D01*
Y492780D01*
X1460740Y500919D01*
X1465499Y497825D01*
Y226680D01*
X1448736Y219736D01*
X1432561Y203561D01*
X1423807Y182428D01*
Y159553D01*
X1432561Y138419D01*
X1448736Y122244D01*
X1469870Y113490D01*
X1492745D01*
X1513878Y122244D01*
X1530053Y138419D01*
X1538807Y159553D01*
Y162677D01*
X1553807Y168890D01*
X1622889Y99808D01*
X1618900Y90177D01*
Y67303D01*
X1627654Y46169D01*
X1643829Y29994D01*
X1664963Y21240D01*
X1687837D01*
X1708971Y29994D01*
X1725146Y46169D01*
X1733900Y67303D01*
Y88234D01*
X1739014Y92174D01*
X1747758Y95589D01*
X1801148Y42199D01*
X1808591Y37226D01*
X1817370Y35479D01*
X4876800D01*
X4885579Y37226D01*
X4893021Y42199D01*
X5086061Y235239D01*
X5091034Y242681D01*
X5092781Y251460D01*
Y353330D01*
X5107474Y357267D01*
X5129706Y370103D01*
X5147859Y388256D01*
X5160695Y410488D01*
X5167340Y435286D01*
Y460958D01*
X5160695Y485756D01*
X5147859Y507988D01*
X5129706Y526141D01*
X5107474Y538977D01*
X5082676Y545622D01*
X5057004D01*
X5032206Y538977D01*
X5009974Y526141D01*
X4991821Y507988D01*
X4978985Y485756D01*
X4972340Y460958D01*
Y435286D01*
X4978985Y410488D01*
X4991821Y388256D01*
X5009974Y370103D01*
X5032206Y357267D01*
X5046899Y353330D01*
Y260962D01*
X4867298Y81361D01*
X4635897D01*
X4629683Y96360D01*
X4832061Y298739D01*
X4837034Y306181D01*
X4838781Y314960D01*
Y353330D01*
X4853474Y357267D01*
X4875706Y370103D01*
X4893859Y388256D01*
X4906695Y410488D01*
X4913340Y435286D01*
Y460958D01*
X4906695Y485756D01*
X4893859Y507988D01*
X4875706Y526141D01*
X4853474Y538977D01*
X4828676Y545622D01*
X4803004D01*
X4778206Y538977D01*
X4755974Y526141D01*
X4737821Y507988D01*
X4724985Y485756D01*
X4718340Y460958D01*
Y435286D01*
X4724985Y410488D01*
X4737821Y388256D01*
X4755974Y370103D01*
X4778206Y357267D01*
X4792899Y353330D01*
Y324462D01*
X4595188Y126751D01*
X2637129D01*
X2628845Y141751D01*
X2633753Y150252D01*
X2637372Y163760D01*
X2570480D01*
Y176460D01*
X2557780D01*
Y243353D01*
X2544272Y239733D01*
X2543225Y239129D01*
X2534015Y251132D01*
X2617181Y334299D01*
X2622154Y341741D01*
X2623901Y350520D01*
Y503525D01*
X2633531Y507514D01*
X2649706Y523689D01*
X2658460Y544823D01*
Y567697D01*
X2649706Y588831D01*
X2633531Y605006D01*
X2612397Y613760D01*
X2589523D01*
X2568389Y605006D01*
X2552214Y588831D01*
X2543460Y567697D01*
Y544823D01*
X2552214Y523689D01*
X2568389Y507514D01*
X2578019Y503525D01*
Y360022D01*
X2443897Y225900D01*
X2424437Y233960D01*
X2401563D01*
X2380429Y225206D01*
X2364254Y209031D01*
X2355500Y187898D01*
Y165023D01*
X2364254Y143889D01*
X2366392Y141751D01*
X2360179Y126751D01*
X1974261D01*
X1968048Y141751D01*
X1974066Y147769D01*
X1977268Y155499D01*
X2121517D01*
X2130296Y157245D01*
X2137739Y162218D01*
X2191272Y215751D01*
X2200903Y211762D01*
X2223777D01*
X2244911Y220516D01*
X2261086Y236691D01*
X2269840Y257825D01*
Y277106D01*
X2278287Y285244D01*
X2283117Y287842D01*
X2292343Y284021D01*
X2315217D01*
X2336351Y292775D01*
X2351725Y308149D01*
X2453127D01*
X2461906Y309895D01*
X2469348Y314868D01*
X2538441Y383960D01*
X2538441Y383961D01*
X2543414Y391403D01*
X2545161Y400182D01*
Y459739D01*
X2545161Y459740D01*
X2543414Y468519D01*
X2538441Y475961D01*
X2538441Y475962D01*
X2503801Y510601D01*
X2496359Y515574D01*
X2487580Y517321D01*
X2461752D01*
X2453533Y532320D01*
X2458493Y540912D01*
X2462112Y554420D01*
X2328328D01*
X2331947Y540912D01*
X2336907Y532320D01*
X2328688Y517321D01*
X2111002D01*
X2094130Y534193D01*
X2102626Y546910D01*
X2107409Y544929D01*
X2130284D01*
X2151417Y553683D01*
X2167592Y569858D01*
X2176346Y590991D01*
Y613866D01*
X2174656Y617947D01*
X2191628Y634919D01*
X2346852D01*
X2351049Y626454D01*
X2351994Y619920D01*
X2340886Y608812D01*
X2331947Y593329D01*
X2328328Y579820D01*
X2462112D01*
X2458493Y593329D01*
X2449554Y608812D01*
X2438446Y619920D01*
X2439391Y626454D01*
X2443588Y634919D01*
X3500725D01*
X3504714Y625289D01*
X3520889Y609114D01*
X3542023Y600360D01*
X3564897D01*
X3586031Y609114D01*
X3602206Y625289D01*
X3610960Y646423D01*
Y669297D01*
X3602206Y690431D01*
X3586031Y706606D01*
X3564897Y715360D01*
X3542023D01*
X3520889Y706606D01*
X3504714Y690431D01*
X3500725Y680801D01*
X3459959D01*
X3453746Y695800D01*
X3455394Y697448D01*
X3464333Y712932D01*
X3467952Y726440D01*
X3334168D01*
X3337787Y712932D01*
X3346726Y697448D01*
X3348374Y695800D01*
X3342161Y680801D01*
X2766483D01*
X2760743Y694659D01*
X2885440Y819355D01*
X2898976Y805819D01*
X2898977Y805819D01*
X2906419Y800846D01*
X2915198Y799099D01*
X3343781D01*
X3349994Y784100D01*
X3346726Y780832D01*
X3337787Y765348D01*
X3334168Y751840D01*
X3467952D01*
X3464333Y765348D01*
X3455394Y780832D01*
X3452126Y784100D01*
X3458339Y799099D01*
X3969058D01*
X4030899Y737258D01*
Y542914D01*
X4016206Y538977D01*
X3993974Y526141D01*
X3975821Y507988D01*
X3962985Y485756D01*
X3956340Y460958D01*
Y435286D01*
X3962985Y410488D01*
X3975821Y388256D01*
X3993974Y370103D01*
X4016206Y357267D01*
X4041004Y350622D01*
X4066676D01*
X4091474Y357267D01*
X4113706Y370103D01*
X4131859Y388256D01*
X4144695Y410488D01*
X4151340Y435286D01*
Y460958D01*
X4144695Y485756D01*
X4131859Y507988D01*
X4113706Y526141D01*
X4091474Y538977D01*
X4076781Y542914D01*
Y746760D01*
X4075034Y755539D01*
X4070061Y762981D01*
X3994781Y838261D01*
X3987339Y843234D01*
X3978560Y844981D01*
X2924700D01*
X2908381Y861301D01*
Y879445D01*
X2918011Y883434D01*
X2928747Y894170D01*
X2941570Y896567D01*
X2948056Y893896D01*
X2962638Y879313D01*
X2970081Y874341D01*
X2978860Y872594D01*
X3596565D01*
X3605344Y874341D01*
X3612787Y879313D01*
X3630641Y897168D01*
X3635614Y904611D01*
X3637361Y913390D01*
Y1371142D01*
X3648703Y1382680D01*
X3671577D01*
X3692711Y1391434D01*
X3708886Y1407609D01*
X3717640Y1428743D01*
Y1451617D01*
X3708886Y1472751D01*
X3692711Y1488926D01*
X3671577Y1497680D01*
X3648703D01*
X3627569Y1488926D01*
X3611394Y1472751D01*
X3602640Y1451617D01*
Y1428743D01*
X3606629Y1419112D01*
X3598199Y1410681D01*
X3593226Y1403239D01*
X3591479Y1394460D01*
Y922892D01*
X3587063Y918475D01*
X2988362D01*
X2983946Y922892D01*
Y978535D01*
X2982199Y987314D01*
X2977226Y994756D01*
X2933781Y1038202D01*
Y1143605D01*
X2943411Y1147594D01*
X2959586Y1163769D01*
X2968340Y1184903D01*
Y1207777D01*
X2959586Y1228911D01*
X2943411Y1245086D01*
X2922277Y1253840D01*
X2899403D01*
X2883781Y1247369D01*
X2868780Y1255196D01*
Y1294360D01*
X2867034Y1303139D01*
X2862061Y1310582D01*
X2833081Y1339561D01*
X2825639Y1344534D01*
X2816860Y1346281D01*
X2496162D01*
X2466421Y1376022D01*
Y1499821D01*
X2468431Y1500654D01*
X2484606Y1516829D01*
X2493360Y1537963D01*
Y1560837D01*
X2484606Y1581971D01*
X2475368Y1591209D01*
X2481581Y1606209D01*
X2758672D01*
X2758794Y1605914D01*
X2774969Y1589739D01*
X2796103Y1580985D01*
X2818978D01*
X2840112Y1589739D01*
X2856287Y1605914D01*
X2865040Y1627048D01*
Y1649922D01*
X2856287Y1671056D01*
X2840112Y1687231D01*
X2818978Y1695985D01*
X2796103D01*
X2786949Y1702101D01*
Y1713584D01*
X2778195Y1734718D01*
X2762693Y1750220D01*
X2762912Y1753665D01*
X2766629Y1765219D01*
X2931818D01*
X3012360Y1684678D01*
Y1623060D01*
X3014106Y1614281D01*
X3017501Y1609200D01*
X3015028Y1600868D01*
X3010504Y1594200D01*
X3001003D01*
X2979869Y1585446D01*
X2963694Y1569271D01*
X2954940Y1548137D01*
Y1525263D01*
X2963694Y1504129D01*
X2979869Y1487954D01*
X3001003Y1479200D01*
X3023877D01*
X3045011Y1487954D01*
X3061186Y1504129D01*
X3069384Y1523919D01*
X3679183D01*
X3720723Y1482379D01*
X3720724Y1482379D01*
X3728166Y1477406D01*
X3736945Y1475659D01*
X3736946Y1475659D01*
X3818225D01*
X3822214Y1466029D01*
X3838389Y1449854D01*
X3859523Y1441100D01*
X3882397D01*
X3903531Y1449854D01*
X3919706Y1466029D01*
X3928460Y1487163D01*
Y1510037D01*
X3919706Y1531171D01*
X3903531Y1547346D01*
X3885923Y1554640D01*
X3888907Y1569639D01*
X4285638D01*
X5298004Y557273D01*
X5295715Y541525D01*
X5286206Y538977D01*
X5263974Y526141D01*
X5245821Y507988D01*
X5232985Y485756D01*
X5226340Y460958D01*
Y435286D01*
X5232985Y410488D01*
X5245821Y388256D01*
X5263974Y370103D01*
X5286206Y357267D01*
X5311004Y350622D01*
X5336676D01*
X5361474Y357267D01*
X5383706Y370103D01*
X5401859Y388256D01*
X5414695Y410488D01*
X5421340Y435286D01*
Y460958D01*
X5414695Y485756D01*
X5401859Y507988D01*
X5383706Y526141D01*
X5361474Y538977D01*
X5346781Y542914D01*
Y563879D01*
X5346781Y563880D01*
X5345034Y572659D01*
X5340061Y580102D01*
X5340061Y580102D01*
X4311362Y1608801D01*
X4303919Y1613774D01*
X4295140Y1615521D01*
X3191928D01*
X3183910Y1630520D01*
X3187357Y1635679D01*
X4493918D01*
X5554899Y574698D01*
Y546912D01*
X5540206Y542975D01*
X5517974Y530139D01*
X5499821Y511986D01*
X5486985Y489754D01*
X5480340Y464956D01*
Y439284D01*
X5486985Y414486D01*
X5499821Y392254D01*
X5517974Y374101D01*
X5540206Y361265D01*
X5565004Y354620D01*
X5590676D01*
X5615474Y361265D01*
X5637706Y374101D01*
X5655859Y392254D01*
X5668695Y414486D01*
X5675340Y439284D01*
Y464956D01*
X5668695Y489754D01*
X5655859Y511986D01*
X5637706Y530139D01*
X5615474Y542975D01*
X5600781Y546912D01*
Y584200D01*
X5599034Y592979D01*
X5594061Y600422D01*
X4519642Y1674841D01*
X4512199Y1679814D01*
X4503420Y1681561D01*
X3182250D01*
X3175486Y1697891D01*
X3159311Y1714066D01*
X3156545Y1715212D01*
X3156460Y1731483D01*
X3170406Y1745429D01*
X3179160Y1766563D01*
Y1789437D01*
X3170406Y1810571D01*
X3158220Y1822757D01*
X3248894Y1913432D01*
X3503580D01*
Y1905123D01*
X3512334Y1883989D01*
X3528509Y1867814D01*
X3549643Y1859060D01*
X3572517D01*
X3593651Y1867814D01*
X3609826Y1883989D01*
X3618580Y1905123D01*
Y1927997D01*
X3609826Y1949131D01*
X3607598Y1951360D01*
X3613811Y1966360D01*
X3914620D01*
X3923399Y1968106D01*
X3930842Y1973079D01*
X4135948Y2178185D01*
X4139508Y2176560D01*
X4148318Y2169342D01*
X4147156Y2163496D01*
Y2091718D01*
X3884408Y1828971D01*
X3874777Y1832960D01*
X3851903D01*
X3830769Y1824206D01*
X3814594Y1808031D01*
X3805840Y1786897D01*
Y1764023D01*
X3814594Y1742889D01*
X3830769Y1726714D01*
X3851903Y1717960D01*
X3874777D01*
X3895911Y1726714D01*
X3912086Y1742889D01*
X3920840Y1764023D01*
Y1786897D01*
X3916851Y1796528D01*
X4179598Y2059276D01*
X4243756D01*
X4252535Y2061022D01*
X4259978Y2065995D01*
X4350272Y2156289D01*
X4359903Y2152300D01*
X4382777D01*
X4403911Y2161054D01*
X4420086Y2177229D01*
X4428840Y2198363D01*
Y2221237D01*
X4420086Y2242371D01*
X4403911Y2258546D01*
X4382777Y2267300D01*
X4359903D01*
X4338769Y2258546D01*
X4322594Y2242371D01*
X4313840Y2221237D01*
Y2198363D01*
X4317829Y2188732D01*
X4234254Y2105157D01*
X4193037D01*
Y2153994D01*
X4514022Y2474980D01*
X4829640D01*
X4838419Y2476726D01*
X4845862Y2481699D01*
X5019033Y2654870D01*
X5032206Y2647265D01*
X5057004Y2640620D01*
X5082676D01*
X5107474Y2647265D01*
X5129706Y2660101D01*
X5147859Y2678254D01*
X5160695Y2700486D01*
X5167340Y2725284D01*
Y2750956D01*
X5160695Y2775754D01*
X5147859Y2797986D01*
X5129706Y2816139D01*
X5107474Y2828975D01*
X5082676Y2835620D01*
X5057004D01*
X5032206Y2828975D01*
X5009974Y2816139D01*
X4991821Y2797986D01*
X4978985Y2775754D01*
X4972340Y2750956D01*
Y2725284D01*
X4978985Y2700486D01*
X4986590Y2687313D01*
X4820138Y2520861D01*
X4504520D01*
X4498674Y2519698D01*
X4491456Y2528508D01*
X4489832Y2532069D01*
X4569296Y2611534D01*
X4574269Y2618976D01*
X4576015Y2627755D01*
Y2640979D01*
X4599474Y2647265D01*
X4621706Y2660101D01*
X4639859Y2678254D01*
X4652695Y2700486D01*
X4659340Y2725284D01*
Y2750956D01*
X4652695Y2775754D01*
X4639859Y2797986D01*
X4621706Y2816139D01*
X4599474Y2828975D01*
X4574676Y2835620D01*
X4553558D01*
X4546171Y2849447D01*
X4743161Y3046437D01*
X4748134Y3053879D01*
X4749881Y3062658D01*
Y3471096D01*
X4761377Y3475782D01*
X4764880Y3476054D01*
X5092316Y3148619D01*
X5099759Y3143646D01*
X5108538Y3141899D01*
X5131405D01*
X5135394Y3132269D01*
X5151569Y3116094D01*
X5172703Y3107340D01*
X5195577D01*
X5216711Y3116094D01*
X5232886Y3132269D01*
X5241640Y3153403D01*
Y3176277D01*
X5232886Y3197411D01*
X5216711Y3213586D01*
X5195577Y3222340D01*
X5172703D01*
X5151569Y3213586D01*
X5135394Y3197411D01*
X5132222Y3189755D01*
X5117547Y3188274D01*
X4803221Y3502600D01*
Y3823358D01*
X4863442Y3883579D01*
X5873084D01*
X5874055Y3882001D01*
X5877682Y3868580D01*
X5864374Y3855271D01*
X5855620Y3834137D01*
Y3811263D01*
X5864374Y3790129D01*
X5879748Y3774755D01*
Y3756410D01*
X5858799Y3735461D01*
X5853826Y3728018D01*
X5852079Y3719239D01*
Y3640646D01*
X5853826Y3631867D01*
X5858799Y3624424D01*
X5881399Y3601823D01*
Y3427709D01*
X5853719Y3400028D01*
X5848746Y3392586D01*
X5846999Y3383807D01*
Y2483462D01*
X5480144Y2116607D01*
X5459737Y2125060D01*
X5436863D01*
X5415729Y2116306D01*
X5399554Y2100131D01*
X5394605Y2088183D01*
X4731019D01*
X4604847Y2214354D01*
X4606640Y2218683D01*
Y2241557D01*
X4597886Y2262691D01*
X4581711Y2278866D01*
X4560577Y2287620D01*
X4537703D01*
X4516569Y2278866D01*
X4500394Y2262691D01*
X4491640Y2241557D01*
Y2218683D01*
X4500394Y2197549D01*
X4516569Y2181374D01*
X4537703Y2172620D01*
X4560577D01*
X4564906Y2174413D01*
X4699349Y2039969D01*
X4708512Y2033847D01*
X4719320Y2031697D01*
X5319756D01*
X5325496Y2017839D01*
X5172999Y1865341D01*
X5168026Y1857899D01*
X5166279Y1849120D01*
Y1328420D01*
X5168026Y1319641D01*
X5172999Y1312199D01*
X5496389Y988808D01*
X5492400Y979177D01*
Y956303D01*
X5501154Y935169D01*
X5517329Y918994D01*
X5538463Y910240D01*
X5561337D01*
X5582471Y918994D01*
X5598646Y935169D01*
X5607400Y956303D01*
Y979177D01*
X5598646Y1000311D01*
X5582471Y1016486D01*
X5561337Y1025240D01*
X5538463D01*
X5528832Y1021251D01*
X5212161Y1337922D01*
Y1839618D01*
X5403543Y2031000D01*
X5415729Y2018814D01*
X5436863Y2010060D01*
X5459737D01*
X5480871Y2018814D01*
X5497046Y2034989D01*
X5505800Y2056123D01*
Y2077377D01*
X5886161Y2457739D01*
X5891134Y2465181D01*
X5892881Y2473960D01*
Y3374304D01*
X5920561Y3401985D01*
X5925534Y3409428D01*
X5927280Y3418207D01*
Y3611326D01*
X5925534Y3620105D01*
X5920561Y3627547D01*
X5897961Y3650148D01*
Y3709737D01*
X5918910Y3730686D01*
X5923882Y3738129D01*
X5925629Y3746908D01*
Y3765644D01*
X5945691Y3773954D01*
X5961866Y3790129D01*
X5970620Y3811263D01*
Y3834137D01*
X5961866Y3855271D01*
X5948558Y3868580D01*
X5952185Y3882001D01*
X5953156Y3883579D01*
X6120522D01*
X6128637Y3875465D01*
Y3873316D01*
X6130383Y3864537D01*
X6135356Y3857094D01*
X6140790Y3851660D01*
X6132480Y3831597D01*
Y3808723D01*
X6141234Y3787589D01*
X6157409Y3771414D01*
X6178543Y3762660D01*
X6201417D01*
X6222551Y3771414D01*
X6238726Y3787589D01*
X6247480Y3808723D01*
Y3831597D01*
X6238726Y3852731D01*
X6222551Y3868906D01*
X6201417Y3877660D01*
X6179676D01*
X6174518Y3882818D01*
Y3884967D01*
X6172772Y3893746D01*
X6167799Y3901189D01*
X6154928Y3914059D01*
X6161142Y3929059D01*
X6222676D01*
X6234912Y3916824D01*
Y3895083D01*
X6243666Y3873949D01*
X6259841Y3857774D01*
X6280974Y3849020D01*
X6303849D01*
X6324983Y3857774D01*
X6341158Y3873949D01*
X6349912Y3895083D01*
Y3917957D01*
X6341158Y3939091D01*
X6324983Y3955266D01*
X6303849Y3964020D01*
X6280974D01*
X6260912Y3955710D01*
X6248400Y3968221D01*
X6240958Y3973194D01*
X6232179Y3974940D01*
X4825760D01*
X4816981Y3973194D01*
X4809539Y3968221D01*
X4710719Y3869401D01*
X4705746Y3861959D01*
X4703999Y3853180D01*
Y3072161D01*
X4432879Y2801040D01*
X4427906Y2793597D01*
X4426160Y2784818D01*
Y2604053D01*
X4344616Y2522510D01*
X4330881Y2529787D01*
X4330781Y2529887D01*
Y2643328D01*
X4345474Y2647265D01*
X4367706Y2660101D01*
X4385859Y2678254D01*
X4398695Y2700486D01*
X4405340Y2725284D01*
Y2750956D01*
X4398695Y2775754D01*
X4385859Y2797986D01*
X4367706Y2816139D01*
X4345474Y2828975D01*
X4320676Y2835620D01*
X4295004D01*
X4270206Y2828975D01*
X4247974Y2816139D01*
X4229821Y2797986D01*
X4216985Y2775754D01*
X4210340Y2750956D01*
Y2725284D01*
X4216985Y2700486D01*
X4229821Y2678254D01*
X4247974Y2660101D01*
X4270206Y2647265D01*
X4284899Y2643328D01*
Y2539342D01*
X4095860Y2350303D01*
X4080860Y2356516D01*
Y2366017D01*
X4072106Y2387151D01*
X4055931Y2403326D01*
X4034797Y2412080D01*
X4011923D01*
X4006641Y2409892D01*
X3995160Y2421373D01*
X3999580Y2432043D01*
Y2454917D01*
X3990826Y2476051D01*
X3974651Y2492226D01*
X3971883Y2493373D01*
Y2660978D01*
X3986883Y2667192D01*
X3993974Y2660101D01*
X4016206Y2647265D01*
X4041004Y2640620D01*
X4066676D01*
X4091474Y2647265D01*
X4113706Y2660101D01*
X4131859Y2678254D01*
X4144695Y2700486D01*
X4151340Y2725284D01*
Y2750956D01*
X4144695Y2775754D01*
X4131859Y2797986D01*
X4113706Y2816139D01*
X4091474Y2828975D01*
X4066676Y2835620D01*
X4041004D01*
X4016206Y2828975D01*
X3993974Y2816139D01*
X3986883Y2809048D01*
X3971883Y2815262D01*
Y2915775D01*
X3977191Y2917974D01*
X3993366Y2934149D01*
X4002120Y2955283D01*
Y2978157D01*
X3993366Y2999291D01*
X3984995Y3007662D01*
X3981619Y3021925D01*
X3985163Y3027093D01*
X4270721Y3312651D01*
X4270721Y3312652D01*
X4275694Y3320094D01*
X4277441Y3328873D01*
Y3990998D01*
X4289642Y4003200D01*
X4998960D01*
X5007739Y4004946D01*
X5015181Y4009919D01*
X5167341Y4162079D01*
X5172314Y4169521D01*
X5174061Y4178300D01*
X5174061Y4178301D01*
Y4476138D01*
X5213872Y4515949D01*
X5223503Y4511960D01*
X5246377D01*
X5267511Y4520714D01*
X5283686Y4536889D01*
X5292440Y4558023D01*
Y4580897D01*
X5283686Y4602031D01*
X5267511Y4618206D01*
X5246377Y4626960D01*
X5223503D01*
X5202369Y4618206D01*
X5186194Y4602031D01*
X5177440Y4580897D01*
Y4558023D01*
X5181429Y4548392D01*
X5134899Y4501861D01*
X5129926Y4494419D01*
X5129343Y4491488D01*
X5115542Y4486123D01*
X5113413Y4486204D01*
X5110951Y4488666D01*
X5089817Y4497420D01*
X5066943D01*
X5045809Y4488666D01*
X5029634Y4472491D01*
X5020880Y4451357D01*
Y4428483D01*
X5029190Y4408420D01*
X5017751Y4396981D01*
X5012778Y4389538D01*
X5011032Y4380759D01*
Y4187495D01*
X4930798Y4107261D01*
X4898554D01*
X4897230Y4108993D01*
X4893025Y4122260D01*
X4974301Y4203537D01*
X4979274Y4210979D01*
X4981021Y4219758D01*
Y4567578D01*
X5019516Y4606073D01*
X5030304D01*
X5039083Y4607820D01*
X5046526Y4612792D01*
X5071611Y4637878D01*
X5081263Y4633880D01*
X5104137D01*
X5125271Y4642634D01*
X5141446Y4658809D01*
X5150200Y4679943D01*
Y4702817D01*
X5141446Y4723951D01*
X5125271Y4740126D01*
X5104137Y4748880D01*
X5081263D01*
X5060129Y4740126D01*
X5043954Y4723951D01*
X5035200Y4702817D01*
Y4679943D01*
X5039180Y4670333D01*
X5020802Y4651954D01*
X5010015D01*
X5010014Y4651955D01*
X5001235Y4650208D01*
X4993792Y4645235D01*
X4941859Y4593301D01*
X4936886Y4585859D01*
X4935139Y4577080D01*
Y4229261D01*
X4863939Y4158061D01*
X4224020D01*
X4215241Y4156314D01*
X4207799Y4151341D01*
X4113819Y4057361D01*
X4108846Y4049919D01*
X4107099Y4041140D01*
Y3560812D01*
X4092100Y3557828D01*
X4089886Y3563171D01*
X4073711Y3579346D01*
X4052577Y3588100D01*
X4029703D01*
X4008569Y3579346D01*
X3992394Y3563171D01*
X3983640Y3542037D01*
Y3519163D01*
X3989410Y3505231D01*
X3965579Y3481400D01*
X3960606Y3473957D01*
X3958859Y3465178D01*
Y3410611D01*
X3943860Y3404398D01*
X3941631Y3406626D01*
X3920497Y3415380D01*
X3897623D01*
X3887992Y3411391D01*
X3637095Y3662288D01*
X3629652Y3667261D01*
X3620873Y3669007D01*
X3571204D01*
X3566646Y3680011D01*
X3550471Y3696186D01*
X3529337Y3704940D01*
X3506463D01*
X3485329Y3696186D01*
X3469154Y3680011D01*
X3460400Y3658877D01*
Y3636003D01*
X3469154Y3614869D01*
X3485329Y3598694D01*
X3494959Y3594705D01*
Y3555342D01*
X3368698Y3429081D01*
X3213100D01*
X3204321Y3427334D01*
X3196879Y3422361D01*
X3051198Y3276681D01*
X2232741D01*
Y3439058D01*
X2289110Y3495427D01*
X2295539Y3496706D01*
X2302981Y3501679D01*
X2307954Y3509121D01*
X2309700Y3517900D01*
X2307954Y3526679D01*
X2302981Y3534121D01*
X2229321Y3607781D01*
X2221879Y3612754D01*
X2213100Y3614501D01*
X1056822D01*
X1044680Y3617899D01*
X1040157Y3626747D01*
X1049374Y3637199D01*
X1747520D01*
X1756299Y3638946D01*
X1763741Y3643919D01*
X1880581Y3760759D01*
X1885554Y3768201D01*
X1887301Y3776980D01*
Y4669178D01*
X1912882Y4694759D01*
X3780440D01*
X3789219Y4696506D01*
X3796661Y4701479D01*
X3965902Y4870719D01*
X4954141D01*
X4960354Y4855720D01*
X4957086Y4852452D01*
X4948147Y4836968D01*
X4944528Y4823460D01*
X5078312D01*
X5074693Y4836968D01*
X5065754Y4852452D01*
X5062486Y4855720D01*
X5068699Y4870719D01*
X5253378D01*
X5326299Y4797798D01*
Y4396018D01*
X5328046Y4387239D01*
X5333019Y4379797D01*
X5400876Y4311939D01*
X5400877Y4311939D01*
X5408319Y4306966D01*
X5417098Y4305219D01*
X5973622D01*
X5985160Y4293877D01*
Y4271003D01*
X5993914Y4249869D01*
X6010089Y4233694D01*
X6031223Y4224940D01*
X6054097D01*
X6075231Y4233694D01*
X6091406Y4249869D01*
X6100160Y4271003D01*
Y4293877D01*
X6091406Y4315011D01*
X6075231Y4331186D01*
X6054097Y4339940D01*
X6031223D01*
X6020787Y4335617D01*
X6012023Y4344381D01*
X6004581Y4349354D01*
X5995802Y4351101D01*
X5426600D01*
X5372181Y4405521D01*
Y4807299D01*
X5372181Y4807300D01*
X5370434Y4816079D01*
X5365461Y4823521D01*
X5365461Y4823522D01*
X5279101Y4909881D01*
X5271659Y4914854D01*
X5262880Y4916601D01*
D02*
G37*
G36*
X6868160Y4217252D02*
Y4163060D01*
X6922352D01*
X6918733Y4176568D01*
X6909794Y4192052D01*
X6897152Y4204694D01*
X6881668Y4213633D01*
X6868160Y4217252D01*
D02*
G37*
G36*
X6842760D02*
X6829252Y4213633D01*
X6813768Y4204694D01*
X6801126Y4192052D01*
X6792187Y4176568D01*
X6788568Y4163060D01*
X6842760D01*
Y4217252D01*
D02*
G37*
G36*
X6922352Y4137660D02*
X6868160D01*
Y4083468D01*
X6881668Y4087087D01*
X6897152Y4096026D01*
X6909794Y4108668D01*
X6918733Y4124152D01*
X6922352Y4137660D01*
D02*
G37*
G36*
X6842760D02*
X6788568D01*
X6792187Y4124152D01*
X6801126Y4108668D01*
X6813768Y4096026D01*
X6829252Y4087087D01*
X6842760Y4083468D01*
Y4137660D01*
D02*
G37*
G36*
X6142997Y4197700D02*
X6120123D01*
X6098989Y4188946D01*
X6082814Y4172771D01*
X6074060Y4151637D01*
Y4128763D01*
X6082814Y4107629D01*
X6098989Y4091454D01*
X6120123Y4082700D01*
X6142997D01*
X6164131Y4091454D01*
X6180306Y4107629D01*
X6189060Y4128763D01*
Y4151637D01*
X6180306Y4172771D01*
X6164131Y4188946D01*
X6142997Y4197700D01*
D02*
G37*
G36*
X5010157Y3865880D02*
X4987283D01*
X4966149Y3857126D01*
X4949974Y3840951D01*
X4934533Y3842870D01*
X4925868Y3847873D01*
X4912360Y3851492D01*
Y3784600D01*
Y3717708D01*
X4925868Y3721327D01*
X4941352Y3730266D01*
X4953994Y3742908D01*
X4957144Y3748364D01*
X4964801Y3757947D01*
X4977532Y3754919D01*
X4987283Y3750880D01*
X5010157D01*
X5031291Y3759634D01*
X5047466Y3775809D01*
X5056220Y3796943D01*
Y3819817D01*
X5047466Y3840951D01*
X5031291Y3857126D01*
X5010157Y3865880D01*
D02*
G37*
G36*
X4886960Y3851492D02*
X4873452Y3847873D01*
X4857968Y3838934D01*
X4845326Y3826292D01*
X4836387Y3810808D01*
X4832768Y3797300D01*
X4886960D01*
Y3851492D01*
D02*
G37*
G36*
X2296160Y3846412D02*
Y3792220D01*
X2350352D01*
X2346733Y3805728D01*
X2337794Y3821212D01*
X2325152Y3833854D01*
X2309668Y3842793D01*
X2296160Y3846412D01*
D02*
G37*
G36*
X2270760D02*
X2257252Y3842793D01*
X2241768Y3833854D01*
X2229126Y3821212D01*
X2220187Y3805728D01*
X2216568Y3792220D01*
X2270760D01*
Y3846412D01*
D02*
G37*
G36*
X4641857Y3796380D02*
X4618983D01*
X4597849Y3787626D01*
X4581674Y3771451D01*
X4577685Y3761821D01*
X4484021D01*
X4484020Y3761821D01*
X4475241Y3760074D01*
X4467799Y3755101D01*
X4467798Y3755101D01*
X4383168Y3670471D01*
X4373537Y3674460D01*
X4350663D01*
X4329529Y3665706D01*
X4313354Y3649531D01*
X4304600Y3628397D01*
Y3605523D01*
X4313354Y3584389D01*
X4329529Y3568214D01*
X4350663Y3559460D01*
X4373537D01*
X4394671Y3568214D01*
X4410846Y3584389D01*
X4419600Y3605523D01*
Y3628397D01*
X4415611Y3638028D01*
X4493522Y3715939D01*
X4577685D01*
X4581674Y3706309D01*
X4597849Y3690134D01*
X4618983Y3681380D01*
X4641857D01*
X4662991Y3690134D01*
X4679166Y3706309D01*
X4687920Y3727443D01*
Y3750317D01*
X4679166Y3771451D01*
X4662991Y3787626D01*
X4641857Y3796380D01*
D02*
G37*
G36*
X4886960Y3771900D02*
X4832768D01*
X4836387Y3758392D01*
X4845326Y3742908D01*
X4857968Y3730266D01*
X4873452Y3721327D01*
X4886960Y3717708D01*
Y3771900D01*
D02*
G37*
G36*
X2350352Y3766820D02*
X2296160D01*
Y3712628D01*
X2309668Y3716247D01*
X2325152Y3725186D01*
X2337794Y3737828D01*
X2346733Y3753312D01*
X2350352Y3766820D01*
D02*
G37*
G36*
X2270760D02*
X2216568D01*
X2220187Y3753312D01*
X2229126Y3737828D01*
X2241768Y3725186D01*
X2257252Y3716247D01*
X2270760Y3712628D01*
Y3766820D01*
D02*
G37*
G36*
X6412237Y3783680D02*
X6389363D01*
X6368229Y3774926D01*
X6352054Y3758751D01*
X6343300Y3737617D01*
Y3714743D01*
X6352054Y3693609D01*
X6368229Y3677434D01*
X6389363Y3668680D01*
X6412237D01*
X6433371Y3677434D01*
X6449546Y3693609D01*
X6458300Y3714743D01*
Y3737617D01*
X6449546Y3758751D01*
X6433371Y3774926D01*
X6412237Y3783680D01*
D02*
G37*
G36*
X4908557Y3684620D02*
X4885683D01*
X4864549Y3675866D01*
X4848374Y3659691D01*
X4839620Y3638557D01*
Y3615683D01*
X4848374Y3594549D01*
X4864549Y3578374D01*
X4885683Y3569620D01*
X4908557D01*
X4929691Y3578374D01*
X4945866Y3594549D01*
X4954620Y3615683D01*
Y3638557D01*
X4945866Y3659691D01*
X4929691Y3675866D01*
X4908557Y3684620D01*
D02*
G37*
G36*
X5759944Y3824320D02*
X5737070D01*
X5715936Y3815566D01*
X5699761Y3799391D01*
X5691007Y3778257D01*
Y3755383D01*
X5699761Y3734249D01*
X5715936Y3718074D01*
X5735998Y3709764D01*
Y3695621D01*
X5737744Y3686842D01*
X5742717Y3679399D01*
X5768259Y3653857D01*
Y3581798D01*
X5770006Y3573019D01*
X5774979Y3565577D01*
X5803819Y3536736D01*
Y3518379D01*
X5788820Y3512166D01*
X5782092Y3518894D01*
X5766608Y3527833D01*
X5753100Y3531452D01*
Y3464560D01*
X5740400D01*
Y3451860D01*
X5673508D01*
X5677127Y3438352D01*
X5686066Y3422868D01*
X5689554Y3419381D01*
X5683341Y3404381D01*
X5626800D01*
X5618021Y3402634D01*
X5610579Y3397661D01*
X5559350Y3346433D01*
X5554378Y3338991D01*
X5552631Y3330212D01*
Y3315876D01*
X5532569Y3307566D01*
X5516394Y3291391D01*
X5507640Y3270257D01*
Y3247383D01*
X5516394Y3226249D01*
X5532569Y3210074D01*
X5553703Y3201320D01*
X5576577D01*
X5597711Y3210074D01*
X5613886Y3226249D01*
X5615775Y3230809D01*
X5632464Y3231903D01*
X5632726Y3231448D01*
X5645368Y3218806D01*
X5660852Y3209867D01*
X5678121Y3205240D01*
X5680584D01*
X5690607Y3190240D01*
X5687980Y3183897D01*
Y3161023D01*
X5696734Y3139889D01*
X5712909Y3123714D01*
X5734043Y3114960D01*
X5756917D01*
X5778051Y3123714D01*
X5794226Y3139889D01*
X5802980Y3161023D01*
Y3183897D01*
X5794226Y3205031D01*
X5778051Y3221206D01*
X5757674Y3229647D01*
X5756799Y3230190D01*
X5749195Y3244960D01*
X5750333Y3246932D01*
X5753952Y3260440D01*
X5687060D01*
Y3273140D01*
X5674360D01*
Y3340032D01*
X5660852Y3336413D01*
X5645368Y3327474D01*
X5632726Y3314832D01*
X5624837Y3301167D01*
X5617268Y3298601D01*
X5609775Y3297742D01*
X5600383Y3306484D01*
X5600192Y3322389D01*
X5636302Y3358500D01*
X5774518D01*
X5783297Y3360246D01*
X5790740Y3365219D01*
X5842981Y3417460D01*
X5847954Y3424903D01*
X5849701Y3433682D01*
Y3546238D01*
X5847954Y3555017D01*
X5842981Y3562460D01*
X5814141Y3591301D01*
Y3663358D01*
X5814141Y3663359D01*
X5812394Y3672138D01*
X5807421Y3679581D01*
X5807421Y3679581D01*
X5781879Y3705123D01*
Y3718875D01*
X5797253Y3734249D01*
X5806007Y3755383D01*
Y3778257D01*
X5797253Y3799391D01*
X5781078Y3815566D01*
X5759944Y3824320D01*
D02*
G37*
G36*
X597737Y3615600D02*
X574863D01*
X553729Y3606846D01*
X537554Y3590671D01*
X528800Y3569537D01*
Y3546663D01*
X537554Y3525529D01*
X553729Y3509354D01*
X574863Y3500600D01*
X597737D01*
X618871Y3509354D01*
X635046Y3525529D01*
X643800Y3546663D01*
Y3569537D01*
X635046Y3590671D01*
X618871Y3606846D01*
X597737Y3615600D01*
D02*
G37*
G36*
X5727700Y3531452D02*
X5714192Y3527833D01*
X5698708Y3518894D01*
X5686066Y3506252D01*
X5677127Y3490768D01*
X5673508Y3477260D01*
X5727700D01*
Y3531452D01*
D02*
G37*
G36*
X3136900Y4417060D02*
X3129280Y4409440D01*
X2506980D01*
Y3464560D01*
X3136900D01*
Y4417060D01*
D02*
G37*
G36*
X642620Y3447632D02*
Y3393440D01*
X696812D01*
X693193Y3406948D01*
X684254Y3422432D01*
X671612Y3435074D01*
X656128Y3444013D01*
X642620Y3447632D01*
D02*
G37*
G36*
X617220D02*
X603712Y3444013D01*
X588228Y3435074D01*
X575586Y3422432D01*
X566647Y3406948D01*
X563028Y3393440D01*
X617220D01*
Y3447632D01*
D02*
G37*
G36*
X696812Y3368040D02*
X642620D01*
Y3313848D01*
X656128Y3317467D01*
X671612Y3326406D01*
X684254Y3339048D01*
X693193Y3354532D01*
X696812Y3368040D01*
D02*
G37*
G36*
X617220D02*
X563028D01*
X566647Y3354532D01*
X575586Y3339048D01*
X588228Y3326406D01*
X603712Y3317467D01*
X617220Y3313848D01*
Y3368040D01*
D02*
G37*
G36*
X5699760Y3340032D02*
Y3285840D01*
X5753952D01*
X5750333Y3299348D01*
X5741394Y3314832D01*
X5728752Y3327474D01*
X5713268Y3336413D01*
X5699760Y3340032D01*
D02*
G37*
G36*
X4438657Y3135980D02*
X4415783D01*
X4394649Y3127226D01*
X4378474Y3111051D01*
X4369720Y3089917D01*
Y3067043D01*
X4378474Y3045909D01*
X4394649Y3029734D01*
X4415783Y3020980D01*
X4438657D01*
X4459791Y3029734D01*
X4475966Y3045909D01*
X4484720Y3067043D01*
Y3089917D01*
X4475966Y3111051D01*
X4459791Y3127226D01*
X4438657Y3135980D01*
D02*
G37*
G36*
X590803Y3006110D02*
X528503D01*
Y2947802D01*
X660138D01*
X659391Y2953480D01*
X652297Y2970606D01*
X641013Y2985312D01*
X626307Y2996596D01*
X609181Y3003690D01*
X590803Y3006110D01*
D02*
G37*
G36*
X503103D02*
X440803D01*
X422425Y3003690D01*
X405299Y2996596D01*
X390593Y2985312D01*
X379309Y2970606D01*
X372215Y2953480D01*
X371467Y2947802D01*
X503103D01*
Y3006110D01*
D02*
G37*
G36*
X165100D02*
X137800D01*
X119422Y3003690D01*
X102296Y2996596D01*
X87590Y2985312D01*
X76306Y2970606D01*
X69212Y2953480D01*
X68465Y2947802D01*
X165100D01*
Y3006110D01*
D02*
G37*
G36*
Y2922402D02*
X68465D01*
X69212Y2916724D01*
X76306Y2899598D01*
X87590Y2884892D01*
X102296Y2873608D01*
X119422Y2866514D01*
X137800Y2864095D01*
X165100D01*
Y2922402D01*
D02*
G37*
G36*
X5592045Y2846020D02*
X5590540D01*
Y2750820D01*
X5685740D01*
Y2752325D01*
X5678387Y2779768D01*
X5664181Y2804372D01*
X5644092Y2824461D01*
X5619488Y2838667D01*
X5592045Y2846020D01*
D02*
G37*
G36*
X5565140D02*
X5563635D01*
X5536192Y2838667D01*
X5511588Y2824461D01*
X5491499Y2804372D01*
X5477293Y2779768D01*
X5469940Y2752325D01*
Y2750820D01*
X5565140D01*
Y2846020D01*
D02*
G37*
G36*
X5336676Y2835620D02*
X5311004D01*
X5286206Y2828975D01*
X5263974Y2816139D01*
X5245821Y2797986D01*
X5232985Y2775754D01*
X5226340Y2750956D01*
Y2725284D01*
X5232985Y2700486D01*
X5245821Y2678254D01*
X5263974Y2660101D01*
X5286206Y2647265D01*
X5311004Y2640620D01*
X5336676D01*
X5361474Y2647265D01*
X5383706Y2660101D01*
X5401859Y2678254D01*
X5414695Y2700486D01*
X5421340Y2725284D01*
Y2750956D01*
X5414695Y2775754D01*
X5401859Y2797986D01*
X5383706Y2816139D01*
X5361474Y2828975D01*
X5336676Y2835620D01*
D02*
G37*
G36*
X4828676D02*
X4803004D01*
X4778206Y2828975D01*
X4755974Y2816139D01*
X4737821Y2797986D01*
X4724985Y2775754D01*
X4718340Y2750956D01*
Y2725284D01*
X4724985Y2700486D01*
X4737821Y2678254D01*
X4755974Y2660101D01*
X4778206Y2647265D01*
X4803004Y2640620D01*
X4828676D01*
X4853474Y2647265D01*
X4875706Y2660101D01*
X4893859Y2678254D01*
X4906695Y2700486D01*
X4913340Y2725284D01*
Y2750956D01*
X4906695Y2775754D01*
X4893859Y2797986D01*
X4875706Y2816139D01*
X4853474Y2828975D01*
X4828676Y2835620D01*
D02*
G37*
G36*
X5685740Y2725420D02*
X5590540D01*
Y2630220D01*
X5592045D01*
X5619488Y2637573D01*
X5644092Y2651779D01*
X5664181Y2671868D01*
X5678387Y2696472D01*
X5685740Y2723915D01*
Y2725420D01*
D02*
G37*
G36*
X5565140D02*
X5469940D01*
Y2723915D01*
X5477293Y2696472D01*
X5491499Y2671868D01*
X5511588Y2651779D01*
X5536192Y2637573D01*
X5563635Y2630220D01*
X5565140D01*
Y2725420D01*
D02*
G37*
G36*
X660138Y2922402D02*
X371467D01*
X372215Y2916724D01*
X379309Y2899598D01*
X390593Y2884892D01*
X405299Y2873608D01*
X422425Y2866514D01*
X440803Y2864095D01*
X442797D01*
X445906Y2849634D01*
X445911Y2849095D01*
X429715Y2832899D01*
X421390Y2812801D01*
X478800D01*
Y2787401D01*
X421390D01*
X429715Y2767303D01*
X446002Y2751016D01*
X446257Y2749735D01*
X438532Y2742009D01*
X432776Y2728114D01*
X430813Y2727724D01*
X423371Y2722751D01*
X423370Y2722750D01*
X367319Y2666699D01*
X362346Y2659257D01*
X360599Y2650478D01*
Y2339340D01*
X362346Y2330561D01*
X367319Y2323119D01*
X416559Y2273878D01*
X424002Y2268905D01*
X432781Y2267159D01*
X436889D01*
X438532Y2263193D01*
X446257Y2255467D01*
X446002Y2254186D01*
X429715Y2237899D01*
X421390Y2217801D01*
X478800D01*
Y2192401D01*
X421390D01*
X429715Y2172303D01*
X445911Y2156107D01*
X445906Y2155568D01*
X442797Y2141107D01*
X440803D01*
X422425Y2138688D01*
X405299Y2131594D01*
X390593Y2120310D01*
X379309Y2105604D01*
X372215Y2088478D01*
X371467Y2082800D01*
X660138D01*
X659391Y2088478D01*
X652297Y2105604D01*
X641013Y2120310D01*
X626307Y2131594D01*
X624842Y2132201D01*
X625195Y2143307D01*
X626572Y2147720D01*
X646599Y2156016D01*
X662886Y2172303D01*
X671211Y2192401D01*
X613801D01*
Y2217801D01*
X671211D01*
X662886Y2237899D01*
X646599Y2254186D01*
X646344Y2255467D01*
X654070Y2263193D01*
X661301Y2280651D01*
Y2299548D01*
X654070Y2317006D01*
X648277Y2322800D01*
X642111Y2332599D01*
X648277Y2342398D01*
X654070Y2348191D01*
X661301Y2365650D01*
Y2384546D01*
X654070Y2402005D01*
X648274Y2407801D01*
X642112Y2417600D01*
X648274Y2427399D01*
X654070Y2433195D01*
X661301Y2450653D01*
Y2469550D01*
X654070Y2487008D01*
X648277Y2492802D01*
X642111Y2502601D01*
X648277Y2512400D01*
X654070Y2518194D01*
X661301Y2535652D01*
Y2554549D01*
X654070Y2572007D01*
X648277Y2577800D01*
X642111Y2587600D01*
X648277Y2597399D01*
X654070Y2603192D01*
X661301Y2620651D01*
Y2639547D01*
X654070Y2657006D01*
X648274Y2662801D01*
X642112Y2672601D01*
X648274Y2682400D01*
X654070Y2688196D01*
X661301Y2705654D01*
Y2724551D01*
X654070Y2742009D01*
X656225Y2760642D01*
X662886Y2767303D01*
X671211Y2787401D01*
X613801D01*
Y2812801D01*
X671211D01*
X662886Y2832899D01*
X646599Y2849186D01*
X626572Y2857482D01*
X625195Y2861895D01*
X624842Y2873001D01*
X626307Y2873608D01*
X641013Y2884892D01*
X652297Y2899598D01*
X659391Y2916724D01*
X660138Y2922402D01*
D02*
G37*
G36*
X165100Y2141107D02*
X137800D01*
X119422Y2138688D01*
X102296Y2131594D01*
X87590Y2120310D01*
X76306Y2105604D01*
X69212Y2088478D01*
X68465Y2082800D01*
X165100D01*
Y2141107D01*
D02*
G37*
G36*
X660138Y2057400D02*
X528503D01*
Y1999093D01*
X590803D01*
X609181Y2001512D01*
X626307Y2008606D01*
X641013Y2019890D01*
X652297Y2034596D01*
X659391Y2051722D01*
X660138Y2057400D01*
D02*
G37*
G36*
X503103D02*
X371467D01*
X372215Y2051722D01*
X379309Y2034596D01*
X390593Y2019890D01*
X405299Y2008606D01*
X422425Y2001512D01*
X440803Y1999093D01*
X503103D01*
Y2057400D01*
D02*
G37*
G36*
X165100D02*
X68465D01*
X69212Y2051722D01*
X76306Y2034596D01*
X87590Y2019890D01*
X102296Y2008606D01*
X119422Y2001512D01*
X137800Y1999093D01*
X165100D01*
Y2057400D01*
D02*
G37*
G36*
X5341620Y1847432D02*
Y1793240D01*
X5395812D01*
X5392193Y1806748D01*
X5383254Y1822232D01*
X5370612Y1834874D01*
X5355128Y1843813D01*
X5341620Y1847432D01*
D02*
G37*
G36*
X5316220D02*
X5302712Y1843813D01*
X5287228Y1834874D01*
X5274586Y1822232D01*
X5265647Y1806748D01*
X5262028Y1793240D01*
X5316220D01*
Y1847432D01*
D02*
G37*
G36*
X5395812Y1767840D02*
X5341620D01*
Y1713648D01*
X5355128Y1717267D01*
X5370612Y1726206D01*
X5383254Y1738848D01*
X5392193Y1754332D01*
X5395812Y1767840D01*
D02*
G37*
G36*
X5316220D02*
X5262028D01*
X5265647Y1754332D01*
X5274586Y1738848D01*
X5287228Y1726206D01*
X5302712Y1717267D01*
X5316220Y1713648D01*
Y1767840D01*
D02*
G37*
G36*
X1452880Y1744980D02*
X1398688D01*
X1402307Y1731472D01*
X1411246Y1715988D01*
X1423888Y1703346D01*
X1439372Y1694407D01*
X1452880Y1690788D01*
Y1744980D01*
D02*
G37*
G36*
X5330197Y1650080D02*
X5307323D01*
X5286189Y1641326D01*
X5270014Y1625151D01*
X5261260Y1604017D01*
Y1581143D01*
X5270014Y1560009D01*
X5286189Y1543834D01*
X5307323Y1535080D01*
X5330197D01*
X5351331Y1543834D01*
X5367506Y1560009D01*
X5376260Y1581143D01*
Y1604017D01*
X5367506Y1625151D01*
X5351331Y1641326D01*
X5330197Y1650080D01*
D02*
G37*
G36*
X1440180Y1466432D02*
Y1412240D01*
X1494372D01*
X1490753Y1425748D01*
X1481814Y1441232D01*
X1469172Y1453874D01*
X1453688Y1462813D01*
X1440180Y1466432D01*
D02*
G37*
G36*
X1414780D02*
X1401272Y1462813D01*
X1385788Y1453874D01*
X1373146Y1441232D01*
X1364207Y1425748D01*
X1360588Y1412240D01*
X1414780D01*
Y1466432D01*
D02*
G37*
G36*
X618497Y1581500D02*
X595623D01*
X574489Y1572746D01*
X558314Y1556571D01*
X549560Y1535437D01*
Y1512563D01*
X558314Y1491429D01*
X574489Y1475254D01*
X595623Y1466500D01*
X618497D01*
X628128Y1470489D01*
X697519Y1401099D01*
X704961Y1396126D01*
X713740Y1394379D01*
X713741Y1394379D01*
X1115718D01*
X1241079Y1269019D01*
X1248521Y1264046D01*
X1257300Y1262299D01*
X1392525D01*
X1396514Y1252669D01*
X1412689Y1236494D01*
X1433823Y1227740D01*
X1456697D01*
X1477831Y1236494D01*
X1494006Y1252669D01*
X1502760Y1273803D01*
Y1296677D01*
X1494006Y1317811D01*
X1477944Y1333874D01*
X1477825Y1334027D01*
X1475255Y1351289D01*
X1481814Y1357848D01*
X1490753Y1373332D01*
X1494372Y1386840D01*
X1360588D01*
X1364207Y1373332D01*
X1373146Y1357848D01*
X1385788Y1345206D01*
X1396507Y1339018D01*
X1401024Y1322322D01*
X1396514Y1317811D01*
X1392525Y1308181D01*
X1266802D01*
X1141441Y1433541D01*
X1133999Y1438514D01*
X1125220Y1440261D01*
X723242D01*
X660571Y1502932D01*
X664560Y1512563D01*
Y1535437D01*
X655806Y1556571D01*
X639631Y1572746D01*
X618497Y1581500D01*
D02*
G37*
G36*
X675640Y1080352D02*
Y1026160D01*
X729832D01*
X726213Y1039668D01*
X717274Y1055152D01*
X704632Y1067794D01*
X689148Y1076733D01*
X675640Y1080352D01*
D02*
G37*
G36*
X650240D02*
X636732Y1076733D01*
X621248Y1067794D01*
X608606Y1055152D01*
X599667Y1039668D01*
X596048Y1026160D01*
X650240D01*
Y1080352D01*
D02*
G37*
G36*
X729832Y1000760D02*
X675640D01*
Y946568D01*
X689148Y950187D01*
X704632Y959126D01*
X717274Y971768D01*
X726213Y987252D01*
X729832Y1000760D01*
D02*
G37*
G36*
X650240D02*
X596048D01*
X599667Y987252D01*
X608606Y971768D01*
X621248Y959126D01*
X636732Y950187D01*
X650240Y946568D01*
Y1000760D01*
D02*
G37*
G36*
X658840Y851880D02*
X548639D01*
Y741680D01*
X658840D01*
Y851880D01*
D02*
G37*
G36*
X523239D02*
X413040D01*
Y741680D01*
X523239D01*
Y851880D01*
D02*
G37*
G36*
X5970277Y771240D02*
X5947403D01*
X5926269Y762486D01*
X5910094Y746311D01*
X5901340Y725177D01*
Y702303D01*
X5910094Y681169D01*
X5926269Y664994D01*
X5947403Y656240D01*
X5970277D01*
X5991411Y664994D01*
X6007586Y681169D01*
X6016340Y702303D01*
Y725177D01*
X6007586Y746311D01*
X5991411Y762486D01*
X5970277Y771240D01*
D02*
G37*
G36*
X523239Y716280D02*
X413040D01*
Y606080D01*
X523239D01*
Y716280D01*
D02*
G37*
G36*
X765817Y883000D02*
X742943D01*
X721809Y874246D01*
X705634Y858071D01*
X696880Y836937D01*
Y814063D01*
X705634Y792929D01*
X721809Y776754D01*
X731439Y772765D01*
Y662282D01*
X672852Y603695D01*
X671850Y604210D01*
Y604210D01*
X658840Y610896D01*
X658840Y619085D01*
Y716280D01*
X548639D01*
Y606080D01*
X644753D01*
X654024Y606080D01*
X661225Y592068D01*
X614738Y545581D01*
X609766Y538139D01*
X608019Y529360D01*
Y450596D01*
X609766Y441817D01*
X614738Y434375D01*
X681315Y367799D01*
X688757Y362826D01*
X697536Y361080D01*
X957758D01*
X967659Y351178D01*
Y149860D01*
X969406Y141081D01*
X974379Y133639D01*
X1003129Y104888D01*
X999140Y95257D01*
Y72383D01*
X1007894Y51249D01*
X1024069Y35074D01*
X1045203Y26320D01*
X1068077D01*
X1089211Y35074D01*
X1105386Y51249D01*
X1114140Y72383D01*
Y95257D01*
X1105386Y116391D01*
X1089211Y132566D01*
X1068077Y141320D01*
X1045203D01*
X1035572Y137331D01*
X1013541Y159362D01*
Y224738D01*
X1027399Y230479D01*
X1068087Y189790D01*
X1075529Y184818D01*
X1084308Y183071D01*
X1107773D01*
X1111762Y173441D01*
X1127937Y157266D01*
X1148222Y148863D01*
X1149226Y148207D01*
X1156680Y133512D01*
X1153387Y127808D01*
X1149768Y114300D01*
X1283552D01*
X1279933Y127808D01*
X1270994Y143292D01*
X1258352Y155934D01*
X1242868Y164873D01*
X1225599Y169500D01*
X1223858D01*
X1213835Y184500D01*
X1218008Y194574D01*
Y217449D01*
X1209254Y238583D01*
X1193079Y254758D01*
X1171946Y263512D01*
X1149071D01*
X1127937Y254758D01*
X1111762Y238583D01*
X1107773Y228952D01*
X1093811D01*
X1049101Y273662D01*
Y380999D01*
X1049101Y381000D01*
X1047354Y389779D01*
X1042381Y397221D01*
X1009361Y430241D01*
X1001919Y435214D01*
X993140Y436961D01*
X768962D01*
X749471Y456452D01*
X753460Y466083D01*
Y488957D01*
X744706Y510091D01*
X728531Y526266D01*
X707397Y535020D01*
X690276D01*
X683738Y549695D01*
X770601Y636559D01*
X775574Y644001D01*
X777321Y652780D01*
Y772765D01*
X786951Y776754D01*
X803126Y792929D01*
X811880Y814063D01*
Y836937D01*
X803126Y858071D01*
X786951Y874246D01*
X765817Y883000D01*
D02*
G37*
G36*
X3814045Y556022D02*
X3812540D01*
Y460822D01*
X3907740D01*
Y462327D01*
X3900387Y489770D01*
X3886181Y514374D01*
X3866092Y534463D01*
X3841488Y548669D01*
X3814045Y556022D01*
D02*
G37*
G36*
X3787140D02*
X3785635D01*
X3758192Y548669D01*
X3733588Y534463D01*
X3713499Y514374D01*
X3699293Y489770D01*
X3691940Y462327D01*
Y460822D01*
X3787140D01*
Y556022D01*
D02*
G37*
G36*
X587720Y501360D02*
X477519D01*
Y391160D01*
X587720D01*
Y501360D01*
D02*
G37*
G36*
X452119D02*
X341920D01*
Y391160D01*
X452119D01*
Y501360D01*
D02*
G37*
G36*
X6017260Y432652D02*
Y378460D01*
X6071452D01*
X6067833Y391968D01*
X6058894Y407452D01*
X6046252Y420094D01*
X6030768Y429033D01*
X6017260Y432652D01*
D02*
G37*
G36*
X5991860D02*
X5978352Y429033D01*
X5962868Y420094D01*
X5950226Y407452D01*
X5941287Y391968D01*
X5937668Y378460D01*
X5991860D01*
Y432652D01*
D02*
G37*
G36*
X4574676Y545622D02*
X4549004D01*
X4524206Y538977D01*
X4501974Y526141D01*
X4483821Y507988D01*
X4470985Y485756D01*
X4464340Y460958D01*
Y435286D01*
X4470985Y410488D01*
X4483821Y388256D01*
X4501974Y370103D01*
X4524206Y357267D01*
X4549004Y350622D01*
X4574676D01*
X4599474Y357267D01*
X4621706Y370103D01*
X4639859Y388256D01*
X4652695Y410488D01*
X4659340Y435286D01*
Y460958D01*
X4652695Y485756D01*
X4639859Y507988D01*
X4621706Y526141D01*
X4599474Y538977D01*
X4574676Y545622D01*
D02*
G37*
G36*
X4320676D02*
X4295004D01*
X4270206Y538977D01*
X4247974Y526141D01*
X4229821Y507988D01*
X4216985Y485756D01*
X4210340Y460958D01*
Y435286D01*
X4216985Y410488D01*
X4229821Y388256D01*
X4247974Y370103D01*
X4270206Y357267D01*
X4295004Y350622D01*
X4320676D01*
X4345474Y357267D01*
X4367706Y370103D01*
X4385859Y388256D01*
X4398695Y410488D01*
X4405340Y435286D01*
Y460958D01*
X4398695Y485756D01*
X4385859Y507988D01*
X4367706Y526141D01*
X4345474Y538977D01*
X4320676Y545622D01*
D02*
G37*
G36*
X3907740Y435422D02*
X3812540D01*
Y340222D01*
X3814045D01*
X3841488Y347575D01*
X3866092Y361781D01*
X3886181Y381870D01*
X3900387Y406474D01*
X3907740Y433917D01*
Y435422D01*
D02*
G37*
G36*
X3787140D02*
X3691940D01*
Y433917D01*
X3699293Y406474D01*
X3713499Y381870D01*
X3733588Y361781D01*
X3758192Y347575D01*
X3785635Y340222D01*
X3787140D01*
Y435422D01*
D02*
G37*
G36*
X6071452Y353060D02*
X6017260D01*
Y298868D01*
X6030768Y302487D01*
X6046252Y311426D01*
X6058894Y324068D01*
X6067833Y339552D01*
X6071452Y353060D01*
D02*
G37*
G36*
X5991860D02*
X5937668D01*
X5941287Y339552D01*
X5950226Y324068D01*
X5962868Y311426D01*
X5978352Y302487D01*
X5991860Y298868D01*
Y353060D01*
D02*
G37*
G36*
X587720Y365760D02*
X477519D01*
Y255560D01*
X587720D01*
Y365760D01*
D02*
G37*
G36*
X452119D02*
X341920D01*
Y255560D01*
X452119D01*
Y365760D01*
D02*
G37*
G36*
X2583180Y243353D02*
Y189160D01*
X2637372D01*
X2633753Y202669D01*
X2624814Y218152D01*
X2612172Y230794D01*
X2596688Y239733D01*
X2583180Y243353D01*
D02*
G37*
G36*
X394977Y202280D02*
X372103D01*
X350969Y193526D01*
X334794Y177351D01*
X326040Y156217D01*
Y133343D01*
X334794Y112209D01*
X350969Y96034D01*
X372103Y87280D01*
X394977D01*
X416111Y96034D01*
X432286Y112209D01*
X441040Y133343D01*
Y156217D01*
X432286Y177351D01*
X416111Y193526D01*
X394977Y202280D01*
D02*
G37*
G36*
X1283552Y88900D02*
X1229360D01*
Y34708D01*
X1242868Y38327D01*
X1258352Y47266D01*
X1270994Y59908D01*
X1279933Y75392D01*
X1283552Y88900D01*
D02*
G37*
G36*
X1203960D02*
X1149768D01*
X1153387Y75392D01*
X1162326Y59908D01*
X1174968Y47266D01*
X1190452Y38327D01*
X1203960Y34708D01*
Y88900D01*
D02*
G37*
%LPD*%
G36*
X5128179Y4387189D02*
Y4187802D01*
X4989458Y4049081D01*
X4960642D01*
X4958798Y4051600D01*
X4956521Y4068099D01*
X5050193Y4161770D01*
X5050194Y4161771D01*
X5055167Y4169213D01*
X5056913Y4177992D01*
Y4371257D01*
X5068076Y4382420D01*
X5089817D01*
X5110951Y4391174D01*
X5113180Y4393402D01*
X5128179Y4387189D01*
D02*
G37*
G36*
X1027507Y3615452D02*
X1029845Y3612064D01*
X1031131Y3606114D01*
X861808Y3436791D01*
X852177Y3440780D01*
X829303D01*
X808169Y3432026D01*
X791994Y3415851D01*
X790851Y3413093D01*
X775851Y3416077D01*
Y3456128D01*
X939142Y3619419D01*
X1013331D01*
X1027507Y3615452D01*
D02*
G37*
G36*
X4257438Y4053120D02*
X4258359Y4051592D01*
X4260412Y4038855D01*
X4238279Y4016721D01*
X4233306Y4009279D01*
X4231559Y4000500D01*
Y3342576D01*
X4223678Y3336450D01*
X4208861Y3343117D01*
Y4011318D01*
X4251459Y4053916D01*
X4257438Y4053120D01*
D02*
G37*
G36*
X2250507Y3521710D02*
X2193579Y3464781D01*
X2188606Y3457339D01*
X2186859Y3448560D01*
Y3253740D01*
Y2960982D01*
X2118200Y2892323D01*
X2103201Y2898537D01*
Y3132384D01*
X2101454Y3141163D01*
X2096481Y3148605D01*
X2085727Y3159360D01*
Y3188049D01*
X2101066Y3203389D01*
X2109820Y3224523D01*
Y3247397D01*
X2101066Y3268531D01*
X2084891Y3284706D01*
X2063757Y3293460D01*
X2040883D01*
X2019749Y3284706D01*
X2003574Y3268531D01*
X1994820Y3247397D01*
Y3224523D01*
X2003574Y3203389D01*
X2019749Y3187214D01*
X2039846Y3178890D01*
Y3162390D01*
X2024846Y3156177D01*
X1947145Y3233878D01*
X1939703Y3238851D01*
X1930924Y3240597D01*
X916416D01*
X907637Y3238851D01*
X900195Y3233878D01*
X818628Y3152311D01*
X808997Y3156300D01*
X786980D01*
X785397Y3157075D01*
X775178Y3168003D01*
X775851Y3171389D01*
Y3350483D01*
X790851Y3353467D01*
X791994Y3350709D01*
X808169Y3334534D01*
X829303Y3325780D01*
X852177D01*
X873311Y3334534D01*
X889486Y3350709D01*
X898240Y3371843D01*
Y3394717D01*
X894251Y3404348D01*
X1058522Y3568619D01*
X2203598D01*
X2250507Y3521710D01*
D02*
G37*
G36*
X3855549Y3378948D02*
X3851560Y3369317D01*
Y3346443D01*
X3860314Y3325309D01*
X3862542Y3323080D01*
X3856329Y3308081D01*
X3620504D01*
X3590678Y3337906D01*
X3583235Y3342879D01*
X3574456Y3344626D01*
X3284250D01*
X3280261Y3354256D01*
X3266318Y3368200D01*
X3268539Y3378755D01*
X3270916Y3383199D01*
X3378200D01*
X3386979Y3384946D01*
X3394421Y3389919D01*
X3534121Y3529618D01*
X3534121Y3529619D01*
X3539094Y3537061D01*
X3540841Y3545840D01*
Y3594705D01*
X3550471Y3598694D01*
X3566646Y3614869D01*
X3570067Y3623126D01*
X3611371D01*
X3855549Y3378948D01*
D02*
G37*
G36*
X3174015Y3313399D02*
Y3310248D01*
X3182769Y3289114D01*
X3198944Y3272939D01*
X3220077Y3264185D01*
X3242952D01*
X3264086Y3272939D01*
X3280261Y3289114D01*
X3284250Y3298744D01*
X3564954D01*
X3594780Y3268919D01*
X3602222Y3263946D01*
X3611001Y3262199D01*
X3926911D01*
X3933125Y3247199D01*
X3895698Y3209772D01*
X3830722D01*
X3821943Y3208026D01*
X3814500Y3203053D01*
X3793600Y3182153D01*
X3778600Y3188366D01*
Y3191517D01*
X3769846Y3212651D01*
X3753671Y3228826D01*
X3732537Y3237580D01*
X3709663D01*
X3688529Y3228826D01*
X3673105Y3213403D01*
X3374963D01*
X3371066Y3222811D01*
X3354891Y3238986D01*
X3333757Y3247740D01*
X3310883D01*
X3289749Y3238986D01*
X3273574Y3222811D01*
X3264820Y3201677D01*
Y3178803D01*
X3273574Y3157669D01*
X3289749Y3141494D01*
X3310883Y3132740D01*
X3333757D01*
X3354891Y3141494D01*
X3370315Y3156917D01*
X3668457D01*
X3672354Y3147509D01*
X3688529Y3131334D01*
X3709663Y3122580D01*
X3712814D01*
X3719027Y3107580D01*
X3641747Y3030301D01*
X3370592D01*
X3363446Y3047551D01*
X3347271Y3063726D01*
X3326137Y3072480D01*
X3303263D01*
X3282129Y3063726D01*
X3265954Y3047551D01*
X3257200Y3026417D01*
Y3003543D01*
X3262890Y2989807D01*
X3251409Y2978326D01*
X3244857Y2981040D01*
X3221983D01*
X3200849Y2972286D01*
X3184674Y2956111D01*
X3175920Y2934977D01*
Y2912103D01*
X3184674Y2890969D01*
X3200849Y2874794D01*
X3221983Y2866040D01*
X3244857D01*
X3252360Y2869148D01*
X3267360Y2868922D01*
X3276114Y2847789D01*
X3292289Y2831614D01*
X3301919Y2827625D01*
Y2805030D01*
X3286920Y2798817D01*
X3276152Y2809584D01*
X3255018Y2818338D01*
X3232143D01*
X3211009Y2809584D01*
X3194834Y2793409D01*
X3186080Y2772276D01*
Y2749401D01*
X3194834Y2728267D01*
X3202874Y2720228D01*
X3200530Y2708444D01*
X3184355Y2692270D01*
X3175601Y2671136D01*
Y2648261D01*
X3184355Y2627127D01*
X3200530Y2610952D01*
X3210161Y2606963D01*
Y2415859D01*
X3211907Y2407080D01*
X3216880Y2399638D01*
X3479738Y2136779D01*
X3479739Y2136779D01*
X3487181Y2131806D01*
X3495960Y2130059D01*
X3495962Y2130059D01*
X3570322D01*
X3575341Y2121618D01*
X3575834Y2120429D01*
X3576363Y2119900D01*
X3577779Y2117517D01*
X3571849Y2103201D01*
X3176749D01*
X3167970Y2101454D01*
X3160528Y2096481D01*
X3160527Y2096481D01*
X3103747Y2039701D01*
X2222500D01*
X2213721Y2037954D01*
X2206279Y2032981D01*
X2206278Y2032981D01*
X2178339Y2005041D01*
X2173366Y1997599D01*
X2171619Y1988820D01*
Y1928836D01*
X2156620Y1922623D01*
X2103201Y1976042D01*
Y2340214D01*
X2118200Y2346427D01*
X2174529Y2290099D01*
X2181971Y2285126D01*
X2190750Y2283379D01*
X2245965D01*
X2249954Y2273749D01*
X2266129Y2257574D01*
X2287263Y2248820D01*
X2310137D01*
X2331271Y2257574D01*
X2347446Y2273749D01*
X2356200Y2294883D01*
Y2317757D01*
X2355422Y2319635D01*
X2362415Y2330099D01*
X2366345Y2332463D01*
X2386618Y2340861D01*
X2402793Y2357036D01*
X2411547Y2378169D01*
Y2401044D01*
X2402793Y2422178D01*
X2386618Y2438353D01*
X2365484Y2447107D01*
X2342609D01*
X2321476Y2438353D01*
X2305301Y2422178D01*
X2302453Y2415302D01*
X2286646Y2416338D01*
X2286643Y2416348D01*
X2277704Y2431832D01*
X2265062Y2444474D01*
X2249578Y2453413D01*
X2236070Y2457032D01*
Y2390140D01*
X2210670D01*
Y2457032D01*
X2197161Y2453413D01*
X2181678Y2444474D01*
X2169036Y2431832D01*
X2168626Y2431121D01*
X2149335Y2427708D01*
X2146381Y2430181D01*
Y2748987D01*
X2161380Y2756538D01*
X2170892Y2751047D01*
X2184400Y2747428D01*
Y2814320D01*
X2197100D01*
Y2827020D01*
X2263992D01*
X2260373Y2840528D01*
X2251434Y2856012D01*
X2238792Y2868654D01*
X2223308Y2877593D01*
X2206039Y2882220D01*
X2194196D01*
X2187857Y2897094D01*
X2226021Y2935258D01*
X2226021Y2935259D01*
X2230994Y2942701D01*
X2232741Y2951480D01*
X2232741Y2951481D01*
Y3230799D01*
X2324709D01*
X2330922Y3215800D01*
X2328694Y3213571D01*
X2319940Y3192437D01*
Y3169563D01*
X2328694Y3148429D01*
X2336303Y3140820D01*
X2330442Y3125820D01*
X2309309Y3117066D01*
X2293134Y3100891D01*
X2284380Y3079757D01*
Y3056883D01*
X2293134Y3035749D01*
X2309309Y3019574D01*
X2330443Y3010820D01*
X2353317D01*
X2374451Y3019574D01*
X2390626Y3035749D01*
X2399380Y3056883D01*
Y3068239D01*
X2572236D01*
X2575626Y3055054D01*
X2575682Y3053240D01*
X2559834Y3037391D01*
X2551080Y3016257D01*
Y2993383D01*
X2559834Y2972249D01*
X2576009Y2956074D01*
X2597143Y2947320D01*
X2620017D01*
X2641151Y2956074D01*
X2657326Y2972249D01*
X2666080Y2993383D01*
Y3016257D01*
X2657326Y3037391D01*
X2641478Y3053240D01*
X2641534Y3055054D01*
X2644924Y3068239D01*
X2804383D01*
X2813162Y3069986D01*
X2820604Y3074959D01*
X2855701Y3110055D01*
X2911613D01*
X2915602Y3100424D01*
X2931777Y3084249D01*
X2952911Y3075495D01*
X2975786D01*
X2996919Y3084249D01*
X3013094Y3100424D01*
X3016524Y3108705D01*
X3028129Y3111014D01*
X3049263Y3102260D01*
X3072137D01*
X3093271Y3111014D01*
X3109446Y3127189D01*
X3118200Y3148323D01*
Y3171197D01*
X3109446Y3192331D01*
X3093271Y3208506D01*
X3072137Y3217260D01*
X3069520D01*
X3068043Y3232260D01*
X3069479Y3232546D01*
X3076921Y3237519D01*
X3159015Y3319612D01*
X3174015Y3313399D01*
D02*
G37*
G36*
X3598642Y2969420D02*
X3437043Y2807821D01*
X3427412Y2811810D01*
X3404537D01*
X3383403Y2803056D01*
X3367228Y2786881D01*
X3362800Y2776191D01*
X3347801Y2779175D01*
Y2827625D01*
X3357431Y2831614D01*
X3373606Y2847789D01*
X3382360Y2868923D01*
Y2891797D01*
X3373606Y2912931D01*
X3357431Y2929106D01*
X3336297Y2937860D01*
X3313423D01*
X3305920Y2934752D01*
X3290920Y2934978D01*
X3285230Y2948713D01*
X3296711Y2960194D01*
X3303263Y2957480D01*
X3326137D01*
X3347271Y2966234D01*
X3363446Y2982409D01*
X3364279Y2984419D01*
X3592428D01*
X3598642Y2969420D01*
D02*
G37*
G36*
X3681133Y2923940D02*
X3537239Y2780045D01*
X3532266Y2772603D01*
X3530519Y2763824D01*
Y2592195D01*
X3512964Y2574640D01*
X3491223D01*
X3470089Y2565886D01*
X3453914Y2549711D01*
X3445160Y2528577D01*
Y2505703D01*
X3453914Y2484569D01*
X3470089Y2468394D01*
X3477155Y2465467D01*
Y2449231D01*
X3470576Y2446506D01*
X3454401Y2430331D01*
X3445647Y2409197D01*
Y2406046D01*
X3430647Y2399833D01*
X3380580Y2449900D01*
Y2690497D01*
X3395581Y2700520D01*
X3404537Y2696810D01*
X3427412D01*
X3448546Y2705564D01*
X3464721Y2721739D01*
X3473475Y2742872D01*
Y2765747D01*
X3469486Y2775378D01*
X3633047Y2938940D01*
X3674919D01*
X3681133Y2923940D01*
D02*
G37*
G36*
X3888076Y2980465D02*
X3887120Y2978157D01*
Y2955283D01*
X3895874Y2934149D01*
X3912049Y2917974D01*
X3915397Y2916587D01*
Y2494665D01*
X3909509Y2492226D01*
X3893334Y2476051D01*
X3884580Y2454917D01*
Y2432043D01*
X3893334Y2410909D01*
X3909509Y2394734D01*
X3914852Y2392520D01*
X3911868Y2377521D01*
X3774919D01*
X3768706Y2392520D01*
X3775434Y2399248D01*
X3784373Y2414732D01*
X3787992Y2428240D01*
X3654208D01*
X3657827Y2414732D01*
X3666766Y2399248D01*
X3679408Y2386606D01*
X3694892Y2377667D01*
X3712161Y2373040D01*
X3720396D01*
X3726609Y2358040D01*
X3716530Y2347961D01*
X3555878D01*
X3549665Y2362960D01*
X3551893Y2365189D01*
X3560647Y2386323D01*
Y2408064D01*
X3638261Y2485678D01*
X3638261Y2485679D01*
X3643234Y2493121D01*
X3644981Y2501900D01*
X3644981Y2501901D01*
Y2758583D01*
X3688482Y2802085D01*
X3702340Y2796345D01*
Y2640620D01*
X3897340D01*
Y2835620D01*
X3741615D01*
X3735875Y2849478D01*
X3875360Y2988962D01*
X3888076Y2980465D01*
D02*
G37*
G36*
X3448161Y2254646D02*
X3456940Y2252899D01*
X3902049D01*
X3908262Y2237900D01*
X3906034Y2235671D01*
X3897280Y2214537D01*
Y2191663D01*
X3901269Y2182032D01*
X3822438Y2103201D01*
X3677311D01*
X3671098Y2118200D01*
X3673326Y2120429D01*
X3682080Y2141563D01*
Y2164437D01*
X3673326Y2185571D01*
X3657151Y2201746D01*
X3636017Y2210500D01*
X3613143D01*
X3592009Y2201746D01*
X3575834Y2185571D01*
X3571845Y2175941D01*
X3505462D01*
X3438024Y2243379D01*
X3447586Y2255030D01*
X3448161Y2254646D01*
D02*
G37*
G36*
X1456683Y2071020D02*
X1479557D01*
X1489188Y2075009D01*
X1742359Y1821838D01*
Y1778322D01*
X1727360Y1772108D01*
X1436199Y2063268D01*
X1444696Y2075985D01*
X1456683Y2071020D01*
D02*
G37*
G36*
X1930849Y2882414D02*
X1951983Y2873660D01*
X1974857D01*
X1995991Y2882414D01*
X1999140Y2885562D01*
X2014139Y2879349D01*
Y1943100D01*
X2015886Y1934321D01*
X2020859Y1926879D01*
X2334809Y1612928D01*
X2342251Y1607956D01*
X2351030Y1606209D01*
X2390139D01*
X2396352Y1591209D01*
X2387114Y1581971D01*
X2378360Y1560837D01*
Y1537963D01*
X2385011Y1521905D01*
X2374195Y1510149D01*
X2373637Y1510380D01*
X2350763D01*
X2329629Y1501626D01*
X2313454Y1485451D01*
X2304700Y1464317D01*
Y1441443D01*
X2309544Y1429748D01*
X2296828Y1421251D01*
X2281708Y1436371D01*
X2272546Y1442493D01*
X2261737Y1444643D01*
X2261736Y1444643D01*
X2203584D01*
X2203582Y1444643D01*
X2192774Y1442493D01*
X2183612Y1436371D01*
X2183611Y1436370D01*
X2142489Y1395248D01*
X2136367Y1386086D01*
X2134217Y1375278D01*
X2134217Y1375276D01*
Y1163238D01*
X2119121Y1148143D01*
X2031456D01*
X2014111Y1165488D01*
X2015840Y1169663D01*
Y1192537D01*
X2007086Y1213671D01*
X1990911Y1229846D01*
X1969777Y1238600D01*
X1946903D01*
X1925769Y1229846D01*
X1909594Y1213671D01*
X1900840Y1192537D01*
Y1169663D01*
X1909594Y1148529D01*
X1921833Y1136289D01*
X1925652Y1131807D01*
X1922581Y1117438D01*
X1914674Y1109531D01*
X1910685Y1099901D01*
X1873862D01*
X1839041Y1134722D01*
Y1615864D01*
X1854040Y1619883D01*
X1855746Y1616928D01*
X1868388Y1604286D01*
X1883872Y1595347D01*
X1897380Y1591728D01*
Y1658620D01*
Y1725512D01*
X1883872Y1721893D01*
X1868388Y1712954D01*
X1855746Y1700312D01*
X1854040Y1697357D01*
X1839041Y1701376D01*
Y1999984D01*
X1839041Y1999985D01*
X1837294Y2008764D01*
X1832321Y2016206D01*
X1832321Y2016207D01*
X1799402Y2049126D01*
X1807560Y2068823D01*
Y2091697D01*
X1798806Y2112831D01*
X1782631Y2129006D01*
X1761497Y2137760D01*
X1738623D01*
X1717489Y2129006D01*
X1701314Y2112831D01*
X1692560Y2091697D01*
Y2068823D01*
X1701314Y2047689D01*
X1717489Y2031514D01*
X1738623Y2022760D01*
X1760882D01*
X1793159Y1990483D01*
Y1856452D01*
X1791427Y1855129D01*
X1778160Y1850923D01*
X1572738Y2056345D01*
X1579276Y2071020D01*
X1596397D01*
X1617531Y2079774D01*
X1633706Y2095949D01*
X1642460Y2117083D01*
Y2139957D01*
X1633706Y2161091D01*
X1617531Y2177266D01*
X1596397Y2186020D01*
X1573523D01*
X1552389Y2177266D01*
X1536214Y2161091D01*
X1534658Y2157335D01*
X1518422D01*
X1516866Y2161091D01*
X1500691Y2177266D01*
X1479557Y2186020D01*
X1456683D01*
X1435549Y2177266D01*
X1419374Y2161091D01*
X1410620Y2139957D01*
Y2117083D01*
X1415585Y2105096D01*
X1402868Y2096600D01*
X1242141Y2257327D01*
Y2827625D01*
X1251771Y2831614D01*
X1267946Y2847789D01*
X1273866Y2862080D01*
X1347700D01*
X1356479Y2863827D01*
X1363922Y2868799D01*
X1388102Y2892979D01*
X1920283D01*
X1930849Y2882414D01*
D02*
G37*
G36*
X1799029Y1110270D02*
X1799879Y1108999D01*
X1848138Y1060739D01*
X1848139Y1060739D01*
X1855581Y1055766D01*
X1864360Y1054019D01*
X1864361Y1054019D01*
X1910685D01*
X1914674Y1044389D01*
X1930849Y1028214D01*
X1951983Y1019460D01*
X1974857D01*
X1995991Y1028214D01*
X2012166Y1044389D01*
X2016155Y1054019D01*
X2050438D01*
X2140909Y963548D01*
Y817507D01*
X2125909Y810154D01*
X2109477Y816960D01*
X2086603D01*
X2065469Y808206D01*
X2049294Y792031D01*
X2040540Y770897D01*
Y748023D01*
X2049294Y726889D01*
X2065469Y710714D01*
X2086603Y701960D01*
X2109477D01*
X2130611Y710714D01*
X2138274Y718376D01*
X2147628Y717455D01*
X2171169Y693915D01*
X2171637Y690718D01*
X2168233Y675637D01*
X2165904Y674081D01*
X2145464Y653641D01*
X2130284Y659929D01*
X2107409D01*
X2086275Y651175D01*
X2070100Y635000D01*
X2061346Y613866D01*
Y590991D01*
X2063327Y586209D01*
X2050611Y577712D01*
X2018917Y609405D01*
Y659258D01*
X2017171Y668037D01*
X2012198Y675479D01*
X1967580Y720098D01*
Y742957D01*
X1958826Y764091D01*
X1942651Y780266D01*
X1921517Y789020D01*
X1898643D01*
X1877509Y780266D01*
X1861334Y764091D01*
X1852580Y742957D01*
Y720083D01*
X1861334Y698949D01*
X1877509Y682774D01*
X1898643Y674020D01*
X1921517D01*
X1940789Y682003D01*
X1973036Y649756D01*
Y599903D01*
X1974783Y591124D01*
X1975166Y590550D01*
X1963515Y580988D01*
X1948121Y596382D01*
X1940679Y601354D01*
X1931900Y603101D01*
X1923413D01*
X1915646Y621851D01*
X1899471Y638026D01*
X1878337Y646780D01*
X1855463D01*
X1834329Y638026D01*
X1818154Y621851D01*
X1809400Y600717D01*
Y577843D01*
X1818154Y556709D01*
X1834329Y540534D01*
X1855463Y531780D01*
X1878337D01*
X1899471Y540534D01*
X1915646Y556709D01*
X1929076Y550541D01*
X2081577Y398040D01*
X2089020Y393067D01*
X2097799Y391321D01*
X2251049D01*
X2257262Y376321D01*
X2255034Y374092D01*
X2246280Y352958D01*
Y333678D01*
X2237833Y325540D01*
X2233003Y322941D01*
X2223777Y326762D01*
X2200903D01*
X2179769Y318009D01*
X2163594Y301834D01*
X2154840Y280700D01*
Y257825D01*
X2158829Y248194D01*
X2112015Y201380D01*
X1978842D01*
X1974066Y212911D01*
X1957891Y229086D01*
X1936757Y237840D01*
X1913883D01*
X1892749Y229086D01*
X1876574Y212911D01*
X1867820Y191777D01*
Y168903D01*
X1876574Y147769D01*
X1882592Y141751D01*
X1876379Y126751D01*
X1845673D01*
X1647731Y324693D01*
Y977056D01*
X1781521Y1110847D01*
X1781521Y1110847D01*
X1781749Y1111188D01*
X1781938Y1111263D01*
X1799029Y1110270D01*
D02*
G37*
G36*
X2887899Y1130541D02*
Y1028700D01*
X2889646Y1019921D01*
X2894619Y1012479D01*
X2904224Y1002873D01*
X2897927Y991565D01*
X2896204Y989680D01*
X2874003D01*
X2852869Y980926D01*
X2836694Y964751D01*
X2827940Y943617D01*
Y920743D01*
X2836694Y899609D01*
X2852869Y883434D01*
X2862499Y879445D01*
Y861301D01*
X2729916Y728717D01*
X2726901Y729425D01*
X2717921Y746943D01*
X2719420Y750563D01*
Y773437D01*
X2710666Y794571D01*
X2694491Y810746D01*
X2684861Y814735D01*
Y1024278D01*
X2755242Y1094659D01*
X2827020D01*
X2835799Y1096406D01*
X2843241Y1101379D01*
X2862061Y1120198D01*
X2867034Y1127641D01*
X2883443Y1133242D01*
X2887899Y1130541D01*
D02*
G37*
G36*
X2289706Y1300715D02*
X2290387Y1297292D01*
X2296509Y1288130D01*
X2324450Y1260189D01*
X2333612Y1254067D01*
X2344420Y1251917D01*
X2344422Y1251917D01*
X2706031D01*
X2719891Y1247714D01*
X2722041Y1236906D01*
X2728163Y1227743D01*
X2729856Y1226050D01*
X2723340Y1210317D01*
Y1187443D01*
X2732094Y1166309D01*
X2743234Y1155169D01*
X2738630Y1139126D01*
X2736961Y1138794D01*
X2729519Y1133821D01*
X2729518Y1133821D01*
X2645699Y1050001D01*
X2640726Y1042559D01*
X2638979Y1033780D01*
Y814735D01*
X2629349Y810746D01*
X2613174Y794571D01*
X2604420Y773437D01*
Y750563D01*
X2611471Y733541D01*
X2604463Y718541D01*
X2287706D01*
X2279879Y733541D01*
X2286350Y749163D01*
Y772038D01*
X2277596Y793171D01*
X2261421Y809346D01*
X2257093Y811139D01*
Y1294083D01*
X2265231Y1297454D01*
X2273668Y1305890D01*
X2289706Y1300715D01*
D02*
G37*
G36*
X1264839Y958238D02*
Y716115D01*
X1266586Y707336D01*
X1271559Y699893D01*
X1280731Y690720D01*
X1274518Y675721D01*
X1213462D01*
X1176101Y713082D01*
Y782925D01*
X1185731Y786914D01*
X1201906Y803089D01*
X1210660Y824223D01*
Y847097D01*
X1201906Y868231D01*
X1192639Y877499D01*
X1196031Y895140D01*
X1198431Y896134D01*
X1214606Y912309D01*
X1223360Y933443D01*
Y956317D01*
X1218551Y967927D01*
X1226479Y979757D01*
X1242295Y980782D01*
X1264839Y958238D01*
D02*
G37*
%LPC*%
G36*
X2263992Y2801620D02*
X2209800D01*
Y2747428D01*
X2223308Y2751047D01*
X2238792Y2759986D01*
X2251434Y2772628D01*
X2260373Y2788112D01*
X2263992Y2801620D01*
D02*
G37*
G36*
X2986060Y2697532D02*
X2970210Y2690966D01*
X2956033Y2676789D01*
X2951879Y2666761D01*
X2935643D01*
X2931489Y2676789D01*
X2917312Y2690966D01*
X2901462Y2697532D01*
Y2648240D01*
X2876062D01*
Y2697532D01*
X2860213Y2690966D01*
X2846035Y2676789D01*
X2841879Y2666755D01*
X2825643D01*
X2821487Y2676789D01*
X2807309Y2690966D01*
X2791460Y2697532D01*
Y2648240D01*
X2766060D01*
Y2697532D01*
X2750211Y2690966D01*
X2736033Y2676789D01*
X2731879Y2666761D01*
X2715643D01*
X2711490Y2676789D01*
X2697312Y2690966D01*
X2681463Y2697532D01*
Y2648240D01*
X2656063D01*
Y2697532D01*
X2640213Y2690966D01*
X2626036Y2676789D01*
X2621880Y2666755D01*
X2605644D01*
X2601487Y2676789D01*
X2587310Y2690966D01*
X2571460Y2697532D01*
Y2648240D01*
X2558760D01*
Y2635540D01*
X2509468D01*
X2516034Y2619690D01*
X2530211Y2605513D01*
X2540239Y2601359D01*
Y2585123D01*
X2530211Y2580969D01*
X2516034Y2566792D01*
X2509468Y2550942D01*
X2558760D01*
Y2525542D01*
X2509468D01*
X2516034Y2509693D01*
X2530211Y2495515D01*
X2540245Y2491359D01*
Y2475123D01*
X2530211Y2470967D01*
X2516034Y2456789D01*
X2509468Y2440940D01*
X2558760D01*
Y2415540D01*
X2509468D01*
X2516034Y2399691D01*
X2530211Y2385513D01*
X2540239Y2381359D01*
Y2365123D01*
X2530211Y2360970D01*
X2516034Y2346792D01*
X2509468Y2330943D01*
X2558760D01*
Y2305543D01*
X2509468D01*
X2516034Y2289693D01*
X2530211Y2275516D01*
X2540245Y2271360D01*
Y2255124D01*
X2530211Y2250967D01*
X2516034Y2236790D01*
X2509468Y2220940D01*
X2558760D01*
Y2208240D01*
X2571460D01*
Y2158948D01*
X2587310Y2165514D01*
X2601487Y2179691D01*
X2605644Y2189725D01*
X2621880D01*
X2626036Y2179691D01*
X2640213Y2165514D01*
X2656063Y2158948D01*
Y2208240D01*
X2681463D01*
Y2158948D01*
X2697312Y2165514D01*
X2711490Y2179691D01*
X2715643Y2189719D01*
X2731879D01*
X2736033Y2179691D01*
X2750211Y2165514D01*
X2766060Y2158948D01*
Y2208240D01*
X2791460D01*
Y2158948D01*
X2807309Y2165514D01*
X2821487Y2179691D01*
X2825643Y2189725D01*
X2841879D01*
X2846035Y2179691D01*
X2860213Y2165514D01*
X2876062Y2158948D01*
Y2208240D01*
X2901462D01*
Y2158948D01*
X2917312Y2165514D01*
X2931489Y2179691D01*
X2935643Y2189719D01*
X2951879D01*
X2956033Y2179691D01*
X2970210Y2165514D01*
X2986060Y2158948D01*
Y2208240D01*
X2998760D01*
Y2220940D01*
X3048052D01*
X3041486Y2236790D01*
X3027309Y2250967D01*
X3017275Y2255124D01*
Y2271360D01*
X3027309Y2275516D01*
X3041486Y2289693D01*
X3048052Y2305543D01*
X2998760D01*
Y2330943D01*
X3048052D01*
X3041486Y2346792D01*
X3027309Y2360970D01*
X3017281Y2365123D01*
Y2381359D01*
X3027309Y2385513D01*
X3041486Y2399691D01*
X3048052Y2415540D01*
X2998760D01*
Y2440940D01*
X3048052D01*
X3041486Y2456789D01*
X3027309Y2470967D01*
X3017275Y2475123D01*
Y2491359D01*
X3027309Y2495515D01*
X3041486Y2509693D01*
X3048052Y2525542D01*
X2998760D01*
Y2550942D01*
X3048052D01*
X3041486Y2566792D01*
X3027309Y2580969D01*
X3017281Y2585123D01*
Y2601359D01*
X3027309Y2605513D01*
X3041486Y2619690D01*
X3048052Y2635540D01*
X2998760D01*
Y2648240D01*
X2986060D01*
Y2697532D01*
D02*
G37*
G36*
X3011460D02*
Y2660940D01*
X3048052D01*
X3041486Y2676789D01*
X3027309Y2690966D01*
X3011460Y2697532D01*
D02*
G37*
G36*
X2546060D02*
X2530211Y2690966D01*
X2516034Y2676789D01*
X2509468Y2660940D01*
X2546060D01*
Y2697532D01*
D02*
G37*
G36*
X3048052Y2195540D02*
X3011460D01*
Y2158948D01*
X3027309Y2165514D01*
X3041486Y2179691D01*
X3048052Y2195540D01*
D02*
G37*
G36*
X2546060D02*
X2509468D01*
X2516034Y2179691D01*
X2530211Y2165514D01*
X2546060Y2158948D01*
Y2195540D01*
D02*
G37*
G36*
X3733800Y2507832D02*
Y2453640D01*
X3787992D01*
X3784373Y2467148D01*
X3775434Y2482632D01*
X3762792Y2495274D01*
X3747308Y2504213D01*
X3733800Y2507832D01*
D02*
G37*
G36*
X3708400D02*
X3694892Y2504213D01*
X3679408Y2495274D01*
X3666766Y2482632D01*
X3657827Y2467148D01*
X3654208Y2453640D01*
X3708400D01*
Y2507832D01*
D02*
G37*
G36*
X1557020Y2759292D02*
Y2705100D01*
X1611212D01*
X1607593Y2718608D01*
X1598654Y2734092D01*
X1586012Y2746734D01*
X1570528Y2755673D01*
X1557020Y2759292D01*
D02*
G37*
G36*
X1531620D02*
X1518112Y2755673D01*
X1502628Y2746734D01*
X1489986Y2734092D01*
X1481047Y2718608D01*
X1477428Y2705100D01*
X1531620D01*
Y2759292D01*
D02*
G37*
G36*
X1611212Y2679700D02*
X1557020D01*
Y2625508D01*
X1570528Y2629127D01*
X1586012Y2638066D01*
X1598654Y2650708D01*
X1607593Y2666192D01*
X1611212Y2679700D01*
D02*
G37*
G36*
X1531620D02*
X1477428D01*
X1481047Y2666192D01*
X1489986Y2650708D01*
X1502628Y2638066D01*
X1518112Y2629127D01*
X1531620Y2625508D01*
Y2679700D01*
D02*
G37*
G36*
X1860941Y2608733D02*
X1845092Y2602168D01*
X1830915Y2587991D01*
X1826758Y2577957D01*
X1810522D01*
X1806366Y2587991D01*
X1792188Y2602168D01*
X1776339Y2608733D01*
Y2559441D01*
X1763639D01*
Y2546741D01*
X1714347D01*
X1720912Y2530892D01*
X1735090Y2516715D01*
X1745124Y2512558D01*
Y2496322D01*
X1735090Y2492166D01*
X1720912Y2477988D01*
X1714347Y2462139D01*
X1763639D01*
Y2449439D01*
X1776339D01*
Y2400147D01*
X1792188Y2406712D01*
X1806366Y2420890D01*
X1810522Y2430924D01*
X1826758D01*
X1830915Y2420890D01*
X1845092Y2406712D01*
X1860941Y2400147D01*
Y2449439D01*
X1873641D01*
Y2462139D01*
X1922933D01*
X1916368Y2477988D01*
X1902191Y2492166D01*
X1892157Y2496322D01*
Y2512558D01*
X1902191Y2516715D01*
X1916368Y2530892D01*
X1922933Y2546741D01*
X1873641D01*
Y2559441D01*
X1860941D01*
Y2608733D01*
D02*
G37*
G36*
X1886341D02*
Y2572141D01*
X1922933D01*
X1916368Y2587991D01*
X1902191Y2602168D01*
X1886341Y2608733D01*
D02*
G37*
G36*
X1750939D02*
X1735090Y2602168D01*
X1720912Y2587991D01*
X1714347Y2572141D01*
X1750939D01*
Y2608733D01*
D02*
G37*
G36*
X1922933Y2436739D02*
X1886341D01*
Y2400147D01*
X1902191Y2406712D01*
X1916368Y2420890D01*
X1922933Y2436739D01*
D02*
G37*
G36*
X1750939D02*
X1714347D01*
X1720912Y2420890D01*
X1735090Y2406712D01*
X1750939Y2400147D01*
Y2436739D01*
D02*
G37*
G36*
X2028197Y1782160D02*
X2005323D01*
X1984189Y1773406D01*
X1968014Y1757231D01*
X1959260Y1736097D01*
Y1725951D01*
X1944260Y1717290D01*
X1936288Y1721893D01*
X1922780Y1725512D01*
Y1671320D01*
X1988526D01*
X1992155Y1672614D01*
X2005323Y1667160D01*
X2028197D01*
X2049331Y1675914D01*
X2065506Y1692089D01*
X2074260Y1713223D01*
Y1736097D01*
X2065506Y1757231D01*
X2049331Y1773406D01*
X2028197Y1782160D01*
D02*
G37*
G36*
X1976972Y1645920D02*
X1922780D01*
Y1591728D01*
X1936288Y1595347D01*
X1951772Y1604286D01*
X1964414Y1616928D01*
X1973353Y1632412D01*
X1976972Y1645920D01*
D02*
G37*
%LPD*%
D52*
X3012440Y1536700D02*
X3022600Y1546860D01*
X3688685D01*
X2804383Y3091180D02*
X2846198Y3132996D01*
X2360822Y3068320D02*
X2383682Y3091180D01*
X2804383D01*
X2341880Y3068320D02*
X2360822D01*
X2123440Y2373630D02*
Y2865120D01*
X2209800Y2951480D01*
Y3253740D01*
X2123440Y2373630D02*
X2190750Y2306320D01*
X2062786Y3149858D02*
X2080260Y3132384D01*
Y1966539D02*
X2347539Y1699260D01*
X2080260Y1966539D02*
Y3132384D01*
X2037080Y1943100D02*
Y3111500D01*
Y1943100D02*
X2351030Y1629150D01*
X1930924Y3217656D02*
X2037080Y3111500D01*
X2209800Y3448560D02*
X2279140Y3517900D01*
X2213100Y3591560D02*
X2286760Y3517900D01*
X1049020Y3591560D02*
X2213100D01*
X470227Y2706530D02*
X478800Y2715103D01*
X439592Y2706530D02*
X470227D01*
X383540Y2650478D02*
X439592Y2706530D01*
X432781Y2290100D02*
X478800D01*
X383540Y2339340D02*
X432781Y2290100D01*
X383540Y2339340D02*
Y2650478D01*
X2661920Y1033780D02*
X2745740Y1117600D01*
X2661920Y762000D02*
Y1033780D01*
X2201926Y695600D02*
X2729242D01*
X2885440Y851798D01*
X2163850Y733676D02*
X2201926Y695600D01*
X2182126Y657860D02*
X3553460D01*
X2126695Y602429D02*
X2182126Y657860D01*
X630960Y529360D02*
X754380Y652780D01*
X630960Y450596D02*
Y529360D01*
X754380Y652780D02*
Y825500D01*
X759460Y414020D02*
X993140D01*
X695960Y477520D02*
X759460Y414020D01*
X993140D02*
X1026160Y381000D01*
X630960Y450596D02*
X697536Y384020D01*
X967260D01*
X990600Y360680D01*
Y149860D02*
Y360680D01*
Y149860D02*
X1056640Y83820D01*
X1026160Y264160D02*
X1084308Y206012D01*
X1026160Y264160D02*
Y381000D01*
X1910080Y731520D02*
X1923715D01*
X1995977Y659258D01*
Y599903D02*
Y659258D01*
X2118846Y602429D02*
X2126695D01*
X1995977Y599903D02*
X2101500Y494380D01*
X1866900Y589280D02*
X1876020Y580160D01*
X1931900D02*
X2097799Y414261D01*
X1876020Y580160D02*
X1931900D01*
X2163850Y733676D02*
Y973050D01*
X2059940Y1076960D02*
X2163850Y973050D01*
X2600960Y350520D02*
Y556260D01*
X1963420Y1076960D02*
X2059940D01*
X1864360D02*
X1963420D01*
X1816100Y1125220D02*
X1864360Y1076960D01*
X2435860Y1549400D02*
X2443480Y1541780D01*
Y1366520D02*
Y1541780D01*
Y1366520D02*
X2486660Y1323340D01*
X2816860D01*
X2845840Y1294360D01*
Y1136420D02*
Y1294360D01*
X2827020Y1117600D02*
X2845840Y1136420D01*
X2745740Y1117600D02*
X2827020D01*
X2351030Y1629150D02*
X2798205D01*
X2347539Y1699260D02*
X2475357D01*
X2910840Y1028700D02*
Y1196340D01*
Y1028700D02*
X2961005Y978535D01*
X5448300Y2067560D02*
X5455920Y2059940D01*
X5189220Y1849120D02*
X5407660Y2067560D01*
X5400040Y2059940D02*
X5407660Y2067560D01*
X5448300D01*
X5455920Y2059940D02*
X5869940Y2473960D01*
X5189220Y1328420D02*
Y1849120D01*
Y1328420D02*
X5549900Y967740D01*
X5869940Y2473960D02*
Y3383807D01*
X5875020Y3719239D02*
X5902688Y3746908D01*
Y3812268D01*
X5875020Y3640646D02*
Y3719239D01*
X5902688Y3812268D02*
X5913120Y3822700D01*
X5875020Y3640646D02*
X5904340Y3611326D01*
Y3418207D02*
Y3611326D01*
X5869940Y3383807D02*
X5904340Y3418207D01*
X5758939Y3695621D02*
Y3756388D01*
Y3695621D02*
X5791200Y3663359D01*
X5748507Y3766820D02*
X5758939Y3756388D01*
X5791200Y3581798D02*
Y3663359D01*
Y3581798D02*
X5826760Y3546238D01*
X3574456Y3321685D02*
X3611001Y3285140D01*
X3939190D02*
X3981800Y3327750D01*
X3611001Y3285140D02*
X3939190D01*
X4041140Y3524518D02*
Y3530600D01*
X3981800Y3465178D02*
X4041140Y3524518D01*
X3231515Y3321685D02*
X3574456D01*
X3981800Y3327750D02*
Y3465178D01*
X5575572Y3269252D02*
Y3330212D01*
X5565140Y3258820D02*
X5575572Y3269252D01*
Y3330212D02*
X5626800Y3381440D01*
X5826760Y3433682D02*
Y3546238D01*
X5626800Y3381440D02*
X5774518D01*
X5826760Y3433682D01*
X3755592Y2354580D02*
X4023360D01*
X3357640Y2440397D02*
Y2710857D01*
X3726032Y2325020D02*
X3755592Y2354580D01*
X3473017Y2325020D02*
X3726032D01*
X3357640Y2440397D02*
X3473017Y2325020D01*
X4829640Y2497920D02*
X5069840Y2738120D01*
X4504520Y2497920D02*
X4829640D01*
X4170096Y2163496D02*
X4504520Y2497920D01*
X3736945Y1498600D02*
X3870960D01*
X4170096Y2082216D02*
Y2163496D01*
X3863340Y1775460D02*
X4170096Y2082216D01*
X3688685Y1546860D02*
X3736945Y1498600D01*
X3324860Y2743637D02*
Y2880360D01*
Y2743637D02*
X3357640Y2710857D01*
X4243756Y2082216D02*
X4371340Y2209800D01*
X4170096Y2082216D02*
X4243756D01*
X4307840Y2529840D02*
Y2738120D01*
X3243581Y2760598D02*
Y2760838D01*
Y2760598D02*
X3312160Y2692018D01*
Y2420620D02*
Y2692018D01*
X4053840Y2275840D02*
X4307840Y2529840D01*
X3312160Y2420620D02*
X3456940Y2275840D01*
X4053840D01*
X1219200Y2880360D02*
X1223861Y2885021D01*
X1347700D01*
X1219200Y2247825D02*
Y2880360D01*
Y2247825D02*
X1717040Y1749985D01*
X1347700Y2885021D02*
X1378599Y2915920D01*
X1933378D01*
X2846198Y3132996D02*
X2964348D01*
X1817370Y58420D02*
X4876800D01*
X1579400Y296390D02*
X1817370Y58420D01*
X4876800D02*
X5069840Y251460D01*
X1579400Y1005360D02*
X1717040Y1143000D01*
Y1749985D01*
X1579400Y296390D02*
Y1005360D01*
X1948618Y2931160D02*
X1963420D01*
X5069840Y251460D02*
Y448122D01*
X1933378Y2915920D02*
X1948618Y2931160D01*
X4553075Y2729355D02*
X4561840Y2738120D01*
X4553075Y2627755D02*
Y2729355D01*
X3914620Y1989300D02*
X4553075Y2627755D01*
X3226280Y1989300D02*
X3914620D01*
X2420405Y1917972D02*
X3154952D01*
X3226280Y1989300D01*
X2362200Y1874520D02*
X2376953D01*
X2420405Y1917972D01*
X1146550Y2195489D02*
Y2910453D01*
X1212530Y2976433D02*
X1325433D01*
X1146550Y2910453D02*
X1212530Y2976433D01*
X1201420Y2125980D02*
Y2140619D01*
X1146550Y2195489D02*
X1201420Y2140619D01*
X1330960Y2983474D02*
X1403106Y3055620D01*
X1325433Y2976433D02*
X1330960Y2981960D01*
Y2983474D01*
X1403106Y3055620D02*
X1852098D01*
X2377440Y3181000D02*
X2791460D01*
X1624790Y315191D02*
X1836171Y103810D01*
X4604690D02*
X4815840Y314960D01*
X1836171Y103810D02*
X4604690D01*
X1624790Y986559D02*
X1765300Y1127069D01*
X1624790Y315191D02*
Y986559D01*
X1765300Y1127069D02*
Y1831340D01*
X1468120Y2128520D02*
X1765300Y1831340D01*
X1867338Y3070860D02*
X1882140D01*
X4815840Y314960D02*
Y448122D01*
X1852098Y3055620D02*
X1867338Y3070860D01*
X1750060Y2066025D02*
Y2080260D01*
Y2066025D02*
X1816100Y1999985D01*
Y1125220D02*
Y1999985D01*
X2915198Y822040D02*
X3978560D01*
X4053840Y746760D01*
X2885440Y851798D02*
X2915198Y822040D01*
X4053840Y448122D02*
Y746760D01*
X2885440Y851798D02*
Y932180D01*
X3830722Y3186832D02*
X3905200D01*
X3322320Y3007360D02*
X3651250D01*
X3830722Y3186832D01*
X3905200D02*
X4027280Y3308912D01*
Y3318407D01*
X4054540Y3345667D01*
Y3360420D01*
X3314700Y3014980D02*
X3322320Y3007360D01*
X5577840Y452120D02*
Y584200D01*
X4503420Y1658620D02*
X5577840Y584200D01*
X3133440Y1658620D02*
X4503420D01*
X3126740Y1665320D02*
X3133440Y1658620D01*
X2452935Y1790700D02*
X2507467Y1845232D01*
X2522220D01*
X2194560Y1916430D02*
X2320290Y1790700D01*
X2194560Y1916430D02*
Y1988820D01*
X2320290Y1790700D02*
X2452935D01*
X2222500Y2016760D02*
X3113249D01*
X2194560Y1988820D02*
X2222500Y2016760D01*
X3113249D02*
X3176749Y2080260D01*
X3831940D01*
X3954780Y2203100D01*
X3517900Y3545840D02*
Y3647440D01*
X3519273Y3646067D02*
X3620873D01*
X3517900Y3647440D02*
X3519273Y3646067D01*
X3378200Y3406140D02*
X3517900Y3545840D01*
X3620873Y3646067D02*
X3909060Y3357880D01*
X3060700Y3253740D02*
X3213100Y3406140D01*
X3378200D01*
X2209800Y3253740D02*
X3060700D01*
X2209800D02*
Y3448560D01*
X840740Y3383280D02*
X1049020Y3591560D01*
X2190750Y2306320D02*
X2298700D01*
X2580640Y1701800D02*
X2667000Y1788160D01*
X2941320D02*
X3035300Y1694180D01*
X2667000Y1788160D02*
X2941320D01*
X5323840Y448122D02*
Y563880D01*
X3035300Y1623060D02*
Y1694180D01*
X3065780Y1592580D02*
X4295140D01*
X3035300Y1623060D02*
X3065780Y1592580D01*
X4295140D02*
X5323840Y563880D01*
X1191532Y985305D02*
Y988257D01*
X1165860Y959633D02*
X1191532Y985305D01*
X1165860Y944880D02*
Y959633D01*
X1153160Y703580D02*
Y835660D01*
X1191532Y988257D02*
X1209115Y1005840D01*
X1153160Y703580D02*
X1203960Y652780D01*
X2426900Y176460D02*
X2600960Y350520D01*
X2413000Y176460D02*
X2426900D01*
X1397000Y1043940D02*
X1465580D01*
X1533920Y221220D02*
X1676400Y78740D01*
X1465580Y1043940D02*
X1533920Y975600D01*
Y221220D02*
Y975600D01*
X1036769Y3133557D02*
Y3145006D01*
X797560Y3098800D02*
X916416Y3217656D01*
X800100Y2896889D02*
X1036769Y3133557D01*
X800100Y2885440D02*
Y2896889D01*
X916416Y3217656D02*
X1930924D01*
X6130025Y3906520D02*
X6151577Y3884967D01*
Y3873316D02*
Y3884967D01*
Y3873316D02*
X6189980Y3834913D01*
X4853940Y3906520D02*
X6130025D01*
X6189980Y3820160D02*
Y3834913D01*
X6232179Y3952000D02*
X6277659Y3906520D01*
X4825760Y3952000D02*
X6232179D01*
X4726940Y3853180D02*
X4825760Y3952000D01*
X6277659Y3906520D02*
X6292412D01*
X4780280Y3832860D02*
X4853940Y3906520D01*
X4780280Y3493098D02*
Y3832860D01*
Y3493098D02*
X5108538Y3164840D01*
X5184140D01*
X5030304Y4629014D02*
X5092671Y4691380D01*
X5092700D01*
X5010014Y4629014D02*
X5030304D01*
X4958080Y4577080D02*
X5010014Y4629014D01*
X3893414Y3039460D02*
X3965087D01*
X3553460Y2763824D02*
X3874576Y3084940D01*
X3622040Y2501900D02*
Y2768086D01*
X3553460Y2582693D02*
Y2763824D01*
X4185920Y3324612D02*
Y4020820D01*
X3946248Y3084940D02*
X4185920Y3324612D01*
X3874576Y3084940D02*
X3946248D01*
X4254500Y3328873D02*
Y4000500D01*
X3938342Y3141352D02*
X4130040Y3333050D01*
X3965087Y3039460D02*
X4254500Y3328873D01*
X3866669Y3141352D02*
X3938342D01*
X4130040Y3333050D02*
Y4041140D01*
X4224020Y4135120D01*
X3415975Y2754310D02*
X3623545Y2961880D01*
X3687198D01*
X3622040Y2768086D02*
X3893414Y3039460D01*
X3687198Y2961880D02*
X3866669Y3141352D01*
X4185920Y4020820D02*
X4249420Y4084320D01*
X3503147Y2397760D02*
X3517900D01*
X3622040Y2501900D01*
X5995802Y4328160D02*
X6041522Y4282440D01*
X6042660D01*
X5349240Y4396018D02*
X5417098Y4328160D01*
X5995802D01*
X5349240Y4396018D02*
Y4807300D01*
X5262880Y4893660D02*
X5349240Y4807300D01*
X3956400Y4893660D02*
X5262880D01*
X3780440Y4717700D02*
X3956400Y4893660D01*
X1903380Y4717700D02*
X3780440D01*
X1864360Y4678680D02*
X1903380Y4717700D01*
X4484020Y3738880D02*
X4630420D01*
X4362100Y3616960D02*
X4484020Y3738880D01*
X1864360Y3776980D02*
Y4678680D01*
X1747520Y3660140D02*
X1864360Y3776980D01*
X1038913Y3660140D02*
X1747520D01*
X1021133Y3642360D02*
X1038913Y3660140D01*
X929640Y3642360D02*
X1021133D01*
X752911Y3465631D02*
X929640Y3642360D01*
X649842Y3068320D02*
X752911Y3171389D01*
Y3465631D01*
X386080Y3068320D02*
X649842D01*
X303200Y2985440D02*
X386080Y3068320D01*
X303200Y2034726D02*
Y2985440D01*
X195580Y1927106D02*
X303200Y2034726D01*
X195580Y1620520D02*
Y1927106D01*
X195466Y1620406D02*
X195580Y1620520D01*
X129426Y1620406D02*
X195466D01*
X66040Y1557020D02*
X129426Y1620406D01*
X66040Y523240D02*
Y1557020D01*
Y523240D02*
X210820Y378460D01*
X1925320Y180340D02*
X1927220Y178440D01*
X2121517D01*
X2314212Y331089D02*
X2453127D01*
X2522220Y400182D01*
X2097799Y414261D02*
X2385301D01*
X2392680Y421640D01*
X2303780Y341521D02*
X2314212Y331089D01*
X2121517Y178440D02*
X2212340Y269262D01*
X1488440Y178123D02*
Y515455D01*
X1481307Y170990D02*
X1488440Y178123D01*
X1287780Y716115D02*
X1488440Y515455D01*
X5151120Y4485640D02*
X5234940Y4569460D01*
X5151120Y4178300D02*
Y4485640D01*
X300624Y854344D02*
X368300Y922020D01*
X300624Y747664D02*
Y854344D01*
X281940Y728980D02*
X300624Y747664D01*
X368300Y922020D02*
X500380D01*
X2961005Y913390D02*
X2978860Y895535D01*
X3596565D02*
X3614420Y913390D01*
X2961005D02*
Y978535D01*
X2978860Y895535D02*
X3596565D01*
X3614420Y913390D02*
Y1394460D01*
X3660140Y1440180D01*
X2052320Y3235960D02*
X2062786Y3225494D01*
Y3149858D02*
Y3225494D01*
X1332513Y566875D02*
X1388240Y511149D01*
Y497840D02*
Y511149D01*
X1332513Y566875D02*
Y607063D01*
X1286797Y652780D02*
X1332513Y607063D01*
X1203960Y652780D02*
X1286797D01*
X1209115Y1005840D02*
X1249680D01*
X1287780Y967740D01*
Y716115D02*
Y967740D01*
X1084308Y206012D02*
X1160508D01*
X2487580Y494380D02*
X2522220Y459740D01*
X2101500Y494380D02*
X2487580D01*
X2522220Y400182D02*
Y459740D01*
X1430020Y1920240D02*
Y1930400D01*
Y1920240D02*
X1511300Y1838960D01*
X464820Y1734820D02*
X568960Y1838960D01*
X464820Y1518920D02*
Y1734820D01*
Y1518920D02*
X553720Y1430020D01*
Y975360D02*
Y1430020D01*
X500380Y922020D02*
X553720Y975360D01*
X5033972Y4177992D02*
Y4380759D01*
X4940300Y4084320D02*
X5033972Y4177992D01*
Y4380759D02*
X5078380Y4425167D01*
Y4439920D01*
X4998960Y4026140D02*
X5151120Y4178300D01*
X4958080Y4219758D02*
Y4577080D01*
X4873442Y4135120D02*
X4958080Y4219758D01*
X3205720Y2034780D02*
X3889330D01*
X3495960Y2153000D02*
X3624580D01*
X3233101Y2415859D02*
X3495960Y2153000D01*
X3889330Y2034780D02*
X4449100Y2594550D01*
Y2784818D01*
X3233101Y2415859D02*
Y2659699D01*
X1511300Y1838960D02*
X1577340Y1772920D01*
Y1597660D02*
Y1772920D01*
X568960Y1838960D02*
X1511300D01*
X3132088Y1788428D02*
Y1829068D01*
X3239392Y1936372D01*
X3121660Y1778000D02*
X3132088Y1788428D01*
X2624963Y1845232D02*
X3045460D01*
X3502660Y2531893D02*
X3553460Y2582693D01*
X3502660Y2517140D02*
Y2531893D01*
X3526521Y1936372D02*
X3546333Y1916560D01*
X3239392Y1936372D02*
X3526521D01*
X3546333Y1916560D02*
X3561080D01*
X3142220Y1971280D02*
X3205720Y2034780D01*
X2409395Y1971280D02*
X3142220D01*
X2385375Y1947260D02*
X2409395Y1971280D01*
X2280000Y1947260D02*
X2385375D01*
X2273300Y1940560D02*
X2280000Y1947260D01*
X2552313Y1772582D02*
X2624963Y1845232D01*
X2548679Y1772582D02*
X2552313D01*
X2475357Y1699260D02*
X2548679Y1772582D01*
X2798205Y1629150D02*
X2807540Y1638485D01*
X4449100Y2784818D02*
X4726940Y3062658D01*
Y3853180D01*
X4280140Y4026140D02*
X4998960D01*
X1125220Y1417320D02*
X1257300Y1285240D01*
X713740Y1417320D02*
X1125220D01*
X607060Y1524000D02*
X713740Y1417320D01*
X1257300Y1285240D02*
X1445260D01*
X4254500Y4000500D02*
X4280140Y4026140D01*
X4249420Y4084320D02*
X4940300D01*
X4224020Y4135120D02*
X4873442D01*
D54*
X2228850Y760600D02*
Y1342390D01*
X1958340Y1181100D02*
X1958558D01*
X2019758Y1119900D02*
X2130820D01*
X1958558Y1181100D02*
X2019758Y1119900D01*
X2261737Y1416400D02*
X2316480Y1361657D01*
Y1308100D02*
Y1361657D01*
X2730173Y1280160D02*
X2748134Y1262199D01*
Y1247714D02*
Y1262199D01*
Y1247714D02*
X2780840Y1215008D01*
Y1198880D02*
Y1215008D01*
X2344420Y1280160D02*
X2730173D01*
X4719320Y2059940D02*
X5400040D01*
X4549140Y2230120D02*
X4719320Y2059940D01*
X3716020Y3185160D02*
X3721100Y3180080D01*
X3327400Y3185160D02*
X3716020D01*
X3322320Y3190240D02*
X3327400Y3185160D01*
X3942080Y2443480D02*
X3943640Y2445040D01*
Y2965740D01*
X3944620Y2966720D01*
X2130820Y1119900D02*
X2162460Y1151540D01*
X2228850Y1342390D02*
X2232660Y1346200D01*
X2316480Y1308100D02*
X2344420Y1280160D01*
X2162460Y1151540D02*
Y1375278D01*
X2203582Y1416400D02*
X2261737D01*
X2162460Y1375278D02*
X2203582Y1416400D01*
D56*
X607164Y2538464D02*
X613801Y2545100D01*
X560774Y2538464D02*
X607164D01*
X482412Y2460102D02*
X560774Y2538464D01*
X478800Y2460102D02*
X482412D01*
D59*
X3799840Y448122D02*
D03*
X4307840D02*
D03*
X5323840D02*
D03*
X5069840D02*
D03*
X4815840D02*
D03*
X4561840D02*
D03*
X4053840D02*
D03*
X5577840Y452120D02*
D03*
Y2738120D02*
D03*
X4053840D02*
D03*
X4307840D02*
D03*
X4561840D02*
D03*
X4815840D02*
D03*
X5069840D02*
D03*
X5323840D02*
D03*
D60*
X3799840D02*
D03*
D61*
X613801Y2800101D02*
D03*
X478800D02*
D03*
X613801Y2205101D02*
D03*
X478800D02*
D03*
X613801Y2715103D02*
D03*
Y2290100D02*
D03*
X478800D02*
D03*
Y2715103D02*
D03*
X613801Y2545100D02*
D03*
Y2460102D02*
D03*
Y2375098D02*
D03*
X478800D02*
D03*
Y2460102D02*
D03*
Y2545100D02*
D03*
Y2630099D02*
D03*
X613801D02*
D03*
D62*
X515803Y2935102D02*
D03*
Y2070100D02*
D03*
D63*
X177800Y2935102D02*
D03*
Y2070100D02*
D03*
D64*
X535940Y728980D02*
D03*
X464820Y378460D02*
D03*
D65*
X281940Y728980D02*
D03*
X210820Y378460D02*
D03*
D66*
X3012440Y1536700D02*
D03*
X2341880Y3068320D02*
D03*
X2197100Y2814320D02*
D03*
X383540Y144780D02*
D03*
X2661920Y762000D02*
D03*
X695960Y477520D02*
D03*
X754380Y825500D02*
D03*
X1056640Y83820D02*
D03*
X1910080Y731520D02*
D03*
X2098040Y759460D02*
D03*
X2118846Y602429D02*
D03*
X1866900Y589280D02*
D03*
X3553460Y657860D02*
D03*
X2228850Y760600D02*
D03*
X2600960Y556260D02*
D03*
X2395220Y567120D02*
D03*
X1963420Y1076960D02*
D03*
X2435860Y1549400D02*
D03*
X2362200Y1452880D02*
D03*
X2780840Y1198880D02*
D03*
X2910840Y1196340D02*
D03*
X1584960Y2128520D02*
D03*
X6004560Y365760D02*
D03*
X5958840Y713740D02*
D03*
X5448300Y2067560D02*
D03*
X5913120Y3822700D02*
D03*
X3721100Y3180080D02*
D03*
X5549900Y967740D02*
D03*
X3322320Y3190240D02*
D03*
X4549140Y2230120D02*
D03*
X3942080Y2443480D02*
D03*
X3944620Y2966720D02*
D03*
X5318760Y1592580D02*
D03*
X6400800Y3726180D02*
D03*
X6131560Y4140200D02*
D03*
X5745480Y3172460D02*
D03*
X4998720Y3808380D02*
D03*
X4427220Y3078480D02*
D03*
X3060700Y3159760D02*
D03*
X3233420Y2923540D02*
D03*
X2608580Y3004820D02*
D03*
X1638300Y4305300D02*
D03*
X586300Y3558100D02*
D03*
X2729449Y1702146D02*
D03*
X2354047Y2389607D02*
D03*
X5328920Y1780540D02*
D03*
X5748507Y3766820D02*
D03*
X4041140Y3530600D02*
D03*
X3231515Y3321685D02*
D03*
X5565140Y3258820D02*
D03*
X3324860Y2880360D02*
D03*
X3870960Y1498600D02*
D03*
X3863340Y1775460D02*
D03*
X4023360Y2354580D02*
D03*
X4371340Y2209800D02*
D03*
X3243581Y2760838D02*
D03*
X1219200Y2880360D02*
D03*
X2964348Y3132996D02*
D03*
X1963420Y2931160D02*
D03*
X2362200Y1874520D02*
D03*
X1330960Y2981960D02*
D03*
X2377440Y3181000D02*
D03*
X2791460D02*
D03*
X1882140Y3070860D02*
D03*
X1468120Y2128520D02*
D03*
X1201420Y2125980D02*
D03*
X6855460Y4150360D02*
D03*
X5011420Y4810760D02*
D03*
X4899660Y3784600D02*
D03*
X5740400Y3464560D02*
D03*
X5687060Y3273140D02*
D03*
X3721100Y2440940D02*
D03*
X2832100Y4800600D02*
D03*
X2283460Y3779520D02*
D03*
X3401060Y739140D02*
D03*
X2570480Y176460D02*
D03*
X1544320Y2692400D02*
D03*
X2223370Y2390140D02*
D03*
X1910080Y1658620D02*
D03*
X1465580Y1757680D02*
D03*
X629920Y3380740D02*
D03*
X1427480Y1399540D02*
D03*
X1216660Y101600D02*
D03*
X662940Y1013460D02*
D03*
X1750060Y2080260D02*
D03*
X2885440Y932180D02*
D03*
X4054540Y3360420D02*
D03*
X3314700Y3014980D02*
D03*
X3126740Y1665320D02*
D03*
X2522220Y1845232D02*
D03*
X3954780Y2203100D02*
D03*
X3517900Y3647440D02*
D03*
X3909060Y3357880D02*
D03*
X840740Y3383280D02*
D03*
X2298700Y2306320D02*
D03*
X2580640Y1701800D02*
D03*
X1165860Y944880D02*
D03*
X1153160Y835660D02*
D03*
X2413000Y176460D02*
D03*
X1397000Y1043940D02*
D03*
X1676400Y78740D02*
D03*
X1036769Y3145006D02*
D03*
X6189980Y3820160D02*
D03*
X5092700Y4691380D02*
D03*
X3503147Y2397760D02*
D03*
X6042660Y4282440D02*
D03*
X4630420Y3738880D02*
D03*
X4897120Y3627120D02*
D03*
X4362100Y3616960D02*
D03*
X195580Y1620520D02*
D03*
X1925320Y180340D02*
D03*
X2303780Y341521D02*
D03*
X1481307Y170990D02*
D03*
X1160508Y206012D02*
D03*
X5234940Y4569460D02*
D03*
X1388240Y497840D02*
D03*
X2392680Y421640D02*
D03*
X2212340Y269262D02*
D03*
X1430020Y1930400D02*
D03*
X5078380Y4439920D02*
D03*
X3415975Y2754310D02*
D03*
X3624580Y2153000D02*
D03*
X3121660Y1778000D02*
D03*
X3045460Y1845232D02*
D03*
X3660140Y1440180D02*
D03*
X3233101Y2659699D02*
D03*
X3502660Y2517140D02*
D03*
X3561080Y1916560D02*
D03*
X2273300Y1940560D02*
D03*
X2016760Y1724660D02*
D03*
X2807540Y1638485D02*
D03*
X6292412Y3906520D02*
D03*
X5184140Y3164840D02*
D03*
X1577340Y1597660D02*
D03*
X568960Y1838960D02*
D03*
X607060Y1524000D02*
D03*
X800100Y2885440D02*
D03*
X1445260Y1285240D02*
D03*
X2052320Y3235960D02*
D03*
X1958340Y1181100D02*
D03*
X2232660Y1346200D02*
D03*
X797560Y3098800D02*
D03*
D67*
X2778760Y2648240D02*
D03*
X2998760D02*
D03*
X2888762D02*
D03*
Y2538242D02*
D03*
X2668763D02*
D03*
X2778760D02*
D03*
X2668763Y2648240D02*
D03*
X2558760Y2538242D02*
D03*
Y2648240D02*
D03*
X2998760Y2428240D02*
D03*
Y2538242D02*
D03*
X2888762Y2318243D02*
D03*
Y2428240D02*
D03*
X2778760Y2318243D02*
D03*
X2998760Y2208240D02*
D03*
Y2318243D02*
D03*
X2778760Y2208240D02*
D03*
X2888762D02*
D03*
X2668763Y2428240D02*
D03*
X2558760D02*
D03*
X2778760D02*
D03*
X2668763Y2318243D02*
D03*
Y2208240D02*
D03*
X2558760Y2318243D02*
D03*
Y2208240D02*
D03*
X1873641Y2559441D02*
D03*
X1763639D02*
D03*
X1873641Y2449439D02*
D03*
X1763639D02*
D03*
%TF.MD5,af96d673a0faf70d7b6dee7d513ab17b*%
M02*
