%TF.GenerationSoftware,Altium Limited,Altium Designer,26.5.0 (11)*%
G04 Layer_Color=8421504*
G04 Board_Origin=23340945|23900000*
%FSLAX45Y45*%
%MOMM*%
%TF.SameCoordinates,B825AC53-504F-4258-B26F-6CDAE949C360*%
%TF.FilePolarity,Positive*%
%TF.FileFunction,Paste,Top*%
%TF.Part,Single*%
G01*
G75*
%TA.AperFunction,SMDPad,CuDef*%
%ADD10R,1.20000X0.60000*%
G04:AMPARAMS|DCode=11|XSize=1.1mm|YSize=0.8mm|CornerRadius=0.1mm|HoleSize=0mm|Usage=FLASHONLY|Rotation=180.000|XOffset=0mm|YOffset=0mm|HoleType=Round|Shape=RoundedRectangle|*
%AMROUNDEDRECTD11*
21,1,1.10000,0.60000,0,0,180.0*
21,1,0.90000,0.80000,0,0,180.0*
1,1,0.20000,-0.45000,0.30000*
1,1,0.20000,0.45000,0.30000*
1,1,0.20000,0.45000,-0.30000*
1,1,0.20000,-0.45000,-0.30000*
%
%ADD11ROUNDEDRECTD11*%
%ADD12R,0.55000X0.55000*%
%ADD15R,0.62000X0.62000*%
%ADD16O,0.35000X0.50000*%
%ADD17R,0.55000X0.55000*%
%ADD18R,1.40000X0.30000*%
%TA.AperFunction,ConnectorPad*%
G04:AMPARAMS|DCode=19|XSize=3.4mm|YSize=1mm|CornerRadius=0.25mm|HoleSize=0mm|Usage=FLASHONLY|Rotation=180.000|XOffset=0mm|YOffset=0mm|HoleType=Round|Shape=RoundedRectangle|*
%AMROUNDEDRECTD19*
21,1,3.40000,0.50000,0,0,180.0*
21,1,2.90000,1.00000,0,0,180.0*
1,1,0.50000,-1.45000,0.25000*
1,1,0.50000,1.45000,0.25000*
1,1,0.50000,1.45000,-0.25000*
1,1,0.50000,-1.45000,-0.25000*
%
%ADD19ROUNDEDRECTD19*%
G04:AMPARAMS|DCode=20|XSize=3.4mm|YSize=1mm|CornerRadius=0.15mm|HoleSize=0mm|Usage=FLASHONLY|Rotation=180.000|XOffset=0mm|YOffset=0mm|HoleType=Round|Shape=RoundedRectangle|*
%AMROUNDEDRECTD20*
21,1,3.40000,0.70000,0,0,180.0*
21,1,3.10000,1.00000,0,0,180.0*
1,1,0.30000,-1.55000,0.35000*
1,1,0.30000,1.55000,0.35000*
1,1,0.30000,1.55000,-0.35000*
1,1,0.30000,-1.55000,-0.35000*
%
%ADD20ROUNDEDRECTD20*%
%TA.AperFunction,SMDPad,CuDef*%
%ADD21O,0.50000X0.35000*%
%ADD22R,1.20000X4.00000*%
%ADD23O,0.55000X0.35000*%
%ADD24R,1.20000X0.40000*%
%ADD25R,0.28000X0.50000*%
%ADD26R,0.50000X0.28000*%
%ADD27R,0.62000X0.62000*%
%ADD28R,0.75000X1.45000*%
%ADD29O,1.45000X0.60000*%
%TA.AperFunction,ConnectorPad*%
%ADD30R,1.60000X2.20000*%
%TA.AperFunction,SMDPad,CuDef*%
%ADD31R,1.25000X0.50000*%
%ADD32R,1.50000X1.90000*%
%ADD33R,5.40000X5.40000*%
%ADD34R,1.47500X0.45000*%
%ADD35R,1.60000X2.18000*%
%ADD36R,2.65000X2.65000*%
%ADD37R,0.54991X1.19990*%
%ADD38R,0.85000X0.40000*%
%ADD39R,0.40000X0.85000*%
%ADD40R,0.50000X0.36000*%
%ADD41O,0.35000X0.55000*%
%TA.AperFunction,ConnectorPad*%
%ADD42R,1.60000X2.18000*%
%TA.AperFunction,SMDPad,CuDef*%
%ADD43R,0.36000X0.50000*%
%ADD44R,0.46000X0.60000*%
G04:AMPARAMS|DCode=45|XSize=1.1mm|YSize=0.6mm|CornerRadius=0.099mm|HoleSize=0mm|Usage=FLASHONLY|Rotation=270.000|XOffset=0mm|YOffset=0mm|HoleType=Round|Shape=RoundedRectangle|*
%AMROUNDEDRECTD45*
21,1,1.10000,0.40200,0,0,270.0*
21,1,0.90200,0.60000,0,0,270.0*
1,1,0.19800,-0.20100,-0.45100*
1,1,0.19800,-0.20100,0.45100*
1,1,0.19800,0.20100,0.45100*
1,1,0.19800,0.20100,-0.45100*
%
%ADD45ROUNDEDRECTD45*%
G04:AMPARAMS|DCode=46|XSize=1.1mm|YSize=0.6mm|CornerRadius=0.15mm|HoleSize=0mm|Usage=FLASHONLY|Rotation=270.000|XOffset=0mm|YOffset=0mm|HoleType=Round|Shape=RoundedRectangle|*
%AMROUNDEDRECTD46*
21,1,1.10000,0.30000,0,0,270.0*
21,1,0.80000,0.60000,0,0,270.0*
1,1,0.30000,-0.15000,-0.40000*
1,1,0.30000,-0.15000,0.40000*
1,1,0.30000,0.15000,0.40000*
1,1,0.30000,0.15000,-0.40000*
%
%ADD46ROUNDEDRECTD46*%
%ADD47R,1.60000X2.20000*%
%TA.AperFunction,ConnectorPad*%
G04:AMPARAMS|DCode=48|XSize=3.6mm|YSize=1.5mm|CornerRadius=0.195mm|HoleSize=0mm|Usage=FLASHONLY|Rotation=180.000|XOffset=0mm|YOffset=0mm|HoleType=Round|Shape=RoundedRectangle|*
%AMROUNDEDRECTD48*
21,1,3.60000,1.11000,0,0,180.0*
21,1,3.21000,1.50000,0,0,180.0*
1,1,0.39000,-1.60500,0.55500*
1,1,0.39000,1.60500,0.55500*
1,1,0.39000,1.60500,-0.55500*
1,1,0.39000,-1.60500,-0.55500*
%
%ADD48ROUNDEDRECTD48*%
%TA.AperFunction,SMDPad,CuDef*%
%ADD49R,2.95000X5.50000*%
%ADD50R,1.00000X1.00000*%
%ADD51R,1.25000X1.00000*%
D10*
X197580Y1144521D02*
D03*
Y1239523D02*
D03*
Y1334519D02*
D03*
X447582D02*
D03*
Y1144521D02*
D03*
Y1239523D02*
D03*
X2313400Y939801D02*
D03*
X2563402D02*
D03*
X2313400Y1034802D02*
D03*
Y844800D02*
D03*
X2563402D02*
D03*
Y1034802D02*
D03*
D11*
X268381Y3286760D02*
D03*
X478379Y3191759D02*
D03*
Y3381761D02*
D03*
X1083720Y3378200D02*
D03*
X1787298Y3475741D02*
D03*
Y3285739D02*
D03*
X1997300Y3380740D02*
D03*
X1293722Y3473201D02*
D03*
Y3283199D02*
D03*
D12*
X945600Y1003300D02*
D03*
X1035602D02*
D03*
X6343101Y4213860D02*
D03*
Y4086859D02*
D03*
X6278162Y3726180D02*
D03*
X5324561Y3098800D02*
D03*
Y2969260D02*
D03*
X2604221Y2887980D02*
D03*
X436159Y3556000D02*
D03*
X5414559Y2969260D02*
D03*
Y3098800D02*
D03*
X4914182Y3014980D02*
D03*
X1527261Y2842260D02*
D03*
X1524720Y2984499D02*
D03*
X2404662Y683260D02*
D03*
X1352000Y1143803D02*
D03*
X4824180Y3014980D02*
D03*
X1442002Y1143803D02*
D03*
X2694219Y2887980D02*
D03*
X346161Y3556000D02*
D03*
X1456141Y3477259D02*
D03*
X1546139D02*
D03*
X1543599Y3286759D02*
D03*
X1453601D02*
D03*
X1614722Y2984499D02*
D03*
X1617259Y2842260D02*
D03*
X615402Y1358901D02*
D03*
X705399D02*
D03*
X2314660Y683260D02*
D03*
X6188160Y3726180D02*
D03*
X6433099Y4086859D02*
D03*
Y4213860D02*
D03*
D15*
X6256020Y461440D02*
D03*
Y553439D02*
D03*
X6680200Y551461D02*
D03*
X6535420Y553439D02*
D03*
X6395720D02*
D03*
X6680200Y459457D02*
D03*
X6535420Y461440D02*
D03*
X6395720D02*
D03*
X4988560Y3543510D02*
D03*
X1986279Y1526821D02*
D03*
X1369060Y139417D02*
D03*
X1130300Y1143000D02*
D03*
X571501Y1630401D02*
D03*
X4988560Y3451511D02*
D03*
X1986279Y1434822D02*
D03*
X2329179Y2941599D02*
D03*
Y2849600D02*
D03*
X2473960Y2898140D02*
D03*
Y2990139D02*
D03*
X571501Y1722399D02*
D03*
X787401Y1135099D02*
D03*
Y1227098D02*
D03*
X1130300Y1234999D02*
D03*
X952504Y1222299D02*
D03*
Y1130295D02*
D03*
X1369060Y231421D02*
D03*
X1684020Y1531620D02*
D03*
Y1623619D02*
D03*
D16*
X2953761Y2748239D02*
D03*
X3053761D02*
D03*
X2803764Y2108241D02*
D03*
X2603759Y2748239D02*
D03*
X2803764D02*
D03*
X2903764D02*
D03*
X2853761D02*
D03*
X3003763D02*
D03*
X2903764Y2108241D02*
D03*
X2603759D02*
D03*
X2703759D02*
D03*
X2503759D02*
D03*
X2553762D02*
D03*
X2653762D02*
D03*
X2753761D02*
D03*
X2853761D02*
D03*
X2953761D02*
D03*
X3053761D02*
D03*
X2753761Y2748239D02*
D03*
X2703759D02*
D03*
X2653762D02*
D03*
X2553762D02*
D03*
X2503759D02*
D03*
X3003763Y2108241D02*
D03*
D17*
X2954020Y2901401D02*
D03*
X3065780Y2975061D02*
D03*
X4307839Y3082839D02*
D03*
X3065780Y3065059D02*
D03*
X2954020Y2991399D02*
D03*
X2501899Y1372321D02*
D03*
X4307839Y2992841D02*
D03*
X754380Y2719619D02*
D03*
X317500Y1847301D02*
D03*
X1864359Y1525821D02*
D03*
X662939Y1133560D02*
D03*
X2745739Y936541D02*
D03*
X3360420Y1845859D02*
D03*
Y1755861D02*
D03*
X3241040Y1822999D02*
D03*
Y1733001D02*
D03*
X1864359Y1435819D02*
D03*
X2080259Y1209762D02*
D03*
Y1299759D02*
D03*
X2501899Y1462319D02*
D03*
X647700Y3102061D02*
D03*
Y3192059D02*
D03*
X754380Y2629621D02*
D03*
X317500Y1937299D02*
D03*
X662939Y1223562D02*
D03*
X2745739Y846539D02*
D03*
X4376419Y3867700D02*
D03*
X4368800Y3468919D02*
D03*
Y3378921D02*
D03*
X4376419Y3777698D02*
D03*
D18*
X5584480Y3780460D02*
D03*
X5144480D02*
D03*
X5584480Y3730462D02*
D03*
X5144480D02*
D03*
X5584480Y3580460D02*
D03*
Y3630463D02*
D03*
X1274100Y1725601D02*
D03*
X834100Y1675599D02*
D03*
X1274100Y1575599D02*
D03*
Y1525601D02*
D03*
X834100Y1625601D02*
D03*
Y1575599D02*
D03*
Y1725601D02*
D03*
Y1525601D02*
D03*
X1274100Y1625601D02*
D03*
Y1675599D02*
D03*
X5144480Y3680460D02*
D03*
X5584480D02*
D03*
X5144480Y3630463D02*
D03*
Y3580460D02*
D03*
D19*
X6058899Y1190981D02*
D03*
X6071599Y2659101D02*
D03*
D20*
Y3059100D02*
D03*
X6058899Y1590980D02*
D03*
Y1390980D02*
D03*
X6071599Y2859100D02*
D03*
Y3259099D02*
D03*
X6058899Y1790979D02*
D03*
D21*
X2458761Y2703241D02*
D03*
Y2603241D02*
D03*
Y2553238D02*
D03*
X3098759Y2703241D02*
D03*
Y2653238D02*
D03*
X2458761Y2153239D02*
D03*
Y2303242D02*
D03*
Y2503241D02*
D03*
Y2453239D02*
D03*
Y2403241D02*
D03*
Y2353239D02*
D03*
Y2253239D02*
D03*
Y2203242D02*
D03*
X3098759Y2153239D02*
D03*
Y2203242D02*
D03*
Y2253239D02*
D03*
Y2303242D02*
D03*
Y2353239D02*
D03*
Y2403241D02*
D03*
Y2453239D02*
D03*
Y2503241D02*
D03*
Y2553238D02*
D03*
Y2603241D02*
D03*
X2458761Y2653238D02*
D03*
D22*
X1461699Y4305300D02*
D03*
X341701D02*
D03*
D23*
X1641140Y2429439D02*
D03*
Y2379442D02*
D03*
Y2579441D02*
D03*
X1996141Y2629439D02*
D03*
Y2579441D02*
D03*
Y2529439D02*
D03*
Y2479442D02*
D03*
Y2429439D02*
D03*
Y2379442D02*
D03*
X1641140Y2479442D02*
D03*
Y2529439D02*
D03*
Y2629439D02*
D03*
D24*
X2679700Y1397000D02*
D03*
X2869702Y1526997D02*
D03*
Y1461999D02*
D03*
Y1397000D02*
D03*
X2679700Y1526997D02*
D03*
Y1461999D02*
D03*
D25*
X2249800Y1514641D02*
D03*
X2169800D02*
D03*
D26*
X1943901Y861703D02*
D03*
X493559Y61600D02*
D03*
X1943901Y941702D02*
D03*
X493559Y141600D02*
D03*
D27*
X6688099Y4213860D02*
D03*
X2291359Y2534921D02*
D03*
X3411499Y2197100D02*
D03*
X3175279Y746763D02*
D03*
X2232379Y2125980D02*
D03*
X2214601Y2654300D02*
D03*
X970001Y2070100D02*
D03*
X1592299Y1308100D02*
D03*
X292380Y1493519D02*
D03*
X3083280Y746763D02*
D03*
X1061999Y2070100D02*
D03*
X1592299Y1143798D02*
D03*
X1684298D02*
D03*
X1958618Y1297943D02*
D03*
X1866619D02*
D03*
X2313659Y1196343D02*
D03*
X2405658D02*
D03*
X2567940Y1196340D02*
D03*
X2659939D02*
D03*
X2324378Y2125980D02*
D03*
X2199361Y2534921D02*
D03*
X2306599Y2654300D02*
D03*
X200381Y1493519D02*
D03*
X388898Y1000763D02*
D03*
X296899D02*
D03*
X3319501Y2197100D02*
D03*
X6596101Y4213860D02*
D03*
X1684298Y1308100D02*
D03*
X3904261Y947420D02*
D03*
X3812257D02*
D03*
D28*
X6660580Y3906520D02*
D03*
X6430578D02*
D03*
D29*
X4816558Y4810759D02*
D03*
Y4429759D02*
D03*
Y4556759D02*
D03*
Y4683759D02*
D03*
X4271560Y4429759D02*
D03*
Y4556759D02*
D03*
Y4683759D02*
D03*
Y4810759D02*
D03*
D30*
X3594100Y4802901D02*
D03*
D31*
X2749681Y3787399D02*
D03*
X2924682D02*
D03*
D32*
X3360003Y1054100D02*
D03*
X3175000D02*
D03*
Y1374099D02*
D03*
X3360003D02*
D03*
D33*
X2778760Y2428240D02*
D03*
D34*
X2779599Y203782D02*
D03*
Y463782D02*
D03*
Y593779D02*
D03*
Y528781D02*
D03*
Y398778D02*
D03*
Y333780D02*
D03*
Y268781D02*
D03*
X3367202Y203782D02*
D03*
Y268781D02*
D03*
Y333780D02*
D03*
Y398778D02*
D03*
Y463782D02*
D03*
Y528781D02*
D03*
Y593779D02*
D03*
D35*
X2070100Y4802901D02*
D03*
D36*
X1818640Y2504440D02*
D03*
D37*
X993140Y2636976D02*
D03*
X1088390Y2377439D02*
D03*
X898144Y2376982D02*
D03*
Y2636976D02*
D03*
X1088136D02*
D03*
D38*
X1903321Y428220D02*
D03*
X948280Y311379D02*
D03*
X1903321Y363221D02*
D03*
X738278Y181381D02*
D03*
Y311379D02*
D03*
X948280Y246380D02*
D03*
Y181381D02*
D03*
X1693319Y298218D02*
D03*
Y428220D02*
D03*
X1903321Y298218D02*
D03*
D39*
X1104900Y545282D02*
D03*
X1234902Y335280D02*
D03*
X1104900D02*
D03*
X1169899Y545282D02*
D03*
X1234902D02*
D03*
D40*
X2043901Y901703D02*
D03*
X593559Y101600D02*
D03*
D41*
X1693642Y2326940D02*
D03*
X1743639D02*
D03*
X1693642Y2681941D02*
D03*
X1793642D02*
D03*
X1843639D02*
D03*
X1893641D02*
D03*
X1943639Y2326940D02*
D03*
X1893641D02*
D03*
X1843639D02*
D03*
X1793642D02*
D03*
X1743639Y2681941D02*
D03*
X1943639D02*
D03*
D42*
X3594100Y3883899D02*
D03*
D43*
X2209800Y1614641D02*
D03*
D44*
X1397000Y928822D02*
D03*
Y718820D02*
D03*
X848360Y530860D02*
D03*
Y740862D02*
D03*
X1730201Y720501D02*
D03*
Y930499D02*
D03*
D45*
X1336843Y2366900D02*
D03*
Y2636902D02*
D03*
X1436842Y2366900D02*
D03*
D46*
Y2641901D02*
D03*
D47*
X2070100Y3883899D02*
D03*
D48*
X6821601Y2429099D02*
D03*
Y3489101D02*
D03*
X6808901Y960979D02*
D03*
Y2020981D02*
D03*
D49*
X5558920Y4650739D02*
D03*
X6368921D02*
D03*
D50*
X2837179Y4262399D02*
D03*
D51*
X2749681Y3662401D02*
D03*
%TF.MD5,261eba799ea2022380eee53f92e8a3f2*%
M02*
