%TF.GenerationSoftware,Altium Limited,Altium Designer,26.5.0 (11)*%
G04 Layer_Physical_Order=1*
G04 Layer_Color=255*
G04 Board_Origin=23340945|23900000*
%FSLAX45Y45*%
%MOMM*%
%TF.SameCoordinates,B825AC53-504F-4258-B26F-6CDAE949C360*%
%TF.FilePolarity,Positive*%
%TF.FileFunction,Copper,L1,Top,Signal*%
%TF.Part,Single*%
G01*
G75*
%TA.AperFunction,SMDPad,CuDef*%
%ADD10R,1.20000X0.60000*%
G04:AMPARAMS|DCode=11|XSize=1.1mm|YSize=0.8mm|CornerRadius=0.1mm|HoleSize=0mm|Usage=FLASHONLY|Rotation=180.000|XOffset=0mm|YOffset=0mm|HoleType=Round|Shape=RoundedRectangle|*
%AMROUNDEDRECTD11*
21,1,1.10000,0.60000,0,0,180.0*
21,1,0.90000,0.80000,0,0,180.0*
1,1,0.20000,-0.45000,0.30000*
1,1,0.20000,0.45000,0.30000*
1,1,0.20000,0.45000,-0.30000*
1,1,0.20000,-0.45000,-0.30000*
%
%ADD11ROUNDEDRECTD11*%
%ADD12R,0.55000X0.55000*%
%ADD13R,5.00000X2.00000*%
%ADD14R,2.00000X5.00000*%
%ADD15R,0.62000X0.62000*%
%ADD16O,0.35000X0.50000*%
%ADD17R,0.55000X0.55000*%
%ADD18R,1.40000X0.30000*%
%TA.AperFunction,ConnectorPad*%
G04:AMPARAMS|DCode=19|XSize=3.4mm|YSize=1mm|CornerRadius=0.25mm|HoleSize=0mm|Usage=FLASHONLY|Rotation=180.000|XOffset=0mm|YOffset=0mm|HoleType=Round|Shape=RoundedRectangle|*
%AMROUNDEDRECTD19*
21,1,3.40000,0.50000,0,0,180.0*
21,1,2.90000,1.00000,0,0,180.0*
1,1,0.50000,-1.45000,0.25000*
1,1,0.50000,1.45000,0.25000*
1,1,0.50000,1.45000,-0.25000*
1,1,0.50000,-1.45000,-0.25000*
%
%ADD19ROUNDEDRECTD19*%
G04:AMPARAMS|DCode=20|XSize=3.4mm|YSize=1mm|CornerRadius=0.15mm|HoleSize=0mm|Usage=FLASHONLY|Rotation=180.000|XOffset=0mm|YOffset=0mm|HoleType=Round|Shape=RoundedRectangle|*
%AMROUNDEDRECTD20*
21,1,3.40000,0.70000,0,0,180.0*
21,1,3.10000,1.00000,0,0,180.0*
1,1,0.30000,-1.55000,0.35000*
1,1,0.30000,1.55000,0.35000*
1,1,0.30000,1.55000,-0.35000*
1,1,0.30000,-1.55000,-0.35000*
%
%ADD20ROUNDEDRECTD20*%
%TA.AperFunction,SMDPad,CuDef*%
%ADD21O,0.50000X0.35000*%
%ADD22R,1.20000X4.00000*%
%ADD23O,0.55000X0.35000*%
%ADD24R,1.20000X0.40000*%
%ADD25R,0.28000X0.50000*%
%ADD26R,0.50000X0.28000*%
%ADD27R,0.62000X0.62000*%
%ADD28R,0.75000X1.45000*%
%ADD29O,1.45000X0.60000*%
%TA.AperFunction,ConnectorPad*%
%ADD30R,1.60000X2.20000*%
%TA.AperFunction,SMDPad,CuDef*%
%ADD31R,1.25000X0.50000*%
%ADD32R,1.50000X1.90000*%
%ADD33R,5.40000X5.40000*%
%ADD34R,1.47500X0.45000*%
%ADD35R,1.60000X2.18000*%
%ADD36R,2.65000X2.65000*%
%ADD37R,0.54991X1.19990*%
%ADD38R,0.85000X0.40000*%
%ADD39R,0.40000X0.85000*%
%ADD40R,0.50000X0.36000*%
%ADD41O,0.35000X0.55000*%
%TA.AperFunction,ConnectorPad*%
%ADD42R,1.60000X2.18000*%
%TA.AperFunction,SMDPad,CuDef*%
%ADD43R,0.36000X0.50000*%
%ADD44R,0.46000X0.60000*%
G04:AMPARAMS|DCode=45|XSize=1.1mm|YSize=0.6mm|CornerRadius=0.099mm|HoleSize=0mm|Usage=FLASHONLY|Rotation=270.000|XOffset=0mm|YOffset=0mm|HoleType=Round|Shape=RoundedRectangle|*
%AMROUNDEDRECTD45*
21,1,1.10000,0.40200,0,0,270.0*
21,1,0.90200,0.60000,0,0,270.0*
1,1,0.19800,-0.20100,-0.45100*
1,1,0.19800,-0.20100,0.45100*
1,1,0.19800,0.20100,0.45100*
1,1,0.19800,0.20100,-0.45100*
%
%ADD45ROUNDEDRECTD45*%
G04:AMPARAMS|DCode=46|XSize=1.1mm|YSize=0.6mm|CornerRadius=0.15mm|HoleSize=0mm|Usage=FLASHONLY|Rotation=270.000|XOffset=0mm|YOffset=0mm|HoleType=Round|Shape=RoundedRectangle|*
%AMROUNDEDRECTD46*
21,1,1.10000,0.30000,0,0,270.0*
21,1,0.80000,0.60000,0,0,270.0*
1,1,0.30000,-0.15000,-0.40000*
1,1,0.30000,-0.15000,0.40000*
1,1,0.30000,0.15000,0.40000*
1,1,0.30000,0.15000,-0.40000*
%
%ADD46ROUNDEDRECTD46*%
%ADD47R,1.60000X2.20000*%
%TA.AperFunction,ConnectorPad*%
G04:AMPARAMS|DCode=48|XSize=3.6mm|YSize=1.5mm|CornerRadius=0.195mm|HoleSize=0mm|Usage=FLASHONLY|Rotation=180.000|XOffset=0mm|YOffset=0mm|HoleType=Round|Shape=RoundedRectangle|*
%AMROUNDEDRECTD48*
21,1,3.60000,1.11000,0,0,180.0*
21,1,3.21000,1.50000,0,0,180.0*
1,1,0.39000,-1.60500,0.55500*
1,1,0.39000,1.60500,0.55500*
1,1,0.39000,1.60500,-0.55500*
1,1,0.39000,-1.60500,-0.55500*
%
%ADD48ROUNDEDRECTD48*%
%TA.AperFunction,SMDPad,CuDef*%
%ADD49R,2.95000X5.50000*%
%ADD50R,1.00000X1.00000*%
%ADD51R,1.25000X1.00000*%
%TA.AperFunction,Conductor*%
%ADD52C,0.15000*%
%ADD53C,0.26400*%
%ADD54C,0.25400*%
%ADD55C,0.30300*%
%ADD56C,0.30314*%
%ADD57C,0.38100*%
%ADD58C,0.20300*%
%TA.AperFunction,ComponentPad*%
%ADD59C,1.65000*%
%ADD60R,1.65000X1.65000*%
%ADD61C,0.65000*%
%ADD62O,2.40000X0.90000*%
%ADD63O,1.70000X0.90000*%
%ADD64R,1.95000X1.95000*%
%ADD65C,1.95000*%
%TA.AperFunction,ViaPad*%
%ADD66C,0.85000*%
%ADD67C,0.50000*%
G36*
X7000240Y3590641D02*
X6985240Y3579153D01*
X6982100Y3579777D01*
X6661101D01*
X6647639Y3577100D01*
X6636228Y3569474D01*
X6628602Y3558062D01*
X6625925Y3544601D01*
Y3433602D01*
X6628602Y3420140D01*
X6636228Y3408729D01*
X6647639Y3401103D01*
X6661101Y3398426D01*
X6982100D01*
X6985240Y3399050D01*
X7000240Y3387562D01*
Y2530638D01*
X6985240Y2519150D01*
X6982100Y2519774D01*
X6661101D01*
X6647639Y2517097D01*
X6636228Y2509471D01*
X6628602Y2498060D01*
X6625925Y2484598D01*
Y2373599D01*
X6628602Y2360138D01*
X6636228Y2348726D01*
X6647639Y2341100D01*
X6661101Y2338423D01*
X6982100D01*
X6985240Y2339047D01*
X7000240Y2327559D01*
Y2115408D01*
X6985240Y2107391D01*
X6982862Y2108980D01*
X6969400Y2111657D01*
X6648401D01*
X6634939Y2108980D01*
X6623528Y2101354D01*
X6615902Y2089942D01*
X6613225Y2076481D01*
Y1965482D01*
X6615902Y1952020D01*
X6623528Y1940609D01*
X6634939Y1932983D01*
X6648401Y1930306D01*
X6969400D01*
X6982862Y1932983D01*
X6985240Y1934572D01*
X7000240Y1926555D01*
Y1055405D01*
X6985240Y1047388D01*
X6982862Y1048977D01*
X6969400Y1051654D01*
X6648401D01*
X6634939Y1048977D01*
X6623528Y1041351D01*
X6615902Y1029940D01*
X6613225Y1016478D01*
Y905479D01*
X6615902Y892018D01*
X6623528Y880606D01*
X6634939Y872980D01*
X6648401Y870303D01*
X6969400D01*
X6982862Y872980D01*
X6985240Y874569D01*
X7000240Y866552D01*
Y0D01*
X0D01*
Y4998720D01*
X7000240D01*
Y3590641D01*
D02*
G37*
%LPC*%
G36*
X4314060Y4856640D02*
X4229060D01*
X4211502Y4853148D01*
X4196617Y4843202D01*
X4191965Y4836239D01*
X3967480D01*
X3967479Y4836240D01*
X3958700Y4834493D01*
X3951257Y4829520D01*
X3842039Y4720301D01*
X3837066Y4712859D01*
X3835319Y4704080D01*
Y3870302D01*
X3585000Y3619983D01*
X3572284Y3628480D01*
X3575400Y3636003D01*
Y3658877D01*
X3571411Y3668508D01*
X3607781Y3704879D01*
X3612754Y3712321D01*
X3614501Y3721100D01*
Y3759899D01*
X3689100D01*
Y4007899D01*
X3499100D01*
Y3759899D01*
X3568619D01*
Y3730602D01*
X3538968Y3700951D01*
X3529337Y3704940D01*
X3506463D01*
X3485329Y3696186D01*
X3469154Y3680011D01*
X3460400Y3658877D01*
Y3636003D01*
X3469154Y3614869D01*
X3485329Y3598694D01*
X3506463Y3589940D01*
X3529337D01*
X3536860Y3593056D01*
X3545357Y3580339D01*
X3422939Y3457921D01*
X3417966Y3450479D01*
X3416219Y3441700D01*
Y2893672D01*
X3397360Y2874813D01*
X3382360Y2881026D01*
Y2891797D01*
X3373606Y2912931D01*
X3357431Y2929106D01*
X3336297Y2937860D01*
X3313423D01*
X3305920Y2934752D01*
X3290920Y2934978D01*
X3285230Y2948713D01*
X3296711Y2960194D01*
X3303263Y2957480D01*
X3326137D01*
X3347271Y2966234D01*
X3363446Y2982409D01*
X3372200Y3003543D01*
Y3026417D01*
X3363446Y3047551D01*
X3347271Y3063726D01*
X3326137Y3072480D01*
X3303263D01*
X3282129Y3063726D01*
X3265954Y3047551D01*
X3261965Y3037921D01*
X3232314D01*
X3226574Y3051779D01*
X3308516Y3133720D01*
X3310883Y3132740D01*
X3333757D01*
X3354891Y3141494D01*
X3371066Y3157669D01*
X3379820Y3178803D01*
Y3201677D01*
X3371066Y3222811D01*
X3354891Y3238986D01*
X3333757Y3247740D01*
X3310883D01*
X3289749Y3238986D01*
X3273574Y3222811D01*
X3264820Y3201677D01*
Y3178803D01*
X3267425Y3172513D01*
X3123280Y3028367D01*
X3108280Y3034581D01*
Y3107558D01*
X3108280D01*
X3104816Y3122558D01*
X3109446Y3127189D01*
X3118200Y3148323D01*
Y3171197D01*
X3109446Y3192331D01*
X3093271Y3208506D01*
X3072137Y3217260D01*
X3049263D01*
X3028129Y3208506D01*
X3011954Y3192331D01*
X3008524Y3184050D01*
X2996919Y3181742D01*
X2975786Y3190496D01*
X2952911D01*
X2931777Y3181742D01*
X2915602Y3165567D01*
X2906848Y3144433D01*
Y3121558D01*
X2912804Y3107180D01*
X2867500Y3061877D01*
X2852501Y3067868D01*
Y3128098D01*
X2850754Y3136877D01*
X2845781Y3144320D01*
X2840636Y3149465D01*
X2848960Y3169563D01*
Y3192437D01*
X2840206Y3213571D01*
X2824031Y3229746D01*
X2802897Y3238500D01*
X2780023D01*
X2758889Y3229746D01*
X2742714Y3213571D01*
X2735420Y3195963D01*
X2720421Y3198947D01*
Y3239083D01*
X2780717Y3299379D01*
X3178516D01*
X3182769Y3289114D01*
X3198944Y3272939D01*
X3220077Y3264185D01*
X3242952D01*
X3264086Y3272939D01*
X3280261Y3289114D01*
X3289015Y3310248D01*
Y3333122D01*
X3280261Y3354256D01*
X3264086Y3370431D01*
X3242952Y3379185D01*
X3220077D01*
X3198944Y3370431D01*
X3182769Y3354256D01*
X3179042Y3345261D01*
X2771215D01*
X2762436Y3343514D01*
X2754993Y3338541D01*
X2681259Y3264807D01*
X2676286Y3257364D01*
X2674539Y3248585D01*
Y3172110D01*
X2676286Y3163331D01*
X2681259Y3155889D01*
X2753279Y3083868D01*
Y2879939D01*
X2738280Y2871921D01*
X2737261Y2872602D01*
Y2873180D01*
X2736718Y2875910D01*
Y2930480D01*
X2651719D01*
Y2930480D01*
X2646721D01*
Y2930480D01*
X2629341D01*
Y2951182D01*
X2641151Y2956074D01*
X2657326Y2972249D01*
X2666080Y2993383D01*
Y3016257D01*
X2657326Y3037391D01*
X2641151Y3053566D01*
X2620017Y3062320D01*
X2597143D01*
X2576009Y3053566D01*
X2559834Y3037391D01*
X2551080Y3016257D01*
Y2993383D01*
X2559834Y2972249D01*
X2576009Y2956074D01*
X2583460Y2952987D01*
Y2930480D01*
X2561722D01*
Y2845480D01*
X2548556Y2841050D01*
X2529400D01*
X2519960Y2852140D01*
Y2944139D01*
Y3036139D01*
X2502712D01*
Y3353590D01*
X2579850Y3430728D01*
X2705100D01*
X2716103Y3432916D01*
X2725431Y3439149D01*
X2770012Y3483730D01*
X2776244Y3493058D01*
X2778433Y3504061D01*
Y3510280D01*
X3098800D01*
X3129280Y3479800D01*
Y4432300D01*
X2542540D01*
X2532380Y4442460D01*
X2527213Y3810340D01*
X2344071D01*
X2337794Y3821212D01*
X2325152Y3833854D01*
X2309668Y3842793D01*
X2296160Y3846412D01*
Y3779520D01*
Y3712628D01*
X2309668Y3716247D01*
X2325152Y3725186D01*
X2337794Y3737828D01*
X2346733Y3753312D01*
X2349720Y3764459D01*
X2516187D01*
X2526751Y3753809D01*
X2524760Y3510280D01*
X2688691D01*
X2695522Y3495280D01*
X2689971Y3488232D01*
X2567940D01*
X2556937Y3486044D01*
X2547609Y3479811D01*
X2453629Y3385831D01*
X2447396Y3376503D01*
X2445208Y3365500D01*
Y3206846D01*
X2430208Y3203862D01*
X2426186Y3213571D01*
X2410011Y3229746D01*
X2388877Y3238500D01*
X2366003D01*
X2344869Y3229746D01*
X2328694Y3213571D01*
X2324705Y3203941D01*
X2276760D01*
X2267981Y3202194D01*
X2260539Y3197221D01*
X2154578Y3091261D01*
X1935927D01*
X1930886Y3103431D01*
X1914711Y3119606D01*
X1893577Y3128360D01*
X1870703D01*
X1849569Y3119606D01*
X1833394Y3103431D01*
X1824640Y3082297D01*
Y3059423D01*
X1833394Y3038289D01*
X1849569Y3022114D01*
X1870703Y3013360D01*
X1893577D01*
X1914711Y3022114D01*
X1930886Y3038289D01*
X1933823Y3045379D01*
X2164080D01*
X2169927Y3046542D01*
X2177143Y3037734D01*
X2178769Y3034171D01*
X2098698Y2954101D01*
X2016155D01*
X2012166Y2963731D01*
X1995991Y2979906D01*
X1974857Y2988660D01*
X1951983D01*
X1930849Y2979906D01*
X1914674Y2963731D01*
X1905920Y2942597D01*
Y2936341D01*
X1890920Y2930128D01*
X1719549Y3101500D01*
X1725762Y3116499D01*
X1734820D01*
X1743599Y3118246D01*
X1751041Y3123219D01*
X1803518Y3175696D01*
X1803519Y3175696D01*
X1808492Y3183139D01*
X1810238Y3191918D01*
X1810238Y3191919D01*
Y3230249D01*
X1832298D01*
X1842052Y3232190D01*
X1850321Y3237715D01*
X1855847Y3245985D01*
X1857787Y3255739D01*
Y3315739D01*
X1855847Y3325493D01*
X1850321Y3333763D01*
X1842052Y3339288D01*
X1832298Y3341229D01*
X1742298D01*
X1732543Y3339288D01*
X1724274Y3333763D01*
X1718748Y3325493D01*
X1716808Y3315739D01*
Y3309189D01*
X1586098D01*
Y3329259D01*
X1511101D01*
X1501099Y3329259D01*
X1486099Y3329259D01*
X1411102D01*
Y3309949D01*
X1364212D01*
Y3313199D01*
X1362272Y3322953D01*
X1356746Y3331223D01*
X1348477Y3336748D01*
X1338722Y3338689D01*
X1248722D01*
X1238968Y3336748D01*
X1230699Y3331223D01*
X1225173Y3322953D01*
X1223233Y3313199D01*
Y3253199D01*
X1225173Y3243445D01*
X1230699Y3235175D01*
X1238968Y3229650D01*
X1248722Y3227709D01*
X1338722D01*
X1348477Y3229650D01*
X1356746Y3235175D01*
X1362272Y3243445D01*
X1364212Y3253199D01*
Y3264068D01*
X1411102D01*
Y3244259D01*
X1486099D01*
X1496101Y3244259D01*
X1511101Y3244259D01*
X1586098D01*
Y3263308D01*
X1716808D01*
Y3255739D01*
X1718748Y3245985D01*
X1724274Y3237715D01*
X1732543Y3232190D01*
X1742298Y3230249D01*
X1764357D01*
Y3201420D01*
X1725318Y3162381D01*
X1091810D01*
X1085515Y3177577D01*
X1069340Y3193752D01*
X1048206Y3202506D01*
X1025331D01*
X1004198Y3193752D01*
X988023Y3177577D01*
X979269Y3156444D01*
Y3133569D01*
X988023Y3112435D01*
X1004198Y3096260D01*
X1025331Y3087506D01*
X1048206D01*
X1069340Y3096260D01*
X1085515Y3112435D01*
X1087198Y3116499D01*
X1198483D01*
X1204697Y3101500D01*
X1147208Y3044010D01*
X988932D01*
X777321Y3255622D01*
Y3346936D01*
X790506Y3350326D01*
X792320Y3350382D01*
X808169Y3334534D01*
X829303Y3325780D01*
X852177D01*
X873311Y3334534D01*
X889486Y3350709D01*
X893475Y3360339D01*
X1013231D01*
Y3348200D01*
X1015171Y3338446D01*
X1020696Y3330176D01*
X1028966Y3324651D01*
X1038720Y3322710D01*
X1128720D01*
X1138474Y3324651D01*
X1146744Y3330176D01*
X1152269Y3338446D01*
X1154210Y3348200D01*
Y3408200D01*
X1152269Y3417954D01*
X1146744Y3426224D01*
X1138474Y3431749D01*
X1128720Y3433690D01*
X1038720D01*
X1028966Y3431749D01*
X1020696Y3426224D01*
X1015171Y3417954D01*
X1013231Y3408200D01*
Y3406221D01*
X893475D01*
X889486Y3415851D01*
X873311Y3432026D01*
X852177Y3440780D01*
X829303D01*
X808169Y3432026D01*
X792320Y3416178D01*
X790506Y3416234D01*
X777321Y3419624D01*
Y3460138D01*
X928982Y3611799D01*
X1370516D01*
X1433201Y3549115D01*
Y3519759D01*
X1413642D01*
Y3500201D01*
X1364212D01*
Y3503201D01*
X1362272Y3512955D01*
X1356746Y3521225D01*
X1348477Y3526750D01*
X1338722Y3528691D01*
X1248722D01*
X1238968Y3526750D01*
X1230699Y3521225D01*
X1225173Y3512955D01*
X1223233Y3503201D01*
Y3443201D01*
X1225173Y3433447D01*
X1230699Y3425177D01*
X1238968Y3419652D01*
X1248722Y3417711D01*
X1338722D01*
X1348477Y3419652D01*
X1356746Y3425177D01*
X1362272Y3433447D01*
X1364212Y3443201D01*
Y3454319D01*
X1413642D01*
Y3434759D01*
X1488639D01*
X1498641Y3434759D01*
X1513641Y3434759D01*
X1588638D01*
Y3452801D01*
X1716808D01*
Y3445741D01*
X1718748Y3435987D01*
X1724274Y3427717D01*
X1732543Y3422192D01*
X1742298Y3420251D01*
X1832298D01*
X1842052Y3422192D01*
X1850321Y3427717D01*
X1855847Y3435987D01*
X1857787Y3445741D01*
Y3505741D01*
X1855847Y3515495D01*
X1850321Y3523765D01*
X1842052Y3529290D01*
X1832298Y3531231D01*
X1742298D01*
X1732543Y3529290D01*
X1724274Y3523765D01*
X1718748Y3515495D01*
X1716808Y3505741D01*
Y3498682D01*
X1588638D01*
Y3519759D01*
X1513641D01*
X1503639Y3519759D01*
X1489688Y3519759D01*
X1479082Y3530365D01*
Y3558616D01*
X1479082Y3558617D01*
X1477336Y3567396D01*
X1472363Y3574838D01*
X1472362Y3574839D01*
X1396240Y3650961D01*
X1388797Y3655934D01*
X1380018Y3657681D01*
X919480D01*
X910701Y3655934D01*
X903259Y3650961D01*
X738159Y3485861D01*
X733186Y3478419D01*
X731439Y3469640D01*
Y3246120D01*
X733186Y3237341D01*
X738159Y3229899D01*
X796757Y3171300D01*
X790544Y3156300D01*
X786123D01*
X764989Y3147546D01*
X748814Y3131371D01*
X745500Y3123371D01*
X700806D01*
X690200Y3133978D01*
Y3144561D01*
X690200Y3159561D01*
Y3234558D01*
X605200D01*
Y3214849D01*
X548868D01*
Y3221759D01*
X546928Y3231513D01*
X541402Y3239783D01*
X533133Y3245308D01*
X523378Y3247249D01*
X433379D01*
X423624Y3245308D01*
X415355Y3239783D01*
X409829Y3231513D01*
X407889Y3221759D01*
Y3161759D01*
X409829Y3152005D01*
X415355Y3143735D01*
X423624Y3138210D01*
X433379Y3136269D01*
X523378D01*
X533133Y3138210D01*
X541402Y3143735D01*
X546928Y3152005D01*
X548868Y3161759D01*
Y3168968D01*
X594594D01*
X605200Y3158362D01*
Y3149559D01*
X605200Y3134559D01*
Y3059562D01*
X690200D01*
Y3077490D01*
X744149D01*
X748814Y3066229D01*
X764989Y3050054D01*
X786123Y3041300D01*
X808997D01*
X830131Y3050054D01*
X846306Y3066229D01*
X855060Y3087363D01*
Y3091784D01*
X870060Y3097997D01*
X963209Y3004848D01*
X970651Y2999876D01*
X979430Y2998129D01*
X1156710D01*
X1165489Y2999876D01*
X1172931Y3004848D01*
X1239182Y3071100D01*
X1685063D01*
X1733723Y3022439D01*
X1727510Y3007439D01*
X1657222D01*
Y3026999D01*
X1582220D01*
X1572223Y3026999D01*
X1557222Y3026999D01*
X1482220D01*
Y3006170D01*
X1383169D01*
X1379706Y3014531D01*
X1363531Y3030706D01*
X1342397Y3039460D01*
X1319523D01*
X1298389Y3030706D01*
X1282214Y3014531D01*
X1273460Y2993397D01*
Y2970523D01*
X1282214Y2949389D01*
X1298389Y2933214D01*
X1319523Y2924460D01*
X1342397D01*
X1363531Y2933214D01*
X1379706Y2949389D01*
X1384221Y2960289D01*
X1482220D01*
Y2941999D01*
X1557222D01*
X1567220Y2941999D01*
X1582220Y2941999D01*
X1657222D01*
Y2961558D01*
X1730399D01*
X1868448Y2823509D01*
Y2737995D01*
X1853448Y2732105D01*
X1727072Y2858481D01*
X1719630Y2863454D01*
X1710851Y2865201D01*
X1659758D01*
Y2884760D01*
X1584761D01*
X1574759Y2884760D01*
X1559759Y2884760D01*
X1484762D01*
Y2865201D01*
X1375584D01*
X1344203Y2896581D01*
X1336761Y2901554D01*
X1327982Y2903301D01*
X1271935D01*
X1267946Y2912931D01*
X1251771Y2929106D01*
X1230637Y2937860D01*
X1207763D01*
X1186629Y2929106D01*
X1170454Y2912931D01*
X1161700Y2891797D01*
Y2868923D01*
X1170454Y2847789D01*
X1186629Y2831614D01*
X1207763Y2822860D01*
X1230637D01*
X1251771Y2831614D01*
X1267946Y2847789D01*
X1271935Y2857419D01*
X1318479D01*
X1349860Y2826039D01*
X1357303Y2821066D01*
X1366082Y2819319D01*
X1474155D01*
X1484761Y2808713D01*
Y2799760D01*
X1474525Y2789001D01*
X1170282D01*
X1057621Y2901661D01*
X1050179Y2906634D01*
X1041400Y2908381D01*
X852835D01*
X848846Y2918011D01*
X832671Y2934186D01*
X811537Y2942940D01*
X788663D01*
X767529Y2934186D01*
X751354Y2918011D01*
X742600Y2896877D01*
Y2874003D01*
X751354Y2852869D01*
X766181Y2838042D01*
X765384Y2831770D01*
X761582Y2823042D01*
X666969D01*
X662886Y2832899D01*
X646599Y2849186D01*
X626572Y2857482D01*
X625195Y2861895D01*
X624842Y2873001D01*
X626307Y2873608D01*
X641013Y2884892D01*
X652297Y2899598D01*
X659391Y2916724D01*
X660138Y2922402D01*
X371467D01*
X372215Y2916724D01*
X379309Y2899598D01*
X390593Y2884892D01*
X405299Y2873608D01*
X422425Y2866514D01*
X440803Y2864095D01*
X442797D01*
X445906Y2849634D01*
X445911Y2849095D01*
X429715Y2832899D01*
X425632Y2823042D01*
X362303D01*
X281184Y2904161D01*
X286388Y2916724D01*
X287135Y2922402D01*
X190500D01*
Y2864095D01*
X217800D01*
X236178Y2866514D01*
X248741Y2871718D01*
X336579Y2783880D01*
X336579Y2783880D01*
X344022Y2778907D01*
X352801Y2777160D01*
X352802Y2777161D01*
X425632D01*
X429715Y2767303D01*
X436376Y2760642D01*
X438532Y2742009D01*
X431300Y2724551D01*
Y2705654D01*
X438532Y2688196D01*
X444327Y2682400D01*
X450489Y2672601D01*
X444327Y2662801D01*
X438532Y2657006D01*
X431300Y2639547D01*
Y2620651D01*
X438532Y2603192D01*
X444325Y2597399D01*
X450490Y2587600D01*
X444325Y2577800D01*
X438532Y2572007D01*
X431300Y2554549D01*
Y2535652D01*
X438532Y2518194D01*
X444325Y2512400D01*
X450490Y2502601D01*
X444325Y2492802D01*
X438532Y2487008D01*
X431300Y2469550D01*
Y2450653D01*
X438532Y2433195D01*
X444327Y2427399D01*
X450489Y2417600D01*
X444327Y2407801D01*
X438532Y2402005D01*
X431300Y2384546D01*
Y2377398D01*
X429819Y2369951D01*
X430196Y2368054D01*
X301279Y2239137D01*
X296306Y2231694D01*
X294559Y2222915D01*
Y2107947D01*
X279560Y2104963D01*
X279294Y2105604D01*
X268010Y2120310D01*
X253304Y2131594D01*
X236178Y2138688D01*
X217800Y2141107D01*
X190500D01*
Y2070100D01*
X177800D01*
Y2057400D01*
X68465D01*
X69212Y2051722D01*
X76306Y2034596D01*
X87590Y2019890D01*
X102296Y2008606D01*
X119422Y2001512D01*
X137800Y1999093D01*
X154859D01*
Y1883958D01*
X156606Y1875179D01*
X161579Y1867737D01*
X197578Y1831737D01*
X205021Y1826764D01*
X213800Y1825018D01*
X264600D01*
Y1794402D01*
X292459D01*
Y1711243D01*
X276159Y1694943D01*
X271186Y1687500D01*
X269440Y1678721D01*
Y1549919D01*
X235980D01*
Y1539519D01*
X154381D01*
Y1516459D01*
X116184D01*
X88981Y1543662D01*
Y1547518D01*
X130250Y1588788D01*
X143538Y1588115D01*
X148729Y1586053D01*
X163009Y1571774D01*
X184143Y1563020D01*
X207017D01*
X228151Y1571774D01*
X244326Y1587949D01*
X253080Y1609083D01*
Y1631957D01*
X244326Y1653091D01*
X228151Y1669266D01*
X207017Y1678020D01*
X184143D01*
X163009Y1669266D01*
X146834Y1653091D01*
X143897Y1646001D01*
X132081D01*
X132080Y1646001D01*
X123301Y1644254D01*
X115859Y1639281D01*
X115858Y1639281D01*
X49819Y1573241D01*
X44846Y1565799D01*
X43099Y1557020D01*
Y1371600D01*
Y1262380D01*
X44846Y1253601D01*
X49819Y1246159D01*
X72676Y1223301D01*
X80118Y1218328D01*
X88897Y1216582D01*
X111974D01*
X122580Y1205975D01*
X122580Y1194523D01*
X122580Y1178069D01*
X111974Y1167462D01*
X95501D01*
X86722Y1165716D01*
X79280Y1160743D01*
X79279Y1160742D01*
X52359Y1133821D01*
X47386Y1126379D01*
X45639Y1117600D01*
Y1033780D01*
X47386Y1025001D01*
X52359Y1017559D01*
X85375Y984542D01*
X85376Y984541D01*
X92818Y979568D01*
X101597Y977822D01*
X101599Y977822D01*
X250899D01*
Y954763D01*
X279976D01*
X281305Y948079D01*
X286278Y940637D01*
X318575Y908339D01*
X318576Y908339D01*
X326018Y903366D01*
X334797Y901619D01*
X334799Y901619D01*
X757643D01*
X766422Y903366D01*
X773865Y908339D01*
X803622Y938096D01*
X803623Y938097D01*
X808596Y945539D01*
X810342Y954318D01*
Y1089099D01*
X833401D01*
Y1181098D01*
Y1273098D01*
X810342D01*
Y1276899D01*
X808596Y1285678D01*
X803623Y1293120D01*
X774641Y1322103D01*
X780381Y1335960D01*
X864257D01*
X916918Y1283299D01*
X910705Y1268299D01*
X906504D01*
Y1191295D01*
X906504Y1176299D01*
X906503D01*
Y1176294D01*
X906504D01*
Y1084295D01*
X914335D01*
Y1045800D01*
X903100D01*
Y1026241D01*
X866215D01*
X857436Y1024494D01*
X849993Y1019521D01*
X832139Y1001667D01*
X827166Y994224D01*
X825419Y985445D01*
Y862667D01*
X811027Y850430D01*
X805959Y851231D01*
X803126Y858071D01*
X786951Y874246D01*
X765817Y883000D01*
X742943D01*
X721809Y874246D01*
X705634Y858071D01*
X696880Y836937D01*
Y814063D01*
X705634Y792929D01*
X721809Y776754D01*
X742943Y768000D01*
X765817D01*
X786951Y776754D01*
X795360Y785163D01*
X810360Y778949D01*
Y695862D01*
X886360D01*
Y785862D01*
X881849D01*
X871301Y795020D01*
X871301Y795021D01*
Y975943D01*
X875717Y980359D01*
X903100D01*
Y960800D01*
X982703D01*
Y950400D01*
X1012662D01*
Y812860D01*
X974379Y774577D01*
X969406Y767134D01*
X967659Y758355D01*
Y437834D01*
X931199Y401373D01*
X926226Y393931D01*
X924479Y385152D01*
X925339Y380829D01*
Y367385D01*
X914733Y356779D01*
X880380Y356779D01*
X871301Y368018D01*
Y485860D01*
X886360D01*
Y575860D01*
X810360D01*
Y553801D01*
X764053D01*
X755274Y552054D01*
X747832Y547081D01*
X727460Y526710D01*
X707397Y535020D01*
X684523D01*
X663389Y526266D01*
X647214Y510091D01*
X638460Y488957D01*
Y466083D01*
X647214Y444949D01*
X663389Y428774D01*
X684523Y420020D01*
X707397D01*
X728531Y428774D01*
X744706Y444949D01*
X753460Y466083D01*
Y487824D01*
X773555Y507919D01*
X810360D01*
Y485860D01*
X825419D01*
Y242844D01*
X807039Y224464D01*
X795777Y216382D01*
Y216382D01*
X795777Y216381D01*
X680778D01*
Y146381D01*
X795778D01*
Y158441D01*
X796400D01*
X805179Y160187D01*
X812621Y165160D01*
X864581Y217120D01*
X869554Y224563D01*
X871301Y233342D01*
Y245958D01*
X885415Y256879D01*
X890780Y254982D01*
Y146381D01*
X910321D01*
X917157Y131381D01*
X911211Y124541D01*
X633559D01*
Y134600D01*
X553559D01*
Y68600D01*
X633559D01*
Y78659D01*
X925961D01*
X934740Y80406D01*
X942183Y85379D01*
X948280Y91476D01*
X972157Y67599D01*
X979599Y62626D01*
X988378Y60879D01*
X1003905D01*
X1007894Y51249D01*
X1024069Y35074D01*
X1045203Y26320D01*
X1068077D01*
X1089211Y35074D01*
X1105386Y51249D01*
X1114140Y72383D01*
Y95257D01*
X1105386Y116391D01*
X1089211Y132566D01*
X1068077Y141320D01*
X1045203D01*
X1024069Y132566D01*
X1007894Y116391D01*
X990660Y113981D01*
X973260Y131381D01*
X976144Y146381D01*
X1005780D01*
Y223439D01*
X1084273D01*
X1089701Y224519D01*
X1094655Y221887D01*
X1098966Y218421D01*
X1103008Y213798D01*
Y194574D01*
X1111762Y173441D01*
X1127937Y157266D01*
X1148222Y148863D01*
X1149226Y148207D01*
X1156680Y133512D01*
X1153387Y127808D01*
X1149768Y114300D01*
X1287446D01*
X1289116Y116477D01*
X1312660D01*
Y83017D01*
X1356360D01*
Y139417D01*
X1381760D01*
Y83017D01*
X1425460D01*
Y124307D01*
X1440460Y130520D01*
X1448736Y122244D01*
X1469870Y113490D01*
X1492745D01*
X1513878Y122244D01*
X1530053Y138419D01*
X1537915Y157399D01*
X1872585D01*
X1876574Y147769D01*
X1892749Y131594D01*
X1913883Y122840D01*
X1936757D01*
X1957891Y131594D01*
X1974066Y147769D01*
X1982820Y168903D01*
Y191777D01*
X1974066Y212911D01*
X1957891Y229086D01*
X1936757Y237840D01*
X1913883D01*
X1892749Y229086D01*
X1876574Y212911D01*
X1872585Y203281D01*
X1530170D01*
X1530053Y203561D01*
X1513878Y219736D01*
X1492745Y228490D01*
X1469870D01*
X1448736Y219736D01*
X1432561Y203561D01*
X1432560Y203560D01*
X1432257Y203046D01*
X1430060Y200709D01*
X1415060Y204211D01*
Y263189D01*
X1415515Y264271D01*
X1428078Y275277D01*
X1428079Y275277D01*
X1429172Y275277D01*
X1635819D01*
Y263218D01*
X1750819D01*
Y333218D01*
X1635819D01*
Y321158D01*
X1437580D01*
X1385281Y373457D01*
X1385281Y373458D01*
X1338441Y420298D01*
Y445109D01*
X1353441Y451322D01*
X1355669Y449094D01*
X1376803Y440340D01*
X1399677D01*
X1420811Y449094D01*
X1436986Y465269D01*
X1443659Y481379D01*
X1476460D01*
X1485239Y483125D01*
X1492682Y488098D01*
X1509963Y505379D01*
X1664014D01*
X1672245Y491846D01*
X1672368Y490882D01*
X1672125Y490518D01*
X1670378Y481739D01*
Y463220D01*
X1635819D01*
Y393220D01*
X1750819D01*
Y463220D01*
X1728456D01*
X1722243Y478220D01*
X1739242Y495219D01*
X2184400D01*
X2193179Y496966D01*
X2200621Y501939D01*
X2243530Y544847D01*
X2248502Y552289D01*
X2250249Y561068D01*
Y697079D01*
X2257160Y701311D01*
X2272160Y692907D01*
Y640760D01*
X2342131D01*
X2350737Y625760D01*
X2348702Y616628D01*
X2340886Y608812D01*
X2331947Y593329D01*
X2328276Y579629D01*
X2318630D01*
X2309851Y577883D01*
X2302408Y572910D01*
X2180659Y451160D01*
X1971221D01*
Y473620D01*
X1916022D01*
Y428219D01*
X1903322D01*
Y415519D01*
X1835421D01*
Y382820D01*
X1845821D01*
Y263218D01*
X1960821D01*
Y275277D01*
X2044320D01*
X2070039Y249559D01*
X2077481Y244586D01*
X2086260Y242839D01*
X2161047D01*
X2163594Y236691D01*
X2179769Y220516D01*
X2200903Y211762D01*
X2223777D01*
X2244911Y220516D01*
X2261086Y236691D01*
X2264876Y245841D01*
X2391047D01*
X2394031Y230841D01*
X2380429Y225206D01*
X2364254Y209031D01*
X2355500Y187898D01*
Y165023D01*
X2363560Y145563D01*
X2319678Y101681D01*
X1729135D01*
X1725146Y111311D01*
X1708971Y127486D01*
X1687837Y136240D01*
X1664963D01*
X1643829Y127486D01*
X1627654Y111311D01*
X1618900Y90177D01*
Y67303D01*
X1627654Y46169D01*
X1643829Y29994D01*
X1664963Y21240D01*
X1687837D01*
X1708971Y29994D01*
X1725146Y46169D01*
X1729135Y55799D01*
X2329180D01*
X2337959Y57546D01*
X2345401Y62519D01*
X2401843Y118960D01*
X2424437D01*
X2445571Y127714D01*
X2461746Y143889D01*
X2470500Y165023D01*
Y187898D01*
X2461746Y209031D01*
X2445571Y225206D01*
X2431969Y230841D01*
X2434953Y245841D01*
X2524850D01*
X2528869Y230841D01*
X2528788Y230794D01*
X2516146Y218152D01*
X2507207Y202669D01*
X2503588Y189160D01*
X2570480D01*
Y176460D01*
X2583180D01*
Y109568D01*
X2596688Y113187D01*
X2612172Y122127D01*
X2624814Y134769D01*
X2633753Y150252D01*
X2638380Y167521D01*
Y180842D01*
X2680449D01*
Y155883D01*
X2766899D01*
Y203782D01*
X2779599D01*
Y216482D01*
X2878749D01*
Y251682D01*
X2868349D01*
Y361278D01*
Y426282D01*
Y491281D01*
Y556279D01*
Y631279D01*
X2690849D01*
Y556279D01*
Y486722D01*
X2641980D01*
X2634332Y494371D01*
Y508315D01*
X2649706Y523689D01*
X2658460Y544823D01*
Y567697D01*
X2649706Y588831D01*
X2633531Y605006D01*
X2632791Y605313D01*
Y697376D01*
X2644685Y706901D01*
X2650483Y704500D01*
X2673357D01*
X2694491Y713254D01*
X2710666Y729429D01*
X2719420Y750563D01*
Y773437D01*
X2712958Y789039D01*
X2720032Y802575D01*
X2721745Y804039D01*
X2788239D01*
Y879041D01*
X2788239Y889039D01*
X2788239Y902994D01*
X2798845Y913601D01*
X2830898D01*
X2836694Y899609D01*
X2852869Y883434D01*
X2862499Y879445D01*
Y789940D01*
X2864246Y781161D01*
X2869219Y773719D01*
X2912396Y730542D01*
X2912396Y730541D01*
X2919839Y725568D01*
X2928618Y723822D01*
X2928619Y723822D01*
X3037280D01*
Y700763D01*
X3118879D01*
Y690363D01*
X3162579D01*
Y746762D01*
X3187979D01*
Y690363D01*
X3231679D01*
Y720011D01*
X3335890D01*
X3337787Y712932D01*
X3346726Y697448D01*
X3359368Y684806D01*
X3374852Y675867D01*
X3388360Y672248D01*
Y739140D01*
X3401060D01*
Y751840D01*
X3467952D01*
X3464333Y765348D01*
X3455394Y780832D01*
X3442752Y793474D01*
X3427268Y802413D01*
X3417457Y805042D01*
Y933700D01*
X3460403D01*
Y1041400D01*
X3360003D01*
Y1054100D01*
X3347303D01*
Y1174500D01*
X3187700D01*
Y1054100D01*
X3162300D01*
Y1174500D01*
X3074600D01*
Y1097321D01*
X3060742Y1091581D01*
X3048081Y1104242D01*
Y1422400D01*
X3046334Y1431179D01*
X3041361Y1438621D01*
X3015783Y1464200D01*
X3021996Y1479200D01*
X3023877D01*
X3045011Y1487954D01*
X3061186Y1504129D01*
X3069940Y1525263D01*
Y1548137D01*
X3061186Y1569271D01*
X3045011Y1585446D01*
X3023877Y1594200D01*
X3001003D01*
X2979869Y1585446D01*
X2963694Y1569271D01*
X2959702Y1559634D01*
X2944702Y1561997D01*
Y1561997D01*
X2794702D01*
Y1507399D01*
X2784302D01*
Y1474699D01*
X2869702D01*
Y1449299D01*
X2784302D01*
Y1416599D01*
X2794702D01*
Y1362000D01*
X2846762D01*
Y1323838D01*
X2848508Y1315059D01*
X2853481Y1307616D01*
X2886039Y1275058D01*
Y1248305D01*
X2878269Y1245086D01*
X2862094Y1228911D01*
X2853340Y1207777D01*
Y1184903D01*
X2862094Y1163769D01*
X2878269Y1147594D01*
X2899403Y1138840D01*
X2922277D01*
X2943411Y1147594D01*
X2959586Y1163769D01*
X2968340Y1184903D01*
Y1207777D01*
X2959586Y1228911D01*
X2943411Y1245086D01*
X2931920Y1249846D01*
Y1284559D01*
X2931921Y1284560D01*
X2930174Y1293339D01*
X2925201Y1300781D01*
X2892643Y1333340D01*
Y1362000D01*
X2944702D01*
Y1416599D01*
X2955102D01*
Y1438479D01*
X2976618D01*
X3002199Y1412898D01*
Y1094740D01*
X3003946Y1085961D01*
X3008919Y1078519D01*
X3049559Y1037879D01*
X3057001Y1032906D01*
X3065780Y1031159D01*
X3074600D01*
Y933700D01*
X3152338D01*
Y803162D01*
X3118879D01*
Y792762D01*
X3037280D01*
Y769703D01*
X2938120D01*
X2908381Y799443D01*
Y879445D01*
X2918011Y883434D01*
X2934186Y899609D01*
X2942940Y920743D01*
Y943617D01*
X2934186Y964751D01*
X2918011Y980926D01*
X2896877Y989680D01*
X2874003D01*
X2852869Y980926D01*
X2836694Y964751D01*
X2834511Y959482D01*
X2788239D01*
Y979041D01*
X2703239D01*
Y959482D01*
X2649009D01*
X2638402Y970088D01*
X2638402Y984801D01*
X2638402Y999801D01*
Y1079802D01*
X2590881D01*
Y1150340D01*
X2705939D01*
Y1175939D01*
X2728105D01*
X2732094Y1166309D01*
X2748269Y1150134D01*
X2769402Y1141380D01*
X2792277D01*
X2813411Y1150134D01*
X2829586Y1166309D01*
X2838340Y1187443D01*
Y1210317D01*
X2829586Y1231451D01*
X2813411Y1247626D01*
X2792277Y1256380D01*
X2769402D01*
X2748269Y1247626D01*
X2732094Y1231451D01*
X2728105Y1221821D01*
X2705939D01*
Y1242340D01*
X2521940D01*
Y1219282D01*
X2451658D01*
Y1242342D01*
X2267659D01*
Y1150343D01*
X2290719D01*
Y1079802D01*
X2238400D01*
Y995201D01*
X2228000D01*
Y952501D01*
X2313400D01*
Y927101D01*
X2228000D01*
Y899166D01*
X2213000Y891430D01*
X2207341Y895458D01*
Y1056640D01*
X2205594Y1065419D01*
X2200621Y1072861D01*
X2117915Y1155568D01*
X2122759Y1167262D01*
X2122759D01*
Y1252261D01*
X2122759D01*
Y1257260D01*
X2122759D01*
Y1342259D01*
X2103199D01*
Y1403459D01*
X2101453Y1412238D01*
X2096480Y1419681D01*
X2096479Y1419681D01*
X2066722Y1449439D01*
X2059280Y1454412D01*
X2050501Y1456158D01*
X2044458D01*
X2042679Y1470421D01*
X2042679D01*
Y1514121D01*
X1986279D01*
Y1539521D01*
X2042679D01*
Y1583221D01*
X2002733D01*
X2001873Y1587546D01*
X1996900Y1594988D01*
X1968274Y1623614D01*
X1973353Y1632412D01*
X1976972Y1645920D01*
X1843188D01*
X1846807Y1632412D01*
X1848499Y1629482D01*
X1848137Y1629120D01*
X1843164Y1621678D01*
X1841418Y1612899D01*
Y1578721D01*
X1811459D01*
Y1538521D01*
X1864359D01*
Y1513121D01*
X1811459D01*
Y1472921D01*
X1821859D01*
Y1393319D01*
X1841139D01*
Y1343942D01*
X1820619D01*
Y1251943D01*
X1828206D01*
X1834420Y1236943D01*
X1812438Y1214961D01*
X1812438Y1214960D01*
X1792259Y1194781D01*
X1787286Y1187339D01*
X1785539Y1178560D01*
Y1083922D01*
X1713980Y1012362D01*
X1709007Y1004920D01*
X1707260Y996141D01*
Y975498D01*
X1692201D01*
Y885499D01*
X1768201D01*
Y975498D01*
X1762460D01*
X1757001Y990498D01*
X1824701Y1058198D01*
X1824701Y1058199D01*
X1829674Y1065641D01*
X1831421Y1074420D01*
Y1128428D01*
X1846420Y1136446D01*
X1848759Y1134884D01*
Y1055510D01*
Y955321D01*
Y776199D01*
X1850505Y767420D01*
X1855478Y759978D01*
X1858414Y757042D01*
X1852580Y742957D01*
Y720083D01*
X1861334Y698949D01*
X1864482Y695800D01*
X1858269Y680801D01*
X1768254D01*
X1768201Y680853D01*
Y765501D01*
X1692201D01*
Y675502D01*
X1704074D01*
X1705941Y660502D01*
X1670360Y624921D01*
X1457302D01*
X1423403Y658820D01*
X1428299Y673820D01*
X1435000D01*
Y763820D01*
X1359000D01*
Y673820D01*
X1365701D01*
X1370597Y658820D01*
X1299279Y587501D01*
X1294306Y580059D01*
X1292560Y571280D01*
Y410796D01*
X1294306Y402017D01*
X1299279Y394574D01*
X1346119Y347734D01*
Y277421D01*
X1323060D01*
Y252104D01*
X1276399D01*
X1265723Y262780D01*
X1269902Y277780D01*
X1269902D01*
Y392780D01*
X1199902D01*
Y277780D01*
X1199902D01*
X1199742Y267067D01*
X1186988Y257281D01*
X1171946Y263512D01*
X1149071D01*
X1137819Y275087D01*
X1138815Y277780D01*
X1139900D01*
Y392780D01*
X1069900D01*
Y277780D01*
X1058404Y269321D01*
X1016180D01*
Y298679D01*
X948280D01*
Y324079D01*
X1016180D01*
Y356779D01*
X971220D01*
Y376509D01*
X1006821Y412110D01*
X1011794Y419553D01*
X1013541Y428332D01*
Y748853D01*
X1035602Y770915D01*
X1081959Y724558D01*
Y613182D01*
X1059500D01*
Y557982D01*
X1104900D01*
Y545282D01*
X1117600D01*
Y477382D01*
X1150300D01*
Y487782D01*
X1269902D01*
Y602782D01*
X1257843D01*
Y639974D01*
X1276061Y658192D01*
X1276061Y658192D01*
X1281034Y665635D01*
X1282781Y674414D01*
Y892544D01*
X1282781Y892545D01*
X1281034Y901324D01*
X1276061Y908766D01*
X1236803Y948025D01*
X1229360Y952998D01*
X1223360Y954191D01*
Y956317D01*
X1214606Y977451D01*
X1198431Y993626D01*
X1177297Y1002380D01*
X1154423D01*
X1138228Y995672D01*
X1129732Y1008389D01*
X1143981Y1022639D01*
X1148954Y1030081D01*
X1150701Y1038860D01*
Y1086600D01*
X1186700D01*
Y1120461D01*
X1299100D01*
Y1090903D01*
X1343047D01*
X1348787Y1077045D01*
X1348254Y1076511D01*
X1339500Y1055377D01*
Y1032503D01*
X1348254Y1011369D01*
X1364429Y995194D01*
X1374059Y991205D01*
Y973822D01*
X1359000D01*
Y883822D01*
X1435000D01*
Y973822D01*
X1419941D01*
Y991205D01*
X1429571Y995194D01*
X1445746Y1011369D01*
X1454500Y1032503D01*
Y1055377D01*
X1450511Y1065008D01*
X1456401Y1070899D01*
X1461374Y1078341D01*
X1463121Y1087120D01*
Y1101303D01*
X1484502D01*
Y1120862D01*
X1546299D01*
Y1097798D01*
X1730298D01*
Y1189797D01*
X1696895D01*
X1694920Y1192754D01*
X1661725Y1225949D01*
X1697876Y1262100D01*
X1730298D01*
Y1354100D01*
X1707100D01*
Y1485620D01*
X1730020D01*
Y1577619D01*
Y1669619D01*
X1670463D01*
X1648262Y1691820D01*
X1640819Y1696793D01*
X1632040Y1698539D01*
X1523678D01*
X1517464Y1713539D01*
X1519914Y1715988D01*
X1528853Y1731472D01*
X1532472Y1744980D01*
X1465580D01*
Y1757680D01*
X1452880D01*
Y1824572D01*
X1439372Y1820953D01*
X1423888Y1812014D01*
X1411246Y1799372D01*
X1402307Y1783888D01*
X1397680Y1766619D01*
Y1748741D01*
X1397527Y1748542D01*
X1369499D01*
Y1766001D01*
X1286800D01*
Y1725601D01*
X1274100D01*
Y1712901D01*
X1178700D01*
Y1685201D01*
X1189100D01*
Y1615999D01*
X1178700D01*
Y1588299D01*
X1274100D01*
Y1562899D01*
X1178700D01*
Y1538301D01*
X1274100D01*
Y1525601D01*
X1286800D01*
Y1485201D01*
X1369499D01*
Y1502661D01*
X1386897D01*
X1409115Y1480444D01*
X1404862Y1463775D01*
X1401272Y1462813D01*
X1385788Y1453874D01*
X1373146Y1441232D01*
X1364207Y1425748D01*
X1360588Y1412240D01*
X1427480D01*
Y1386840D01*
X1360588D01*
X1364207Y1373332D01*
X1365899Y1370402D01*
X1335779Y1340282D01*
X1330806Y1332839D01*
X1329060Y1324060D01*
Y1196702D01*
X1299100D01*
Y1166342D01*
X1186700D01*
Y1199400D01*
X1176300D01*
Y1280999D01*
X1153241D01*
Y1315720D01*
X1151494Y1324499D01*
X1146521Y1331941D01*
X1103340Y1375122D01*
X1095898Y1380095D01*
X1087119Y1381842D01*
X873759D01*
X871219Y1381336D01*
X868680Y1381842D01*
X747899D01*
Y1401401D01*
X662900D01*
Y1401401D01*
X657901D01*
Y1401401D01*
X572902D01*
Y1384381D01*
X561340D01*
X552561Y1382634D01*
X545119Y1377661D01*
X545118Y1377661D01*
X537582Y1370125D01*
X522582Y1376338D01*
Y1379518D01*
X372582D01*
Y1294922D01*
X362182D01*
Y1252223D01*
X447582D01*
Y1226823D01*
X362182D01*
Y1184123D01*
X372582D01*
Y1099522D01*
X424642D01*
Y1048629D01*
X422775Y1046762D01*
X250899D01*
Y1023703D01*
X111100D01*
X91521Y1043282D01*
Y1108098D01*
X105004Y1121581D01*
X122580D01*
Y1099522D01*
X272580D01*
Y1179522D01*
X272580Y1189521D01*
X272580Y1204522D01*
Y1284522D01*
X272581D01*
Y1289519D01*
X272580D01*
Y1379518D01*
X122580D01*
Y1368716D01*
X107580Y1362502D01*
X88981Y1381102D01*
Y1460245D01*
X90886Y1462825D01*
X103981Y1471115D01*
X106681Y1470578D01*
X154381D01*
Y1447519D01*
X235980D01*
Y1437119D01*
X279680D01*
Y1493519D01*
X292380D01*
Y1506219D01*
X348780D01*
Y1549919D01*
X315321D01*
Y1648164D01*
X330321Y1654377D01*
X370519Y1614179D01*
X377961Y1609206D01*
X386740Y1607460D01*
X515101D01*
Y1574001D01*
X554530D01*
X560743Y1559001D01*
X558314Y1556571D01*
X549560Y1535437D01*
Y1512563D01*
X558314Y1491429D01*
X574489Y1475254D01*
X595623Y1466500D01*
X618497D01*
X639631Y1475254D01*
X655806Y1491429D01*
X660359Y1502421D01*
X749101D01*
Y1495602D01*
X919100D01*
Y1535199D01*
X929500D01*
Y1562899D01*
X834100D01*
Y1588299D01*
X929500D01*
Y1612901D01*
X834100D01*
Y1638301D01*
X929500D01*
Y1662899D01*
X834100D01*
Y1688299D01*
X929500D01*
Y1715999D01*
X919100D01*
Y1755601D01*
X749101D01*
Y1748542D01*
X617501D01*
Y1768399D01*
X593171D01*
Y1786751D01*
X601531Y1790214D01*
X617706Y1806389D01*
X626460Y1827523D01*
Y1850397D01*
X617706Y1871531D01*
X601531Y1887706D01*
X580397Y1896460D01*
X557523D01*
X536389Y1887706D01*
X520214Y1871531D01*
X511460Y1850397D01*
Y1827523D01*
X520214Y1806389D01*
X536389Y1790214D01*
X547290Y1785698D01*
Y1768399D01*
X525501D01*
Y1686801D01*
X515101D01*
Y1653341D01*
X396243D01*
X338340Y1711243D01*
Y1794402D01*
X370400D01*
Y1834601D01*
X317499D01*
Y1860001D01*
X370400D01*
Y1900201D01*
X360000D01*
Y1979798D01*
X340441D01*
Y2213413D01*
X416300Y2289273D01*
X431300Y2283059D01*
Y2280651D01*
X438532Y2263193D01*
X446257Y2255467D01*
X446002Y2254186D01*
X429715Y2237899D01*
X421390Y2217801D01*
X478800D01*
Y2192401D01*
X421390D01*
X429715Y2172303D01*
X445911Y2156107D01*
X445906Y2155568D01*
X442797Y2141107D01*
X440803D01*
X422425Y2138688D01*
X405299Y2131594D01*
X390593Y2120310D01*
X379309Y2105604D01*
X372215Y2088478D01*
X371467Y2082800D01*
X515803D01*
Y2070100D01*
X528503D01*
Y1999093D01*
X590803D01*
X609181Y2001512D01*
X626307Y2008606D01*
X641013Y2019890D01*
X652297Y2034596D01*
X657501Y2047159D01*
X913601D01*
Y2013700D01*
X957300D01*
Y2070100D01*
Y2126500D01*
X913601D01*
Y2093041D01*
X657501D01*
X652297Y2105604D01*
X641013Y2120310D01*
X626307Y2131594D01*
X624842Y2132201D01*
X625195Y2143307D01*
X626572Y2147720D01*
X646599Y2156016D01*
X662886Y2172303D01*
X671211Y2192401D01*
X613801D01*
Y2217801D01*
X671211D01*
X662886Y2237899D01*
X646599Y2254186D01*
X646344Y2255467D01*
X654070Y2263193D01*
X655713Y2267159D01*
X735698D01*
X794039Y2208819D01*
X801481Y2203846D01*
X810260Y2202099D01*
X810261Y2202099D01*
X992529D01*
X1039059Y2155569D01*
Y2132153D01*
X1026400Y2126500D01*
X982700D01*
Y2070100D01*
Y2013700D01*
X1026401D01*
Y2024100D01*
X1107999D01*
Y2047159D01*
X1130559D01*
X1174640Y2003079D01*
X1182083Y1998106D01*
X1190862Y1996359D01*
X1190863Y1996359D01*
X1399808D01*
X1402792Y1981360D01*
X1397449Y1979146D01*
X1381274Y1962971D01*
X1372520Y1941837D01*
Y1918963D01*
X1381274Y1897829D01*
X1397449Y1881654D01*
X1418583Y1872900D01*
X1441457D01*
X1462591Y1881654D01*
X1478766Y1897829D01*
X1482755Y1907459D01*
X1801518D01*
X1963249Y1745728D01*
X1959260Y1736097D01*
Y1725951D01*
X1944260Y1717290D01*
X1936288Y1721893D01*
X1922780Y1725512D01*
Y1671320D01*
X1988526D01*
X1992155Y1672614D01*
X2005323Y1667160D01*
X2028197D01*
X2037828Y1671149D01*
X2131770Y1577207D01*
X2139213Y1572234D01*
X2147992Y1570488D01*
X2169300D01*
X2178079Y1572234D01*
X2181682Y1574641D01*
X2242800D01*
Y1654097D01*
X2259942Y1671239D01*
X2281578D01*
X2382349Y1570468D01*
X2378360Y1560837D01*
Y1537963D01*
X2385011Y1521905D01*
X2374195Y1510149D01*
X2373637Y1510380D01*
X2350763D01*
X2346434Y1508587D01*
X2320409Y1534612D01*
X2311247Y1540734D01*
X2300439Y1542884D01*
X2300437Y1542884D01*
X2278800D01*
Y1554641D01*
X2220800D01*
Y1474641D01*
X2278800D01*
Y1475125D01*
X2293800Y1481339D01*
X2306493Y1468646D01*
X2304700Y1464317D01*
Y1441443D01*
X2313454Y1420309D01*
X2329629Y1404134D01*
X2350763Y1395380D01*
X2373637D01*
X2389812Y1402080D01*
X2433692Y1358200D01*
X2441134Y1353227D01*
X2449913Y1351481D01*
X2459399D01*
Y1329822D01*
X2544399D01*
Y1343579D01*
X2575560D01*
X2584339Y1345326D01*
X2591781Y1350299D01*
X2594236Y1352753D01*
X2604700Y1362000D01*
Y1362000D01*
X2604701Y1362000D01*
X2754700D01*
Y1426999D01*
Y1491997D01*
Y1561997D01*
X2604700D01*
Y1561997D01*
X2595908Y1563810D01*
X2593638Y1579486D01*
X2669601Y1655449D01*
X2671210Y1657855D01*
X2686207Y1661274D01*
X2689457Y1660822D01*
X2696878Y1653400D01*
X2718012Y1644646D01*
X2740886D01*
X2750040Y1638530D01*
Y1627048D01*
X2758794Y1605914D01*
X2774969Y1589739D01*
X2796103Y1580985D01*
X2818978D01*
X2840112Y1589739D01*
X2856287Y1605914D01*
X2865040Y1627048D01*
Y1649922D01*
X2856287Y1671056D01*
X2840112Y1687231D01*
X2834081Y1689729D01*
Y1828818D01*
X2865823Y1860560D01*
X2880823Y1854678D01*
Y1779504D01*
X2882569Y1770725D01*
X2887542Y1763282D01*
X3007017Y1643807D01*
X3007018Y1643807D01*
X3014460Y1638834D01*
X3023239Y1637087D01*
X3023241Y1637088D01*
X3076197D01*
X3077994Y1632749D01*
X3094169Y1616574D01*
X3115303Y1607820D01*
X3138177D01*
X3159311Y1616574D01*
X3175486Y1632749D01*
X3184240Y1653883D01*
Y1676757D01*
X3175486Y1697891D01*
X3159311Y1714066D01*
X3156545Y1715212D01*
X3156460Y1731483D01*
X3170406Y1745429D01*
X3179160Y1766563D01*
Y1789437D01*
X3170406Y1810571D01*
X3154231Y1826746D01*
X3133097Y1835500D01*
X3116819D01*
X3110223Y1835500D01*
X3102960Y1848728D01*
Y1856669D01*
X3094206Y1877803D01*
X3078031Y1893978D01*
X3057973Y1902287D01*
Y1917463D01*
X3057973Y1917464D01*
X3056226Y1926243D01*
X3051253Y1933685D01*
X3026704Y1958235D01*
Y2030444D01*
X3041704Y2036333D01*
X3202640Y1875397D01*
X3198540Y1865498D01*
X3198540D01*
Y1790501D01*
X3198540Y1780499D01*
X3198540Y1765499D01*
Y1690502D01*
X3215559D01*
Y1569062D01*
X3158779Y1512281D01*
X3153806Y1504839D01*
X3152059Y1496060D01*
Y1484099D01*
X3085000D01*
Y1264100D01*
X3255003D01*
X3265000Y1264099D01*
X3280000Y1264100D01*
X3450003D01*
Y1484099D01*
X3382944D01*
Y1713362D01*
X3402920D01*
Y1788359D01*
X3402920Y1798361D01*
X3402920Y1812312D01*
X3413526Y1822918D01*
X3488319D01*
X3497098Y1824664D01*
X3504540Y1829637D01*
X3538556Y1863652D01*
X3549643Y1859060D01*
X3572517D01*
X3593651Y1867814D01*
X3609826Y1883989D01*
X3618580Y1905123D01*
Y1927997D01*
X3609826Y1949131D01*
X3593651Y1965306D01*
X3572517Y1974060D01*
X3549643D01*
X3528509Y1965306D01*
X3512334Y1949131D01*
X3503580Y1927997D01*
Y1905123D01*
X3506966Y1896948D01*
X3478817Y1868799D01*
X3402920D01*
Y1888358D01*
X3317920D01*
Y1813361D01*
X3317920Y1803359D01*
X3317920Y1788359D01*
Y1713362D01*
X3337063D01*
Y1484099D01*
X3280000D01*
X3270004Y1484099D01*
X3255003Y1484099D01*
X3216695D01*
X3210482Y1499099D01*
X3254721Y1543338D01*
X3254721Y1543339D01*
X3259694Y1550781D01*
X3261441Y1559560D01*
Y1690502D01*
X3283540D01*
Y1765499D01*
X3283540Y1775501D01*
X3283540Y1790501D01*
Y1865498D01*
X3261441D01*
Y1871980D01*
X3259694Y1880759D01*
X3254721Y1888202D01*
X3079512Y2063411D01*
X3077192Y2077310D01*
X3084375Y2088060D01*
X3086897Y2100741D01*
Y2105677D01*
X3090247Y2116753D01*
X3101323Y2120103D01*
X3106259D01*
X3118940Y2122625D01*
X3129690Y2129808D01*
X3130018Y2130299D01*
X3183958D01*
X3212119Y2102139D01*
X3219561Y2097166D01*
X3228340Y2095419D01*
X3464927D01*
X3473706Y2097166D01*
X3481148Y2102139D01*
X3556075Y2177065D01*
X3568791Y2168569D01*
X3567080Y2164437D01*
Y2141563D01*
X3575834Y2120429D01*
X3592009Y2104254D01*
X3613143Y2095500D01*
X3636017D01*
X3637199Y2094710D01*
Y1492915D01*
X3627569Y1488926D01*
X3611394Y1472751D01*
X3602640Y1451617D01*
Y1428743D01*
X3611394Y1407609D01*
X3627569Y1391434D01*
X3648703Y1382680D01*
X3671577D01*
X3692711Y1391434D01*
X3708886Y1407609D01*
X3717640Y1428743D01*
Y1451617D01*
X3708886Y1472751D01*
X3692711Y1488926D01*
X3683081Y1492915D01*
Y2107885D01*
X3681334Y2116664D01*
X3676361Y2124106D01*
X3675292Y2125176D01*
X3682080Y2141563D01*
Y2164437D01*
X3673326Y2185571D01*
X3657151Y2201746D01*
X3636017Y2210500D01*
X3613143D01*
X3609011Y2208789D01*
X3600514Y2221505D01*
X3614129Y2235119D01*
X3787448D01*
X3908429Y2114139D01*
X3915871Y2109166D01*
X3924650Y2107419D01*
X4621518D01*
X4630297Y2109166D01*
X4637740Y2114139D01*
X5200361Y2676760D01*
X5205334Y2684203D01*
X5207081Y2692982D01*
Y3112105D01*
X5216711Y3116094D01*
X5232886Y3132269D01*
X5241640Y3153403D01*
Y3176277D01*
X5232886Y3197411D01*
X5216711Y3213586D01*
X5199103Y3220880D01*
X5202087Y3235879D01*
X5512405D01*
X5516394Y3226249D01*
X5532569Y3210074D01*
X5553703Y3201320D01*
X5576577D01*
X5582456Y3203755D01*
X5623480Y3162731D01*
Y3102661D01*
X5609622Y3096921D01*
X5591521Y3115021D01*
X5584079Y3119994D01*
X5575300Y3121741D01*
X5457058D01*
Y3141300D01*
X5382061D01*
X5372059Y3141300D01*
X5357059Y3141300D01*
X5282062D01*
Y3056300D01*
X5301621D01*
Y3011760D01*
X5282062D01*
Y2926760D01*
X5301260D01*
Y2833009D01*
X5286206Y2828975D01*
X5263974Y2816139D01*
X5245821Y2797986D01*
X5232985Y2775754D01*
X5226340Y2750956D01*
Y2725284D01*
X5232985Y2700486D01*
X5245821Y2678254D01*
X5263974Y2660101D01*
X5286206Y2647265D01*
X5311004Y2640620D01*
X5336676D01*
X5361474Y2647265D01*
X5383706Y2660101D01*
X5401859Y2678254D01*
X5414695Y2700486D01*
X5421340Y2725284D01*
Y2750956D01*
X5414695Y2775754D01*
X5401859Y2797986D01*
X5383706Y2816139D01*
X5361474Y2828975D01*
X5347141Y2832816D01*
Y2916154D01*
X5357748Y2926760D01*
X5367061D01*
X5382061Y2926760D01*
X5457058D01*
Y2946319D01*
X5588001D01*
X5596780Y2948066D01*
X5604222Y2953039D01*
X5646420Y2995237D01*
X5797998Y2843660D01*
X5731799Y2777461D01*
X5726826Y2770018D01*
X5725079Y2761239D01*
Y2534661D01*
X5061239Y1870820D01*
X5056266Y1863377D01*
X5054519Y1854598D01*
Y1227244D01*
X4358647Y531372D01*
X4345474Y538977D01*
X4320676Y545622D01*
X4295004D01*
X4270206Y538977D01*
X4247974Y526141D01*
X4229821Y507988D01*
X4216985Y485756D01*
X4210340Y460958D01*
Y435286D01*
X4216985Y410488D01*
X4229821Y388256D01*
X4247974Y370103D01*
X4270206Y357267D01*
X4295004Y350622D01*
X4320676D01*
X4345474Y357267D01*
X4367706Y370103D01*
X4385859Y388256D01*
X4398695Y410488D01*
X4405340Y435286D01*
Y460958D01*
X4398695Y485756D01*
X4391090Y498929D01*
X5093681Y1201521D01*
X5195100Y1302939D01*
X5742940D01*
X5751719Y1304686D01*
X5759161Y1309659D01*
X5817543Y1368040D01*
X5873312D01*
Y1355980D01*
X5875640Y1344275D01*
X5882271Y1334351D01*
X5892194Y1327721D01*
X5903900Y1325393D01*
X6213899D01*
X6225605Y1327721D01*
X6235528Y1334351D01*
X6242159Y1344275D01*
X6244487Y1355980D01*
Y1425980D01*
X6242159Y1437685D01*
X6235528Y1447609D01*
X6225605Y1454239D01*
X6213899Y1456568D01*
X5903900D01*
X5892194Y1454239D01*
X5882271Y1447609D01*
X5875640Y1437685D01*
X5873312Y1425980D01*
Y1413921D01*
X5808040D01*
X5799261Y1412174D01*
X5791819Y1407202D01*
X5733438Y1348821D01*
X5185598D01*
X5176819Y1347074D01*
X5169377Y1342101D01*
X5114259Y1286983D01*
X5100401Y1292724D01*
Y1845096D01*
X5764241Y2508937D01*
X5769214Y2516379D01*
X5770961Y2525158D01*
Y2751737D01*
X5867522Y2848298D01*
X5886012D01*
Y2824100D01*
X5888340Y2812395D01*
X5894971Y2802471D01*
X5904894Y2795841D01*
X5916600Y2793513D01*
X6226599D01*
X6238305Y2795841D01*
X6248228Y2802471D01*
X6254859Y2812395D01*
X6257187Y2824100D01*
Y2894100D01*
X6254859Y2905805D01*
X6248228Y2915729D01*
X6238305Y2922359D01*
X6226599Y2924688D01*
X5916600D01*
X5904894Y2922359D01*
X5894971Y2915729D01*
X5888340Y2905805D01*
X5886028Y2894179D01*
X5858020D01*
X5849241Y2892433D01*
X5841798Y2887460D01*
X5830440Y2876102D01*
X5669361Y3037182D01*
Y3172232D01*
X5669361Y3172233D01*
X5667615Y3181012D01*
X5662642Y3188455D01*
X5659725Y3191371D01*
X5660167Y3194521D01*
X5676867Y3205576D01*
X5678121Y3205240D01*
X5680584D01*
X5690607Y3190240D01*
X5687980Y3183897D01*
Y3161023D01*
X5696734Y3139889D01*
X5712909Y3123714D01*
X5734043Y3114960D01*
X5755297D01*
X5827379Y3042878D01*
X5834821Y3037906D01*
X5843600Y3036159D01*
X5843602Y3036159D01*
X5886012D01*
Y3024100D01*
X5888340Y3012395D01*
X5894971Y3002471D01*
X5904894Y2995841D01*
X5916600Y2993512D01*
X6226599D01*
X6238305Y2995841D01*
X6248228Y3002471D01*
X6254859Y3012395D01*
X6257187Y3024100D01*
Y3094100D01*
X6254859Y3105805D01*
X6248228Y3115729D01*
X6238305Y3122359D01*
X6226599Y3124687D01*
X5916600D01*
X5904894Y3122359D01*
X5894971Y3115729D01*
X5888340Y3105805D01*
X5886012Y3094100D01*
Y3082040D01*
X5853103D01*
X5794527Y3140616D01*
X5802980Y3161023D01*
Y3183897D01*
X5794226Y3205031D01*
X5778051Y3221206D01*
X5760066Y3228656D01*
X5763050Y3243656D01*
X5875408D01*
Y3224099D01*
X5878544Y3208336D01*
X5887473Y3194973D01*
X5900836Y3186044D01*
X5916600Y3182908D01*
X6058899D01*
Y3259099D01*
Y3335291D01*
X5916600D01*
X5900836Y3332155D01*
X5887473Y3323226D01*
X5878544Y3309863D01*
X5875408Y3294099D01*
Y3289537D01*
X5752962D01*
X5750333Y3299348D01*
X5741394Y3314832D01*
X5728752Y3327474D01*
X5713268Y3336413D01*
X5699760Y3340032D01*
Y3273140D01*
X5674360D01*
Y3340032D01*
X5660852Y3336413D01*
X5645368Y3327474D01*
X5632726Y3314832D01*
X5624837Y3301167D01*
X5617268Y3298601D01*
X5607766Y3297512D01*
X5597711Y3307566D01*
X5576577Y3316320D01*
X5553703D01*
X5532569Y3307566D01*
X5516394Y3291391D01*
X5512405Y3281761D01*
X4322422D01*
X4094651Y3509532D01*
X4098640Y3519163D01*
Y3542037D01*
X4089886Y3563171D01*
X4073711Y3579346D01*
X4052577Y3588100D01*
X4029703D01*
X4017844Y3583188D01*
X4009348Y3595905D01*
X4123401Y3709959D01*
X4128374Y3717401D01*
X4130121Y3726180D01*
Y4374538D01*
X4164941Y4409358D01*
X4188570D01*
X4196617Y4397316D01*
X4211502Y4387370D01*
X4229060Y4383877D01*
X4314060D01*
X4331618Y4387370D01*
X4346503Y4397316D01*
X4356449Y4412201D01*
X4359942Y4429759D01*
X4356449Y4447317D01*
X4346503Y4462202D01*
X4331618Y4472148D01*
X4314060Y4475640D01*
X4229060D01*
X4211502Y4472148D01*
X4196617Y4462202D01*
X4191965Y4455239D01*
X4155440D01*
X4155439Y4455240D01*
X4146660Y4453493D01*
X4139217Y4448520D01*
X4139217Y4448519D01*
X4090959Y4400261D01*
X4085986Y4392819D01*
X4084239Y4384040D01*
Y3735682D01*
X3572135Y3223578D01*
X3564504Y3224928D01*
X3557135Y3229060D01*
Y3268152D01*
X4042121Y3753138D01*
X4042121Y3753139D01*
X4047094Y3760581D01*
X4048841Y3769360D01*
Y4458358D01*
X4126841Y4536358D01*
X4188570D01*
X4196617Y4524316D01*
X4211502Y4514370D01*
X4229060Y4510877D01*
X4314060D01*
X4331618Y4514370D01*
X4346503Y4524316D01*
X4356449Y4539201D01*
X4359942Y4556759D01*
X4356449Y4574317D01*
X4346503Y4589202D01*
X4331618Y4599148D01*
X4314060Y4602640D01*
X4229060D01*
X4211502Y4599148D01*
X4196617Y4589202D01*
X4191965Y4582239D01*
X4117339D01*
X4108560Y4580493D01*
X4101117Y4575520D01*
X4009679Y4484081D01*
X4004706Y4476639D01*
X4002959Y4467860D01*
Y3778862D01*
X3526655Y3302558D01*
X3511655Y3308771D01*
Y3359832D01*
X3960841Y3809019D01*
X3965814Y3816461D01*
X3967561Y3825240D01*
Y4565038D01*
X4065881Y4663358D01*
X4188570D01*
X4196617Y4651316D01*
X4211502Y4641370D01*
X4229060Y4637877D01*
X4314060D01*
X4331618Y4641370D01*
X4346503Y4651316D01*
X4356449Y4666201D01*
X4359942Y4683759D01*
X4356449Y4701317D01*
X4346503Y4716202D01*
X4331618Y4726148D01*
X4314060Y4729640D01*
X4229060D01*
X4211502Y4726148D01*
X4196617Y4716202D01*
X4191965Y4709239D01*
X4056379D01*
X4047600Y4707493D01*
X4040157Y4702520D01*
X3928399Y4590761D01*
X3923426Y4583319D01*
X3921679Y4574540D01*
Y3834742D01*
X3477100Y3390163D01*
X3462101Y3396377D01*
Y3432198D01*
X3874481Y3844578D01*
X3874481Y3844579D01*
X3879454Y3852021D01*
X3881201Y3860800D01*
Y4694578D01*
X3976981Y4790358D01*
X4188570D01*
X4196617Y4778316D01*
X4211502Y4768370D01*
X4229060Y4764877D01*
X4314060D01*
X4331618Y4768370D01*
X4346503Y4778316D01*
X4356449Y4793201D01*
X4359942Y4810759D01*
X4356449Y4828317D01*
X4346503Y4843202D01*
X4331618Y4853148D01*
X4314060Y4856640D01*
D02*
G37*
G36*
X4998720Y4877652D02*
X4985212Y4874033D01*
X4969728Y4865094D01*
X4957086Y4852452D01*
X4948147Y4836968D01*
X4947271Y4833700D01*
X4910358D01*
X4898999Y4850700D01*
X4880674Y4862944D01*
X4859058Y4867244D01*
X4829258D01*
Y4810759D01*
Y4754273D01*
X4859058D01*
X4880674Y4758573D01*
X4898999Y4770817D01*
X4910359Y4787819D01*
X4947272D01*
X4948147Y4784552D01*
X4957086Y4769068D01*
X4969728Y4756426D01*
X4985212Y4747487D01*
X4998720Y4743868D01*
Y4810760D01*
Y4877652D01*
D02*
G37*
G36*
X3581400Y4938301D02*
X3488700D01*
Y4823541D01*
X2896248D01*
X2895373Y4826808D01*
X2886434Y4842292D01*
X2873792Y4854934D01*
X2858308Y4863873D01*
X2844800Y4867492D01*
Y4800600D01*
Y4733708D01*
X2858308Y4737327D01*
X2873792Y4746266D01*
X2886434Y4758908D01*
X2895373Y4774392D01*
X2896248Y4777659D01*
X3488700D01*
Y4667501D01*
X3581400D01*
Y4802901D01*
Y4938301D01*
D02*
G37*
G36*
X5024120Y4877652D02*
Y4823460D01*
X5078312D01*
X5074693Y4836968D01*
X5065754Y4852452D01*
X5053112Y4865094D01*
X5037628Y4874033D01*
X5024120Y4877652D01*
D02*
G37*
G36*
X4803858Y4867244D02*
X4774058D01*
X4752442Y4862944D01*
X4734117Y4850700D01*
X4721872Y4832375D01*
X4720099Y4823459D01*
X4803858D01*
Y4867244D01*
D02*
G37*
G36*
X3699500Y4938301D02*
X3606800D01*
Y4815601D01*
X3699500D01*
Y4938301D01*
D02*
G37*
G36*
X2057400Y4937301D02*
X1964700D01*
Y4815601D01*
X2057400D01*
Y4937301D01*
D02*
G37*
G36*
X4803858Y4798059D02*
X4720099D01*
X4721872Y4789143D01*
X4734117Y4770817D01*
X4752442Y4758573D01*
X4774058Y4754273D01*
X4803858D01*
Y4798059D01*
D02*
G37*
G36*
X5078312Y4798060D02*
X5024120D01*
Y4743868D01*
X5037628Y4747487D01*
X5053112Y4756426D01*
X5065754Y4769068D01*
X5074693Y4784552D01*
X5078312Y4798060D01*
D02*
G37*
G36*
X2175500Y4937301D02*
X2082800D01*
Y4802901D01*
Y4668501D01*
X2175500D01*
Y4777659D01*
X2767952D01*
X2768827Y4774392D01*
X2777766Y4758908D01*
X2790408Y4746266D01*
X2805892Y4737327D01*
X2819400Y4733708D01*
Y4800600D01*
Y4867492D01*
X2805892Y4863873D01*
X2790408Y4854934D01*
X2777766Y4842292D01*
X2768827Y4826808D01*
X2767952Y4823541D01*
X2175500D01*
Y4937301D01*
D02*
G37*
G36*
X5104137Y4748880D02*
X5081263D01*
X5060129Y4740126D01*
X5043954Y4723951D01*
X5038386Y4710510D01*
X4895304D01*
X4891501Y4716202D01*
X4876616Y4726148D01*
X4859058Y4729640D01*
X4774058D01*
X4756500Y4726148D01*
X4741615Y4716202D01*
X4731669Y4701317D01*
X4728176Y4683759D01*
X4731669Y4666201D01*
X4741615Y4651316D01*
X4756500Y4641370D01*
X4774058Y4637877D01*
X4859058D01*
X4876616Y4641370D01*
X4891501Y4651316D01*
X4900397Y4664629D01*
X5041543D01*
X5043954Y4658809D01*
X5060129Y4642634D01*
X5081263Y4633880D01*
X5104137D01*
X5125271Y4642634D01*
X5141446Y4658809D01*
X5150200Y4679943D01*
Y4702817D01*
X5141446Y4723951D01*
X5125271Y4740126D01*
X5104137Y4748880D01*
D02*
G37*
G36*
X2057400Y4790201D02*
X1964700D01*
Y4668501D01*
X2057400D01*
Y4790201D01*
D02*
G37*
G36*
X3699500Y4790201D02*
X3606800D01*
Y4667501D01*
X3699500D01*
Y4790201D01*
D02*
G37*
G36*
X5246377Y4626960D02*
X5223503D01*
X5202369Y4618206D01*
X5186194Y4602031D01*
X5179283Y4585347D01*
X4894077D01*
X4891501Y4589202D01*
X4876616Y4599148D01*
X4859058Y4602640D01*
X4774058D01*
X4756500Y4599148D01*
X4741615Y4589202D01*
X4731669Y4574317D01*
X4728176Y4556759D01*
X4731669Y4539201D01*
X4741615Y4524316D01*
X4756500Y4514370D01*
X4774058Y4510877D01*
X4859058D01*
X4876616Y4514370D01*
X4891501Y4524316D01*
X4901447Y4539201D01*
X4901500Y4539466D01*
X5185126D01*
X5186194Y4536889D01*
X5202369Y4520714D01*
X5223503Y4511960D01*
X5246377D01*
X5267511Y4520714D01*
X5283686Y4536889D01*
X5292440Y4558023D01*
Y4580897D01*
X5283686Y4602031D01*
X5267511Y4618206D01*
X5246377Y4626960D01*
D02*
G37*
G36*
X5089817Y4497420D02*
X5066943D01*
X5045809Y4488666D01*
X5029634Y4472491D01*
X5023540Y4457780D01*
X4894456D01*
X4891501Y4462202D01*
X4876616Y4472148D01*
X4859058Y4475640D01*
X4774058D01*
X4756500Y4472148D01*
X4741615Y4462202D01*
X4731669Y4447317D01*
X4728176Y4429759D01*
X4731669Y4412201D01*
X4741615Y4397316D01*
X4756500Y4387370D01*
X4774058Y4383877D01*
X4859058D01*
X4876616Y4387370D01*
X4891501Y4397316D01*
X4901245Y4411899D01*
X5027749D01*
X5029634Y4407349D01*
X5045809Y4391174D01*
X5066943Y4382420D01*
X5089817D01*
X5110951Y4391174D01*
X5127126Y4407349D01*
X5135880Y4428483D01*
Y4451357D01*
X5127126Y4472491D01*
X5110951Y4488666D01*
X5089817Y4497420D01*
D02*
G37*
G36*
X6531421Y4940739D02*
X6206421D01*
Y4360739D01*
X6206421D01*
X6204616Y4346487D01*
X6204329Y4346200D01*
X6084936D01*
X6084934Y4346201D01*
X6073170Y4343861D01*
X6063198Y4337197D01*
X6063197Y4337196D01*
X6062472Y4336471D01*
X6054097Y4339940D01*
X6031223D01*
X6010089Y4331186D01*
X5993914Y4315011D01*
X5985160Y4293877D01*
Y4271003D01*
X5989149Y4261372D01*
X5965479Y4237701D01*
X5960506Y4230259D01*
X5958759Y4221480D01*
Y4037220D01*
X5942439Y4020901D01*
X5189220D01*
X5180441Y4019154D01*
X5172999Y4014181D01*
X5098438Y3939621D01*
X4808220D01*
X4799441Y3937874D01*
X4791999Y3932901D01*
X4791998Y3932901D01*
X4651488Y3792391D01*
X4641857Y3796380D01*
X4618983D01*
X4597849Y3787626D01*
X4581674Y3771451D01*
X4572920Y3750317D01*
Y3727443D01*
X4581674Y3706309D01*
X4597849Y3690134D01*
X4618983Y3681380D01*
X4641857D01*
X4662991Y3690134D01*
X4679166Y3706309D01*
X4683155Y3715939D01*
X4775858D01*
X4843609Y3648188D01*
X4839620Y3638557D01*
Y3615683D01*
X4848374Y3594549D01*
X4862982Y3579941D01*
X4861897Y3572597D01*
X4858383Y3564941D01*
X4621619D01*
X4418919Y3767641D01*
X4418919Y3820198D01*
X4418919Y3835198D01*
Y3910200D01*
X4399359D01*
Y3933299D01*
X4425599Y3959539D01*
X5044200D01*
X5052979Y3961286D01*
X5060421Y3966259D01*
X5244442Y4150279D01*
X5348400D01*
Y4058220D01*
X5878400D01*
Y4288220D01*
X5589660D01*
Y4360739D01*
X5721420D01*
Y4940739D01*
X5396420D01*
Y4360739D01*
X5528180D01*
Y4288220D01*
X5348400D01*
Y4196161D01*
X5234941D01*
X5234940Y4196161D01*
X5226161Y4194414D01*
X5218719Y4189441D01*
X5218718Y4189441D01*
X5034698Y4005420D01*
X4416098D01*
X4416097Y4005421D01*
X4407318Y4003674D01*
X4399875Y3998701D01*
X4399875Y3998701D01*
X4360197Y3959023D01*
X4355224Y3951581D01*
X4353478Y3942802D01*
Y3910200D01*
X4333919D01*
Y3835198D01*
X4333919Y3825200D01*
X4333919Y3810200D01*
Y3735198D01*
X4386476D01*
X4595895Y3525779D01*
X4603338Y3520806D01*
X4612117Y3519060D01*
X4942560D01*
Y3405511D01*
X4929071Y3401862D01*
X4421906D01*
X4411300Y3412468D01*
Y3421421D01*
X4411300Y3436421D01*
Y3511418D01*
X4391741D01*
Y3567000D01*
X4394671Y3568214D01*
X4410846Y3584389D01*
X4419600Y3605523D01*
Y3628397D01*
X4410846Y3649531D01*
X4394671Y3665706D01*
X4373537Y3674460D01*
X4350663D01*
X4329529Y3665706D01*
X4313354Y3649531D01*
X4304600Y3628397D01*
Y3605523D01*
X4313354Y3584389D01*
X4329529Y3568214D01*
X4345859Y3561450D01*
Y3511418D01*
X4326300D01*
Y3436421D01*
X4326300Y3426419D01*
X4326300Y3411419D01*
Y3336422D01*
X4411300D01*
Y3355981D01*
X4959742D01*
X4968521Y3357727D01*
X4975964Y3362700D01*
X4993819Y3380555D01*
X4998791Y3387997D01*
X5000538Y3396776D01*
Y3405511D01*
X5034560D01*
Y3428570D01*
X5107591D01*
X5116370Y3430316D01*
X5123812Y3435289D01*
X5160702Y3472179D01*
X5165675Y3479621D01*
X5167421Y3488400D01*
Y3550460D01*
X5229480D01*
Y3600463D01*
Y3690062D01*
X5239880D01*
Y3717762D01*
X5144480D01*
Y3743162D01*
X5239880D01*
Y3770862D01*
X5229480D01*
Y3810460D01*
X5059481D01*
X5056220Y3819818D01*
X5047466Y3840951D01*
X5031291Y3857126D01*
X5010157Y3865880D01*
X4987283D01*
X4966149Y3857126D01*
X4949974Y3840951D01*
X4934533Y3842870D01*
X4925868Y3847873D01*
X4912360Y3851492D01*
Y3784600D01*
Y3717708D01*
X4925868Y3721327D01*
X4938152Y3728419D01*
X4951528Y3715043D01*
X4951789Y3714330D01*
X4952070Y3712109D01*
X4950300Y3697556D01*
X4948992Y3696681D01*
X4928620Y3676310D01*
X4908557Y3684620D01*
X4885683D01*
X4876052Y3680631D01*
X4801581Y3755101D01*
X4794139Y3760074D01*
X4785360Y3761821D01*
X4705402D01*
X4699661Y3775679D01*
X4817722Y3893739D01*
X5107940D01*
X5116719Y3895486D01*
X5124161Y3900459D01*
X5198722Y3975019D01*
X5951942D01*
X5960721Y3976766D01*
X5968163Y3981739D01*
X5997921Y4011496D01*
X5997921Y4011497D01*
X6002894Y4018939D01*
X6004641Y4027718D01*
Y4211978D01*
X6021592Y4228929D01*
X6031223Y4224940D01*
X6054097D01*
X6075231Y4233694D01*
X6091406Y4249869D01*
X6100160Y4271003D01*
Y4284720D01*
X6217061D01*
X6217063Y4284719D01*
X6228827Y4287059D01*
X6238800Y4293723D01*
X6268557Y4323481D01*
X6268558Y4323481D01*
X6275221Y4333454D01*
X6277561Y4345218D01*
Y4360739D01*
X6531421D01*
Y4625080D01*
X6633780D01*
Y4388280D01*
X6863780D01*
Y4918280D01*
X6633780D01*
Y4686560D01*
X6531421D01*
Y4940739D01*
D02*
G37*
G36*
X1536699Y4520300D02*
X1386699D01*
Y4090300D01*
X1536699D01*
Y4282359D01*
X1585565D01*
X1589554Y4272729D01*
X1605729Y4256554D01*
X1626863Y4247800D01*
X1649737D01*
X1670871Y4256554D01*
X1687046Y4272729D01*
X1695800Y4293863D01*
Y4316737D01*
X1687046Y4337871D01*
X1670871Y4354046D01*
X1649737Y4362800D01*
X1626863D01*
X1605729Y4354046D01*
X1589554Y4337871D01*
X1585565Y4328241D01*
X1536699D01*
Y4520300D01*
D02*
G37*
G36*
X6675399Y4270260D02*
X6631699D01*
Y4259860D01*
X6550101D01*
Y4236801D01*
X6475598D01*
Y4256360D01*
X6400601D01*
X6390599Y4256360D01*
X6375599Y4256360D01*
X6300602D01*
Y4236801D01*
X6214474D01*
X6205695Y4235054D01*
X6198253Y4230081D01*
X6159172Y4191000D01*
X6142997Y4197700D01*
X6120123D01*
X6098989Y4188946D01*
X6082814Y4172771D01*
X6074060Y4151637D01*
Y4128763D01*
X6082814Y4107629D01*
X6098989Y4091454D01*
X6120123Y4082700D01*
X6142997D01*
X6159172Y4089400D01*
X6177934Y4070637D01*
X6185377Y4065664D01*
X6194156Y4063918D01*
X6300602D01*
Y4044359D01*
X6375599D01*
X6385601Y4044359D01*
X6398291Y4044359D01*
X6408898Y4033752D01*
Y3994020D01*
X6378078D01*
Y3929461D01*
X6345147D01*
X6341158Y3939091D01*
X6324983Y3955266D01*
X6303849Y3964020D01*
X6280974D01*
X6259841Y3955266D01*
X6243666Y3939091D01*
X6234912Y3917957D01*
Y3895083D01*
X6243666Y3873949D01*
X6259841Y3857774D01*
X6280974Y3849020D01*
X6303849D01*
X6324983Y3857774D01*
X6341158Y3873949D01*
X6345147Y3883579D01*
X6378078D01*
Y3819020D01*
X6483078D01*
Y3994020D01*
X6454779D01*
Y4044359D01*
X6475598D01*
Y4129359D01*
X6400601D01*
X6390599Y4129359D01*
X6375599Y4129359D01*
X6300602D01*
Y4109799D01*
X6203658D01*
X6187781Y4125676D01*
X6189060Y4128763D01*
Y4151637D01*
X6187781Y4154724D01*
X6223977Y4190919D01*
X6300602D01*
Y4171360D01*
X6375599D01*
X6385601Y4171360D01*
X6400601Y4171360D01*
X6475598D01*
Y4190919D01*
X6550101D01*
Y4167860D01*
X6631699D01*
Y4157460D01*
X6675399D01*
Y4213860D01*
Y4270260D01*
D02*
G37*
G36*
X6868160Y4217252D02*
Y4163060D01*
X6922352D01*
X6918733Y4176568D01*
X6909794Y4192052D01*
X6897152Y4204694D01*
X6881668Y4213633D01*
X6868160Y4217252D01*
D02*
G37*
G36*
X6744499Y4270260D02*
X6700799D01*
Y4213860D01*
Y4157460D01*
X6744499D01*
Y4190919D01*
X6782458D01*
X6793879Y4179498D01*
X6792187Y4176568D01*
X6788568Y4163060D01*
X6842760D01*
Y4217252D01*
X6829252Y4213633D01*
X6826322Y4211941D01*
X6808181Y4230081D01*
X6800739Y4235054D01*
X6791960Y4236801D01*
X6744499D01*
Y4270260D01*
D02*
G37*
G36*
X416701Y4520300D02*
X266701D01*
Y4307921D01*
X232958D01*
X224179Y4306174D01*
X216737Y4301201D01*
X216736Y4301201D01*
X186979Y4271443D01*
X182006Y4264001D01*
X180259Y4255222D01*
Y3596640D01*
X182006Y3587861D01*
X186979Y3580419D01*
X211397Y3556000D01*
X141259Y3485861D01*
X136286Y3478419D01*
X134539Y3469640D01*
Y3301639D01*
X136286Y3292860D01*
X141259Y3285418D01*
X156138Y3270539D01*
X163580Y3265566D01*
X172359Y3263819D01*
X197892D01*
Y3256760D01*
X199832Y3247006D01*
X205358Y3238736D01*
X213627Y3233211D01*
X223382Y3231270D01*
X313381D01*
X323136Y3233211D01*
X331405Y3238736D01*
X336931Y3247006D01*
X338871Y3256760D01*
Y3316760D01*
X336931Y3326514D01*
X331405Y3334784D01*
X323136Y3340309D01*
X313381Y3342250D01*
X223382D01*
X213627Y3340309D01*
X205358Y3334784D01*
X199832Y3326514D01*
X197892Y3316760D01*
Y3309701D01*
X181861D01*
X180421Y3311141D01*
Y3460138D01*
X253342Y3533059D01*
X303662D01*
Y3513500D01*
X378659D01*
X388661Y3513500D01*
X403661Y3513500D01*
X478658D01*
Y3535160D01*
X533565D01*
X537554Y3525529D01*
X553729Y3509354D01*
X574863Y3500600D01*
X597737D01*
X618871Y3509354D01*
X635046Y3525529D01*
X643800Y3546663D01*
Y3569537D01*
X635046Y3590671D01*
X618871Y3606846D01*
X597737Y3615600D01*
X574863D01*
X553729Y3606846D01*
X537554Y3590671D01*
X533565Y3581041D01*
X478658D01*
Y3598500D01*
X403661D01*
X393659Y3598500D01*
X378659Y3598500D01*
X303662D01*
Y3578941D01*
X253342D01*
X226141Y3606142D01*
Y4245719D01*
X242460Y4262039D01*
X266701D01*
Y4090300D01*
X416701D01*
Y4520300D01*
D02*
G37*
G36*
X6922352Y4137660D02*
X6788568D01*
X6792187Y4124152D01*
X6801126Y4108668D01*
X6813768Y4096026D01*
X6829252Y4087087D01*
X6832519Y4086212D01*
Y4022702D01*
X6739278Y3929461D01*
X6723480D01*
Y4004420D01*
X6673280D01*
Y3906520D01*
Y3808620D01*
X6723480D01*
Y3883579D01*
X6748780D01*
X6757559Y3885326D01*
X6765001Y3890299D01*
X6871681Y3996979D01*
X6876654Y4004421D01*
X6878401Y4013200D01*
X6878401Y4013201D01*
Y4086212D01*
X6881668Y4087087D01*
X6897152Y4096026D01*
X6909794Y4108668D01*
X6918733Y4124152D01*
X6922352Y4137660D01*
D02*
G37*
G36*
X6647880Y4004420D02*
X6597680D01*
Y3919220D01*
X6647880D01*
Y4004420D01*
D02*
G37*
G36*
Y3893820D02*
X6597680D01*
Y3808620D01*
X6647880D01*
Y3893820D01*
D02*
G37*
G36*
X4886960Y3851492D02*
X4873452Y3847873D01*
X4857968Y3838934D01*
X4845326Y3826292D01*
X4836387Y3810808D01*
X4832768Y3797300D01*
X4886960D01*
Y3851492D01*
D02*
G37*
G36*
X2270760Y3846412D02*
X2257252Y3842793D01*
X2241768Y3833854D01*
X2229126Y3821212D01*
X2220187Y3805728D01*
X2216568Y3792220D01*
X2270760D01*
Y3846412D01*
D02*
G37*
G36*
X4886960Y3771900D02*
X4832768D01*
X4836387Y3758392D01*
X4845326Y3742908D01*
X4857968Y3730266D01*
X4873452Y3721327D01*
X4886960Y3717708D01*
Y3771900D01*
D02*
G37*
G36*
X2270760Y3766820D02*
X2216568D01*
X2220187Y3753312D01*
X2229126Y3737828D01*
X2241768Y3725186D01*
X2257252Y3716247D01*
X2270760Y3712628D01*
Y3766820D01*
D02*
G37*
G36*
X5842605Y3911681D02*
X5646420D01*
X5637641Y3909934D01*
X5630199Y3904961D01*
X5568258Y3843021D01*
X5563285Y3835579D01*
X5561539Y3826800D01*
Y3810460D01*
X5499480D01*
Y3750460D01*
Y3670863D01*
X5489080D01*
Y3643163D01*
X5584479D01*
Y3617763D01*
X5489080D01*
Y3593160D01*
X5584479D01*
Y3580460D01*
X5597179D01*
Y3540060D01*
X5679879D01*
Y3545448D01*
X5694879Y3551662D01*
X5706074Y3540467D01*
X5703606Y3521721D01*
X5698708Y3518894D01*
X5686066Y3506252D01*
X5677127Y3490768D01*
X5673508Y3477260D01*
X5807292D01*
X5803673Y3490768D01*
X5794734Y3506252D01*
X5782092Y3518894D01*
X5766608Y3527833D01*
X5763341Y3528708D01*
Y3538583D01*
X5763341Y3538584D01*
X5763341Y3538585D01*
Y3612608D01*
X5761594Y3621387D01*
X5756621Y3628829D01*
X5755493Y3629583D01*
X5742557Y3642520D01*
X5748446Y3657519D01*
X6024880D01*
X6033659Y3659266D01*
X6041101Y3664239D01*
X6080102Y3703239D01*
X6145660D01*
Y3683680D01*
X6220662D01*
X6230660Y3683680D01*
X6245660Y3683680D01*
X6320662D01*
Y3703239D01*
X6348065D01*
X6352054Y3693609D01*
X6368229Y3677434D01*
X6389363Y3668680D01*
X6412237D01*
X6433371Y3677434D01*
X6449546Y3693609D01*
X6458300Y3714743D01*
Y3737617D01*
X6449546Y3758751D01*
X6433371Y3774926D01*
X6412237Y3783680D01*
X6389363D01*
X6368229Y3774926D01*
X6352054Y3758751D01*
X6348065Y3749121D01*
X6320662D01*
Y3768680D01*
X6241030Y3768680D01*
X6234219Y3783082D01*
X6238726Y3787589D01*
X6247480Y3808723D01*
Y3831597D01*
X6238726Y3852731D01*
X6222551Y3868906D01*
X6201417Y3877660D01*
X6178543D01*
X6157409Y3868906D01*
X6141234Y3852731D01*
X6132480Y3831597D01*
Y3808723D01*
X6141234Y3787589D01*
X6145294Y3783528D01*
X6145660Y3768680D01*
X6145660Y3768680D01*
X6145660Y3768679D01*
Y3749121D01*
X6070600D01*
X6061821Y3747374D01*
X6054379Y3742401D01*
X6054378Y3742401D01*
X6015378Y3703401D01*
X5784851D01*
X5781461Y3716586D01*
X5781405Y3718400D01*
X5797253Y3734249D01*
X5806007Y3755383D01*
Y3778257D01*
X5797253Y3799391D01*
X5781078Y3815566D01*
X5759944Y3824320D01*
X5737070D01*
X5715936Y3815566D01*
X5699761Y3799391D01*
X5691007Y3778257D01*
Y3755383D01*
X5689684Y3753403D01*
X5669479D01*
Y3810460D01*
X5621796D01*
X5615583Y3825460D01*
X5655922Y3865799D01*
X5833103D01*
X5858298Y3840604D01*
X5855620Y3834137D01*
Y3811263D01*
X5864374Y3790129D01*
X5880549Y3773954D01*
X5901683Y3765200D01*
X5924557D01*
X5945691Y3773954D01*
X5961866Y3790129D01*
X5970620Y3811263D01*
Y3834137D01*
X5961866Y3855271D01*
X5945691Y3871446D01*
X5924557Y3880200D01*
X5901683D01*
X5888888Y3874900D01*
X5858826Y3904961D01*
X5851384Y3909934D01*
X5842605Y3911681D01*
D02*
G37*
G36*
X5571779Y3567760D02*
X5489080D01*
Y3540060D01*
X5571779D01*
Y3567760D01*
D02*
G37*
G36*
X5807292Y3451860D02*
X5753100D01*
Y3397668D01*
X5766608Y3401287D01*
X5782092Y3410226D01*
X5794734Y3422868D01*
X5803673Y3438352D01*
X5807292Y3451860D01*
D02*
G37*
G36*
X5727700D02*
X5673508D01*
X5677127Y3438352D01*
X5686066Y3422868D01*
X5698708Y3410226D01*
X5714192Y3401287D01*
X5727700Y3397668D01*
Y3451860D01*
D02*
G37*
G36*
X465678Y3447854D02*
X433379D01*
X419566Y3445107D01*
X407857Y3437283D01*
X400033Y3425573D01*
X397285Y3411761D01*
Y3394461D01*
X465678D01*
Y3447854D01*
D02*
G37*
G36*
X642620Y3447632D02*
Y3393440D01*
X696812D01*
X693193Y3406948D01*
X684254Y3422432D01*
X671612Y3435074D01*
X656128Y3444013D01*
X642620Y3447632D01*
D02*
G37*
G36*
X465678Y3369061D02*
X397285D01*
Y3351761D01*
X400033Y3337949D01*
X407857Y3326239D01*
X419566Y3318415D01*
X433379Y3315668D01*
X465678D01*
Y3369061D01*
D02*
G37*
G36*
X696812Y3368040D02*
X642620D01*
Y3313848D01*
X656128Y3317467D01*
X671612Y3326406D01*
X684254Y3339048D01*
X693193Y3354532D01*
X696812Y3368040D01*
D02*
G37*
G36*
X523378Y3447854D02*
X491078D01*
Y3381761D01*
Y3315668D01*
X523378D01*
X537191Y3318415D01*
X548900Y3326239D01*
X556724Y3337949D01*
X557282Y3340752D01*
X573095Y3343363D01*
X575586Y3339048D01*
X588228Y3326406D01*
X603712Y3317467D01*
X617220Y3313848D01*
Y3380740D01*
Y3447632D01*
X603712Y3444013D01*
X588228Y3435074D01*
X575586Y3422432D01*
X573397Y3418640D01*
X557584Y3421251D01*
X556724Y3425573D01*
X548900Y3437283D01*
X537191Y3445107D01*
X523378Y3447854D01*
D02*
G37*
G36*
X6226599Y3335291D02*
X6084299D01*
Y3271799D01*
X6267791D01*
Y3294099D01*
X6264655Y3309863D01*
X6255726Y3323226D01*
X6242363Y3332155D01*
X6226599Y3335291D01*
D02*
G37*
G36*
X6267791Y3246399D02*
X6084299D01*
Y3182908D01*
X6226599D01*
X6242363Y3186044D01*
X6255726Y3194973D01*
X6264655Y3208336D01*
X6267791Y3224099D01*
Y3246399D01*
D02*
G37*
G36*
X2165100Y4008899D02*
X1975100D01*
Y3758899D01*
X2064939D01*
Y3480823D01*
X2020346Y3436230D01*
X1952300D01*
X1942546Y3434289D01*
X1934276Y3428764D01*
X1928751Y3420494D01*
X1926810Y3410740D01*
Y3350740D01*
X1928751Y3340986D01*
X1934276Y3332716D01*
X1942546Y3327191D01*
X1952300Y3325250D01*
X1974359D01*
Y3290980D01*
X1976106Y3282201D01*
X1981078Y3274759D01*
X1998809Y3257028D01*
X1994820Y3247397D01*
Y3224523D01*
X2003574Y3203389D01*
X2019749Y3187214D01*
X2040883Y3178460D01*
X2063757D01*
X2084891Y3187214D01*
X2101066Y3203389D01*
X2109820Y3224523D01*
Y3247397D01*
X2101066Y3268531D01*
X2084891Y3284706D01*
X2063757Y3293460D01*
X2040883D01*
X2031252Y3289471D01*
X2020240Y3300483D01*
Y3325250D01*
X2042300D01*
X2052054Y3327191D01*
X2060324Y3332716D01*
X2065849Y3340986D01*
X2067789Y3350740D01*
Y3410740D01*
X2066454Y3417452D01*
X2104101Y3455099D01*
X2109074Y3462541D01*
X2110821Y3471320D01*
Y3758899D01*
X2165100D01*
Y4008899D01*
D02*
G37*
G36*
X590803Y3006110D02*
X528503D01*
Y2947802D01*
X660138D01*
X659391Y2953480D01*
X652297Y2970606D01*
X641013Y2985312D01*
X626307Y2996596D01*
X609181Y3003690D01*
X590803Y3006110D01*
D02*
G37*
G36*
X503103D02*
X440803D01*
X422425Y3003690D01*
X405299Y2996596D01*
X390593Y2985312D01*
X379309Y2970606D01*
X372215Y2953480D01*
X371467Y2947802D01*
X503103D01*
Y3006110D01*
D02*
G37*
G36*
X217800D02*
X190500D01*
Y2947802D01*
X287135D01*
X286388Y2953480D01*
X279294Y2970606D01*
X268010Y2985312D01*
X253304Y2996596D01*
X236178Y3003690D01*
X217800Y3006110D01*
D02*
G37*
G36*
X165100D02*
X137800D01*
X119422Y3003690D01*
X102296Y2996596D01*
X87590Y2985312D01*
X76306Y2970606D01*
X69212Y2953480D01*
X68465Y2947802D01*
X165100D01*
Y3006110D01*
D02*
G37*
G36*
Y2922402D02*
X68465D01*
X69212Y2916724D01*
X76306Y2899598D01*
X87590Y2884892D01*
X102296Y2873608D01*
X119422Y2866514D01*
X137800Y2864095D01*
X165100D01*
Y2922402D01*
D02*
G37*
G36*
X5592045Y2846020D02*
X5590540D01*
Y2750820D01*
X5685740D01*
Y2752325D01*
X5678387Y2779768D01*
X5664181Y2804372D01*
X5644092Y2824461D01*
X5619488Y2838667D01*
X5592045Y2846020D01*
D02*
G37*
G36*
X5565140D02*
X5563635D01*
X5536192Y2838667D01*
X5511588Y2824461D01*
X5491499Y2804372D01*
X5477293Y2779768D01*
X5469940Y2752325D01*
Y2750820D01*
X5565140D01*
Y2846020D01*
D02*
G37*
G36*
X5685740Y2725420D02*
X5590540D01*
Y2630220D01*
X5592045D01*
X5619488Y2637573D01*
X5644092Y2651779D01*
X5664181Y2671868D01*
X5678387Y2696472D01*
X5685740Y2723915D01*
Y2725420D01*
D02*
G37*
G36*
X5565140D02*
X5469940D01*
Y2723915D01*
X5477293Y2696472D01*
X5491499Y2671868D01*
X5511588Y2651779D01*
X5536192Y2637573D01*
X5563635Y2630220D01*
X5565140D01*
Y2725420D01*
D02*
G37*
G36*
X6216599Y2724884D02*
X5926600D01*
X5910992Y2721780D01*
X5897761Y2712939D01*
X5888920Y2699708D01*
X5885816Y2684101D01*
Y2634101D01*
X5888920Y2618493D01*
X5897761Y2605262D01*
X5910992Y2596422D01*
X5926600Y2593317D01*
X6022058D01*
Y2569621D01*
X5549481Y2097044D01*
X5498325D01*
X5497046Y2100131D01*
X5480871Y2116306D01*
X5459737Y2125060D01*
X5436863D01*
X5415729Y2116306D01*
X5399554Y2100131D01*
X5390800Y2078997D01*
Y2056123D01*
X5399554Y2034989D01*
X5415729Y2018814D01*
X5436863Y2010060D01*
X5459737D01*
X5480871Y2018814D01*
X5497046Y2034989D01*
X5503746Y2051163D01*
X5558984D01*
X5567763Y2052910D01*
X5575205Y2057882D01*
X6061219Y2543897D01*
X6061220Y2543897D01*
X6066193Y2551340D01*
X6067939Y2560119D01*
Y2593317D01*
X6216599D01*
X6232207Y2596422D01*
X6245438Y2605262D01*
X6254279Y2618493D01*
X6257383Y2634101D01*
Y2684101D01*
X6254279Y2699708D01*
X6245438Y2712939D01*
X6232207Y2721780D01*
X6216599Y2724884D01*
D02*
G37*
G36*
X165100Y2141107D02*
X137800D01*
X119422Y2138688D01*
X102296Y2131594D01*
X87590Y2120310D01*
X76306Y2105604D01*
X69212Y2088478D01*
X68465Y2082800D01*
X165100D01*
Y2141107D01*
D02*
G37*
G36*
X503103Y2057400D02*
X371467D01*
X372215Y2051722D01*
X379309Y2034596D01*
X390593Y2019890D01*
X405299Y2008606D01*
X422425Y2001512D01*
X440803Y1999093D01*
X503103D01*
Y2057400D01*
D02*
G37*
G36*
X6213899Y1867171D02*
X6071599D01*
Y1803679D01*
X6255091D01*
Y1825979D01*
X6251955Y1841743D01*
X6243026Y1855106D01*
X6229663Y1864035D01*
X6213899Y1867171D01*
D02*
G37*
G36*
X6046199D02*
X5903900D01*
X5888136Y1864035D01*
X5874773Y1855106D01*
X5865844Y1841743D01*
X5862708Y1825979D01*
Y1813780D01*
X5725978D01*
X5717199Y1812034D01*
X5709756Y1807061D01*
X5706176Y1803481D01*
X5393068D01*
X5392193Y1806748D01*
X5383254Y1822232D01*
X5370612Y1834874D01*
X5355128Y1843813D01*
X5341620Y1847432D01*
Y1780540D01*
Y1713648D01*
X5355128Y1717267D01*
X5370612Y1726206D01*
X5383254Y1738848D01*
X5392193Y1754332D01*
X5393068Y1757599D01*
X5715678D01*
X5724457Y1759346D01*
X5731899Y1764319D01*
X5735480Y1767899D01*
X5862708D01*
Y1755979D01*
X5865844Y1740216D01*
X5874773Y1726853D01*
X5888136Y1717924D01*
X5903900Y1714788D01*
X6046199D01*
Y1790979D01*
Y1867171D01*
D02*
G37*
G36*
X5316220Y1847432D02*
X5302712Y1843813D01*
X5287228Y1834874D01*
X5274586Y1822232D01*
X5265647Y1806748D01*
X5262028Y1793240D01*
X5316220D01*
Y1847432D01*
D02*
G37*
G36*
X1478280Y1824572D02*
Y1770380D01*
X1532472D01*
X1528853Y1783888D01*
X1519914Y1799372D01*
X1507272Y1812014D01*
X1491788Y1820953D01*
X1478280Y1824572D01*
D02*
G37*
G36*
X1261400Y1766001D02*
X1178700D01*
Y1738301D01*
X1261400D01*
Y1766001D01*
D02*
G37*
G36*
X6255091Y1778279D02*
X6071599D01*
Y1714788D01*
X6213899D01*
X6229663Y1717924D01*
X6243026Y1726853D01*
X6251955Y1740216D01*
X6255091Y1755979D01*
Y1778279D01*
D02*
G37*
G36*
X5316220Y1767840D02*
X5262028D01*
X5265647Y1754332D01*
X5274586Y1738848D01*
X5287228Y1726206D01*
X5302712Y1717267D01*
X5316220Y1713648D01*
Y1767840D01*
D02*
G37*
G36*
X1897380Y1725512D02*
X1883872Y1721893D01*
X1868388Y1712954D01*
X1855746Y1700312D01*
X1846807Y1684828D01*
X1843188Y1671320D01*
X1897380D01*
Y1725512D01*
D02*
G37*
G36*
X6213899Y1656567D02*
X5903900D01*
X5892194Y1654239D01*
X5882271Y1647609D01*
X5875640Y1637685D01*
X5873312Y1625980D01*
Y1614720D01*
X5371827D01*
X5367506Y1625151D01*
X5351331Y1641326D01*
X5330197Y1650080D01*
X5307323D01*
X5286189Y1641326D01*
X5270014Y1625151D01*
X5261260Y1604017D01*
Y1581143D01*
X5270014Y1560009D01*
X5286189Y1543834D01*
X5307323Y1535080D01*
X5330197D01*
X5351331Y1543834D01*
X5367506Y1560009D01*
X5371164Y1568839D01*
X5873312D01*
Y1555980D01*
X5875640Y1544275D01*
X5882271Y1534351D01*
X5892194Y1527721D01*
X5903900Y1525392D01*
X6213899D01*
X6225605Y1527721D01*
X6235528Y1534351D01*
X6242159Y1544275D01*
X6244487Y1555980D01*
Y1625980D01*
X6242159Y1637685D01*
X6235528Y1647609D01*
X6225605Y1654239D01*
X6213899Y1656567D01*
D02*
G37*
G36*
X1261400Y1512901D02*
X1178700D01*
Y1485201D01*
X1261400D01*
Y1512901D01*
D02*
G37*
G36*
X3874777Y1832960D02*
X3851903D01*
X3830769Y1824206D01*
X3814594Y1808031D01*
X3805840Y1786897D01*
Y1764023D01*
X3814594Y1742889D01*
X3830769Y1726714D01*
X3844209Y1721147D01*
Y1549757D01*
X3838389Y1547346D01*
X3822214Y1531171D01*
X3813460Y1510037D01*
Y1487163D01*
X3822214Y1466029D01*
X3838389Y1449854D01*
X3859523Y1441100D01*
X3882397D01*
X3903531Y1449854D01*
X3919706Y1466029D01*
X3928460Y1487163D01*
Y1510037D01*
X3919706Y1531171D01*
X3903531Y1547346D01*
X3890091Y1552913D01*
Y1724303D01*
X3895911Y1726714D01*
X3912086Y1742889D01*
X3920840Y1764023D01*
Y1786897D01*
X3912086Y1808031D01*
X3895911Y1824206D01*
X3874777Y1832960D01*
D02*
G37*
G36*
X348780Y1480819D02*
X305080D01*
Y1437119D01*
X348780D01*
Y1480819D01*
D02*
G37*
G36*
X2198800Y1554641D02*
X2140800D01*
Y1474641D01*
X2141557D01*
Y1409061D01*
X2141557Y1409060D01*
X2143707Y1398252D01*
X2149829Y1389089D01*
X2176953Y1361966D01*
X2175160Y1357637D01*
Y1334763D01*
X2183914Y1313629D01*
X2200089Y1297454D01*
X2221223Y1288700D01*
X2244097D01*
X2265231Y1297454D01*
X2281406Y1313629D01*
X2290160Y1334763D01*
Y1357637D01*
X2281406Y1378771D01*
X2265231Y1394946D01*
X2244097Y1403700D01*
X2221223D01*
X2216894Y1401907D01*
X2198043Y1420759D01*
Y1474641D01*
X2198800D01*
Y1554641D01*
D02*
G37*
G36*
X6203899Y1256764D02*
X5913900D01*
X5898292Y1253660D01*
X5885061Y1244819D01*
X5876220Y1231588D01*
X5873116Y1215981D01*
Y1213921D01*
X5304700D01*
X5304699Y1213921D01*
X5295920Y1212175D01*
X5288477Y1207202D01*
X5288477Y1207201D01*
X4612647Y531372D01*
X4599474Y538977D01*
X4574676Y545622D01*
X4549004D01*
X4524206Y538977D01*
X4501974Y526141D01*
X4483821Y507988D01*
X4470985Y485756D01*
X4464340Y460958D01*
Y435286D01*
X4470985Y410488D01*
X4483821Y388256D01*
X4501974Y370103D01*
X4524206Y357267D01*
X4549004Y350622D01*
X4574676D01*
X4599474Y357267D01*
X4621706Y370103D01*
X4639859Y388256D01*
X4652695Y410488D01*
X4659340Y435286D01*
Y460958D01*
X4652695Y485756D01*
X4645090Y498929D01*
X5314201Y1168040D01*
X5616978D01*
X5622718Y1154182D01*
X5540222Y1071687D01*
X5535250Y1064244D01*
X5533503Y1055465D01*
Y1023186D01*
X5517329Y1016486D01*
X5501154Y1000311D01*
X5492400Y979177D01*
Y956303D01*
X5501154Y935169D01*
X5517329Y918994D01*
X5538463Y910240D01*
X5561337D01*
X5582471Y918994D01*
X5598646Y935169D01*
X5607400Y956303D01*
Y979177D01*
X5598646Y1000311D01*
X5582471Y1016486D01*
X5579384Y1017765D01*
Y1045963D01*
X5701462Y1168040D01*
X5873116D01*
Y1165981D01*
X5876220Y1150373D01*
X5885061Y1137142D01*
X5898292Y1128302D01*
X5913900Y1125197D01*
X6203899D01*
X6219507Y1128302D01*
X6232738Y1137142D01*
X6241579Y1150373D01*
X6244683Y1165981D01*
Y1215981D01*
X6241579Y1231588D01*
X6232738Y1244819D01*
X6219507Y1253660D01*
X6203899Y1256764D01*
D02*
G37*
G36*
X3460403Y1174500D02*
X3372703D01*
Y1066800D01*
X3460403D01*
Y1174500D01*
D02*
G37*
G36*
X3799557Y1003820D02*
X3755857D01*
Y960120D01*
X3799557D01*
Y1003820D01*
D02*
G37*
G36*
X658840Y851880D02*
X548639D01*
Y741680D01*
X658840D01*
Y851880D01*
D02*
G37*
G36*
X523239D02*
X413040D01*
Y741680D01*
X523239D01*
Y851880D01*
D02*
G37*
G36*
X3467952Y726440D02*
X3413760D01*
Y672248D01*
X3427268Y675867D01*
X3442752Y684806D01*
X3455394Y697448D01*
X3464333Y712932D01*
X3467952Y726440D01*
D02*
G37*
G36*
X3564897Y715360D02*
X3542023D01*
X3520889Y706606D01*
X3504714Y690431D01*
X3495960Y669297D01*
Y646423D01*
X3499949Y636792D01*
X3479877Y616720D01*
X3455952D01*
Y631279D01*
X3278452D01*
Y556279D01*
Y491281D01*
Y426282D01*
Y361278D01*
Y296280D01*
Y231281D01*
Y166283D01*
X3455952D01*
Y231281D01*
Y296280D01*
Y361278D01*
Y426282D01*
Y491281D01*
Y570839D01*
X3489379D01*
X3498158Y572585D01*
X3505601Y577558D01*
X3532392Y604349D01*
X3542023Y600360D01*
X3564897D01*
X3586031Y609114D01*
X3602206Y625289D01*
X3610960Y646423D01*
Y669297D01*
X3602206Y690431D01*
X3586031Y706606D01*
X3564897Y715360D01*
D02*
G37*
G36*
X296751Y841480D02*
X267129D01*
X238517Y833813D01*
X212863Y819002D01*
X191918Y798057D01*
X177107Y772403D01*
X169440Y743791D01*
Y714169D01*
X177107Y685557D01*
X191918Y659903D01*
X212863Y638958D01*
X238517Y624147D01*
X267129Y616480D01*
X296751D01*
X325363Y624147D01*
X351017Y638958D01*
X371962Y659903D01*
X386773Y685557D01*
X394440Y714169D01*
Y743791D01*
X386773Y772403D01*
X371962Y798057D01*
X351017Y819002D01*
X325363Y833813D01*
X296751Y841480D01*
D02*
G37*
G36*
X658840Y716280D02*
X548639D01*
Y606080D01*
X658840D01*
Y716280D01*
D02*
G37*
G36*
X523239D02*
X413040D01*
Y606080D01*
X523239D01*
Y716280D01*
D02*
G37*
G36*
X1092200Y532582D02*
X1059500D01*
Y477382D01*
X1092200D01*
Y532582D01*
D02*
G37*
G36*
X5970277Y771240D02*
X5947403D01*
X5926269Y762486D01*
X5910094Y746311D01*
X5901340Y725177D01*
Y702303D01*
X5910094Y681169D01*
X5926269Y664994D01*
X5947403Y656240D01*
X5970277D01*
X5991411Y664994D01*
X6007586Y681169D01*
X6011575Y690799D01*
X6157618D01*
X6233351Y615066D01*
Y599439D01*
X6210020D01*
Y517840D01*
X6199620D01*
Y484381D01*
X6100240D01*
X6091461Y482634D01*
X6084019Y477661D01*
X6033698Y427341D01*
X6030768Y429033D01*
X6017260Y432652D01*
Y365760D01*
Y298868D01*
X6030768Y302487D01*
X6046252Y311426D01*
X6047165Y312339D01*
X6650442D01*
X6659221Y314086D01*
X6666663Y319059D01*
X6696421Y348816D01*
X6696421Y348817D01*
X6701394Y356259D01*
X6703141Y365038D01*
Y403057D01*
X6736600D01*
Y446757D01*
X6623800D01*
Y403057D01*
X6657259D01*
Y374540D01*
X6640939Y358221D01*
X6558361D01*
Y405040D01*
X6591820D01*
Y448740D01*
X6479020D01*
Y405040D01*
X6512479D01*
Y358221D01*
X6427297D01*
X6423765Y362119D01*
X6417618Y373221D01*
X6418661Y378460D01*
Y405040D01*
X6452120D01*
Y448740D01*
X6339320D01*
Y405040D01*
X6372779D01*
Y387962D01*
X6343038Y358221D01*
X6072460D01*
Y374699D01*
X6067833Y391968D01*
X6066141Y394898D01*
X6109742Y438500D01*
X6199620D01*
Y405040D01*
X6243320D01*
Y461440D01*
X6256020D01*
Y474140D01*
X6312420D01*
Y517840D01*
X6302020D01*
Y599439D01*
X6279232D01*
Y624567D01*
X6279233Y624568D01*
X6277486Y633347D01*
X6272513Y640790D01*
X6236914Y676389D01*
X6242655Y690247D01*
X6333780D01*
X6335049Y688347D01*
X6372779Y650617D01*
Y599439D01*
X6349720D01*
Y517840D01*
X6339320D01*
Y474140D01*
X6452120D01*
Y517840D01*
X6441720D01*
Y599439D01*
X6418661D01*
Y660119D01*
X6416914Y668898D01*
X6412672Y675247D01*
X6414187Y681927D01*
X6417633Y690247D01*
X6451512D01*
X6504672Y637087D01*
Y599439D01*
X6489420D01*
Y517840D01*
X6479020D01*
Y474140D01*
X6591820D01*
Y517840D01*
X6581420D01*
Y599439D01*
X6566168D01*
Y649823D01*
X6563827Y661590D01*
X6557162Y671565D01*
X6552339Y676389D01*
X6558079Y690247D01*
X6574449D01*
X6652235Y612461D01*
X6646022Y597461D01*
X6634200D01*
Y515857D01*
X6623800D01*
Y472157D01*
X6736600D01*
Y515857D01*
X6726200D01*
Y597461D01*
X6703141D01*
Y616939D01*
X6701394Y625718D01*
X6696421Y633160D01*
X6600173Y729408D01*
X6592731Y734381D01*
X6583952Y736128D01*
X6492005D01*
X6483822Y741594D01*
X6472056Y743935D01*
X6460289Y741594D01*
X6452107Y736128D01*
X6188806D01*
X6187440Y736399D01*
X6168534D01*
X6167120Y736681D01*
X6011575D01*
X6007586Y746311D01*
X5991411Y762486D01*
X5970277Y771240D01*
D02*
G37*
G36*
X1890622Y473620D02*
X1835421D01*
Y440919D01*
X1890622D01*
Y473620D01*
D02*
G37*
G36*
X6312420Y448740D02*
X6268720D01*
Y405040D01*
X6312420D01*
Y448740D01*
D02*
G37*
G36*
X587720Y501360D02*
X477519D01*
Y391160D01*
X587720D01*
Y501360D01*
D02*
G37*
G36*
X452119D02*
X341920D01*
Y391160D01*
X452119D01*
Y501360D01*
D02*
G37*
G36*
X5991860Y432652D02*
X5978352Y429033D01*
X5962868Y420094D01*
X5950226Y407452D01*
X5941287Y391968D01*
X5937668Y378460D01*
X5991860D01*
Y432652D01*
D02*
G37*
G36*
X5590676Y549620D02*
X5565004D01*
X5540206Y542975D01*
X5517974Y530139D01*
X5499821Y511986D01*
X5486985Y489754D01*
X5480340Y464956D01*
Y439284D01*
X5486985Y414486D01*
X5499821Y392254D01*
X5517974Y374101D01*
X5540206Y361265D01*
X5565004Y354620D01*
X5590676D01*
X5615474Y361265D01*
X5637706Y374101D01*
X5655859Y392254D01*
X5668695Y414486D01*
X5675340Y439284D01*
Y464956D01*
X5668695Y489754D01*
X5655859Y511986D01*
X5637706Y530139D01*
X5615474Y542975D01*
X5590676Y549620D01*
D02*
G37*
G36*
X5336676Y545622D02*
X5311004D01*
X5286206Y538977D01*
X5263974Y526141D01*
X5245821Y507988D01*
X5232985Y485756D01*
X5226340Y460958D01*
Y435286D01*
X5232985Y410488D01*
X5245821Y388256D01*
X5263974Y370103D01*
X5286206Y357267D01*
X5311004Y350622D01*
X5336676D01*
X5361474Y357267D01*
X5383706Y370103D01*
X5401859Y388256D01*
X5414695Y410488D01*
X5421340Y435286D01*
Y460958D01*
X5414695Y485756D01*
X5401859Y507988D01*
X5383706Y526141D01*
X5361474Y538977D01*
X5336676Y545622D01*
D02*
G37*
G36*
X5082676D02*
X5057004D01*
X5032206Y538977D01*
X5009974Y526141D01*
X4991821Y507988D01*
X4978985Y485756D01*
X4972340Y460958D01*
Y435286D01*
X4978985Y410488D01*
X4991821Y388256D01*
X5009974Y370103D01*
X5032206Y357267D01*
X5057004Y350622D01*
X5082676D01*
X5107474Y357267D01*
X5129706Y370103D01*
X5147859Y388256D01*
X5160695Y410488D01*
X5167340Y435286D01*
Y460958D01*
X5160695Y485756D01*
X5147859Y507988D01*
X5129706Y526141D01*
X5107474Y538977D01*
X5082676Y545622D01*
D02*
G37*
G36*
X4828676D02*
X4803004D01*
X4778206Y538977D01*
X4755974Y526141D01*
X4737821Y507988D01*
X4724985Y485756D01*
X4718340Y460958D01*
Y435286D01*
X4724985Y410488D01*
X4737821Y388256D01*
X4755974Y370103D01*
X4778206Y357267D01*
X4803004Y350622D01*
X4828676D01*
X4853474Y357267D01*
X4875706Y370103D01*
X4893859Y388256D01*
X4906695Y410488D01*
X4913340Y435286D01*
Y460958D01*
X4906695Y485756D01*
X4893859Y507988D01*
X4875706Y526141D01*
X4853474Y538977D01*
X4828676Y545622D01*
D02*
G37*
G36*
X3868657Y1003820D02*
X3824957D01*
Y947420D01*
X3812257D01*
Y934720D01*
X3755857D01*
Y891020D01*
X3789317D01*
Y556022D01*
X3785635D01*
X3758192Y548669D01*
X3733588Y534463D01*
X3713499Y514374D01*
X3699293Y489770D01*
X3691940Y462327D01*
Y460822D01*
X3907740D01*
Y462327D01*
X3900387Y489770D01*
X3886181Y514374D01*
X3866092Y534463D01*
X3841488Y548669D01*
X3835198Y550354D01*
Y891020D01*
X3868657D01*
Y901420D01*
X3950261D01*
Y924479D01*
X3973218D01*
X4030899Y866798D01*
Y542914D01*
X4016206Y538977D01*
X3993974Y526141D01*
X3975821Y507988D01*
X3962985Y485756D01*
X3956340Y460958D01*
Y435286D01*
X3962985Y410488D01*
X3975821Y388256D01*
X3993974Y370103D01*
X4016206Y357267D01*
X4041004Y350622D01*
X4066676D01*
X4091474Y357267D01*
X4113706Y370103D01*
X4131859Y388256D01*
X4144695Y410488D01*
X4151340Y435286D01*
Y460958D01*
X4144695Y485756D01*
X4131859Y507988D01*
X4113706Y526141D01*
X4091474Y538977D01*
X4076781Y542914D01*
Y876300D01*
X4075034Y885079D01*
X4070061Y892521D01*
X3998941Y963641D01*
X3991499Y968614D01*
X3982720Y970361D01*
X3950261D01*
Y993420D01*
X3868657D01*
Y1003820D01*
D02*
G37*
G36*
X3907740Y435422D02*
X3812540D01*
Y340222D01*
X3814045D01*
X3841488Y347575D01*
X3866092Y361781D01*
X3886181Y381870D01*
X3900387Y406474D01*
X3907740Y433917D01*
Y435422D01*
D02*
G37*
G36*
X3787140D02*
X3691940D01*
Y433917D01*
X3699293Y406474D01*
X3713499Y381870D01*
X3733588Y361781D01*
X3758192Y347575D01*
X3785635Y340222D01*
X3787140D01*
Y435422D01*
D02*
G37*
G36*
X5991860Y353060D02*
X5937668D01*
X5941287Y339552D01*
X5950226Y324068D01*
X5962868Y311426D01*
X5978352Y302487D01*
X5991860Y298868D01*
Y353060D01*
D02*
G37*
G36*
X225631Y490960D02*
X196009D01*
X167397Y483293D01*
X141743Y468482D01*
X120798Y447537D01*
X105987Y421883D01*
X98320Y393271D01*
Y363649D01*
X105987Y335037D01*
X120798Y309383D01*
X141743Y288438D01*
X167397Y273627D01*
X196009Y265960D01*
X225631D01*
X254243Y273627D01*
X279897Y288438D01*
X300842Y309383D01*
X315653Y335037D01*
X323320Y363649D01*
Y393271D01*
X315653Y421883D01*
X300842Y447537D01*
X279897Y468482D01*
X254243Y483293D01*
X225631Y490960D01*
D02*
G37*
G36*
X587720Y365760D02*
X477519D01*
Y255560D01*
X587720D01*
Y365760D01*
D02*
G37*
G36*
X452119D02*
X341920D01*
Y255560D01*
X452119D01*
Y365760D01*
D02*
G37*
G36*
X795778Y346379D02*
X680778D01*
Y334319D01*
X669519D01*
X660740Y332573D01*
X653297Y327600D01*
X628939Y303241D01*
X623966Y295799D01*
X622219Y287020D01*
Y250802D01*
X597558Y226141D01*
X510540D01*
X501761Y224394D01*
X494319Y219421D01*
X477337Y202440D01*
X472365Y194998D01*
X470618Y186219D01*
Y170600D01*
X453559D01*
Y165191D01*
X438559Y162207D01*
X432286Y177351D01*
X416111Y193526D01*
X394977Y202280D01*
X372103D01*
X350969Y193526D01*
X334794Y177351D01*
X326040Y156217D01*
Y133343D01*
X334794Y112209D01*
X350969Y96034D01*
X360599Y92045D01*
Y78740D01*
X362346Y69961D01*
X367319Y62519D01*
X384458Y45379D01*
X391901Y40406D01*
X400680Y38660D01*
X453559D01*
Y32600D01*
X533559D01*
Y90600D01*
X453559D01*
Y84541D01*
X424577D01*
X419618Y99541D01*
X432286Y112209D01*
X438559Y127353D01*
X453559Y124369D01*
Y112600D01*
X533559D01*
Y170600D01*
X544558Y180259D01*
X607060D01*
X615839Y182006D01*
X623281Y186979D01*
X661381Y225079D01*
X666354Y232521D01*
X668101Y241300D01*
Y270771D01*
X680778Y276379D01*
X795778D01*
Y346379D01*
D02*
G37*
G36*
X2878749Y191082D02*
X2792299D01*
Y155883D01*
X2878749D01*
Y191082D01*
D02*
G37*
G36*
X2557780Y163760D02*
X2503588D01*
X2507207Y150252D01*
X2516146Y134769D01*
X2528788Y122127D01*
X2544272Y113187D01*
X2557780Y109568D01*
Y163760D01*
D02*
G37*
G36*
X1283552Y88900D02*
X1229360D01*
Y34708D01*
X1242868Y38327D01*
X1258352Y47266D01*
X1270994Y59908D01*
X1279933Y75392D01*
X1283552Y88900D01*
D02*
G37*
G36*
X1203960D02*
X1149768D01*
X1153387Y75392D01*
X1162326Y59908D01*
X1174968Y47266D01*
X1190452Y38327D01*
X1203960Y34708D01*
Y88900D01*
D02*
G37*
%LPD*%
G36*
X2445208Y3155154D02*
Y3036139D01*
X2427960D01*
Y2968840D01*
X2414102Y2963100D01*
X2413011Y2964191D01*
X2403683Y2970424D01*
X2392680Y2972612D01*
X2375179D01*
Y2987599D01*
X2283179D01*
Y2895599D01*
Y2803600D01*
X2301593D01*
Y2700300D01*
X2271001D01*
Y2710700D01*
X2240382D01*
Y2761577D01*
X2251434Y2772628D01*
X2260373Y2788112D01*
X2263992Y2801620D01*
X2130208D01*
X2133827Y2788112D01*
X2142766Y2772628D01*
X2155408Y2759986D01*
X2170892Y2751047D01*
X2188161Y2746420D01*
X2194501D01*
Y2710700D01*
X2158201D01*
Y2667000D01*
X2214600D01*
Y2641600D01*
X2158201D01*
Y2597900D01*
X2211408D01*
X2223156Y2583095D01*
X2222610Y2580921D01*
X2153361D01*
Y2555382D01*
X2047193D01*
X2043704Y2559186D01*
X2037475Y2570383D01*
X2039277Y2579441D01*
X2036755Y2592122D01*
X2029572Y2602872D01*
Y2606008D01*
X2036755Y2616758D01*
X2039277Y2629439D01*
X2036755Y2642119D01*
X2029572Y2652870D01*
X2018821Y2660053D01*
X2006141Y2662575D01*
X1990206D01*
X1982293Y2668093D01*
X1976775Y2676006D01*
Y2691941D01*
X1974253Y2704621D01*
X1967070Y2715372D01*
X1966579Y2715699D01*
Y2844967D01*
X1964833Y2853746D01*
X1961550Y2858660D01*
X1964231Y2867426D01*
X1968601Y2873660D01*
X1974857D01*
X1995991Y2882414D01*
X2012166Y2898589D01*
X2016155Y2908219D01*
X2108200D01*
X2116979Y2909966D01*
X2124422Y2914939D01*
X2254863Y3045379D01*
X2289145D01*
X2293134Y3035749D01*
X2309309Y3019574D01*
X2330443Y3010820D01*
X2353317D01*
X2374451Y3019574D01*
X2390626Y3035749D01*
X2399380Y3056883D01*
Y3079757D01*
X2390626Y3100891D01*
X2383017Y3108500D01*
X2388878Y3123500D01*
X2410011Y3132254D01*
X2426186Y3148429D01*
X2430208Y3158138D01*
X2445208Y3155154D01*
D02*
G37*
G36*
X3988552Y3553896D02*
X3983640Y3542037D01*
Y3519163D01*
X3992394Y3498029D01*
X4008569Y3481854D01*
X4029703Y3473100D01*
X4052577D01*
X4062208Y3477089D01*
X4296698Y3242599D01*
X4296699Y3242599D01*
X4304141Y3237626D01*
X4312920Y3235879D01*
X4312921Y3235879D01*
X5166193D01*
X5169177Y3220880D01*
X5151569Y3213586D01*
X5135394Y3197411D01*
X5126640Y3176277D01*
Y3153403D01*
X5135394Y3132269D01*
X5151569Y3116094D01*
X5161199Y3112105D01*
Y2804881D01*
X5153187Y2800740D01*
X5146200Y2799646D01*
X5129706Y2816139D01*
X5107474Y2828975D01*
X5092781Y2832912D01*
Y2956560D01*
X5091034Y2965339D01*
X5086061Y2972781D01*
X5027641Y3031201D01*
X5020199Y3036174D01*
X5011420Y3037921D01*
X4956682D01*
Y3057480D01*
X4881680D01*
X4871683Y3057480D01*
X4857367Y3057480D01*
X4846760Y3068086D01*
Y3095900D01*
X4845014Y3104679D01*
X4840041Y3112122D01*
X4758402Y3193761D01*
X4750959Y3198734D01*
X4742180Y3200480D01*
X4241143D01*
X4106358Y3335265D01*
X4112040Y3348983D01*
Y3371857D01*
X4103286Y3392991D01*
X4087111Y3409166D01*
X4065977Y3417920D01*
X4043103D01*
X4021969Y3409166D01*
X4005794Y3392991D01*
X3997040Y3371857D01*
Y3348983D01*
X4005794Y3327849D01*
X4021969Y3311674D01*
X4043103Y3302920D01*
X4065977D01*
X4071521Y3305216D01*
X4215419Y3161318D01*
X4222861Y3156345D01*
X4231640Y3154599D01*
X4732678D01*
X4800879Y3086398D01*
Y3057480D01*
X4781680D01*
Y2972480D01*
X4797069D01*
Y2834030D01*
X4778206Y2828975D01*
X4755974Y2816139D01*
X4737821Y2797986D01*
X4724985Y2775754D01*
X4718340Y2750956D01*
Y2725284D01*
X4724985Y2700486D01*
X4737821Y2678254D01*
X4755974Y2660101D01*
X4778206Y2647265D01*
X4803004Y2640620D01*
X4828676D01*
X4853474Y2647265D01*
X4875706Y2660101D01*
X4893859Y2678254D01*
X4906695Y2700486D01*
X4913340Y2725284D01*
Y2750956D01*
X4906695Y2775754D01*
X4893859Y2797986D01*
X4875706Y2816139D01*
X4853474Y2828975D01*
X4842950Y2831795D01*
Y2961874D01*
X4853557Y2972480D01*
X4866680Y2972480D01*
X4881680Y2972480D01*
X4956682D01*
Y2992039D01*
X5001918D01*
X5046899Y2947058D01*
Y2832912D01*
X5032206Y2828975D01*
X5009974Y2816139D01*
X4991821Y2797986D01*
X4978985Y2775754D01*
X4972340Y2750956D01*
Y2725284D01*
X4978985Y2700486D01*
X4991821Y2678254D01*
X5009974Y2660101D01*
X5032206Y2647265D01*
X5057004Y2640620D01*
X5078122D01*
X5085509Y2626793D01*
X4612016Y2153300D01*
X4417371D01*
X4411158Y2168300D01*
X4420086Y2177229D01*
X4428840Y2198363D01*
Y2221237D01*
X4420086Y2242371D01*
X4403911Y2258546D01*
X4382777Y2267300D01*
X4359903D01*
X4338769Y2258546D01*
X4322594Y2242371D01*
X4318605Y2232741D01*
X4177642D01*
X4076871Y2333512D01*
X4080860Y2343143D01*
Y2366017D01*
X4072106Y2387151D01*
X4059020Y2400237D01*
X4063199Y2414588D01*
X4063619Y2415237D01*
X4324081D01*
X4493433Y2245886D01*
X4491640Y2241557D01*
Y2218683D01*
X4500394Y2197549D01*
X4516569Y2181374D01*
X4537703Y2172620D01*
X4560577D01*
X4581711Y2181374D01*
X4597886Y2197549D01*
X4606640Y2218683D01*
Y2241557D01*
X4597886Y2262691D01*
X4581711Y2278866D01*
X4560577Y2287620D01*
X4537703D01*
X4533374Y2285827D01*
X4355751Y2463451D01*
X4346588Y2469573D01*
X4335780Y2471723D01*
X4335779Y2471723D01*
X3992619D01*
X3990826Y2476051D01*
X3974651Y2492226D01*
X3953517Y2500980D01*
X3930643D01*
X3909509Y2492226D01*
X3893334Y2476051D01*
X3884580Y2454917D01*
Y2432043D01*
X3893334Y2410909D01*
X3909509Y2394734D01*
X3930643Y2385980D01*
X3953517D01*
X3958799Y2388168D01*
X3970280Y2376687D01*
X3965860Y2366017D01*
Y2343143D01*
X3974614Y2322009D01*
X3990789Y2305834D01*
X4011923Y2297080D01*
X4034797D01*
X4044428Y2301069D01*
X4151919Y2193579D01*
X4159361Y2188606D01*
X4168140Y2186859D01*
X4168141Y2186859D01*
X4318605D01*
X4322594Y2177229D01*
X4331522Y2168300D01*
X4325309Y2153300D01*
X4007511D01*
X4001298Y2168300D01*
X4003526Y2170529D01*
X4012280Y2191663D01*
Y2214537D01*
X4003526Y2235671D01*
X3987351Y2251846D01*
X3966217Y2260600D01*
X3943343D01*
X3939751Y2259112D01*
X3822781Y2376082D01*
Y2640620D01*
X3897340D01*
Y2835620D01*
X3702340D01*
Y2640620D01*
X3776899D01*
Y2502379D01*
X3765818Y2496798D01*
X3761900Y2495789D01*
X3747308Y2504213D01*
X3733800Y2507832D01*
Y2440940D01*
Y2374048D01*
X3747308Y2377667D01*
X3761900Y2386091D01*
X3765818Y2385082D01*
X3776899Y2379501D01*
Y2366580D01*
X3778646Y2357801D01*
X3783619Y2350359D01*
X3903770Y2230207D01*
X3897280Y2214537D01*
Y2211386D01*
X3882280Y2205173D01*
X3813172Y2274281D01*
X3805729Y2279254D01*
X3796950Y2281001D01*
X3616905D01*
X3610692Y2296000D01*
X3693285Y2378594D01*
X3694892Y2377667D01*
X3708400Y2374048D01*
Y2428240D01*
X3654208D01*
X3657827Y2414732D01*
X3660283Y2410478D01*
X3624420Y2374615D01*
X3609421Y2380829D01*
Y3195978D01*
X3975835Y3562392D01*
X3988552Y3553896D01*
D02*
G37*
G36*
X1144558Y2749839D02*
X1144559Y2749839D01*
X1152001Y2744866D01*
X1160780Y2743119D01*
X1478987D01*
X1485291Y2730597D01*
X1479086Y2716246D01*
X1463547Y2710160D01*
X1451842Y2712489D01*
X1421842D01*
X1410137Y2710160D01*
X1400214Y2703530D01*
X1394693Y2695268D01*
X1389325Y2693935D01*
X1388933Y2693907D01*
X1378484Y2694583D01*
X1374895Y2699954D01*
X1366658Y2705458D01*
X1356943Y2707390D01*
X1316743D01*
X1307027Y2705458D01*
X1298791Y2699954D01*
X1293287Y2691718D01*
X1291355Y2682002D01*
Y2609899D01*
X1258448Y2576992D01*
X1130631D01*
Y2711971D01*
X1046035D01*
Y2722371D01*
X1016081D01*
Y2770343D01*
X1014334Y2779122D01*
X1009361Y2786564D01*
X1009361Y2786565D01*
X979603Y2816323D01*
X972161Y2821295D01*
X963382Y2823042D01*
X838618D01*
X834816Y2831770D01*
X834019Y2838042D01*
X848846Y2852869D01*
X852835Y2862499D01*
X1031898D01*
X1144558Y2749839D01*
D02*
G37*
G36*
X970199Y2760841D02*
Y2722371D01*
X940245D01*
Y2711971D01*
X855649D01*
Y2580922D01*
X855311Y2580585D01*
X809172D01*
X796880Y2587122D01*
Y2666719D01*
X807280D01*
Y2706919D01*
X754380D01*
Y2732319D01*
X807280D01*
Y2772518D01*
X820357Y2777161D01*
X953879D01*
X970199Y2760841D01*
D02*
G37*
G36*
X1400214Y2580272D02*
X1410137Y2573642D01*
X1421842Y2571313D01*
X1451842D01*
X1463548Y2573642D01*
X1473471Y2580272D01*
X1488272Y2575424D01*
X1549267Y2514429D01*
X1552640Y2506256D01*
X1549556Y2494740D01*
X1489664Y2434848D01*
X1474894Y2429952D01*
X1466658Y2435456D01*
X1456942Y2437388D01*
X1416742D01*
X1407027Y2435456D01*
X1398790Y2429952D01*
X1395140Y2424489D01*
X1388004Y2423147D01*
X1385682D01*
X1378545Y2424489D01*
X1374895Y2429952D01*
X1366658Y2435456D01*
X1356943Y2437388D01*
X1352748D01*
Y2449956D01*
X1350407Y2461723D01*
X1343742Y2471698D01*
X1325984Y2489456D01*
X1316009Y2496121D01*
X1304242Y2498462D01*
X915902D01*
X904135Y2496121D01*
X894374Y2489599D01*
X892962Y2491010D01*
X882987Y2497675D01*
X871220Y2500016D01*
X670737D01*
X662719Y2515016D01*
X665441Y2519089D01*
X868048D01*
X879815Y2521430D01*
X889790Y2528095D01*
X890178Y2528483D01*
X894160Y2524502D01*
X904135Y2517836D01*
X915902Y2515496D01*
X1271184D01*
X1282951Y2517836D01*
X1292927Y2524502D01*
X1334839Y2566414D01*
X1356943D01*
X1366658Y2568347D01*
X1374895Y2573850D01*
X1380398Y2582087D01*
X1380732Y2583767D01*
X1396451Y2585903D01*
X1400214Y2580272D01*
D02*
G37*
G36*
X2153361Y2488921D02*
X2234959D01*
Y2478521D01*
X2264577D01*
X2266280Y2463521D01*
X2253759Y2451000D01*
X2249578Y2453413D01*
X2236070Y2457032D01*
Y2390140D01*
X2223370D01*
Y2377440D01*
X2156478D01*
X2160097Y2363932D01*
X2169036Y2348448D01*
X2181678Y2335806D01*
X2192859Y2329351D01*
Y2260738D01*
X2194606Y2251959D01*
X2199579Y2244516D01*
X2209439Y2234656D01*
Y2182380D01*
X2175979D01*
Y2138680D01*
X2232379D01*
Y2125980D01*
X2245079D01*
Y2069580D01*
X2288779D01*
Y2079980D01*
X2303839D01*
Y2018295D01*
X2283604Y1998060D01*
X2261863D01*
X2240729Y1989306D01*
X2224554Y1973131D01*
X2215800Y1951997D01*
Y1929123D01*
X2224554Y1907989D01*
X2240729Y1891814D01*
X2261863Y1883060D01*
X2284737D01*
X2289700Y1885116D01*
X2304700Y1875093D01*
Y1863083D01*
X2313454Y1841949D01*
X2329629Y1825774D01*
X2350763Y1817020D01*
X2373637D01*
X2394771Y1825774D01*
X2410946Y1841949D01*
X2411539Y1843381D01*
X2426539Y1840397D01*
Y1686044D01*
X2428286Y1677265D01*
X2433259Y1669823D01*
X2478958Y1624123D01*
Y1607218D01*
X2463958Y1599999D01*
X2447297Y1606900D01*
X2424423D01*
X2414792Y1602911D01*
X2307301Y1710401D01*
X2299859Y1715374D01*
X2291080Y1717121D01*
X2250440D01*
X2241661Y1715374D01*
X2234219Y1710401D01*
X2193579Y1669761D01*
X2188606Y1662319D01*
X2187078Y1654641D01*
X2176800D01*
Y1622524D01*
X2169300Y1616369D01*
X2157494D01*
X2070271Y1703592D01*
X2074260Y1713223D01*
Y1736097D01*
X2065506Y1757231D01*
X2049331Y1773406D01*
X2028197Y1782160D01*
X2005323D01*
X1995692Y1778171D01*
X1827241Y1946621D01*
X1819799Y1951594D01*
X1811020Y1953341D01*
X1482755D01*
X1478766Y1962971D01*
X1462591Y1979146D01*
X1457248Y1981360D01*
X1460232Y1996359D01*
X1679846D01*
X1688625Y1998106D01*
X1696067Y2003079D01*
X1722448Y2029460D01*
X1738623Y2022760D01*
X1761497D01*
X1782631Y2031514D01*
X1798806Y2047689D01*
X1807560Y2068823D01*
Y2091697D01*
X1798806Y2112831D01*
X1782631Y2129006D01*
X1767921Y2135099D01*
Y2212340D01*
Y2276999D01*
X1778158Y2284321D01*
X1782921Y2285936D01*
X1793642Y2283803D01*
X1806322Y2286326D01*
X1817072Y2293509D01*
X1820208D01*
X1830958Y2286326D01*
X1843639Y2283803D01*
X1856320Y2286326D01*
X1867070Y2293509D01*
X1870211D01*
X1880961Y2286326D01*
X1893641Y2283803D01*
X1906322Y2286326D01*
X1917072Y2293509D01*
X1920208D01*
X1930958Y2286326D01*
X1943639Y2283803D01*
X1956319Y2286326D01*
X1967070Y2293509D01*
X1974253Y2304259D01*
X1976775Y2316940D01*
Y2332874D01*
X1982293Y2340787D01*
X1990206Y2346305D01*
X2006141D01*
X2018821Y2348828D01*
X2029572Y2356011D01*
X2036755Y2366761D01*
X2039277Y2379442D01*
X2036755Y2392122D01*
X2029572Y2402873D01*
Y2406008D01*
X2036755Y2416758D01*
X2039277Y2429439D01*
X2036755Y2442120D01*
X2029572Y2452870D01*
Y2456011D01*
X2036755Y2466761D01*
X2039277Y2479442D01*
X2036755Y2492122D01*
X2035165Y2494501D01*
X2043183Y2509501D01*
X2153361D01*
Y2488921D01*
D02*
G37*
G36*
X855649Y2301987D02*
X940639D01*
Y2436966D01*
X1045895D01*
Y2302444D01*
X1065449D01*
Y2215278D01*
X1050450Y2209065D01*
X1018253Y2241261D01*
X1010810Y2246234D01*
X1002031Y2247981D01*
X819762D01*
X761422Y2306321D01*
X753979Y2311294D01*
X745200Y2313040D01*
X655713D01*
X654070Y2317006D01*
X648277Y2322800D01*
X642111Y2332599D01*
X648277Y2342398D01*
X654070Y2348191D01*
X661301Y2365650D01*
Y2384546D01*
X654070Y2402005D01*
X648274Y2407801D01*
X642112Y2417600D01*
X648274Y2427399D01*
X654070Y2433195D01*
X656149Y2438215D01*
X656731Y2438331D01*
X657013Y2438520D01*
X855649D01*
Y2301987D01*
D02*
G37*
G36*
X1291252Y2381743D02*
X1291355Y2381226D01*
Y2321800D01*
X1293287Y2312085D01*
X1298791Y2303848D01*
X1307027Y2298345D01*
X1316743Y2296412D01*
X1356943D01*
X1366658Y2298345D01*
X1374895Y2303848D01*
X1378545Y2309311D01*
X1385682Y2310654D01*
X1388004D01*
X1395140Y2309311D01*
X1398790Y2303848D01*
X1407027Y2298345D01*
X1416742Y2296412D01*
X1456942D01*
X1466658Y2298345D01*
X1474894Y2303848D01*
X1480398Y2312085D01*
X1482330Y2321800D01*
Y2363413D01*
X1492461D01*
X1496343Y2364185D01*
X1505363Y2350685D01*
X1505346Y2350659D01*
X1503599Y2341880D01*
Y2192170D01*
X1490424Y2181519D01*
X1479557Y2186020D01*
X1456683D01*
X1435549Y2177266D01*
X1419374Y2161091D01*
X1414859Y2150191D01*
X1253629D01*
X1250166Y2158551D01*
X1233991Y2174726D01*
X1212857Y2183480D01*
X1189983D01*
X1168849Y2174726D01*
X1152674Y2158551D01*
X1143920Y2137417D01*
Y2114543D01*
X1147069Y2106941D01*
X1143813Y2100481D01*
X1136590Y2093041D01*
X1107999D01*
Y2116100D01*
X1084940D01*
Y2155569D01*
X1104611Y2175241D01*
X1109584Y2182683D01*
X1111331Y2191462D01*
Y2302444D01*
X1130885D01*
Y2436966D01*
X1291252D01*
Y2381743D01*
D02*
G37*
G36*
X1653642Y2305218D02*
X1664633Y2301857D01*
X1670211Y2293509D01*
X1670701Y2293181D01*
Y2263678D01*
X1672448Y2254899D01*
X1677420Y2247457D01*
X1722039Y2202838D01*
Y2130891D01*
X1717489Y2129006D01*
X1701314Y2112831D01*
X1692560Y2091697D01*
Y2068823D01*
X1693839Y2065736D01*
X1670343Y2042241D01*
X1200364D01*
X1188518Y2054087D01*
X1195338Y2068480D01*
X1212857D01*
X1233991Y2077234D01*
X1250166Y2093409D01*
X1254681Y2104309D01*
X1415911D01*
X1419374Y2095949D01*
X1435549Y2079774D01*
X1456683Y2071020D01*
X1479557D01*
X1500691Y2079774D01*
X1516866Y2095949D01*
X1518422Y2099705D01*
X1534658D01*
X1536214Y2095949D01*
X1552389Y2079774D01*
X1573523Y2071020D01*
X1596397D01*
X1617531Y2079774D01*
X1633706Y2095949D01*
X1642460Y2117083D01*
Y2139957D01*
X1633706Y2161091D01*
X1617531Y2177266D01*
X1596397Y2186020D01*
X1573523D01*
X1567590Y2183563D01*
X1549481Y2201672D01*
Y2207918D01*
X1647417Y2305854D01*
X1653642Y2305218D01*
D02*
G37*
G36*
X2420588Y2216022D02*
X2420522Y2215299D01*
X2418124Y2203242D01*
X2420646Y2190561D01*
X2427830Y2179811D01*
Y2176670D01*
X2420646Y2165920D01*
X2418124Y2153239D01*
X2420646Y2140559D01*
X2427830Y2129808D01*
X2433079Y2126301D01*
Y1977842D01*
X2383268Y1928031D01*
X2373637Y1932020D01*
X2350763D01*
X2345800Y1929964D01*
X2330800Y1939987D01*
Y1951997D01*
X2322490Y1972060D01*
X2343001Y1992571D01*
X2347973Y2000013D01*
X2349720Y2008792D01*
Y2079980D01*
X2370378D01*
Y2171980D01*
X2360256D01*
X2354043Y2186980D01*
X2397361Y2230299D01*
X2412212D01*
X2420588Y2216022D01*
D02*
G37*
G36*
X2641700Y2070003D02*
X2653762Y2067604D01*
X2665818Y2070002D01*
X2666542Y2070068D01*
X2680818Y2061692D01*
Y1945262D01*
X2634619Y1899062D01*
X2629646Y1891619D01*
X2627899Y1882840D01*
Y1842159D01*
X2574850Y1789110D01*
X2569878Y1781667D01*
X2568131Y1772888D01*
Y1758856D01*
X2548069Y1750546D01*
X2531894Y1734371D01*
X2523140Y1713237D01*
Y1690363D01*
X2531894Y1669229D01*
X2548069Y1653054D01*
X2569203Y1644300D01*
X2572354D01*
X2578567Y1629300D01*
X2551719Y1602452D01*
X2546746Y1595009D01*
X2544999Y1586230D01*
Y1544852D01*
X2546746Y1536073D01*
X2551719Y1528631D01*
X2569573Y1510776D01*
X2577016Y1505803D01*
X2585795Y1504057D01*
X2604700D01*
Y1485099D01*
X2544399D01*
Y1504818D01*
X2524839D01*
Y1633626D01*
X2523093Y1642405D01*
X2518120Y1649847D01*
X2518119Y1649848D01*
X2472421Y1695547D01*
Y1792501D01*
X2487420Y1798714D01*
X2489649Y1796486D01*
X2510783Y1787732D01*
X2533657D01*
X2554791Y1796486D01*
X2570966Y1812661D01*
X2579720Y1833794D01*
Y1856669D01*
X2575731Y1866300D01*
X2602406Y1892974D01*
X2603690Y1894897D01*
X2619981Y1911187D01*
X2624953Y1918630D01*
X2626700Y1927409D01*
X2626700Y1927410D01*
Y2061695D01*
X2640984Y2070070D01*
X2641700Y2070003D01*
D02*
G37*
G36*
X1479838Y1581439D02*
X1479839Y1581439D01*
X1487281Y1576466D01*
X1496060Y1574719D01*
X1496062Y1574719D01*
X1524605D01*
X1528594Y1565089D01*
X1544769Y1548914D01*
X1565903Y1540160D01*
X1588777D01*
X1609911Y1548914D01*
X1623020Y1562023D01*
X1637277Y1557901D01*
X1638020Y1557424D01*
Y1485620D01*
X1661219D01*
Y1370489D01*
X1648699Y1364500D01*
X1604999D01*
Y1308100D01*
X1579599D01*
Y1364500D01*
X1568342D01*
X1523625Y1409218D01*
X1516182Y1414190D01*
X1507403Y1415937D01*
X1493382D01*
X1490753Y1425748D01*
X1481814Y1441232D01*
X1469172Y1453874D01*
X1460852Y1458677D01*
Y1483818D01*
X1460897Y1484045D01*
Y1557504D01*
X1459151Y1566283D01*
X1454178Y1573725D01*
X1441489Y1586414D01*
X1446461Y1600085D01*
X1459696Y1601581D01*
X1479838Y1581439D01*
D02*
G37*
G36*
X1107359Y1306218D02*
Y1280999D01*
X1084300D01*
Y1199400D01*
X1073900D01*
Y1155700D01*
X1130300D01*
Y1130300D01*
X1073900D01*
Y1086600D01*
X1104819D01*
Y1061121D01*
X1102192Y1059365D01*
X1088502Y1056200D01*
Y1056200D01*
X1048302D01*
Y1003300D01*
X1022902D01*
Y1056200D01*
X983769D01*
Y1084295D01*
X998504D01*
Y1161299D01*
X998504Y1176294D01*
X998504D01*
Y1176299D01*
X998504D01*
Y1268299D01*
X975444D01*
Y1280156D01*
X973698Y1288935D01*
X968725Y1296378D01*
X943000Y1322103D01*
X948741Y1335960D01*
X1077617D01*
X1107359Y1306218D01*
D02*
G37*
G36*
X603258Y1119439D02*
X603258Y1119439D01*
X610039Y1114908D01*
Y1080660D01*
X613653D01*
X617361Y1074378D01*
X619115Y1065660D01*
X608606Y1055152D01*
X599667Y1039668D01*
X596048Y1026160D01*
X662940D01*
Y1000760D01*
X596048D01*
X599667Y987252D01*
X608606Y971768D01*
X617874Y962500D01*
X613408Y948462D01*
X612701Y947501D01*
X446890D01*
X434898Y954763D01*
Y994000D01*
X463804Y1022905D01*
X468777Y1030348D01*
X470523Y1039127D01*
Y1099522D01*
X522582D01*
Y1178902D01*
X535734Y1185262D01*
X536937Y1185760D01*
X603258Y1119439D01*
D02*
G37*
G36*
X2037759Y1257260D02*
X2037758D01*
Y1252261D01*
X2037759D01*
Y1167262D01*
X2059418D01*
Y1158681D01*
X2061165Y1149902D01*
X2066137Y1142460D01*
X2161459Y1047138D01*
Y879158D01*
X2163206Y870379D01*
X2168179Y862937D01*
X2197936Y833179D01*
X2197937Y833179D01*
X2204320Y828913D01*
X2205274Y823409D01*
X2205047Y812978D01*
X2196279Y809346D01*
X2180104Y793171D01*
X2171350Y772038D01*
Y749163D01*
X2180104Y728029D01*
X2196279Y711854D01*
X2204368Y708504D01*
Y570571D01*
X2174898Y541101D01*
X2158434D01*
X2156439Y544677D01*
X2153835Y556100D01*
X2167592Y569858D01*
X2176346Y590991D01*
Y613866D01*
X2167592Y635000D01*
X2151417Y651175D01*
X2130284Y659929D01*
X2107409D01*
X2086275Y651175D01*
X2070100Y635000D01*
X2066111Y625369D01*
X1970623D01*
X1933319Y662673D01*
X1936839Y680366D01*
X1942651Y682774D01*
X1958826Y698949D01*
X1967580Y720083D01*
Y726461D01*
X1982580Y734479D01*
X1984245Y733367D01*
X1995053Y731217D01*
X1995054Y731217D01*
X2047501D01*
X2049294Y726889D01*
X2065469Y710714D01*
X2086603Y701960D01*
X2109477D01*
X2130611Y710714D01*
X2146786Y726889D01*
X2155540Y748023D01*
Y770897D01*
X2146786Y792031D01*
X2130611Y808206D01*
X2109477Y816960D01*
X2086603D01*
X2065469Y808206D01*
X2049294Y792031D01*
X2047501Y787703D01*
X2006751D01*
X1976751Y817703D01*
X1982965Y832703D01*
X1983901D01*
Y890703D01*
X1903902D01*
X1894776Y901703D01*
X1903902Y912703D01*
X1983901D01*
Y970702D01*
X1983902D01*
X1984536Y985439D01*
X2092879D01*
Y945984D01*
X2083901Y934702D01*
X2003901D01*
Y868703D01*
X2083901D01*
Y878762D01*
X2098043D01*
X2106822Y880508D01*
X2114264Y885481D01*
X2132041Y903259D01*
X2137014Y910701D01*
X2138761Y919480D01*
Y995679D01*
X2138761Y995680D01*
X2137014Y1004459D01*
X2132041Y1011901D01*
X2119341Y1024601D01*
X2111899Y1029574D01*
X2103120Y1031321D01*
X2018696D01*
X2012966Y1046320D01*
X2020920Y1065523D01*
Y1088397D01*
X2012166Y1109531D01*
X1999927Y1121771D01*
X1996108Y1126253D01*
X1999179Y1140622D01*
X2007086Y1148529D01*
X2015840Y1169663D01*
Y1192537D01*
X2007086Y1213671D01*
X1990911Y1229846D01*
X1981420Y1233778D01*
Y1251943D01*
X2004618D01*
Y1275910D01*
X2037759D01*
Y1257260D01*
D02*
G37*
G36*
X3371576Y800522D02*
X3359368Y793474D01*
X3346726Y780832D01*
X3338101Y765892D01*
X3231679D01*
Y803162D01*
X3198219D01*
Y933700D01*
X3371576D01*
Y800522D01*
D02*
G37*
G36*
X2521940Y1150340D02*
X2544999D01*
Y1079802D01*
X2488402D01*
Y999801D01*
X2488402Y989802D01*
X2488402Y974802D01*
Y904800D01*
X2488402Y894801D01*
X2488402Y879801D01*
Y799800D01*
X2599104D01*
X2609127Y784800D01*
X2604420Y773437D01*
Y750563D01*
X2608709Y740209D01*
X2593629Y725128D01*
X2588656Y717686D01*
X2586909Y708907D01*
Y612678D01*
X2568389Y605006D01*
X2552214Y588831D01*
X2543460Y567697D01*
Y544823D01*
X2552214Y523689D01*
X2568389Y507514D01*
X2582371Y501722D01*
X2579387Y486722D01*
X2539249D01*
X2515370Y510601D01*
X2507927Y515574D01*
X2499148Y517321D01*
X2461752D01*
X2453533Y532320D01*
X2458493Y540912D01*
X2462112Y554420D01*
X2395220D01*
Y579820D01*
X2462112D01*
X2458493Y593329D01*
X2449554Y608812D01*
X2443005Y615360D01*
X2449218Y630360D01*
X2457562D01*
Y670560D01*
X2404662D01*
Y695960D01*
X2457562D01*
Y736160D01*
X2438666D01*
X2432453Y751160D01*
X2457160Y775867D01*
X2462133Y783310D01*
X2463879Y792089D01*
Y899160D01*
X2463880Y899162D01*
X2462133Y907941D01*
X2457160Y915383D01*
X2417487Y955056D01*
X2410044Y960029D01*
X2401265Y961775D01*
X2398800D01*
Y995201D01*
X2388400D01*
Y1079802D01*
X2336600D01*
Y1150343D01*
X2451658D01*
Y1173401D01*
X2521940D01*
Y1150340D01*
D02*
G37*
%LPC*%
G36*
X2209800Y2881212D02*
Y2827020D01*
X2263992D01*
X2260373Y2840528D01*
X2251434Y2856012D01*
X2238792Y2868654D01*
X2223308Y2877593D01*
X2209800Y2881212D01*
D02*
G37*
G36*
X2184400D02*
X2170892Y2877593D01*
X2155408Y2868654D01*
X2142766Y2856012D01*
X2133827Y2840528D01*
X2130208Y2827020D01*
X2184400D01*
Y2881212D01*
D02*
G37*
G36*
X4438657Y3135980D02*
X4415783D01*
X4394649Y3127226D01*
X4378474Y3111051D01*
X4375420Y3103679D01*
X4350339D01*
Y3125338D01*
X4265339D01*
Y3050341D01*
X4265339Y3040339D01*
X4265339Y3025339D01*
Y2950342D01*
X4284899D01*
Y2832912D01*
X4270206Y2828975D01*
X4247974Y2816139D01*
X4229821Y2797986D01*
X4216985Y2775754D01*
X4210340Y2750956D01*
Y2725284D01*
X4216985Y2700486D01*
X4229821Y2678254D01*
X4247974Y2660101D01*
X4270206Y2647265D01*
X4295004Y2640620D01*
X4320676D01*
X4345474Y2647265D01*
X4367706Y2660101D01*
X4385859Y2678254D01*
X4398695Y2700486D01*
X4405340Y2725284D01*
Y2750956D01*
X4398695Y2775754D01*
X4385859Y2797986D01*
X4367706Y2816139D01*
X4345474Y2828975D01*
X4330780Y2832913D01*
Y2950342D01*
X4350339D01*
Y3025339D01*
X4350339Y3035341D01*
X4350339Y3047192D01*
X4359691Y3056544D01*
X4374747Y3054906D01*
X4378474Y3045909D01*
X4394649Y3029734D01*
X4415783Y3020980D01*
X4438657D01*
X4459791Y3029734D01*
X4475966Y3045909D01*
X4484720Y3067043D01*
Y3089917D01*
X4475966Y3111051D01*
X4459791Y3127226D01*
X4438657Y3135980D01*
D02*
G37*
G36*
X3732537Y3237580D02*
X3709663D01*
X3688529Y3228826D01*
X3672354Y3212651D01*
X3663600Y3191517D01*
Y3168643D01*
X3672354Y3147509D01*
X3688529Y3131334D01*
X3709663Y3122580D01*
X3732537D01*
X3740458Y3125861D01*
X3887425Y2978894D01*
X3887120Y2978157D01*
Y2955283D01*
X3895874Y2934149D01*
X3912049Y2917974D01*
X3933183Y2909220D01*
X3956057D01*
X3977191Y2917974D01*
X3993366Y2934149D01*
X4002120Y2955283D01*
Y2978157D01*
X3993366Y2999291D01*
X3977191Y3015466D01*
X3956057Y3024220D01*
X3933183D01*
X3925262Y3020939D01*
X3778295Y3167906D01*
X3778600Y3168643D01*
Y3191517D01*
X3769846Y3212651D01*
X3753671Y3228826D01*
X3732537Y3237580D01*
D02*
G37*
G36*
X4574676Y2835620D02*
X4549004D01*
X4524206Y2828975D01*
X4501974Y2816139D01*
X4483821Y2797986D01*
X4470985Y2775754D01*
X4464340Y2750956D01*
Y2725284D01*
X4470985Y2700486D01*
X4483821Y2678254D01*
X4501974Y2660101D01*
X4524206Y2647265D01*
X4549004Y2640620D01*
X4574676D01*
X4599474Y2647265D01*
X4621706Y2660101D01*
X4639859Y2678254D01*
X4652695Y2700486D01*
X4659340Y2725284D01*
Y2750956D01*
X4652695Y2775754D01*
X4639859Y2797986D01*
X4621706Y2816139D01*
X4599474Y2828975D01*
X4574676Y2835620D01*
D02*
G37*
G36*
X3920497Y3415380D02*
X3897623D01*
X3876489Y3406626D01*
X3860314Y3390451D01*
X3851560Y3369317D01*
Y3346443D01*
X3860314Y3325309D01*
X3876489Y3309134D01*
X3897623Y3300380D01*
X3920497D01*
X3939108Y3308089D01*
X4030899Y3216298D01*
Y2832912D01*
X4016206Y2828975D01*
X3993974Y2816139D01*
X3975821Y2797986D01*
X3962985Y2775754D01*
X3956340Y2750956D01*
Y2725284D01*
X3962985Y2700486D01*
X3975821Y2678254D01*
X3993974Y2660101D01*
X4016206Y2647265D01*
X4041004Y2640620D01*
X4066676D01*
X4091474Y2647265D01*
X4113706Y2660101D01*
X4131859Y2678254D01*
X4144695Y2700486D01*
X4151340Y2725284D01*
Y2750956D01*
X4144695Y2775754D01*
X4131859Y2797986D01*
X4113706Y2816139D01*
X4091474Y2828975D01*
X4076781Y2832912D01*
Y3225800D01*
X4075034Y3234579D01*
X4070061Y3242021D01*
X3966291Y3345792D01*
X3966560Y3346443D01*
Y3369317D01*
X3957806Y3390451D01*
X3941631Y3406626D01*
X3920497Y3415380D01*
D02*
G37*
G36*
X3708400Y2507832D02*
X3694892Y2504213D01*
X3679408Y2495274D01*
X3666766Y2482632D01*
X3657827Y2467148D01*
X3654208Y2453640D01*
X3708400D01*
Y2507832D01*
D02*
G37*
G36*
X2210670Y2457032D02*
X2197161Y2453413D01*
X2181678Y2444474D01*
X2169036Y2431832D01*
X2160097Y2416348D01*
X2156478Y2402840D01*
X2210670D01*
Y2457032D01*
D02*
G37*
G36*
X2219679Y2113280D02*
X2175979D01*
Y2069580D01*
X2219679D01*
Y2113280D01*
D02*
G37*
%LPD*%
D10*
X197580Y1144521D02*
D03*
Y1239523D02*
D03*
Y1334519D02*
D03*
X447582D02*
D03*
Y1144521D02*
D03*
Y1239523D02*
D03*
X2313400Y939801D02*
D03*
X2563402D02*
D03*
X2313400Y1034802D02*
D03*
Y844800D02*
D03*
X2563402D02*
D03*
Y1034802D02*
D03*
D11*
X268381Y3286760D02*
D03*
X478379Y3191759D02*
D03*
Y3381761D02*
D03*
X1083720Y3378200D02*
D03*
X1787298Y3475741D02*
D03*
Y3285739D02*
D03*
X1997300Y3380740D02*
D03*
X1293722Y3473201D02*
D03*
Y3283199D02*
D03*
D12*
X945600Y1003300D02*
D03*
X1035602D02*
D03*
X6343101Y4213860D02*
D03*
Y4086859D02*
D03*
X6278162Y3726180D02*
D03*
X5324561Y3098800D02*
D03*
Y2969260D02*
D03*
X2604221Y2887980D02*
D03*
X436159Y3556000D02*
D03*
X5414559Y2969260D02*
D03*
Y3098800D02*
D03*
X4914182Y3014980D02*
D03*
X1527261Y2842260D02*
D03*
X1524720Y2984499D02*
D03*
X2404662Y683260D02*
D03*
X1352000Y1143803D02*
D03*
X4824180Y3014980D02*
D03*
X1442002Y1143803D02*
D03*
X2694219Y2887980D02*
D03*
X346161Y3556000D02*
D03*
X1456141Y3477259D02*
D03*
X1546139D02*
D03*
X1543599Y3286759D02*
D03*
X1453601D02*
D03*
X1614722Y2984499D02*
D03*
X1617259Y2842260D02*
D03*
X615402Y1358901D02*
D03*
X705399D02*
D03*
X2314660Y683260D02*
D03*
X6188160Y3726180D02*
D03*
X6433099Y4086859D02*
D03*
Y4213860D02*
D03*
D13*
X5613400Y4173220D02*
D03*
D14*
X6748780Y4653280D02*
D03*
D15*
X6256020Y461440D02*
D03*
Y553439D02*
D03*
X6680200Y551461D02*
D03*
X6535420Y553439D02*
D03*
X6395720D02*
D03*
X6680200Y459457D02*
D03*
X6535420Y461440D02*
D03*
X6395720D02*
D03*
X4988560Y3543510D02*
D03*
X1986279Y1526821D02*
D03*
X1369060Y139417D02*
D03*
X1130300Y1143000D02*
D03*
X571501Y1630401D02*
D03*
X4988560Y3451511D02*
D03*
X1986279Y1434822D02*
D03*
X2329179Y2941599D02*
D03*
Y2849600D02*
D03*
X2473960Y2898140D02*
D03*
Y2990139D02*
D03*
X571501Y1722399D02*
D03*
X787401Y1135099D02*
D03*
Y1227098D02*
D03*
X1130300Y1234999D02*
D03*
X952504Y1222299D02*
D03*
Y1130295D02*
D03*
X1369060Y231421D02*
D03*
X1684020Y1531620D02*
D03*
Y1623619D02*
D03*
D16*
X2953761Y2748239D02*
D03*
X3053761D02*
D03*
X2803764Y2108241D02*
D03*
X2603759Y2748239D02*
D03*
X2803764D02*
D03*
X2903764D02*
D03*
X2853761D02*
D03*
X3003763D02*
D03*
X2903764Y2108241D02*
D03*
X2603759D02*
D03*
X2703759D02*
D03*
X2503759D02*
D03*
X2553762D02*
D03*
X2653762D02*
D03*
X2753761D02*
D03*
X2853761D02*
D03*
X2953761D02*
D03*
X3053761D02*
D03*
X2753761Y2748239D02*
D03*
X2703759D02*
D03*
X2653762D02*
D03*
X2553762D02*
D03*
X2503759D02*
D03*
X3003763Y2108241D02*
D03*
D17*
X2954020Y2901401D02*
D03*
X3065780Y2975061D02*
D03*
X4307839Y3082839D02*
D03*
X3065780Y3065059D02*
D03*
X2954020Y2991399D02*
D03*
X2501899Y1372321D02*
D03*
X4307839Y2992841D02*
D03*
X754380Y2719619D02*
D03*
X317500Y1847301D02*
D03*
X1864359Y1525821D02*
D03*
X662939Y1133560D02*
D03*
X2745739Y936541D02*
D03*
X3360420Y1845859D02*
D03*
Y1755861D02*
D03*
X3241040Y1822999D02*
D03*
Y1733001D02*
D03*
X1864359Y1435819D02*
D03*
X2080259Y1209762D02*
D03*
Y1299759D02*
D03*
X2501899Y1462319D02*
D03*
X647700Y3102061D02*
D03*
Y3192059D02*
D03*
X754380Y2629621D02*
D03*
X317500Y1937299D02*
D03*
X662939Y1223562D02*
D03*
X2745739Y846539D02*
D03*
X4376419Y3867700D02*
D03*
X4368800Y3468919D02*
D03*
Y3378921D02*
D03*
X4376419Y3777698D02*
D03*
D18*
X5584480Y3780460D02*
D03*
X5144480D02*
D03*
X5584480Y3730462D02*
D03*
X5144480D02*
D03*
X5584480Y3580460D02*
D03*
Y3630463D02*
D03*
X1274100Y1725601D02*
D03*
X834100Y1675599D02*
D03*
X1274100Y1575599D02*
D03*
Y1525601D02*
D03*
X834100Y1625601D02*
D03*
Y1575599D02*
D03*
Y1725601D02*
D03*
Y1525601D02*
D03*
X1274100Y1625601D02*
D03*
Y1675599D02*
D03*
X5144480Y3680460D02*
D03*
X5584480D02*
D03*
X5144480Y3630463D02*
D03*
Y3580460D02*
D03*
D19*
X6058899Y1190981D02*
D03*
X6071599Y2659101D02*
D03*
D20*
Y3059100D02*
D03*
X6058899Y1590980D02*
D03*
Y1390980D02*
D03*
X6071599Y2859100D02*
D03*
Y3259099D02*
D03*
X6058899Y1790979D02*
D03*
D21*
X2458761Y2703241D02*
D03*
Y2603241D02*
D03*
Y2553238D02*
D03*
X3098759Y2703241D02*
D03*
Y2653238D02*
D03*
X2458761Y2153239D02*
D03*
Y2303242D02*
D03*
Y2503241D02*
D03*
Y2453239D02*
D03*
Y2403241D02*
D03*
Y2353239D02*
D03*
Y2253239D02*
D03*
Y2203242D02*
D03*
X3098759Y2153239D02*
D03*
Y2203242D02*
D03*
Y2253239D02*
D03*
Y2303242D02*
D03*
Y2353239D02*
D03*
Y2403241D02*
D03*
Y2453239D02*
D03*
Y2503241D02*
D03*
Y2553238D02*
D03*
Y2603241D02*
D03*
X2458761Y2653238D02*
D03*
D22*
X1461699Y4305300D02*
D03*
X341701D02*
D03*
D23*
X1641140Y2429439D02*
D03*
Y2379442D02*
D03*
Y2579441D02*
D03*
X1996141Y2629439D02*
D03*
Y2579441D02*
D03*
Y2529439D02*
D03*
Y2479442D02*
D03*
Y2429439D02*
D03*
Y2379442D02*
D03*
X1641140Y2479442D02*
D03*
Y2529439D02*
D03*
Y2629439D02*
D03*
D24*
X2679700Y1397000D02*
D03*
X2869702Y1526997D02*
D03*
Y1461999D02*
D03*
Y1397000D02*
D03*
X2679700Y1526997D02*
D03*
Y1461999D02*
D03*
D25*
X2249800Y1514641D02*
D03*
X2169800D02*
D03*
D26*
X1943901Y861703D02*
D03*
X493559Y61600D02*
D03*
X1943901Y941702D02*
D03*
X493559Y141600D02*
D03*
D27*
X6688099Y4213860D02*
D03*
X2291359Y2534921D02*
D03*
X3411499Y2197100D02*
D03*
X3175279Y746763D02*
D03*
X2232379Y2125980D02*
D03*
X2214601Y2654300D02*
D03*
X970001Y2070100D02*
D03*
X1592299Y1308100D02*
D03*
X292380Y1493519D02*
D03*
X3083280Y746763D02*
D03*
X1061999Y2070100D02*
D03*
X1592299Y1143798D02*
D03*
X1684298D02*
D03*
X1958618Y1297943D02*
D03*
X1866619D02*
D03*
X2313659Y1196343D02*
D03*
X2405658D02*
D03*
X2567940Y1196340D02*
D03*
X2659939D02*
D03*
X2324378Y2125980D02*
D03*
X2199361Y2534921D02*
D03*
X2306599Y2654300D02*
D03*
X200381Y1493519D02*
D03*
X388898Y1000763D02*
D03*
X296899D02*
D03*
X3319501Y2197100D02*
D03*
X6596101Y4213860D02*
D03*
X1684298Y1308100D02*
D03*
X3904261Y947420D02*
D03*
X3812257D02*
D03*
D28*
X6660580Y3906520D02*
D03*
X6430578D02*
D03*
D29*
X4816558Y4810759D02*
D03*
Y4429759D02*
D03*
Y4556759D02*
D03*
Y4683759D02*
D03*
X4271560Y4429759D02*
D03*
Y4556759D02*
D03*
Y4683759D02*
D03*
Y4810759D02*
D03*
D30*
X3594100Y4802901D02*
D03*
D31*
X2749681Y3787399D02*
D03*
X2924682D02*
D03*
D32*
X3360003Y1054100D02*
D03*
X3175000D02*
D03*
Y1374099D02*
D03*
X3360003D02*
D03*
D33*
X2778760Y2428240D02*
D03*
D34*
X2779599Y203782D02*
D03*
Y463782D02*
D03*
Y593779D02*
D03*
Y528781D02*
D03*
Y398778D02*
D03*
Y333780D02*
D03*
Y268781D02*
D03*
X3367202Y203782D02*
D03*
Y268781D02*
D03*
Y333780D02*
D03*
Y398778D02*
D03*
Y463782D02*
D03*
Y528781D02*
D03*
Y593779D02*
D03*
D35*
X2070100Y4802901D02*
D03*
D36*
X1818640Y2504440D02*
D03*
D37*
X993140Y2636976D02*
D03*
X1088390Y2377439D02*
D03*
X898144Y2376982D02*
D03*
Y2636976D02*
D03*
X1088136D02*
D03*
D38*
X1903321Y428220D02*
D03*
X948280Y311379D02*
D03*
X1903321Y363221D02*
D03*
X738278Y181381D02*
D03*
Y311379D02*
D03*
X948280Y246380D02*
D03*
Y181381D02*
D03*
X1693319Y298218D02*
D03*
Y428220D02*
D03*
X1903321Y298218D02*
D03*
D39*
X1104900Y545282D02*
D03*
X1234902Y335280D02*
D03*
X1104900D02*
D03*
X1169899Y545282D02*
D03*
X1234902D02*
D03*
D40*
X2043901Y901703D02*
D03*
X593559Y101600D02*
D03*
D41*
X1693642Y2326940D02*
D03*
X1743639D02*
D03*
X1693642Y2681941D02*
D03*
X1793642D02*
D03*
X1843639D02*
D03*
X1893641D02*
D03*
X1943639Y2326940D02*
D03*
X1893641D02*
D03*
X1843639D02*
D03*
X1793642D02*
D03*
X1743639Y2681941D02*
D03*
X1943639D02*
D03*
D42*
X3594100Y3883899D02*
D03*
D43*
X2209800Y1614641D02*
D03*
D44*
X1397000Y928822D02*
D03*
Y718820D02*
D03*
X848360Y530860D02*
D03*
Y740862D02*
D03*
X1730201Y720501D02*
D03*
Y930499D02*
D03*
D45*
X1336843Y2366900D02*
D03*
Y2636902D02*
D03*
X1436842Y2366900D02*
D03*
D46*
Y2641901D02*
D03*
D47*
X2070100Y3883899D02*
D03*
D48*
X6821601Y2429099D02*
D03*
Y3489101D02*
D03*
X6808901Y960979D02*
D03*
Y2020981D02*
D03*
D49*
X5558920Y4650739D02*
D03*
X6368921D02*
D03*
D50*
X2837179Y4262399D02*
D03*
D51*
X2749681Y3662401D02*
D03*
D52*
X2869702Y1526997D02*
X3002737D01*
X3012440Y1536700D01*
X2245360Y3068320D02*
X2341880D01*
X2108200Y2931160D02*
X2245360Y3068320D01*
X2164080D02*
X2276760Y3181000D01*
X2377440D01*
X1884680Y3068320D02*
X2164080D01*
X2197100Y2795378D02*
X2217441Y2775037D01*
Y2657141D02*
Y2775037D01*
X2197100Y2795378D02*
Y2814320D01*
X2214601Y2654300D02*
X2217441Y2657141D01*
X2392852Y2603241D02*
X2458761D01*
X2374078Y2584467D02*
X2392852Y2603241D01*
X2374078Y2523507D02*
Y2584467D01*
X383540Y78740D02*
X400680Y61600D01*
X383540Y78740D02*
Y144780D01*
X400680Y61600D02*
X493559D01*
X1993900Y2532380D02*
X1993962Y2532442D01*
X2196881D01*
X2199361Y2534921D01*
X2609850Y708907D02*
X2661920Y760977D01*
Y762000D01*
X2609850Y565150D02*
Y708907D01*
X819380Y824000D02*
X848360Y795020D01*
X755880Y824000D02*
X819380D01*
X754380Y825500D02*
X755880Y824000D01*
X848360Y795020D02*
Y985445D01*
X695960Y477520D02*
X710713D01*
X764053Y530860D01*
X988378Y83820D02*
X1056640D01*
X948280Y123918D02*
X988378Y83820D01*
X757643Y924560D02*
X787401Y954318D01*
X334797Y924560D02*
X757643D01*
X764053Y530860D02*
X848360D01*
X1910080Y731520D02*
Y737818D01*
X1871699Y776199D02*
Y955321D01*
Y776199D02*
X1910080Y737818D01*
X1730201Y686410D02*
X1758751Y657860D01*
X1905689D01*
X1961120Y602429D02*
X2118846D01*
X1905689Y657860D02*
X1961120Y602429D01*
X1730201Y686410D02*
Y720501D01*
X1861820Y594360D02*
X1866900Y589280D01*
X1736560Y594360D02*
X1861820D01*
X1670520Y528320D02*
X1736560Y594360D01*
X2184400Y518160D02*
X2227308Y561068D01*
X1693319Y481739D02*
X1729740Y518160D01*
X2184400D01*
X3489379Y593779D02*
X3553460Y657860D01*
X3367202Y593779D02*
X3489379D01*
X2227308Y561068D02*
Y759058D01*
X2228850Y760600D01*
X2611392Y484868D02*
Y545828D01*
X1871699Y955321D02*
Y1055510D01*
X2384788Y556688D02*
X2395220Y567120D01*
X2318630Y556688D02*
X2384788D01*
X2600960Y556260D02*
X2611392Y545828D01*
X2600960Y556260D02*
X2609850Y565150D01*
X2529746Y463782D02*
X2632478D01*
X2611392Y484868D02*
X2632478Y463782D01*
X2779599D01*
X1871699Y1055510D02*
X1918830Y1008380D01*
X2103120D01*
X2115820Y995680D01*
Y919480D02*
Y995680D01*
X2098043Y901703D02*
X2115820Y919480D01*
X2043901Y901703D02*
X2098043D01*
X1871699Y1055510D02*
Y1155700D01*
X2184400Y879158D02*
Y1056640D01*
X2082359Y1158681D02*
X2184400Y1056640D01*
X2082359Y1158681D02*
Y1207662D01*
X1061999Y2070100D02*
Y2165072D01*
Y2070100D02*
X1066432Y2065667D01*
X2209800Y1614641D02*
Y1653540D01*
X2250440Y1694180D01*
X2291080D01*
X2435860Y1549400D01*
X2147992Y1593428D02*
X2169300D01*
X2016760Y1724660D02*
X2147992Y1593428D01*
X2501899Y1462319D02*
Y1633626D01*
X2501579Y1372001D02*
Y1372641D01*
X2362200Y1452880D02*
X2371454D01*
X2449913Y1374421D01*
X2662479Y1198880D02*
X2780840D01*
X2659939Y1196340D02*
X2662479Y1198880D01*
X2908980Y1198200D02*
Y1284560D01*
Y1198200D02*
X2910840Y1196340D01*
X593559Y101600D02*
X925961D01*
X948280Y123918D01*
Y181381D01*
X6368921Y4650739D02*
X6374002Y4655820D01*
X4364423Y3605382D02*
Y3619284D01*
X4372260Y3614420D02*
Y3617124D01*
X3812257Y460539D02*
Y947420D01*
X3799840Y448122D02*
X3812257Y460539D01*
X3904261Y947420D02*
X3982720D01*
X4053840Y876300D01*
Y448122D02*
Y876300D01*
X4976371Y3542000D02*
X4993640Y3559269D01*
X4612117Y3542000D02*
X4976371D01*
X4993640Y3559269D02*
Y3602891D01*
X5021211Y3630463D01*
X4977597Y3440548D02*
X4988560Y3451511D01*
X4368800Y3378921D02*
X4959742D01*
X4977597Y3396776D02*
Y3440548D01*
X4959742Y3378921D02*
X4977597Y3396776D01*
X5107591Y3451511D02*
X5144480Y3488400D01*
X4988560Y3451511D02*
X5107591D01*
X4373892Y3775171D02*
X4376419Y3777698D01*
X4612117Y3542000D01*
X1740806Y2080260D02*
X1750060D01*
X1679846Y2019300D02*
X1740806Y2080260D01*
X1190862Y2019300D02*
X1679846D01*
X1140062Y2070100D02*
X1190862Y2019300D01*
X1061999Y2070100D02*
X1140062D01*
X1584960Y2128520D02*
Y2133750D01*
X6680200Y365038D02*
Y459457D01*
X6535420Y335280D02*
X6650442D01*
X6680200Y365038D01*
X5584480Y3581400D02*
X5697584D01*
X2226442Y2390140D02*
Y2391240D01*
X3175279Y748551D02*
X3180879Y742951D01*
X3393437Y746763D02*
X3394516Y747841D01*
X6535420Y335280D02*
Y461440D01*
X6352540Y335280D02*
X6535420D01*
X6044294D02*
X6352540D01*
X2235200Y2123159D02*
Y2128759D01*
X2232379Y2131580D02*
X2235200Y2128759D01*
X478379Y3381761D02*
X629920D01*
X6352540Y335280D02*
X6395720Y378460D01*
X6013814Y365760D02*
X6044294Y335280D01*
X6004560Y365760D02*
X6013814D01*
X6395720Y378460D02*
Y461440D01*
X6100240D02*
X6256020D01*
X6004560Y365760D02*
X6100240Y461440D01*
X6177692Y703168D02*
X6256292Y624568D01*
X5958840Y713740D02*
X6167120D01*
X6167401Y713459D01*
X6177692Y703168D01*
X5558984Y2074104D02*
X6044999Y2560119D01*
X5454844Y2074104D02*
X5558984D01*
X5448300Y2067560D02*
X5454844Y2074104D01*
X5584480Y3826800D02*
X5646420Y3888740D01*
X5842605D01*
X5908645Y3822700D01*
X5913120D01*
X5556444Y974284D02*
Y1055465D01*
X4561840Y448122D02*
X5304699Y1190981D01*
X5549900Y967740D02*
X5556444Y974284D01*
X5304699Y1190981D02*
X5691959D01*
X5556444Y1055465D02*
X5691959Y1190981D01*
X6058899D01*
X5584480Y3780460D02*
Y3826800D01*
X6044999Y2560119D02*
Y2634500D01*
X6046999D02*
X6071599Y2659101D01*
X6044999Y2634500D02*
X6046999D01*
X5319560Y1591780D02*
X6058099D01*
X5318760Y1592580D02*
X5319560Y1591780D01*
X6058099D02*
X6058899Y1590980D01*
X1641140Y2332020D02*
Y2379442D01*
X1526540Y2217420D02*
X1641140Y2332020D01*
X6680200Y551461D02*
Y616939D01*
X6583952Y713187D02*
X6680200Y616939D01*
X6194156Y4086859D02*
X6343101D01*
X6214474Y4213860D02*
X6343101D01*
X6140814Y4140200D02*
X6214474Y4213860D01*
X6131560Y4140200D02*
X6140814D01*
X6194156Y4086859D01*
X6278162Y3726180D02*
X6400800D01*
X5752024Y3150676D02*
X5843600Y3059100D01*
X6071599D01*
X5752024Y3150676D02*
Y3165916D01*
X5745480Y3172460D02*
X5752024Y3165916D01*
X5322461Y3096700D02*
X5324561Y3098800D01*
X5013473Y3808380D02*
X5041393Y3780460D01*
X4998720Y3808380D02*
X5013473D01*
X5041393Y3780460D02*
X5144480D01*
X3063240Y3157220D02*
X3071132Y3149328D01*
X4309939Y3080739D02*
X4424961D01*
X4427220Y3078480D01*
X4307839Y3082839D02*
X4309939Y3080739D01*
X6187712Y713187D02*
X6472056D01*
X6583952D01*
X6167401Y713459D02*
X6187440D01*
X6395720Y553439D02*
Y660119D01*
X6351270Y704569D02*
X6395720Y660119D01*
X6256292Y553711D02*
Y624568D01*
X5324201Y2968899D02*
X5324561Y2969260D01*
Y3098800D01*
X5324201Y2738481D02*
Y2968899D01*
X3222785Y2923540D02*
X3233420D01*
X3053761Y2754516D02*
X3222785Y2923540D01*
X3053761Y2748239D02*
Y2754516D01*
X5323840Y2738120D02*
X5326380Y2735580D01*
X5323840Y2738120D02*
X5324201Y2738481D01*
X2803764Y1899524D02*
Y2108241D01*
X2765641Y1817840D02*
Y1861401D01*
X2606401Y2890159D02*
Y3002641D01*
X2603990Y2748470D02*
Y2818110D01*
X2472670D02*
X2603990D01*
Y2887749D01*
X2453640Y2799080D02*
X2472670Y2818110D01*
X2453640Y2705329D02*
Y2799080D01*
X2455728Y2703241D02*
X2458761D01*
X2453640Y2705329D02*
X2455728Y2703241D01*
X2403809Y2553238D02*
X2458761D01*
X1461699Y4305300D02*
X1638300D01*
X2374078Y2523507D02*
X2403809Y2553238D01*
X438259Y3558100D02*
X586300D01*
X436159Y3556000D02*
X438259Y3558100D01*
X2374078Y2492707D02*
Y2523507D01*
X2358927Y2477557D02*
X2374078Y2492707D01*
X1640279Y2428578D02*
X1641140Y2429439D01*
X2354047Y2389607D02*
X2358927Y2394487D01*
Y2477557D01*
X1613238Y2428578D02*
X1640279D01*
X1577340Y2392680D02*
X1613238Y2428578D01*
X2765641Y1861401D02*
X2803764Y1899524D01*
X2738197Y1790396D02*
X2765641Y1817840D01*
X2738197Y1710894D02*
Y1790396D01*
X2729449Y1702146D02*
X2738197Y1710894D01*
X2606040Y1397000D02*
X2679700D01*
X2575560Y1366520D02*
X2606040Y1397000D01*
X2507700Y1366520D02*
X2575560D01*
X2499799Y1374421D02*
X2501579Y1372641D01*
X2449913Y1374421D02*
X2499799D01*
X1526540Y2341880D02*
X1577340Y2392680D01*
X1526540Y2217420D02*
Y2341880D01*
Y2192170D02*
X1584960Y2133750D01*
X1526540Y2192170D02*
Y2217420D01*
X5715678Y1780540D02*
X5725978Y1790840D01*
X6049159D01*
X5328920Y1780540D02*
X5715678D01*
X5185598Y1325880D02*
X5742940D01*
X5808040Y1390980D02*
X6058899D01*
X5077460Y1217742D02*
X5185598Y1325880D01*
X5742940D02*
X5808040Y1390980D01*
X4307840Y448122D02*
X5077460Y1217742D01*
Y1854598D02*
X5748020Y2525158D01*
X5077460Y1217742D02*
Y1854598D01*
X5748020Y2525158D02*
Y2761239D01*
X5584480Y3730462D02*
X5712149D01*
X5748507Y3766820D01*
X4041140Y3530600D02*
X4312920Y3258820D01*
X5565140D01*
X3230880Y3322320D02*
X3231515Y3321685D01*
X2771215Y3322320D02*
X3230880D01*
X2697480Y3172110D02*
Y3248585D01*
Y3172110D02*
X2776220Y3093370D01*
Y2841246D02*
Y3093370D01*
Y2841246D02*
X2803764Y2813703D01*
Y2748239D02*
Y2813703D01*
X5414559Y2969260D02*
X5588001D01*
X5414559Y3098800D02*
X5575300D01*
X2697480Y3248585D02*
X2771215Y3322320D01*
X5575300Y3098800D02*
X5646420Y3027680D01*
X5588001Y2969260D02*
X5646420Y3027680D01*
Y3172233D01*
X5565140Y3253513D02*
Y3258820D01*
Y3253513D02*
X5646420Y3172233D01*
X5748020Y2761239D02*
X5830440Y2843660D01*
X6059461Y2871239D02*
X6071599Y2859100D01*
X5830440Y2843660D02*
X5858020Y2871239D01*
X5646420Y3027680D02*
X5830440Y2843660D01*
X5858020Y2871239D02*
X6059461D01*
X3098759Y2703241D02*
X3106259D01*
X3170840Y2767822D01*
Y2790968D01*
X3221399Y2841527D01*
X3271274D01*
X3310107Y2880360D01*
X3324860D01*
X5069840Y2738120D02*
Y2956560D01*
X5011420Y3014980D02*
X5069840Y2956560D01*
X4914182Y3014980D02*
X5011420D01*
X3863340Y1775460D02*
X3867150Y1771650D01*
Y1502410D02*
X3870960Y1498600D01*
X3867150Y1502410D02*
Y1771650D01*
X4023360Y2354580D02*
X4168140Y2209800D01*
X4371340D01*
X3098759Y2653238D02*
X3099624Y2654103D01*
X3124636D01*
X4307839Y2738121D02*
Y2992841D01*
X4307839Y2992841D02*
X4307839Y2992841D01*
Y2738121D02*
X4307840Y2738120D01*
X3231371Y2760838D02*
X3243581D01*
X3124636Y2654103D02*
X3231371Y2760838D01*
X1327982Y2880360D02*
X1366082Y2842260D01*
X1219200Y2880360D02*
X1327982D01*
X1366082Y2842260D02*
X1527261D01*
X2964348Y3126282D02*
Y3132996D01*
X2879486Y3041420D02*
X2964348Y3126282D01*
X1963420Y2931160D02*
X2108200D01*
X2879486Y2866235D02*
X2903764Y2841957D01*
Y2748239D02*
Y2841957D01*
X2879486Y2866235D02*
Y3041420D01*
X2456019Y1968339D02*
Y2151151D01*
X2362200Y1874520D02*
X2456019Y1968339D01*
Y2151151D02*
X2458107Y2153239D01*
X2458761D01*
X1332229Y2983229D02*
X1523451D01*
X1330960Y2981960D02*
X1332229Y2983229D01*
X1523451D02*
X1524720Y2984499D01*
X2829560Y2852097D02*
Y3128098D01*
X2791460Y3166198D02*
Y3181000D01*
Y3166198D02*
X2829560Y3128098D01*
X1882140Y3070860D02*
X1884680Y3068320D01*
X2853761Y2748239D02*
Y2827896D01*
X2829560Y2852097D02*
X2853761Y2827896D01*
X1466850Y2127250D02*
X1468120Y2128520D01*
X1202690Y2127250D02*
X1466850D01*
X1201420Y2125980D02*
X1202690Y2127250D01*
X6791960Y4213860D02*
X6855460Y4150360D01*
X6688099Y4213860D02*
X6791960D01*
X5011419Y4810759D02*
X5011420Y4810760D01*
X6855460Y4013200D02*
Y4150360D01*
X6748780Y3906520D02*
X6855460Y4013200D01*
X6660580Y3906520D02*
X6748780D01*
X4816558Y4810759D02*
X5011419D01*
X4816558Y4810759D02*
X4816558Y4810759D01*
X4914413Y3784600D02*
X4968551Y3730462D01*
X5144480D01*
X4899660Y3784600D02*
X4914413D01*
X5740400Y3464560D02*
Y3538584D01*
Y3612608D01*
X5722171Y3630463D02*
X5740026Y3612608D01*
X5697584Y3581400D02*
X5740400Y3538584D01*
X5693604Y3266596D02*
X6064103D01*
X6071599Y3259099D01*
X5687060Y3273140D02*
X5693604Y3266596D01*
X5584480Y3630463D02*
X5722171D01*
X5576570Y2736850D02*
X5577840Y2738120D01*
X3721100Y2438852D02*
Y2440940D01*
X3479348Y2197100D02*
X3721100Y2438852D01*
X2832100Y4800600D02*
X3591799D01*
X3594100Y4802901D01*
X2283460Y3779520D02*
X2291339Y3787399D01*
X2749681D01*
X3411499Y2197100D02*
X3479348D01*
X2290425Y2533987D02*
X2291359Y2534921D01*
X2290425Y2455223D02*
Y2533987D01*
X3397249Y742951D02*
X3401060Y739140D01*
X3394516Y747841D02*
Y1019587D01*
X3360003Y1054100D02*
X3374408Y1039696D01*
X3394516Y1019587D01*
X3180879Y742951D02*
X3397249D01*
X2870281Y1461420D02*
X2986120D01*
X3025140Y1422400D01*
X2869702Y1461999D02*
X2870281Y1461420D01*
X3175279Y748551D02*
Y1053821D01*
X3065780Y1054100D02*
X3175000D01*
X3175279Y1053821D01*
X3025140Y1094740D02*
Y1422400D01*
Y1094740D02*
X3065780Y1054100D01*
X2232379Y2131580D02*
Y2244158D01*
X2314367Y938835D02*
X2401265D01*
X2313400Y939801D02*
X2314367Y938835D01*
X3175279Y746763D02*
X3179090Y742951D01*
X2404662Y755813D02*
X2440939Y792089D01*
X2612555Y203782D02*
X2779599D01*
X2440939Y792089D02*
Y899162D01*
X2404662Y683260D02*
Y755813D01*
X2585233Y176460D02*
X2612555Y203782D01*
X2570480Y176460D02*
X2585233D01*
X2401265Y938835D02*
X2440939Y899162D01*
X2402562Y681160D02*
X2404662Y683260D01*
X2402562Y583717D02*
Y681160D01*
X2395220Y576375D02*
X2402562Y583717D01*
X2395220Y567120D02*
Y576375D01*
X2072401Y4800600D02*
X2832100D01*
X2070100Y4802901D02*
X2072401Y4800600D01*
X1640275Y2580306D02*
X1641140Y2579441D01*
X1544320Y2692400D02*
X1554752Y2681968D01*
Y2638312D02*
Y2681968D01*
X963382Y2800101D02*
X993140Y2770343D01*
Y2636976D02*
Y2770343D01*
X1612758Y2580306D02*
X1640275D01*
X1554752Y2638312D02*
X1612758Y2580306D01*
X2226442Y2391240D02*
X2290425Y2455223D01*
X2215800Y2373316D02*
X2223370Y2380886D01*
Y2390140D01*
X2215800Y2260738D02*
Y2373316D01*
Y2260738D02*
X2232379Y2244158D01*
X1910080Y1649366D02*
Y1658620D01*
X1450827Y1757680D02*
X1465580D01*
X515803Y2070100D02*
X970001D01*
X1418748Y1725601D02*
X1450827Y1757680D01*
X1274100Y1725601D02*
X1418748D01*
X613801Y2800101D02*
X729981D01*
X963382D01*
X515803Y2837104D02*
Y2935102D01*
X478800Y2800101D02*
X613801D01*
X752280Y2721719D02*
X754380Y2719619D01*
X752280Y2721719D02*
Y2777802D01*
X729981Y2800101D02*
X752280Y2777802D01*
X177800Y2935102D02*
X217800D01*
X478800Y2800101D02*
X515803Y2837104D01*
X217800Y2935102D02*
X352801Y2800101D01*
X478800D01*
Y2205101D02*
X613801D01*
X478800D02*
X481517Y2202384D01*
Y2088208D02*
Y2202384D01*
X705877Y1675599D02*
X834100D01*
X481517Y2088208D02*
X499625Y2070100D01*
X515803D01*
X213800Y1847958D02*
X316843D01*
X177800Y1883958D02*
Y2070100D01*
Y1883958D02*
X213800Y1847958D01*
X315400Y1845201D02*
X317500Y1847301D01*
X315400Y1701741D02*
Y1845201D01*
X292380Y1678721D02*
X315400Y1701741D01*
X1980679Y1532421D02*
Y1578767D01*
X1910080Y1649366D02*
X1980679Y1578767D01*
Y1532421D02*
X1986279Y1526821D01*
X1864359Y1612899D02*
X1910080Y1658620D01*
X1864359Y1525821D02*
Y1612899D01*
X1437912Y1484000D02*
X1437957Y1484045D01*
Y1557504D01*
X1437912Y1409972D02*
Y1484000D01*
X1420102Y1575359D02*
X1437957Y1557504D01*
X1328860Y1575359D02*
X1420102D01*
X1274100Y1525601D02*
X1396400D01*
X1427480Y1399540D02*
X1434024Y1392996D01*
X1396400Y1525601D02*
X1437957Y1484045D01*
X1427480Y1399540D02*
X1437912Y1409972D01*
X1507403Y1392996D02*
X1592299Y1308100D01*
X1434024Y1392996D02*
X1507403D01*
X1352000Y1324060D02*
X1427480Y1399540D01*
X2190161Y428220D02*
X2318630Y556688D01*
X1903321Y428220D02*
X2190161D01*
X1352000Y1143803D02*
Y1324060D01*
X1130701Y1143401D02*
X1351599D01*
X1127760Y1038860D02*
Y1140460D01*
X1092200Y1003300D02*
X1127760Y1038860D01*
X1231413Y101600D02*
X1269230Y139417D01*
X1369060D01*
X1216660Y101600D02*
X1231413D01*
X665479Y1625601D02*
X834100D01*
X660679Y1630401D02*
X705877Y1675599D01*
X571501Y1630401D02*
X660679D01*
X665479Y1625601D01*
X715481Y1575599D02*
X834100D01*
X665479Y1625601D02*
X715481Y1575599D01*
X619480Y1135660D02*
X660839D01*
X662939Y1133560D01*
X315400Y1701741D02*
X386740Y1630401D01*
X571501D01*
X292380Y1493519D02*
Y1678721D01*
X452182Y1234923D02*
X520217D01*
X619480Y1135660D01*
X447582Y1239523D02*
X452182Y1234923D01*
X1127760Y1140460D02*
X1130300Y1143000D01*
X1035602Y1003300D02*
X1092200D01*
X1035602Y803358D02*
Y1003300D01*
X990600Y758355D02*
X1035602Y803358D01*
X1104900Y545282D02*
Y734060D01*
X1035602Y803358D02*
X1104900Y734060D01*
X990600Y428332D02*
Y758355D01*
X662939Y1013461D02*
Y1132842D01*
X947420Y385152D02*
X990600Y428332D01*
X948280Y311379D02*
Y385152D01*
X1744980Y2085340D02*
Y2212340D01*
Y2085340D02*
X1750060Y2080260D01*
X1744980Y2212340D02*
Y2314376D01*
X1693642Y2263678D02*
Y2326940D01*
Y2263678D02*
X1744980Y2212340D01*
X2745739Y936541D02*
X2881079D01*
X2885440Y932180D01*
X2563402Y939801D02*
X2566662Y936541D01*
X2745739D01*
X1744504Y2314852D02*
X1744980Y2314376D01*
X1744504Y2314852D02*
Y2319164D01*
X2885440Y789940D02*
X2928618Y746763D01*
X2885440Y789940D02*
Y932180D01*
X2928618Y746763D02*
X3083280D01*
X478800Y2715103D02*
X613801D01*
Y2290100D02*
X745200D01*
X478800D02*
X613801D01*
X1088390Y2191462D02*
Y2377439D01*
X1061999Y2165072D02*
X1088390Y2191462D01*
X1002031Y2225040D02*
X1061999Y2165072D01*
X745200Y2290100D02*
X810260Y2225040D01*
X1002031D01*
X4054540Y3354640D02*
Y3360420D01*
Y3354640D02*
X4231640Y3177540D01*
X4742180D01*
X4823820Y3095900D01*
X3003763Y2748239D02*
X3004628Y2749104D01*
Y2809048D01*
X4815840Y2738120D02*
X4820010Y2742290D01*
Y3010810D01*
X4824180Y3014980D01*
X4823820Y3015340D02*
X4824180Y3014980D01*
X4823820Y3015340D02*
Y3095900D01*
X3004628Y2809048D02*
X3210560Y3014980D01*
X3314700D01*
X2903764Y1779504D02*
Y2108241D01*
Y1779504D02*
X3023239Y1660028D01*
X3121448D01*
X3126740Y1665320D01*
X2586184Y1909196D02*
Y1909834D01*
X2603759Y1927409D01*
Y2108241D01*
X2522220Y1845232D02*
X2586184Y1909196D01*
X3799840Y2366580D02*
Y2738120D01*
Y2366580D02*
X3954780Y2211640D01*
Y2203100D02*
Y2211640D01*
X3591560Y3721100D02*
Y3881359D01*
X3517900Y3647440D02*
X3591560Y3721100D01*
X3921760Y3357880D02*
X4053840Y3225800D01*
X3909060Y3357880D02*
X3921760D01*
X3591560Y3881359D02*
X3594100Y3883899D01*
X4053840Y2738120D02*
Y3225800D01*
X2457896Y2304106D02*
X2458761Y2303242D01*
X840740Y3383280D02*
X1083720D01*
X2298700Y2306320D02*
X2300914Y2304106D01*
X2457896D01*
X2580640Y1701800D02*
X2591072Y1712232D01*
Y1772888D01*
X2650840Y1832656D02*
Y1882840D01*
X2591072Y1772888D02*
X2650840Y1832656D01*
Y1882840D02*
X2703759Y1935759D01*
Y2108241D01*
X1165860Y944880D02*
X1180613D01*
X1193690Y931804D01*
X1220581D01*
X1259840Y674414D02*
Y892545D01*
X1220581Y931804D02*
X1259840Y892545D01*
X1153160Y820907D02*
X1169899Y804168D01*
X1153160Y820907D02*
Y835660D01*
X1169899Y546781D02*
Y804168D01*
X1169149Y546031D02*
X1169899Y546781D01*
X2413000Y162560D02*
Y176460D01*
X2329180Y78740D02*
X2413000Y162560D01*
X1676400Y78740D02*
X2329180D01*
X2499148Y494380D02*
X2529746Y463782D01*
X2320640Y494380D02*
X2499148D01*
X2189481Y363221D02*
X2320640Y494380D01*
X1903321Y363221D02*
X2189481D01*
X1442002Y1143803D02*
X1592294D01*
X1440180Y1087120D02*
Y1141980D01*
X1399540Y1046480D02*
X1440180Y1087120D01*
X1397000Y928822D02*
Y1043940D01*
X1160780Y2766060D02*
X1687051D01*
X1742778Y2710332D01*
X1041400Y2885440D02*
X1160780Y2766060D01*
X1042335Y3139440D02*
X1734820D01*
X1036769Y3145006D02*
X1042335Y3139440D01*
X2449480Y1897482D02*
X2553762Y2001763D01*
Y2108241D01*
X6188160Y3726180D02*
X6189070Y3727090D01*
Y3819250D01*
X6189980Y3820160D01*
X6024880Y3680460D02*
X6070600Y3726180D01*
X5584480Y3680460D02*
X6024880D01*
X5951942Y3997960D02*
X5981700Y4027718D01*
X5189220Y3997960D02*
X5951942D01*
X5981700Y4221480D02*
X6042660Y4282440D01*
X5981700Y4027718D02*
Y4221480D01*
X4819098Y4687569D02*
X5088889D01*
X4816558Y4685029D02*
X4819098Y4687569D01*
X5088889D02*
X5092700Y4691380D01*
X3944620Y3825240D02*
Y4574540D01*
X3488715Y3369335D02*
X3944620Y3825240D01*
Y4574540D02*
X4056379Y4686299D01*
X3586480Y3205480D02*
X4107180Y3726180D01*
Y4384040D02*
X4155439Y4432299D01*
X4107180Y3726180D02*
Y4384040D01*
X3858260Y3860800D02*
Y4704080D01*
X3439160Y2884170D02*
Y3441700D01*
X3858260Y3860800D01*
X3534195Y3277655D02*
X4025900Y3769360D01*
Y4467860D01*
X3534195Y2657076D02*
Y3277655D01*
X3586480Y2368550D02*
Y3205480D01*
X3228340Y2118360D02*
X3464927D01*
X3604627Y2258060D01*
X3796950D01*
X3353395Y2258340D02*
X3476270D01*
X3586480Y2368550D01*
X3411707Y2306320D02*
X3503147Y2397760D01*
X3796950Y2258060D02*
X3924650Y2130360D01*
X3098759Y2353239D02*
X3341786D01*
X3502660Y2514113D01*
X3218180Y2306320D02*
X3411707D01*
X3167361Y2255501D02*
X3218180Y2306320D01*
X3335261Y2240205D02*
X3353395Y2258340D01*
X3335261Y2212860D02*
Y2240205D01*
X3324581Y2202180D02*
X3335261Y2212860D01*
X3319501Y2202180D02*
X3324581D01*
X3318970Y2202711D02*
X3319501Y2202180D01*
X3099290Y2202711D02*
X3318970D01*
X3098759Y2203242D02*
X3099290Y2202711D01*
X3193461Y2153239D02*
X3228340Y2118360D01*
X3098759Y2153239D02*
X3193461D01*
X3098759Y2403241D02*
X3280360D01*
X3534195Y2657076D01*
X4155439Y4432299D02*
X4271560D01*
X3316320Y2761330D02*
X3439160Y2884170D01*
X3488715Y2675915D02*
Y3369335D01*
X3266039Y2453239D02*
X3488715Y2675915D01*
X3109745Y2255501D02*
X3167361D01*
X3107482Y2253239D02*
X3109745Y2255501D01*
X3098759Y2253239D02*
X3107482D01*
X6042660Y4282440D02*
X6051914D01*
X5044200Y3982480D02*
X5234940Y4173220D01*
X4376419Y3942802D02*
X4416097Y3982480D01*
X5044200D01*
X5234940Y4173220D02*
X5613400D01*
X4376419Y3867700D02*
Y3942802D01*
X4808220Y3916680D02*
X5107940D01*
X5189220Y3997960D01*
X4630420Y3738880D02*
X4808220Y3916680D01*
X4630420Y3738880D02*
X4785360D01*
X4897120Y3627120D01*
X4965213Y3680460D02*
X5144480D01*
X4911873Y3627120D02*
X4965213Y3680460D01*
X4897120Y3627120D02*
X4911873D01*
X4368800Y3468919D02*
Y3601005D01*
X4364423Y3605382D02*
X4368800Y3601005D01*
X106681Y1493519D02*
X200381D01*
X103121Y1334519D02*
X197580D01*
X132080Y1623060D02*
X193040D01*
X66040Y1557020D02*
X132080Y1623060D01*
X66040Y1371600D02*
X103121Y1334519D01*
X66040Y1262380D02*
Y1371600D01*
Y1262380D02*
X88897Y1239523D01*
X66040Y1534160D02*
X106681Y1493519D01*
X66040Y1534160D02*
Y1557020D01*
Y1371600D02*
Y1534160D01*
X88897Y1239523D02*
X197580D01*
X1481307Y170990D02*
X1490657Y180340D01*
X1925320D01*
X2212821Y268781D02*
X2779599D01*
X2310021Y335280D02*
X2779599D01*
X2303780Y341521D02*
X2310021Y335280D01*
X2086260Y265780D02*
X2208858D01*
X2212340Y269262D01*
X1226790Y257540D02*
X1231285D01*
X1175261Y206012D02*
X1226790Y257540D01*
X1231285D02*
X1234902Y261158D01*
X1160508Y206012D02*
X1175261D01*
X4816558Y4556759D02*
X4822206Y4562407D01*
X5227887D01*
X5234940Y4569460D01*
X2214158Y849400D02*
X2308800D01*
X2184400Y879158D02*
X2214158Y849400D01*
X1428078Y298218D02*
X1693319D01*
X1369060Y357236D02*
X1428078Y298218D01*
X1369060Y231421D02*
Y357236D01*
X1315500Y571280D02*
X1397000Y652780D01*
X1315500Y410796D02*
Y571280D01*
X1476460Y504320D02*
X1500461Y528320D01*
X1394720Y504320D02*
X1476460D01*
X1388240Y497840D02*
X1394720Y504320D01*
X1315500Y410796D02*
X1369060Y357236D01*
X1500461Y528320D02*
X1670520D01*
X1266896Y229164D02*
X1353820D01*
X2507570Y421640D02*
X2529161Y400049D01*
X2392680Y421640D02*
X2507570D01*
X1397000Y652780D02*
X1447800Y601980D01*
X1679862D01*
X2308800Y849400D02*
X2313400Y844800D01*
X2529161Y400049D02*
X2771068D01*
X1730201Y930499D02*
Y996141D01*
X1808480Y1074420D02*
Y1178560D01*
X1730201Y996141D02*
X1808480Y1074420D01*
Y1178560D02*
X1828660Y1198740D01*
X1679862Y601980D02*
X1730201Y652319D01*
Y686410D01*
X1693319Y428220D02*
Y481739D01*
X1811020Y1930400D02*
X2016760Y1724660D01*
X1430020Y1930400D02*
X1811020D01*
X493559Y186219D02*
X510540Y203200D01*
X493559Y141600D02*
Y186219D01*
X510540Y203200D02*
X607060D01*
X645160Y241300D01*
Y287020D01*
X669519Y311379D01*
X787401Y954318D02*
Y1135099D01*
X302499Y956858D02*
X334797Y924560D01*
X302499Y956858D02*
Y995163D01*
X866215Y1003300D02*
X945600D01*
X848360Y985445D02*
X866215Y1003300D01*
X848360Y740862D02*
Y795020D01*
Y233342D02*
Y510732D01*
X612863Y1361440D02*
X615402Y1358901D01*
X561340Y1361440D02*
X612863D01*
X534419Y1334519D02*
X561340Y1361440D01*
X447582Y1334519D02*
X534419D01*
X615402Y1301647D02*
Y1358901D01*
Y1301647D02*
X624189Y1292860D01*
X650240D01*
X662939Y1280161D01*
Y1223562D02*
Y1280161D01*
X388898Y1000763D02*
X409218D01*
X447582Y1039127D01*
X296899Y1000763D02*
X302499Y995163D01*
X68580Y1033780D02*
X101597Y1000763D01*
X296899D01*
X669519Y311379D02*
X738278D01*
X796400Y181381D02*
X848360Y233342D01*
X738278Y181381D02*
X796400D01*
X1102128Y264235D02*
Y332508D01*
X948280Y246380D02*
X1084273D01*
X1102128Y264235D01*
X4821638Y4434839D02*
X5073299D01*
X4816558Y4429759D02*
X4821638Y4434839D01*
X5073299D02*
X5078380Y4439920D01*
X3967479Y4813299D02*
X4271560D01*
X4056379Y4686299D02*
X4271560D01*
X4117339Y4559299D02*
X4271560D01*
X3924650Y2130360D02*
X4621518D01*
X5184140Y2692982D01*
X3252859Y2512269D02*
X3406681Y2666090D01*
Y2745016D01*
X3415975Y2754310D01*
X3316320Y2640048D02*
Y2761330D01*
X3624580Y2143445D02*
X3660140Y2107885D01*
Y1440180D02*
Y2107885D01*
X3624580Y2143445D02*
Y2153000D01*
X800100Y2885440D02*
X1041400D01*
X1274100Y1675599D02*
X1632040D01*
X1274100Y1625601D02*
X1468119D01*
X1496060Y1597660D01*
X1577340D01*
X3111768Y1768108D02*
X3121660Y1778000D01*
X2953761Y1834047D02*
X3019700Y1768108D01*
X3111768D01*
X3003763Y1948732D02*
Y2108241D01*
X3035032Y1855660D02*
Y1917464D01*
X3003763Y1948732D02*
X3035032Y1917464D01*
Y1855660D02*
X3045460Y1845232D01*
X3221255Y2659699D02*
X3233101D01*
X3502660Y2514113D02*
Y2517140D01*
X3360420Y1845859D02*
X3488319D01*
X3559020Y1916560D01*
X3561080D01*
X2449480Y1686044D02*
Y1897482D01*
X2326779Y2008792D02*
Y2123579D01*
X2273300Y1940560D02*
Y1955313D01*
X2326779Y2008792D01*
X2449480Y1686044D02*
X2501899Y1633626D01*
X2324378Y2125980D02*
X2326779Y2123579D01*
X2953761Y1834047D02*
Y2108241D01*
X3234021Y2557749D02*
X3316320Y2640048D01*
X3242959Y2503241D02*
X3251987Y2512269D01*
X3252859D01*
X3098759Y2503241D02*
X3242959D01*
X3360003Y1374099D02*
Y1755861D01*
X3238500Y1559560D02*
Y1733001D01*
Y1822999D02*
Y1871980D01*
X2653380Y1769912D02*
X2696320Y1812852D01*
X2653380Y1671670D02*
Y1769912D01*
X2567940Y1544852D02*
Y1586230D01*
X2653380Y1671670D01*
X2811141Y1838321D02*
X2853761Y1880941D01*
X2811141Y1642085D02*
Y1838321D01*
X2807540Y1638485D02*
X2811141Y1642085D01*
X3053761Y2056720D02*
Y2108241D01*
Y2056720D02*
X3238500Y1871980D01*
X5021211Y3630463D02*
X5144480D01*
X6292412Y3906520D02*
X6430578D01*
X5144480Y3488400D02*
Y3580460D01*
X6070600Y3726180D02*
X6188160D01*
X5184140Y2692982D02*
Y3164840D01*
X568960Y1838960D02*
X570231Y1837689D01*
Y1723670D02*
Y1837689D01*
Y1723670D02*
X571501Y1722399D01*
X607060Y1524000D02*
X608421Y1525361D01*
X833860D02*
X834100Y1525601D01*
X608421Y1525361D02*
X833860D01*
X1710851Y2842260D02*
X1841392Y2711719D01*
X1617259Y2842260D02*
X1710851D01*
X1614722Y2984499D02*
X1739902D01*
X1891389Y2833011D01*
X1156710Y3021070D02*
X1229680Y3094040D01*
X1694565D01*
X1734820Y3139440D02*
X1787298Y3191918D01*
X1694565Y3094040D02*
X1943639Y2844967D01*
X979430Y3021070D02*
X1156710D01*
X754380Y3246120D02*
X979430Y3021070D01*
X754380Y3246120D02*
Y3469640D01*
X1519596Y1220159D02*
X1635072D01*
X1454514Y1285240D02*
X1519596Y1220159D01*
X1445260Y1285240D02*
X1454514D01*
X1684159Y1280826D02*
Y1308239D01*
X1635072Y1231739D02*
X1684159Y1280826D01*
X1635072Y1220159D02*
Y1231739D01*
Y1220159D02*
X1678698Y1176533D01*
Y1149397D02*
Y1176533D01*
Y1149397D02*
X1684298Y1143798D01*
X2753761Y1913854D02*
Y2108241D01*
X2696320Y1812852D02*
Y1856413D01*
X2753761Y1913854D01*
X1891389Y2695411D02*
Y2833011D01*
X1841392Y2695406D02*
X1842778Y2694019D01*
Y2684906D02*
Y2694019D01*
X1841392Y2695406D02*
Y2711719D01*
X1943639Y2681941D02*
Y2844967D01*
X1841726Y2683854D02*
X1842778Y2684906D01*
X1893641Y2681941D02*
Y2693158D01*
X1891389Y2695411D02*
X1893641Y2693158D01*
X1841726Y2683854D02*
X1843639Y2681941D01*
X1742778Y2682801D02*
Y2710332D01*
X1787298Y3191918D02*
Y3285739D01*
X1742778Y2682801D02*
X1743639Y2681941D01*
X1293722Y3477260D02*
X1456141D01*
X1997300Y3290980D02*
X2052320Y3235960D01*
X1997300Y3290980D02*
Y3380740D01*
X919480Y3634740D02*
X1380018D01*
X1456141Y3558617D01*
X754380Y3469640D02*
X919480Y3634740D01*
X6433099Y4213860D02*
X6596101D01*
X6431838Y4085598D02*
X6433099Y4086859D01*
X6431838Y3907780D02*
Y4085598D01*
X3164797Y2603241D02*
X3221255Y2659699D01*
X3098759Y2603241D02*
X3164797D01*
X3233148Y2557749D02*
X3234021D01*
X3228638Y2553238D02*
X3233148Y2557749D01*
X4025900Y4467860D02*
X4117339Y4559299D01*
X3098759Y2453239D02*
X3266039D01*
X3098759Y2553238D02*
X3228638D01*
X3858260Y4704080D02*
X3967479Y4813299D01*
X1293722Y3287008D02*
X1453352D01*
X1453601Y3286759D01*
X1456141Y3477259D02*
Y3477260D01*
Y3558617D01*
X2026900Y3410340D02*
X2087880Y3471320D01*
X2012300Y3380740D02*
X2026900Y3395340D01*
Y3410340D01*
X1543599Y3286759D02*
X1544108Y3286249D01*
X1546139Y3475741D02*
X1787298D01*
X1786788Y3286249D02*
X1787298Y3285739D01*
X1544108Y3286249D02*
X1786788D01*
X2087880Y3471320D02*
Y3866119D01*
X2070100Y3883899D02*
X2087880Y3866119D01*
X2324637Y2126239D02*
Y2190017D01*
X2387859Y2253239D01*
X1958479Y1181239D02*
Y1297804D01*
X1958340Y1181100D02*
X1958479Y1181239D01*
X2080259Y1209762D02*
X2082359Y1207662D01*
X2853761Y1880941D02*
Y2108241D01*
X2585795Y1526997D02*
X2679700D01*
X2567940Y1544852D02*
X2585795Y1526997D01*
X2869702Y1323838D02*
Y1397000D01*
Y1323838D02*
X2908980Y1284560D01*
X3175000Y1496060D02*
X3238500Y1559560D01*
X3175000Y1374099D02*
Y1496060D01*
X1087119Y1358901D02*
X1130300Y1315720D01*
X873759Y1358901D02*
X1087119D01*
X1130300Y1234999D02*
Y1315720D01*
X2053822Y298218D02*
X2086260Y265780D01*
X1903321Y298218D02*
X2053822D01*
X1987884Y1433217D02*
X2050501D01*
X2080259Y1403459D01*
X1986279Y1434822D02*
X1987884Y1433217D01*
X2080259Y1299759D02*
Y1403459D01*
X1864079Y1297943D02*
Y1433558D01*
Y1234159D02*
Y1297943D01*
X2567939Y1196341D02*
X2567940Y1196340D01*
Y1039340D02*
Y1196340D01*
X2563402Y1034802D02*
X2567940Y1039340D01*
X2405659Y1196341D02*
X2567939D01*
X2405658Y1196343D02*
X2405659Y1196341D01*
X2313659Y1035061D02*
Y1196343D01*
X2313400Y1034802D02*
X2313659Y1035061D01*
X2563402Y844800D02*
X2564272Y845670D01*
X2744870D01*
X2745739Y846539D01*
X1397000Y652780D02*
Y718820D01*
X1234902Y649476D02*
X1259840Y674414D01*
X705399Y1358901D02*
X868680D01*
X873759D02*
X952504Y1280156D01*
Y1222299D02*
Y1280156D01*
X705399Y1358901D02*
X787401Y1276899D01*
X1234902Y261158D02*
Y335280D01*
Y261158D02*
X1266896Y229164D01*
X2387859Y2253239D02*
X2458761D01*
X649331Y3100431D02*
X795929D01*
X647550Y3191909D02*
X647700Y3192059D01*
X478528Y3191909D02*
X647550D01*
X478379Y3191759D02*
X478528Y3191909D01*
X647700Y3102061D02*
X649331Y3100431D01*
X2502059Y1462159D02*
X2679540D01*
X1959526Y1298851D02*
X2079350D01*
X1828660Y1198740D02*
X1864079Y1234159D01*
X1828660Y1198740D02*
X1871699Y1155700D01*
X2314660Y683260D02*
Y843540D01*
X787401Y1227098D02*
Y1276899D01*
X1102128Y332508D02*
X1104900Y335280D01*
X1234902Y545282D02*
Y649476D01*
X1864359Y1435819D02*
X1866619Y1433558D01*
X1885318Y941702D02*
X1943901D01*
X1871699Y955321D02*
X1885318Y941702D01*
X571501Y1722399D02*
X574703Y1725601D01*
X834100D01*
X1632040Y1675599D02*
X1684020Y1623619D01*
Y1531620D02*
X1684159Y1531481D01*
Y1308239D02*
Y1531481D01*
Y1308239D02*
X1684298Y1308100D01*
X447582Y1039127D02*
Y1144521D01*
X95501D02*
X197580D01*
X68580Y1117600D02*
X95501Y1144521D01*
X68580Y1033780D02*
Y1117600D01*
X614040Y2629860D02*
X754141D01*
X203200Y3596640D02*
Y4255222D01*
X243840Y3556000D02*
X346161D01*
X203200Y4255222D02*
X232958Y4284980D01*
X321381D01*
X203200Y3596640D02*
X243840Y3556000D01*
X157480Y3469640D02*
X243840Y3556000D01*
X157480Y3301639D02*
Y3469640D01*
Y3301639D02*
X172359Y3286760D01*
X268381D01*
X317500Y2222915D02*
X464536Y2369951D01*
X317500Y1937299D02*
Y2222915D01*
D53*
X2307661Y2653238D02*
X2330345Y2675922D01*
X2307661Y2653238D02*
X2458761D01*
X2470861Y2900959D02*
X2473960Y2897859D01*
X2326640Y2943860D02*
X2392680D01*
X2435581Y2900959D01*
X2330345Y2675922D02*
Y2845435D01*
X2473960Y2989858D02*
Y3365500D01*
X2567940Y3459480D01*
X2705100D01*
X2435581Y2900959D02*
X2470861D01*
X2705100Y3459480D02*
X2749681Y3504061D01*
Y3662401D01*
D54*
X1943901Y810611D02*
Y861703D01*
Y810611D02*
X1995053Y759460D01*
X2098040D01*
X2300439Y1514641D02*
X2362200Y1452880D01*
X2249800Y1514641D02*
X2300439D01*
X3939540Y2966720D02*
X3944620D01*
X3726180Y3180080D02*
X3939540Y2966720D01*
X3721100Y3180080D02*
X3726180D01*
X2953761Y2748239D02*
X2953890Y2748369D01*
Y2901272D01*
X2954020Y2901401D01*
X3036021D01*
X3058960Y2924340D02*
Y2968242D01*
X3036021Y2901401D02*
X3058960Y2924340D01*
Y2968242D02*
X3065780Y2975061D01*
X3067482Y2976763D01*
X3111617D01*
X3322320Y3187466D01*
Y3190240D01*
X4335780Y2443480D02*
X4549140Y2230120D01*
X3942080Y2443480D02*
X4335780D01*
X3060700Y3159760D02*
X3063240Y3157220D01*
Y3067599D02*
Y3157220D01*
Y3062519D02*
X3065780Y3065059D01*
X3063240Y3067599D02*
X3065780Y3065059D01*
X2973619Y3062519D02*
X3063240D01*
X2954020Y3042920D02*
X2973619Y3062519D01*
X2954020Y2991399D02*
Y3042920D01*
X2606401Y3002641D02*
X2608580Y3004820D01*
X2604221Y2887980D02*
X2606401Y2890159D01*
X2603990Y2887749D02*
X2604221Y2887980D01*
X2603759Y2748239D02*
X2603990Y2748470D01*
X2501899Y1372321D02*
X2507700Y1366520D01*
X2694219Y2887980D02*
X2709019Y2873180D01*
Y2847722D02*
X2753761Y2802979D01*
X2709019Y2847722D02*
Y2873180D01*
X2753761Y2748239D02*
Y2802979D01*
X2169800Y1409060D02*
X2232660Y1346200D01*
X2169800Y1409060D02*
Y1514641D01*
X1958479Y1297804D02*
X1958618Y1297943D01*
X2679540Y1462159D02*
X2679700Y1461999D01*
X2079350Y1298851D02*
X2080259Y1299759D01*
X1958618Y1297943D02*
X1959526Y1298851D01*
X321381Y4284980D02*
X341701Y4305300D01*
D55*
X6374002Y4655820D02*
X6748780D01*
X6246821Y4528639D02*
X6368921Y4650739D01*
X6051914Y4282440D02*
X6084934Y4315460D01*
X6217063D01*
X6246821Y4345218D01*
Y4528639D01*
X5558920Y4227700D02*
Y4650739D01*
Y4227700D02*
X5613400Y4173220D01*
D56*
X6472056Y713187D02*
X6535420Y649823D01*
Y553439D02*
Y649823D01*
X1304242Y2467714D02*
X1322000Y2449956D01*
X898144D02*
X915902Y2467714D01*
X1304242D01*
X1322000Y2381743D02*
Y2449956D01*
X898144Y2442344D02*
Y2449956D01*
X644964Y2466739D02*
X647493Y2469268D01*
X898144Y2376982D02*
Y2442344D01*
X613801Y2460102D02*
X620438Y2466739D01*
X871220Y2469268D02*
X898144Y2442344D01*
X647493Y2469268D02*
X871220D01*
X620438Y2466739D02*
X644964D01*
X898144Y2564002D02*
X915902Y2546244D01*
X1322000Y2381743D02*
X1336843Y2366900D01*
X898144Y2564002D02*
Y2636976D01*
X1336843Y2611902D02*
Y2636902D01*
X1271184Y2546244D02*
X1336843Y2611902D01*
X915902Y2546244D02*
X1271184D01*
X868048Y2549837D02*
X885806Y2567595D01*
X618538Y2549837D02*
X868048D01*
X613801Y2545100D02*
X618538Y2549837D01*
X1436842Y2631017D02*
Y2641901D01*
X1640244Y2478545D02*
X1641140Y2479442D01*
X1436842Y2366900D02*
Y2379318D01*
X1576845Y2478545D02*
X1640244D01*
X1629872Y2529439D02*
X1641140D01*
X1575396Y2531784D02*
X1627527D01*
X1629872Y2529439D01*
X1491006Y2616174D02*
X1575396Y2531784D01*
X1436842Y2631017D02*
X1451685Y2616174D01*
Y2394161D02*
X1492461D01*
X1436842Y2379318D02*
X1451685Y2394161D01*
Y2616174D02*
X1491006D01*
X1492461Y2394161D02*
X1576845Y2478545D01*
X754141Y2629860D02*
X754380Y2629621D01*
X613801Y2630099D02*
X614040Y2629860D01*
X607164Y2466739D02*
X613801Y2460102D01*
X560774Y2466739D02*
X607164D01*
X482412Y2545100D02*
X560774Y2466739D01*
X478800Y2545100D02*
X482412D01*
D57*
X1351599Y1143401D02*
X1352000Y1143803D01*
X662939Y1013461D02*
X662940Y1013460D01*
X949052Y1126843D02*
X952504Y1130295D01*
X949052Y1006752D02*
Y1126843D01*
X945600Y1003300D02*
X949052Y1006752D01*
X473653Y2369951D02*
X478800Y2375098D01*
X464536Y2369951D02*
X473653D01*
D58*
X1592294Y1143803D02*
X1592299Y1143798D01*
X1440180Y1141980D02*
X1442002Y1143803D01*
X1169149Y546031D02*
X1169899Y545282D01*
D59*
X3799840Y448122D02*
D03*
X4307840D02*
D03*
X5323840D02*
D03*
X5069840D02*
D03*
X4815840D02*
D03*
X4561840D02*
D03*
X4053840D02*
D03*
X5577840Y452120D02*
D03*
Y2738120D02*
D03*
X4053840D02*
D03*
X4307840D02*
D03*
X4561840D02*
D03*
X4815840D02*
D03*
X5069840D02*
D03*
X5323840D02*
D03*
D60*
X3799840D02*
D03*
D61*
X613801Y2800101D02*
D03*
X478800D02*
D03*
X613801Y2205101D02*
D03*
X478800D02*
D03*
X613801Y2715103D02*
D03*
Y2290100D02*
D03*
X478800D02*
D03*
Y2715103D02*
D03*
X613801Y2545100D02*
D03*
Y2460102D02*
D03*
Y2375098D02*
D03*
X478800D02*
D03*
Y2460102D02*
D03*
Y2545100D02*
D03*
Y2630099D02*
D03*
X613801D02*
D03*
D62*
X515803Y2935102D02*
D03*
Y2070100D02*
D03*
D63*
X177800Y2935102D02*
D03*
Y2070100D02*
D03*
D64*
X535940Y728980D02*
D03*
X464820Y378460D02*
D03*
D65*
X281940Y728980D02*
D03*
X210820Y378460D02*
D03*
D66*
X3012440Y1536700D02*
D03*
X2341880Y3068320D02*
D03*
X2197100Y2814320D02*
D03*
X383540Y144780D02*
D03*
X2661920Y762000D02*
D03*
X695960Y477520D02*
D03*
X754380Y825500D02*
D03*
X1056640Y83820D02*
D03*
X1910080Y731520D02*
D03*
X2098040Y759460D02*
D03*
X2118846Y602429D02*
D03*
X1866900Y589280D02*
D03*
X3553460Y657860D02*
D03*
X2228850Y760600D02*
D03*
X2600960Y556260D02*
D03*
X2395220Y567120D02*
D03*
X1963420Y1076960D02*
D03*
X2435860Y1549400D02*
D03*
X2362200Y1452880D02*
D03*
X2780840Y1198880D02*
D03*
X2910840Y1196340D02*
D03*
X1584960Y2128520D02*
D03*
X6004560Y365760D02*
D03*
X5958840Y713740D02*
D03*
X5448300Y2067560D02*
D03*
X5913120Y3822700D02*
D03*
X3721100Y3180080D02*
D03*
X5549900Y967740D02*
D03*
X3322320Y3190240D02*
D03*
X4549140Y2230120D02*
D03*
X3942080Y2443480D02*
D03*
X3944620Y2966720D02*
D03*
X5318760Y1592580D02*
D03*
X6400800Y3726180D02*
D03*
X6131560Y4140200D02*
D03*
X5745480Y3172460D02*
D03*
X4998720Y3808380D02*
D03*
X4427220Y3078480D02*
D03*
X3060700Y3159760D02*
D03*
X3233420Y2923540D02*
D03*
X2608580Y3004820D02*
D03*
X1638300Y4305300D02*
D03*
X586300Y3558100D02*
D03*
X2729449Y1702146D02*
D03*
X2354047Y2389607D02*
D03*
X5328920Y1780540D02*
D03*
X5748507Y3766820D02*
D03*
X4041140Y3530600D02*
D03*
X3231515Y3321685D02*
D03*
X5565140Y3258820D02*
D03*
X3324860Y2880360D02*
D03*
X3870960Y1498600D02*
D03*
X3863340Y1775460D02*
D03*
X4023360Y2354580D02*
D03*
X4371340Y2209800D02*
D03*
X3243581Y2760838D02*
D03*
X1219200Y2880360D02*
D03*
X2964348Y3132996D02*
D03*
X1963420Y2931160D02*
D03*
X2362200Y1874520D02*
D03*
X1330960Y2981960D02*
D03*
X2377440Y3181000D02*
D03*
X2791460D02*
D03*
X1882140Y3070860D02*
D03*
X1468120Y2128520D02*
D03*
X1201420Y2125980D02*
D03*
X6855460Y4150360D02*
D03*
X5011420Y4810760D02*
D03*
X4899660Y3784600D02*
D03*
X5740400Y3464560D02*
D03*
X5687060Y3273140D02*
D03*
X3721100Y2440940D02*
D03*
X2832100Y4800600D02*
D03*
X2283460Y3779520D02*
D03*
X3401060Y739140D02*
D03*
X2570480Y176460D02*
D03*
X1544320Y2692400D02*
D03*
X2223370Y2390140D02*
D03*
X1910080Y1658620D02*
D03*
X1465580Y1757680D02*
D03*
X629920Y3380740D02*
D03*
X1427480Y1399540D02*
D03*
X1216660Y101600D02*
D03*
X662940Y1013460D02*
D03*
X1750060Y2080260D02*
D03*
X2885440Y932180D02*
D03*
X4054540Y3360420D02*
D03*
X3314700Y3014980D02*
D03*
X3126740Y1665320D02*
D03*
X2522220Y1845232D02*
D03*
X3954780Y2203100D02*
D03*
X3517900Y3647440D02*
D03*
X3909060Y3357880D02*
D03*
X840740Y3383280D02*
D03*
X2298700Y2306320D02*
D03*
X2580640Y1701800D02*
D03*
X1165860Y944880D02*
D03*
X1153160Y835660D02*
D03*
X2413000Y176460D02*
D03*
X1397000Y1043940D02*
D03*
X1676400Y78740D02*
D03*
X1036769Y3145006D02*
D03*
X6189980Y3820160D02*
D03*
X5092700Y4691380D02*
D03*
X3503147Y2397760D02*
D03*
X6042660Y4282440D02*
D03*
X4630420Y3738880D02*
D03*
X4897120Y3627120D02*
D03*
X4362100Y3616960D02*
D03*
X195580Y1620520D02*
D03*
X1925320Y180340D02*
D03*
X2303780Y341521D02*
D03*
X1481307Y170990D02*
D03*
X1160508Y206012D02*
D03*
X5234940Y4569460D02*
D03*
X1388240Y497840D02*
D03*
X2392680Y421640D02*
D03*
X2212340Y269262D02*
D03*
X1430020Y1930400D02*
D03*
X5078380Y4439920D02*
D03*
X3415975Y2754310D02*
D03*
X3624580Y2153000D02*
D03*
X3121660Y1778000D02*
D03*
X3045460Y1845232D02*
D03*
X3660140Y1440180D02*
D03*
X3233101Y2659699D02*
D03*
X3502660Y2517140D02*
D03*
X3561080Y1916560D02*
D03*
X2273300Y1940560D02*
D03*
X2016760Y1724660D02*
D03*
X2807540Y1638485D02*
D03*
X6292412Y3906520D02*
D03*
X5184140Y3164840D02*
D03*
X1577340Y1597660D02*
D03*
X568960Y1838960D02*
D03*
X607060Y1524000D02*
D03*
X800100Y2885440D02*
D03*
X1445260Y1285240D02*
D03*
X2052320Y3235960D02*
D03*
X1958340Y1181100D02*
D03*
X2232660Y1346200D02*
D03*
X797560Y3098800D02*
D03*
D67*
X2778760Y2648240D02*
D03*
X2998760D02*
D03*
X2888762D02*
D03*
Y2538242D02*
D03*
X2668763D02*
D03*
X2778760D02*
D03*
X2668763Y2648240D02*
D03*
X2558760Y2538242D02*
D03*
Y2648240D02*
D03*
X2998760Y2428240D02*
D03*
Y2538242D02*
D03*
X2888762Y2318243D02*
D03*
Y2428240D02*
D03*
X2778760Y2318243D02*
D03*
X2998760Y2208240D02*
D03*
Y2318243D02*
D03*
X2778760Y2208240D02*
D03*
X2888762D02*
D03*
X2668763Y2428240D02*
D03*
X2558760D02*
D03*
X2778760D02*
D03*
X2668763Y2318243D02*
D03*
Y2208240D02*
D03*
X2558760Y2318243D02*
D03*
Y2208240D02*
D03*
X1873641Y2559441D02*
D03*
X1763639D02*
D03*
X1873641Y2449439D02*
D03*
X1763639D02*
D03*
%TF.MD5,486f9a0e0ef69bb174ea07807dffac49*%
M02*
