%TF.GenerationSoftware,Altium Limited,Altium Designer,26.5.0 (11)*%
G04 Layer_Physical_Order=2*
G04 Layer_Color=36540*
G04 Board_Origin=23340945|23900000*
%FSLAX45Y45*%
%MOMM*%
%TF.SameCoordinates,B825AC53-504F-4258-B26F-6CDAE949C360*%
%TF.FilePolarity,Positive*%
%TF.FileFunction,Copper,L2,Inr,Signal*%
%TF.Part,Single*%
G01*
G75*
%TA.AperFunction,ComponentPad*%
%ADD59C,1.65000*%
%ADD61C,0.65000*%
%ADD62O,2.40000X0.90000*%
%ADD63O,1.70000X0.90000*%
%ADD65C,1.95000*%
%TA.AperFunction,ViaPad*%
%ADD66C,0.85000*%
%ADD67C,0.50000*%
G36*
X6999661Y14486D02*
X6984844Y-513D01*
X0Y0D01*
Y4985146D01*
X419Y4999973D01*
X6999661D01*
Y14486D01*
D02*
G37*
%LPC*%
G36*
X5024120Y4877652D02*
Y4823460D01*
X5078312D01*
X5074693Y4836968D01*
X5065754Y4852452D01*
X5053112Y4865094D01*
X5037628Y4874033D01*
X5024120Y4877652D01*
D02*
G37*
G36*
X4998720D02*
X4985212Y4874033D01*
X4969728Y4865094D01*
X4957086Y4852452D01*
X4948147Y4836968D01*
X4944528Y4823460D01*
X4998720D01*
Y4877652D01*
D02*
G37*
G36*
X2844800Y4867492D02*
Y4813300D01*
X2898992D01*
X2895373Y4826808D01*
X2886434Y4842292D01*
X2873792Y4854934D01*
X2858308Y4863873D01*
X2844800Y4867492D01*
D02*
G37*
G36*
X2819400D02*
X2805892Y4863873D01*
X2790408Y4854934D01*
X2777766Y4842292D01*
X2768827Y4826808D01*
X2765208Y4813300D01*
X2819400D01*
Y4867492D01*
D02*
G37*
G36*
X5078312Y4798060D02*
X5024120D01*
Y4743868D01*
X5037628Y4747487D01*
X5053112Y4756426D01*
X5065754Y4769068D01*
X5074693Y4784552D01*
X5078312Y4798060D01*
D02*
G37*
G36*
X4998720D02*
X4944528D01*
X4948147Y4784552D01*
X4957086Y4769068D01*
X4969728Y4756426D01*
X4985212Y4747487D01*
X4998720Y4743868D01*
Y4798060D01*
D02*
G37*
G36*
X2898992Y4787900D02*
X2844800D01*
Y4733708D01*
X2858308Y4737327D01*
X2873792Y4746266D01*
X2886434Y4758908D01*
X2895373Y4774392D01*
X2898992Y4787900D01*
D02*
G37*
G36*
X2819400D02*
X2765208D01*
X2768827Y4774392D01*
X2777766Y4758908D01*
X2790408Y4746266D01*
X2805892Y4737327D01*
X2819400Y4733708D01*
Y4787900D01*
D02*
G37*
G36*
X5104137Y4748880D02*
X5081263D01*
X5060129Y4740126D01*
X5043954Y4723951D01*
X5035200Y4702817D01*
Y4679943D01*
X5043954Y4658809D01*
X5060129Y4642634D01*
X5081263Y4633880D01*
X5104137D01*
X5125271Y4642634D01*
X5141446Y4658809D01*
X5150200Y4679943D01*
Y4702817D01*
X5141446Y4723951D01*
X5125271Y4740126D01*
X5104137Y4748880D01*
D02*
G37*
G36*
X5246377Y4626960D02*
X5223503D01*
X5202369Y4618206D01*
X5186194Y4602031D01*
X5177440Y4580897D01*
Y4558023D01*
X5186194Y4536889D01*
X5202369Y4520714D01*
X5223503Y4511960D01*
X5246377D01*
X5267511Y4520714D01*
X5283686Y4536889D01*
X5292440Y4558023D01*
Y4580897D01*
X5283686Y4602031D01*
X5267511Y4618206D01*
X5246377Y4626960D01*
D02*
G37*
G36*
X5089817Y4497420D02*
X5066943D01*
X5045809Y4488666D01*
X5029634Y4472491D01*
X5020880Y4451357D01*
Y4428483D01*
X5029634Y4407349D01*
X5045809Y4391174D01*
X5066943Y4382420D01*
X5089817D01*
X5110951Y4391174D01*
X5127126Y4407349D01*
X5135880Y4428483D01*
Y4451357D01*
X5127126Y4472491D01*
X5110951Y4488666D01*
X5089817Y4497420D01*
D02*
G37*
G36*
X1649737Y4362800D02*
X1626863D01*
X1605729Y4354046D01*
X1589554Y4337871D01*
X1580800Y4316737D01*
Y4293863D01*
X1589554Y4272729D01*
X1605729Y4256554D01*
X1626863Y4247800D01*
X1649737D01*
X1670871Y4256554D01*
X1687046Y4272729D01*
X1695800Y4293863D01*
Y4316737D01*
X1687046Y4337871D01*
X1670871Y4354046D01*
X1649737Y4362800D01*
D02*
G37*
G36*
X6054097Y4339940D02*
X6031223D01*
X6010089Y4331186D01*
X5993914Y4315011D01*
X5985160Y4293877D01*
Y4271003D01*
X5993914Y4249869D01*
X6010089Y4233694D01*
X6031223Y4224940D01*
X6054097D01*
X6075231Y4233694D01*
X6091406Y4249869D01*
X6100160Y4271003D01*
Y4293877D01*
X6091406Y4315011D01*
X6075231Y4331186D01*
X6054097Y4339940D01*
D02*
G37*
G36*
X6868160Y4217252D02*
Y4163060D01*
X6922352D01*
X6918733Y4176568D01*
X6909794Y4192052D01*
X6897152Y4204694D01*
X6881668Y4213633D01*
X6868160Y4217252D01*
D02*
G37*
G36*
X6842760D02*
X6829252Y4213633D01*
X6813768Y4204694D01*
X6801126Y4192052D01*
X6792187Y4176568D01*
X6788568Y4163060D01*
X6842760D01*
Y4217252D01*
D02*
G37*
G36*
X6922352Y4137660D02*
X6868160D01*
Y4083468D01*
X6881668Y4087087D01*
X6897152Y4096026D01*
X6909794Y4108668D01*
X6918733Y4124152D01*
X6922352Y4137660D01*
D02*
G37*
G36*
X6842760D02*
X6788568D01*
X6792187Y4124152D01*
X6801126Y4108668D01*
X6813768Y4096026D01*
X6829252Y4087087D01*
X6842760Y4083468D01*
Y4137660D01*
D02*
G37*
G36*
X6142997Y4197700D02*
X6120123D01*
X6098989Y4188946D01*
X6082814Y4172771D01*
X6074060Y4151637D01*
Y4128763D01*
X6082814Y4107629D01*
X6098989Y4091454D01*
X6120123Y4082700D01*
X6142997D01*
X6164131Y4091454D01*
X6180306Y4107629D01*
X6189060Y4128763D01*
Y4151637D01*
X6180306Y4172771D01*
X6164131Y4188946D01*
X6142997Y4197700D01*
D02*
G37*
G36*
X6303849Y3964020D02*
X6280974D01*
X6259841Y3955266D01*
X6243666Y3939091D01*
X6234912Y3917957D01*
Y3895083D01*
X6243666Y3873949D01*
X6259841Y3857774D01*
X6280974Y3849020D01*
X6303849D01*
X6324983Y3857774D01*
X6341158Y3873949D01*
X6349912Y3895083D01*
Y3917957D01*
X6341158Y3939091D01*
X6324983Y3955266D01*
X6303849Y3964020D01*
D02*
G37*
G36*
X5010157Y3865880D02*
X4987283D01*
X4966149Y3857126D01*
X4949974Y3840951D01*
X4934533Y3842870D01*
X4925868Y3847873D01*
X4912360Y3851492D01*
Y3784600D01*
Y3717708D01*
X4925868Y3721327D01*
X4941352Y3730266D01*
X4953994Y3742908D01*
X4957144Y3748364D01*
X4964801Y3757947D01*
X4977532Y3754919D01*
X4987283Y3750880D01*
X5010157D01*
X5031291Y3759634D01*
X5047466Y3775809D01*
X5056220Y3796943D01*
Y3819817D01*
X5047466Y3840951D01*
X5031291Y3857126D01*
X5010157Y3865880D01*
D02*
G37*
G36*
X4886960Y3851492D02*
X4873452Y3847873D01*
X4857968Y3838934D01*
X4845326Y3826292D01*
X4836387Y3810808D01*
X4832768Y3797300D01*
X4886960D01*
Y3851492D01*
D02*
G37*
G36*
X2296160Y3846412D02*
Y3792220D01*
X2350352D01*
X2346733Y3805728D01*
X2337794Y3821212D01*
X2325152Y3833854D01*
X2309668Y3842793D01*
X2296160Y3846412D01*
D02*
G37*
G36*
X2270760D02*
X2257252Y3842793D01*
X2241768Y3833854D01*
X2229126Y3821212D01*
X2220187Y3805728D01*
X2216568Y3792220D01*
X2270760D01*
Y3846412D01*
D02*
G37*
G36*
X5924557Y3880200D02*
X5901683D01*
X5880549Y3871446D01*
X5864374Y3855271D01*
X5855620Y3834137D01*
Y3811263D01*
X5864374Y3790129D01*
X5880549Y3773954D01*
X5901683Y3765200D01*
X5924557D01*
X5945691Y3773954D01*
X5961866Y3790129D01*
X5970620Y3811263D01*
Y3834137D01*
X5961866Y3855271D01*
X5945691Y3871446D01*
X5924557Y3880200D01*
D02*
G37*
G36*
X6201417Y3877660D02*
X6178543D01*
X6157409Y3868906D01*
X6141234Y3852731D01*
X6132480Y3831597D01*
Y3808723D01*
X6141234Y3787589D01*
X6157409Y3771414D01*
X6178543Y3762660D01*
X6201417D01*
X6222551Y3771414D01*
X6238726Y3787589D01*
X6247480Y3808723D01*
Y3831597D01*
X6238726Y3852731D01*
X6222551Y3868906D01*
X6201417Y3877660D01*
D02*
G37*
G36*
X4886960Y3771900D02*
X4832768D01*
X4836387Y3758392D01*
X4845326Y3742908D01*
X4857968Y3730266D01*
X4873452Y3721327D01*
X4886960Y3717708D01*
Y3771900D01*
D02*
G37*
G36*
X2350352Y3766820D02*
X2296160D01*
Y3712628D01*
X2309668Y3716247D01*
X2325152Y3725186D01*
X2337794Y3737828D01*
X2346733Y3753312D01*
X2350352Y3766820D01*
D02*
G37*
G36*
X2270760D02*
X2216568D01*
X2220187Y3753312D01*
X2229126Y3737828D01*
X2241768Y3725186D01*
X2257252Y3716247D01*
X2270760Y3712628D01*
Y3766820D01*
D02*
G37*
G36*
X5759944Y3824320D02*
X5737070D01*
X5715936Y3815566D01*
X5699761Y3799391D01*
X5691007Y3778257D01*
Y3755383D01*
X5699761Y3734249D01*
X5715936Y3718074D01*
X5737070Y3709320D01*
X5759944D01*
X5781078Y3718074D01*
X5797253Y3734249D01*
X5806007Y3755383D01*
Y3778257D01*
X5797253Y3799391D01*
X5781078Y3815566D01*
X5759944Y3824320D01*
D02*
G37*
G36*
X4641857Y3796380D02*
X4618983D01*
X4597849Y3787626D01*
X4581674Y3771451D01*
X4572920Y3750317D01*
Y3727443D01*
X4581674Y3706309D01*
X4597849Y3690134D01*
X4618983Y3681380D01*
X4641857D01*
X4662991Y3690134D01*
X4679166Y3706309D01*
X4687920Y3727443D01*
Y3750317D01*
X4679166Y3771451D01*
X4662991Y3787626D01*
X4641857Y3796380D01*
D02*
G37*
G36*
X6412237Y3783680D02*
X6389363D01*
X6368229Y3774926D01*
X6352054Y3758751D01*
X6343300Y3737617D01*
Y3714743D01*
X6352054Y3693609D01*
X6368229Y3677434D01*
X6389363Y3668680D01*
X6412237D01*
X6433371Y3677434D01*
X6449546Y3693609D01*
X6458300Y3714743D01*
Y3737617D01*
X6449546Y3758751D01*
X6433371Y3774926D01*
X6412237Y3783680D01*
D02*
G37*
G36*
X3529337Y3704940D02*
X3506463D01*
X3485329Y3696186D01*
X3469154Y3680011D01*
X3460400Y3658877D01*
Y3636003D01*
X3469154Y3614869D01*
X3485329Y3598694D01*
X3506463Y3589940D01*
X3529337D01*
X3550471Y3598694D01*
X3566646Y3614869D01*
X3575400Y3636003D01*
Y3658877D01*
X3566646Y3680011D01*
X3550471Y3696186D01*
X3529337Y3704940D01*
D02*
G37*
G36*
X4908557Y3684620D02*
X4885683D01*
X4864549Y3675866D01*
X4848374Y3659691D01*
X4839620Y3638557D01*
Y3615683D01*
X4848374Y3594549D01*
X4864549Y3578374D01*
X4885683Y3569620D01*
X4908557D01*
X4929691Y3578374D01*
X4945866Y3594549D01*
X4954620Y3615683D01*
Y3638557D01*
X4945866Y3659691D01*
X4929691Y3675866D01*
X4908557Y3684620D01*
D02*
G37*
G36*
X4373537Y3674460D02*
X4350663D01*
X4329529Y3665706D01*
X4313354Y3649531D01*
X4304600Y3628397D01*
Y3605523D01*
X4313354Y3584389D01*
X4329529Y3568214D01*
X4350663Y3559460D01*
X4373537D01*
X4394671Y3568214D01*
X4410846Y3584389D01*
X4419600Y3605523D01*
Y3628397D01*
X4410846Y3649531D01*
X4394671Y3665706D01*
X4373537Y3674460D01*
D02*
G37*
G36*
X2524760Y4427220D02*
Y3525520D01*
X2532380Y3517900D01*
X3129280D01*
Y4417060D01*
X3136900Y4424680D01*
X2524760Y4427220D01*
D02*
G37*
G36*
X597737Y3615600D02*
X574863D01*
X553729Y3606846D01*
X537554Y3590671D01*
X528800Y3569537D01*
Y3546663D01*
X537554Y3525529D01*
X553729Y3509354D01*
X574863Y3500600D01*
X597737D01*
X618871Y3509354D01*
X635046Y3525529D01*
X643800Y3546663D01*
Y3569537D01*
X635046Y3590671D01*
X618871Y3606846D01*
X597737Y3615600D01*
D02*
G37*
G36*
X5753100Y3531452D02*
Y3477260D01*
X5807292D01*
X5803673Y3490768D01*
X5794734Y3506252D01*
X5782092Y3518894D01*
X5766608Y3527833D01*
X5753100Y3531452D01*
D02*
G37*
G36*
X5727700D02*
X5714192Y3527833D01*
X5698708Y3518894D01*
X5686066Y3506252D01*
X5677127Y3490768D01*
X5673508Y3477260D01*
X5727700D01*
Y3531452D01*
D02*
G37*
G36*
X4052577Y3588100D02*
X4029703D01*
X4008569Y3579346D01*
X3992394Y3563171D01*
X3983640Y3542037D01*
Y3519163D01*
X3992394Y3498029D01*
X4008569Y3481854D01*
X4029703Y3473100D01*
X4052577D01*
X4073711Y3481854D01*
X4089886Y3498029D01*
X4098640Y3519163D01*
Y3542037D01*
X4089886Y3563171D01*
X4073711Y3579346D01*
X4052577Y3588100D01*
D02*
G37*
G36*
X5807292Y3451860D02*
X5753100D01*
Y3397668D01*
X5766608Y3401287D01*
X5782092Y3410226D01*
X5794734Y3422868D01*
X5803673Y3438352D01*
X5807292Y3451860D01*
D02*
G37*
G36*
X5727700D02*
X5673508D01*
X5677127Y3438352D01*
X5686066Y3422868D01*
X5698708Y3410226D01*
X5714192Y3401287D01*
X5727700Y3397668D01*
Y3451860D01*
D02*
G37*
G36*
X642620Y3447632D02*
Y3393440D01*
X696812D01*
X693193Y3406948D01*
X684254Y3422432D01*
X671612Y3435074D01*
X656128Y3444013D01*
X642620Y3447632D01*
D02*
G37*
G36*
X617220D02*
X603712Y3444013D01*
X588228Y3435074D01*
X575586Y3422432D01*
X566647Y3406948D01*
X563028Y3393440D01*
X617220D01*
Y3447632D01*
D02*
G37*
G36*
X852177Y3440780D02*
X829303D01*
X808169Y3432026D01*
X791994Y3415851D01*
X783240Y3394717D01*
Y3371843D01*
X791994Y3350709D01*
X808169Y3334534D01*
X829303Y3325780D01*
X852177D01*
X873311Y3334534D01*
X889486Y3350709D01*
X898240Y3371843D01*
Y3394717D01*
X889486Y3415851D01*
X873311Y3432026D01*
X852177Y3440780D01*
D02*
G37*
G36*
X696812Y3368040D02*
X642620D01*
Y3313848D01*
X656128Y3317467D01*
X671612Y3326406D01*
X684254Y3339048D01*
X693193Y3354532D01*
X696812Y3368040D01*
D02*
G37*
G36*
X617220D02*
X563028D01*
X566647Y3354532D01*
X575586Y3339048D01*
X588228Y3326406D01*
X603712Y3317467D01*
X617220Y3313848D01*
Y3368040D01*
D02*
G37*
G36*
X4065977Y3417920D02*
X4043103D01*
X4021969Y3409166D01*
X4005794Y3392991D01*
X3997040Y3371857D01*
Y3348983D01*
X4005794Y3327849D01*
X4021969Y3311674D01*
X4043103Y3302920D01*
X4065977D01*
X4087111Y3311674D01*
X4103286Y3327849D01*
X4112040Y3348983D01*
Y3371857D01*
X4103286Y3392991D01*
X4087111Y3409166D01*
X4065977Y3417920D01*
D02*
G37*
G36*
X3920497Y3415380D02*
X3897623D01*
X3876489Y3406626D01*
X3860314Y3390451D01*
X3851560Y3369317D01*
Y3346443D01*
X3860314Y3325309D01*
X3876489Y3309134D01*
X3897623Y3300380D01*
X3920497D01*
X3941631Y3309134D01*
X3957806Y3325309D01*
X3966560Y3346443D01*
Y3369317D01*
X3957806Y3390451D01*
X3941631Y3406626D01*
X3920497Y3415380D01*
D02*
G37*
G36*
X5674360Y3340032D02*
X5660852Y3336413D01*
X5645368Y3327474D01*
X5632726Y3314832D01*
X5624837Y3301167D01*
X5617268Y3298601D01*
X5607766Y3297512D01*
X5597711Y3307566D01*
X5576577Y3316320D01*
X5553703D01*
X5532569Y3307566D01*
X5516394Y3291391D01*
X5507640Y3270257D01*
Y3247383D01*
X5516394Y3226249D01*
X5532569Y3210074D01*
X5553703Y3201320D01*
X5576577D01*
X5597711Y3210074D01*
X5613886Y3226249D01*
X5615775Y3230809D01*
X5632464Y3231903D01*
X5632726Y3231448D01*
X5645368Y3218806D01*
X5660852Y3209867D01*
X5678121Y3205240D01*
X5680584D01*
X5690607Y3190240D01*
X5687980Y3183897D01*
Y3161023D01*
X5696734Y3139889D01*
X5712909Y3123714D01*
X5734043Y3114960D01*
X5756917D01*
X5778051Y3123714D01*
X5794226Y3139889D01*
X5802980Y3161023D01*
Y3183897D01*
X5794226Y3205031D01*
X5778051Y3221206D01*
X5757674Y3229647D01*
X5756799Y3230190D01*
X5749195Y3244960D01*
X5750333Y3246932D01*
X5753952Y3260440D01*
X5687060D01*
Y3273140D01*
X5674360D01*
Y3340032D01*
D02*
G37*
G36*
X5699760D02*
Y3285840D01*
X5753952D01*
X5750333Y3299348D01*
X5741394Y3314832D01*
X5728752Y3327474D01*
X5713268Y3336413D01*
X5699760Y3340032D01*
D02*
G37*
G36*
X3242952Y3379185D02*
X3220077D01*
X3198944Y3370431D01*
X3182769Y3354256D01*
X3174015Y3333122D01*
Y3310248D01*
X3182769Y3289114D01*
X3198944Y3272939D01*
X3220077Y3264185D01*
X3242952D01*
X3264086Y3272939D01*
X3280261Y3289114D01*
X3289015Y3310248D01*
Y3333122D01*
X3280261Y3354256D01*
X3264086Y3370431D01*
X3242952Y3379185D01*
D02*
G37*
G36*
X3072137Y3217260D02*
X3049263D01*
X3028129Y3208506D01*
X3011954Y3192331D01*
X3008524Y3184050D01*
X2996919Y3181742D01*
X2975786Y3190496D01*
X2952911D01*
X2931777Y3181742D01*
X2915602Y3165567D01*
X2906848Y3144433D01*
Y3121558D01*
X2915602Y3100424D01*
X2931777Y3084249D01*
X2952911Y3075495D01*
X2975786D01*
X2996919Y3084249D01*
X3013094Y3100424D01*
X3016524Y3108705D01*
X3028129Y3111014D01*
X3049263Y3102260D01*
X3072137D01*
X3093271Y3111014D01*
X3109446Y3127189D01*
X3118200Y3148323D01*
Y3171197D01*
X3109446Y3192331D01*
X3093271Y3208506D01*
X3072137Y3217260D01*
D02*
G37*
G36*
X2063757Y3293460D02*
X2040883D01*
X2019749Y3284706D01*
X2003574Y3268531D01*
X1994820Y3247397D01*
Y3224523D01*
X2003574Y3203389D01*
X2019749Y3187214D01*
X2040883Y3178460D01*
X2063757D01*
X2084891Y3187214D01*
X2101066Y3203389D01*
X2109820Y3224523D01*
Y3247397D01*
X2101066Y3268531D01*
X2084891Y3284706D01*
X2063757Y3293460D01*
D02*
G37*
G36*
X3333757Y3247740D02*
X3310883D01*
X3289749Y3238986D01*
X3273574Y3222811D01*
X3264820Y3201677D01*
Y3178803D01*
X3273574Y3157669D01*
X3289749Y3141494D01*
X3310883Y3132740D01*
X3333757D01*
X3354891Y3141494D01*
X3371066Y3157669D01*
X3379820Y3178803D01*
Y3201677D01*
X3371066Y3222811D01*
X3354891Y3238986D01*
X3333757Y3247740D01*
D02*
G37*
G36*
X2802897Y3238500D02*
X2780023D01*
X2758889Y3229746D01*
X2742714Y3213571D01*
X2733960Y3192437D01*
Y3169563D01*
X2742714Y3148429D01*
X2758889Y3132254D01*
X2780023Y3123500D01*
X2802897D01*
X2824031Y3132254D01*
X2840206Y3148429D01*
X2848960Y3169563D01*
Y3192437D01*
X2840206Y3213571D01*
X2824031Y3229746D01*
X2802897Y3238500D01*
D02*
G37*
G36*
X3732537Y3237580D02*
X3709663D01*
X3688529Y3228826D01*
X3672354Y3212651D01*
X3663600Y3191517D01*
Y3168643D01*
X3672354Y3147509D01*
X3688529Y3131334D01*
X3709663Y3122580D01*
X3732537D01*
X3753671Y3131334D01*
X3769846Y3147509D01*
X3778600Y3168643D01*
Y3191517D01*
X3769846Y3212651D01*
X3753671Y3228826D01*
X3732537Y3237580D01*
D02*
G37*
G36*
X5195577Y3222340D02*
X5172703D01*
X5151569Y3213586D01*
X5135394Y3197411D01*
X5126640Y3176277D01*
Y3153403D01*
X5135394Y3132269D01*
X5151569Y3116094D01*
X5172703Y3107340D01*
X5195577D01*
X5216711Y3116094D01*
X5232886Y3132269D01*
X5241640Y3153403D01*
Y3176277D01*
X5232886Y3197411D01*
X5216711Y3213586D01*
X5195577Y3222340D01*
D02*
G37*
G36*
X1048206Y3202506D02*
X1025331D01*
X1004198Y3193752D01*
X988023Y3177577D01*
X979269Y3156444D01*
Y3133569D01*
X988023Y3112435D01*
X1004198Y3096260D01*
X1025331Y3087506D01*
X1048206D01*
X1069340Y3096260D01*
X1085515Y3112435D01*
X1094269Y3133569D01*
Y3156444D01*
X1085515Y3177577D01*
X1069340Y3193752D01*
X1048206Y3202506D01*
D02*
G37*
G36*
X808997Y3156300D02*
X786123D01*
X764989Y3147546D01*
X748814Y3131371D01*
X740060Y3110237D01*
Y3087363D01*
X748814Y3066229D01*
X764989Y3050054D01*
X786123Y3041300D01*
X808997D01*
X830131Y3050054D01*
X846306Y3066229D01*
X855060Y3087363D01*
Y3110237D01*
X846306Y3131371D01*
X830131Y3147546D01*
X808997Y3156300D01*
D02*
G37*
G36*
X4438657Y3135980D02*
X4415783D01*
X4394649Y3127226D01*
X4378474Y3111051D01*
X4369720Y3089917D01*
Y3067043D01*
X4378474Y3045909D01*
X4394649Y3029734D01*
X4415783Y3020980D01*
X4438657D01*
X4459791Y3029734D01*
X4475966Y3045909D01*
X4484720Y3067043D01*
Y3089917D01*
X4475966Y3111051D01*
X4459791Y3127226D01*
X4438657Y3135980D01*
D02*
G37*
G36*
X1893577Y3128360D02*
X1870703D01*
X1849569Y3119606D01*
X1833394Y3103431D01*
X1824640Y3082297D01*
Y3059423D01*
X1833394Y3038289D01*
X1849569Y3022114D01*
X1870703Y3013360D01*
X1893577D01*
X1914711Y3022114D01*
X1930886Y3038289D01*
X1939640Y3059423D01*
Y3082297D01*
X1930886Y3103431D01*
X1914711Y3119606D01*
X1893577Y3128360D01*
D02*
G37*
G36*
X2388877Y3238500D02*
X2366003D01*
X2344869Y3229746D01*
X2328694Y3213571D01*
X2319940Y3192437D01*
Y3169563D01*
X2328694Y3148429D01*
X2336303Y3140820D01*
X2330442Y3125820D01*
X2309309Y3117066D01*
X2293134Y3100891D01*
X2284380Y3079757D01*
Y3056883D01*
X2293134Y3035749D01*
X2309309Y3019574D01*
X2330443Y3010820D01*
X2353317D01*
X2374451Y3019574D01*
X2390626Y3035749D01*
X2399380Y3056883D01*
Y3079757D01*
X2390626Y3100891D01*
X2383017Y3108500D01*
X2388878Y3123500D01*
X2410011Y3132254D01*
X2426186Y3148429D01*
X2434940Y3169563D01*
Y3192437D01*
X2426186Y3213571D01*
X2410011Y3229746D01*
X2388877Y3238500D01*
D02*
G37*
G36*
X3326137Y3072480D02*
X3303263D01*
X3282129Y3063726D01*
X3265954Y3047551D01*
X3257200Y3026417D01*
Y3003543D01*
X3262890Y2989807D01*
X3251409Y2978326D01*
X3244857Y2981040D01*
X3221983D01*
X3200849Y2972286D01*
X3184674Y2956111D01*
X3175920Y2934977D01*
Y2912103D01*
X3184674Y2890969D01*
X3200849Y2874794D01*
X3221983Y2866040D01*
X3244857D01*
X3252360Y2869148D01*
X3267360Y2868922D01*
X3276114Y2847789D01*
X3292289Y2831614D01*
X3313423Y2822860D01*
X3336297D01*
X3357431Y2831614D01*
X3373606Y2847789D01*
X3382360Y2868923D01*
Y2891797D01*
X3373606Y2912931D01*
X3357431Y2929106D01*
X3336297Y2937860D01*
X3313423D01*
X3305920Y2934752D01*
X3290920Y2934978D01*
X3285230Y2948713D01*
X3296711Y2960194D01*
X3303263Y2957480D01*
X3326137D01*
X3347271Y2966234D01*
X3363446Y2982409D01*
X3372200Y3003543D01*
Y3026417D01*
X3363446Y3047551D01*
X3347271Y3063726D01*
X3326137Y3072480D01*
D02*
G37*
G36*
X590803Y3006110D02*
X528503D01*
Y2947802D01*
X660138D01*
X659391Y2953480D01*
X652297Y2970606D01*
X641013Y2985312D01*
X626307Y2996596D01*
X609181Y3003690D01*
X590803Y3006110D01*
D02*
G37*
G36*
X503103D02*
X440803D01*
X422425Y3003690D01*
X405299Y2996596D01*
X390593Y2985312D01*
X379309Y2970606D01*
X372215Y2953480D01*
X371467Y2947802D01*
X503103D01*
Y3006110D01*
D02*
G37*
G36*
X217800D02*
X190500D01*
Y2947802D01*
X287135D01*
X286388Y2953480D01*
X279294Y2970606D01*
X268010Y2985312D01*
X253304Y2996596D01*
X236178Y3003690D01*
X217800Y3006110D01*
D02*
G37*
G36*
X165100D02*
X137800D01*
X119422Y3003690D01*
X102296Y2996596D01*
X87590Y2985312D01*
X76306Y2970606D01*
X69212Y2953480D01*
X68465Y2947802D01*
X165100D01*
Y3006110D01*
D02*
G37*
G36*
X2620017Y3062320D02*
X2597143D01*
X2576009Y3053566D01*
X2559834Y3037391D01*
X2551080Y3016257D01*
Y2993383D01*
X2559834Y2972249D01*
X2576009Y2956074D01*
X2597143Y2947320D01*
X2620017D01*
X2641151Y2956074D01*
X2657326Y2972249D01*
X2666080Y2993383D01*
Y3016257D01*
X2657326Y3037391D01*
X2641151Y3053566D01*
X2620017Y3062320D01*
D02*
G37*
G36*
X1342397Y3039460D02*
X1319523D01*
X1298389Y3030706D01*
X1282214Y3014531D01*
X1273460Y2993397D01*
Y2970523D01*
X1282214Y2949389D01*
X1298389Y2933214D01*
X1319523Y2924460D01*
X1342397D01*
X1363531Y2933214D01*
X1379706Y2949389D01*
X1388460Y2970523D01*
Y2993397D01*
X1379706Y3014531D01*
X1363531Y3030706D01*
X1342397Y3039460D01*
D02*
G37*
G36*
X3956057Y3024220D02*
X3933183D01*
X3912049Y3015466D01*
X3895874Y2999291D01*
X3887120Y2978157D01*
Y2955283D01*
X3895874Y2934149D01*
X3912049Y2917974D01*
X3933183Y2909220D01*
X3956057D01*
X3977191Y2917974D01*
X3993366Y2934149D01*
X4002120Y2955283D01*
Y2978157D01*
X3993366Y2999291D01*
X3977191Y3015466D01*
X3956057Y3024220D01*
D02*
G37*
G36*
X1974857Y2988660D02*
X1951983D01*
X1930849Y2979906D01*
X1914674Y2963731D01*
X1905920Y2942597D01*
Y2919723D01*
X1914674Y2898589D01*
X1930849Y2882414D01*
X1951983Y2873660D01*
X1974857D01*
X1995991Y2882414D01*
X2012166Y2898589D01*
X2020920Y2919723D01*
Y2942597D01*
X2012166Y2963731D01*
X1995991Y2979906D01*
X1974857Y2988660D01*
D02*
G37*
G36*
X287135Y2922402D02*
X190500D01*
Y2864095D01*
X217800D01*
X236178Y2866514D01*
X253304Y2873608D01*
X268010Y2884892D01*
X279294Y2899598D01*
X286388Y2916724D01*
X287135Y2922402D01*
D02*
G37*
G36*
X165100D02*
X68465D01*
X69212Y2916724D01*
X76306Y2899598D01*
X87590Y2884892D01*
X102296Y2873608D01*
X119422Y2866514D01*
X137800Y2864095D01*
X165100D01*
Y2922402D01*
D02*
G37*
G36*
X811537Y2942940D02*
X788663D01*
X767529Y2934186D01*
X751354Y2918011D01*
X742600Y2896877D01*
Y2874003D01*
X751354Y2852869D01*
X767529Y2836694D01*
X788663Y2827940D01*
X811537D01*
X832671Y2836694D01*
X848846Y2852869D01*
X857600Y2874003D01*
Y2896877D01*
X848846Y2918011D01*
X832671Y2934186D01*
X811537Y2942940D01*
D02*
G37*
G36*
X2209800Y2881212D02*
Y2827020D01*
X2263992D01*
X2260373Y2840528D01*
X2251434Y2856012D01*
X2238792Y2868654D01*
X2223308Y2877593D01*
X2209800Y2881212D01*
D02*
G37*
G36*
X2184400D02*
X2170892Y2877593D01*
X2155408Y2868654D01*
X2142766Y2856012D01*
X2133827Y2840528D01*
X2130208Y2827020D01*
X2184400D01*
Y2881212D01*
D02*
G37*
G36*
X1230637Y2937860D02*
X1207763D01*
X1186629Y2929106D01*
X1170454Y2912931D01*
X1161700Y2891797D01*
Y2868923D01*
X1170454Y2847789D01*
X1186629Y2831614D01*
X1207763Y2822860D01*
X1230637D01*
X1251771Y2831614D01*
X1267946Y2847789D01*
X1276700Y2868923D01*
Y2891797D01*
X1267946Y2912931D01*
X1251771Y2929106D01*
X1230637Y2937860D01*
D02*
G37*
G36*
X660138Y2922402D02*
X371467D01*
X372215Y2916724D01*
X379309Y2899598D01*
X390593Y2884892D01*
X405299Y2873608D01*
X422425Y2866514D01*
X440803Y2864095D01*
X442797D01*
X445906Y2849634D01*
X445911Y2849095D01*
X429715Y2832899D01*
X421390Y2812801D01*
X478800D01*
X536210D01*
X527885Y2832899D01*
X511690Y2849095D01*
X511694Y2849634D01*
X514803Y2864095D01*
X577798D01*
X580907Y2849634D01*
X580912Y2849095D01*
X564716Y2832899D01*
X556391Y2812801D01*
X613801D01*
X671211D01*
X662886Y2832899D01*
X646599Y2849186D01*
X626572Y2857482D01*
X625195Y2861895D01*
X624842Y2873001D01*
X626307Y2873608D01*
X641013Y2884892D01*
X652297Y2899598D01*
X659391Y2916724D01*
X660138Y2922402D01*
D02*
G37*
G36*
X5592045Y2846020D02*
X5590540D01*
Y2750820D01*
X5685740D01*
Y2752325D01*
X5678387Y2779768D01*
X5664181Y2804372D01*
X5644092Y2824461D01*
X5619488Y2838667D01*
X5592045Y2846020D01*
D02*
G37*
G36*
X5565140D02*
X5563635D01*
X5536192Y2838667D01*
X5511588Y2824461D01*
X5491499Y2804372D01*
X5477293Y2779768D01*
X5469940Y2752325D01*
Y2750820D01*
X5565140D01*
Y2846020D01*
D02*
G37*
G36*
X2263992Y2801620D02*
X2209800D01*
Y2747428D01*
X2223308Y2751047D01*
X2238792Y2759986D01*
X2251434Y2772628D01*
X2260373Y2788112D01*
X2263992Y2801620D01*
D02*
G37*
G36*
X2184400D02*
X2130208D01*
X2133827Y2788112D01*
X2142766Y2772628D01*
X2155408Y2759986D01*
X2170892Y2751047D01*
X2184400Y2747428D01*
Y2801620D01*
D02*
G37*
G36*
X1557020Y2759292D02*
Y2705100D01*
X1611212D01*
X1607593Y2718608D01*
X1598654Y2734092D01*
X1586012Y2746734D01*
X1570528Y2755673D01*
X1557020Y2759292D01*
D02*
G37*
G36*
X1531620D02*
X1518112Y2755673D01*
X1502628Y2746734D01*
X1489986Y2734092D01*
X1481047Y2718608D01*
X1477428Y2705100D01*
X1531620D01*
Y2759292D01*
D02*
G37*
G36*
X3427412Y2811810D02*
X3404537D01*
X3383403Y2803056D01*
X3367228Y2786881D01*
X3358475Y2765747D01*
Y2742872D01*
X3367228Y2721739D01*
X3383403Y2705564D01*
X3404537Y2696810D01*
X3427412D01*
X3448546Y2705564D01*
X3464721Y2721739D01*
X3473475Y2742872D01*
Y2765747D01*
X3464721Y2786881D01*
X3448546Y2803056D01*
X3427412Y2811810D01*
D02*
G37*
G36*
X2986060Y2697532D02*
X2970210Y2690966D01*
X2956033Y2676789D01*
X2951879Y2666761D01*
X2935643D01*
X2931489Y2676789D01*
X2917312Y2690966D01*
X2901462Y2697532D01*
Y2648240D01*
X2876062D01*
Y2697532D01*
X2860213Y2690966D01*
X2846035Y2676789D01*
X2841879Y2666755D01*
X2825643D01*
X2821487Y2676789D01*
X2807309Y2690966D01*
X2791460Y2697532D01*
Y2648240D01*
X2766060D01*
Y2697532D01*
X2750211Y2690966D01*
X2736033Y2676789D01*
X2731879Y2666761D01*
X2715643D01*
X2711490Y2676789D01*
X2697312Y2690966D01*
X2681463Y2697532D01*
Y2648240D01*
X2656063D01*
Y2697532D01*
X2640213Y2690966D01*
X2626036Y2676789D01*
X2621880Y2666755D01*
X2605644D01*
X2601487Y2676789D01*
X2587310Y2690966D01*
X2571460Y2697532D01*
Y2648240D01*
X2558760D01*
Y2635540D01*
X2509468D01*
X2516034Y2619690D01*
X2530211Y2605513D01*
X2540239Y2601359D01*
Y2585123D01*
X2530211Y2580969D01*
X2516034Y2566792D01*
X2509468Y2550942D01*
X2558760D01*
Y2525542D01*
X2509468D01*
X2516034Y2509693D01*
X2530211Y2495515D01*
X2540245Y2491359D01*
Y2475123D01*
X2530211Y2470967D01*
X2516034Y2456789D01*
X2509468Y2440940D01*
X2558760D01*
Y2415540D01*
X2509468D01*
X2516034Y2399691D01*
X2530211Y2385513D01*
X2540239Y2381359D01*
Y2365123D01*
X2530211Y2360970D01*
X2516034Y2346792D01*
X2509468Y2330943D01*
X2558760D01*
Y2305543D01*
X2509468D01*
X2516034Y2289693D01*
X2530211Y2275516D01*
X2540245Y2271360D01*
Y2255124D01*
X2530211Y2250967D01*
X2516034Y2236790D01*
X2509468Y2220940D01*
X2558760D01*
Y2208240D01*
X2571460D01*
Y2158948D01*
X2587310Y2165514D01*
X2601487Y2179691D01*
X2605644Y2189725D01*
X2621880D01*
X2626036Y2179691D01*
X2640213Y2165514D01*
X2656063Y2158948D01*
Y2208240D01*
X2681463D01*
Y2158948D01*
X2697312Y2165514D01*
X2711490Y2179691D01*
X2715643Y2189719D01*
X2731879D01*
X2736033Y2179691D01*
X2750211Y2165514D01*
X2766060Y2158948D01*
Y2208240D01*
X2791460D01*
Y2158948D01*
X2807309Y2165514D01*
X2821487Y2179691D01*
X2825643Y2189725D01*
X2841879D01*
X2846035Y2179691D01*
X2860213Y2165514D01*
X2876062Y2158948D01*
Y2208240D01*
X2901462D01*
Y2158948D01*
X2917312Y2165514D01*
X2931489Y2179691D01*
X2935643Y2189719D01*
X2951879D01*
X2956033Y2179691D01*
X2970210Y2165514D01*
X2986060Y2158948D01*
Y2208240D01*
X2998760D01*
Y2220940D01*
X3048052D01*
X3041486Y2236790D01*
X3027309Y2250967D01*
X3017275Y2255124D01*
Y2271360D01*
X3027309Y2275516D01*
X3041486Y2289693D01*
X3048052Y2305543D01*
X2998760D01*
Y2330943D01*
X3048052D01*
X3041486Y2346792D01*
X3027309Y2360970D01*
X3017281Y2365123D01*
Y2381359D01*
X3027309Y2385513D01*
X3041486Y2399691D01*
X3048052Y2415540D01*
X2998760D01*
Y2440940D01*
X3048052D01*
X3041486Y2456789D01*
X3027309Y2470967D01*
X3017275Y2475123D01*
Y2491359D01*
X3027309Y2495515D01*
X3041486Y2509693D01*
X3048052Y2525542D01*
X2998760D01*
Y2550942D01*
X3048052D01*
X3041486Y2566792D01*
X3027309Y2580969D01*
X3017281Y2585123D01*
Y2601359D01*
X3027309Y2605513D01*
X3041486Y2619690D01*
X3048052Y2635540D01*
X2998760D01*
Y2648240D01*
X2986060D01*
Y2697532D01*
D02*
G37*
G36*
X3011460D02*
Y2660940D01*
X3048052D01*
X3041486Y2676789D01*
X3027309Y2690966D01*
X3011460Y2697532D01*
D02*
G37*
G36*
X2546060D02*
X2530211Y2690966D01*
X2516034Y2676789D01*
X2509468Y2660940D01*
X2546060D01*
Y2697532D01*
D02*
G37*
G36*
X5336676Y2835620D02*
X5311004D01*
X5286206Y2828975D01*
X5263974Y2816139D01*
X5245821Y2797986D01*
X5232985Y2775754D01*
X5226340Y2750956D01*
Y2725284D01*
X5232985Y2700486D01*
X5245821Y2678254D01*
X5263974Y2660101D01*
X5286206Y2647265D01*
X5311004Y2640620D01*
X5336676D01*
X5361474Y2647265D01*
X5383706Y2660101D01*
X5401859Y2678254D01*
X5414695Y2700486D01*
X5421340Y2725284D01*
Y2750956D01*
X5414695Y2775754D01*
X5401859Y2797986D01*
X5383706Y2816139D01*
X5361474Y2828975D01*
X5336676Y2835620D01*
D02*
G37*
G36*
X5082676D02*
X5057004D01*
X5032206Y2828975D01*
X5009974Y2816139D01*
X4991821Y2797986D01*
X4978985Y2775754D01*
X4972340Y2750956D01*
Y2725284D01*
X4978985Y2700486D01*
X4991821Y2678254D01*
X5009974Y2660101D01*
X5032206Y2647265D01*
X5057004Y2640620D01*
X5082676D01*
X5107474Y2647265D01*
X5129706Y2660101D01*
X5147859Y2678254D01*
X5160695Y2700486D01*
X5167340Y2725284D01*
Y2750956D01*
X5160695Y2775754D01*
X5147859Y2797986D01*
X5129706Y2816139D01*
X5107474Y2828975D01*
X5082676Y2835620D01*
D02*
G37*
G36*
X4828676D02*
X4803004D01*
X4778206Y2828975D01*
X4755974Y2816139D01*
X4737821Y2797986D01*
X4724985Y2775754D01*
X4718340Y2750956D01*
Y2725284D01*
X4724985Y2700486D01*
X4737821Y2678254D01*
X4755974Y2660101D01*
X4778206Y2647265D01*
X4803004Y2640620D01*
X4828676D01*
X4853474Y2647265D01*
X4875706Y2660101D01*
X4893859Y2678254D01*
X4906695Y2700486D01*
X4913340Y2725284D01*
Y2750956D01*
X4906695Y2775754D01*
X4893859Y2797986D01*
X4875706Y2816139D01*
X4853474Y2828975D01*
X4828676Y2835620D01*
D02*
G37*
G36*
X4574676D02*
X4549004D01*
X4524206Y2828975D01*
X4501974Y2816139D01*
X4483821Y2797986D01*
X4470985Y2775754D01*
X4464340Y2750956D01*
Y2725284D01*
X4470985Y2700486D01*
X4483821Y2678254D01*
X4501974Y2660101D01*
X4524206Y2647265D01*
X4549004Y2640620D01*
X4574676D01*
X4599474Y2647265D01*
X4621706Y2660101D01*
X4639859Y2678254D01*
X4652695Y2700486D01*
X4659340Y2725284D01*
Y2750956D01*
X4652695Y2775754D01*
X4639859Y2797986D01*
X4621706Y2816139D01*
X4599474Y2828975D01*
X4574676Y2835620D01*
D02*
G37*
G36*
X4320676D02*
X4295004D01*
X4270206Y2828975D01*
X4247974Y2816139D01*
X4229821Y2797986D01*
X4216985Y2775754D01*
X4210340Y2750956D01*
Y2725284D01*
X4216985Y2700486D01*
X4229821Y2678254D01*
X4247974Y2660101D01*
X4270206Y2647265D01*
X4295004Y2640620D01*
X4320676D01*
X4345474Y2647265D01*
X4367706Y2660101D01*
X4385859Y2678254D01*
X4398695Y2700486D01*
X4405340Y2725284D01*
Y2750956D01*
X4398695Y2775754D01*
X4385859Y2797986D01*
X4367706Y2816139D01*
X4345474Y2828975D01*
X4320676Y2835620D01*
D02*
G37*
G36*
X4066676D02*
X4041004D01*
X4016206Y2828975D01*
X3993974Y2816139D01*
X3975821Y2797986D01*
X3962985Y2775754D01*
X3956340Y2750956D01*
Y2725284D01*
X3962985Y2700486D01*
X3975821Y2678254D01*
X3993974Y2660101D01*
X4016206Y2647265D01*
X4041004Y2640620D01*
X4066676D01*
X4091474Y2647265D01*
X4113706Y2660101D01*
X4131859Y2678254D01*
X4144695Y2700486D01*
X4151340Y2725284D01*
Y2750956D01*
X4144695Y2775754D01*
X4131859Y2797986D01*
X4113706Y2816139D01*
X4091474Y2828975D01*
X4066676Y2835620D01*
D02*
G37*
G36*
X3812676D02*
X3787004D01*
X3762206Y2828975D01*
X3739974Y2816139D01*
X3721821Y2797986D01*
X3708985Y2775754D01*
X3702340Y2750956D01*
Y2725284D01*
X3708985Y2700486D01*
X3721821Y2678254D01*
X3739974Y2660101D01*
X3762206Y2647265D01*
X3787004Y2640620D01*
X3812676D01*
X3837474Y2647265D01*
X3859706Y2660101D01*
X3877859Y2678254D01*
X3890695Y2700486D01*
X3897340Y2725284D01*
Y2750956D01*
X3890695Y2775754D01*
X3877859Y2797986D01*
X3859706Y2816139D01*
X3837474Y2828975D01*
X3812676Y2835620D01*
D02*
G37*
G36*
X5685740Y2725420D02*
X5590540D01*
Y2630220D01*
X5592045D01*
X5619488Y2637573D01*
X5644092Y2651779D01*
X5664181Y2671868D01*
X5678387Y2696472D01*
X5685740Y2723915D01*
Y2725420D01*
D02*
G37*
G36*
X5565140D02*
X5469940D01*
Y2723915D01*
X5477293Y2696472D01*
X5491499Y2671868D01*
X5511588Y2651779D01*
X5536192Y2637573D01*
X5563635Y2630220D01*
X5565140D01*
Y2725420D01*
D02*
G37*
G36*
X1611212Y2679700D02*
X1557020D01*
Y2625508D01*
X1570528Y2629127D01*
X1586012Y2638066D01*
X1598654Y2650708D01*
X1607593Y2666192D01*
X1611212Y2679700D01*
D02*
G37*
G36*
X1531620D02*
X1477428D01*
X1481047Y2666192D01*
X1489986Y2650708D01*
X1502628Y2638066D01*
X1518112Y2629127D01*
X1531620Y2625508D01*
Y2679700D01*
D02*
G37*
G36*
X3255018Y2818338D02*
X3232143D01*
X3211009Y2809584D01*
X3194834Y2793409D01*
X3186080Y2772276D01*
Y2749401D01*
X3194834Y2728267D01*
X3202874Y2720228D01*
X3200530Y2708444D01*
X3184355Y2692270D01*
X3175601Y2671136D01*
Y2648261D01*
X3184355Y2627127D01*
X3200530Y2610952D01*
X3221664Y2602199D01*
X3244539D01*
X3265672Y2610952D01*
X3281847Y2627127D01*
X3290601Y2648261D01*
Y2671136D01*
X3281847Y2692270D01*
X3273808Y2700309D01*
X3276152Y2712092D01*
X3292327Y2728267D01*
X3301081Y2749401D01*
Y2772276D01*
X3292327Y2793409D01*
X3276152Y2809584D01*
X3255018Y2818338D01*
D02*
G37*
G36*
X1860941Y2608733D02*
X1845092Y2602168D01*
X1830915Y2587991D01*
X1826758Y2577957D01*
X1810522D01*
X1806366Y2587991D01*
X1792188Y2602168D01*
X1776339Y2608733D01*
Y2559441D01*
X1763639D01*
Y2546741D01*
X1714347D01*
X1720912Y2530892D01*
X1735090Y2516715D01*
X1745124Y2512558D01*
Y2496322D01*
X1735090Y2492166D01*
X1720912Y2477988D01*
X1714347Y2462139D01*
X1763639D01*
Y2449439D01*
X1776339D01*
Y2400147D01*
X1792188Y2406712D01*
X1806366Y2420890D01*
X1810522Y2430924D01*
X1826758D01*
X1830915Y2420890D01*
X1845092Y2406712D01*
X1860941Y2400147D01*
Y2449439D01*
X1873641D01*
Y2462139D01*
X1922933D01*
X1916368Y2477988D01*
X1902191Y2492166D01*
X1892157Y2496322D01*
Y2512558D01*
X1902191Y2516715D01*
X1916368Y2530892D01*
X1922933Y2546741D01*
X1873641D01*
Y2559441D01*
X1860941D01*
Y2608733D01*
D02*
G37*
G36*
X1886341D02*
Y2572141D01*
X1922933D01*
X1916368Y2587991D01*
X1902191Y2602168D01*
X1886341Y2608733D01*
D02*
G37*
G36*
X1750939D02*
X1735090Y2602168D01*
X1720912Y2587991D01*
X1714347Y2572141D01*
X1750939D01*
Y2608733D01*
D02*
G37*
G36*
X3733800Y2507832D02*
Y2453640D01*
X3787992D01*
X3784373Y2467148D01*
X3775434Y2482632D01*
X3762792Y2495274D01*
X3747308Y2504213D01*
X3733800Y2507832D01*
D02*
G37*
G36*
X3708400D02*
X3694892Y2504213D01*
X3679408Y2495274D01*
X3666766Y2482632D01*
X3657827Y2467148D01*
X3654208Y2453640D01*
X3708400D01*
Y2507832D01*
D02*
G37*
G36*
X2210670Y2457032D02*
X2197161Y2453413D01*
X2181678Y2444474D01*
X2169036Y2431832D01*
X2160097Y2416348D01*
X2156478Y2402840D01*
X2210670D01*
Y2457032D01*
D02*
G37*
G36*
X1922933Y2436739D02*
X1886341D01*
Y2400147D01*
X1902191Y2406712D01*
X1916368Y2420890D01*
X1922933Y2436739D01*
D02*
G37*
G36*
X1750939D02*
X1714347D01*
X1720912Y2420890D01*
X1735090Y2406712D01*
X1750939Y2400147D01*
Y2436739D01*
D02*
G37*
G36*
X3787992Y2428240D02*
X3733800D01*
Y2374048D01*
X3747308Y2377667D01*
X3762792Y2386606D01*
X3775434Y2399248D01*
X3784373Y2414732D01*
X3787992Y2428240D01*
D02*
G37*
G36*
X3708400D02*
X3654208D01*
X3657827Y2414732D01*
X3666766Y2399248D01*
X3679408Y2386606D01*
X3694892Y2377667D01*
X3708400Y2374048D01*
Y2428240D01*
D02*
G37*
G36*
X3514097Y2574640D02*
X3491223D01*
X3470089Y2565886D01*
X3453914Y2549711D01*
X3445160Y2528577D01*
Y2505703D01*
X3453914Y2484569D01*
X3470089Y2468394D01*
X3477155Y2465467D01*
Y2449231D01*
X3470576Y2446506D01*
X3454401Y2430331D01*
X3445647Y2409197D01*
Y2386323D01*
X3454401Y2365189D01*
X3470576Y2349014D01*
X3491710Y2340260D01*
X3514584D01*
X3535718Y2349014D01*
X3551893Y2365189D01*
X3560647Y2386323D01*
Y2409197D01*
X3551893Y2430331D01*
X3535718Y2446506D01*
X3528652Y2449433D01*
Y2465669D01*
X3535231Y2468394D01*
X3551406Y2484569D01*
X3560160Y2505703D01*
Y2528577D01*
X3551406Y2549711D01*
X3535231Y2565886D01*
X3514097Y2574640D01*
D02*
G37*
G36*
X2210670Y2377440D02*
X2156478D01*
X2160097Y2363932D01*
X2169036Y2348448D01*
X2181678Y2335806D01*
X2197161Y2326867D01*
X2210670Y2323248D01*
Y2377440D01*
D02*
G37*
G36*
X3953517Y2500980D02*
X3930643D01*
X3909509Y2492226D01*
X3893334Y2476051D01*
X3884580Y2454917D01*
Y2432043D01*
X3893334Y2410909D01*
X3909509Y2394734D01*
X3930643Y2385980D01*
X3953517D01*
X3958799Y2388168D01*
X3970280Y2376687D01*
X3965860Y2366017D01*
Y2343143D01*
X3974614Y2322009D01*
X3990789Y2305834D01*
X4011923Y2297080D01*
X4034797D01*
X4055931Y2305834D01*
X4072106Y2322009D01*
X4080860Y2343143D01*
Y2366017D01*
X4072106Y2387151D01*
X4055931Y2403326D01*
X4034797Y2412080D01*
X4011923D01*
X4006641Y2409892D01*
X3995160Y2421373D01*
X3999580Y2432043D01*
Y2454917D01*
X3990826Y2476051D01*
X3974651Y2492226D01*
X3953517Y2500980D01*
D02*
G37*
G36*
X2236070Y2457032D02*
Y2390140D01*
Y2316679D01*
X2241200Y2309093D01*
Y2294883D01*
X2249954Y2273749D01*
X2266129Y2257574D01*
X2287263Y2248820D01*
X2310137D01*
X2331271Y2257574D01*
X2347446Y2273749D01*
X2356200Y2294883D01*
Y2317757D01*
X2355422Y2319635D01*
X2362415Y2330099D01*
X2366345Y2332463D01*
X2386618Y2340861D01*
X2402793Y2357036D01*
X2411547Y2378169D01*
Y2401044D01*
X2402793Y2422178D01*
X2386618Y2438353D01*
X2365484Y2447107D01*
X2342609D01*
X2321476Y2438353D01*
X2305301Y2422178D01*
X2302453Y2415302D01*
X2286646Y2416338D01*
X2286643Y2416348D01*
X2277704Y2431832D01*
X2265062Y2444474D01*
X2249578Y2453413D01*
X2236070Y2457032D01*
D02*
G37*
G36*
X671211Y2787401D02*
X613801D01*
X556391D01*
X564716Y2767303D01*
X581003Y2751016D01*
X581258Y2749735D01*
X573533Y2742009D01*
X566301Y2724551D01*
Y2705654D01*
X573533Y2688196D01*
X579328Y2682400D01*
X585490Y2672601D01*
X579328Y2662801D01*
X573533Y2657006D01*
X566301Y2639547D01*
Y2620651D01*
X573533Y2603192D01*
X579326Y2597399D01*
X585491Y2587600D01*
X579326Y2577800D01*
X573533Y2572007D01*
X566301Y2554549D01*
Y2535652D01*
X573533Y2518194D01*
X579326Y2512400D01*
X585491Y2502601D01*
X579326Y2492802D01*
X573533Y2487008D01*
X566301Y2469550D01*
Y2450653D01*
X573533Y2433195D01*
X579328Y2427399D01*
X585490Y2417600D01*
X579328Y2407801D01*
X573533Y2402005D01*
X566301Y2384546D01*
Y2365650D01*
X573533Y2348191D01*
X579326Y2342398D01*
X585491Y2332599D01*
X579326Y2322800D01*
X573533Y2317006D01*
X566301Y2299548D01*
Y2280651D01*
X573533Y2263193D01*
X581258Y2255467D01*
X581003Y2254186D01*
X564716Y2237899D01*
X556391Y2217801D01*
X613801D01*
X671211D01*
X662886Y2237899D01*
X646599Y2254186D01*
X646344Y2255467D01*
X654070Y2263193D01*
X661301Y2280651D01*
Y2299548D01*
X654070Y2317006D01*
X648277Y2322800D01*
X642111Y2332599D01*
X648277Y2342398D01*
X654070Y2348191D01*
X661301Y2365650D01*
Y2384546D01*
X654070Y2402005D01*
X648274Y2407801D01*
X642112Y2417600D01*
X648274Y2427399D01*
X654070Y2433195D01*
X661301Y2450653D01*
Y2469550D01*
X654070Y2487008D01*
X648277Y2492802D01*
X642111Y2502601D01*
X648277Y2512400D01*
X654070Y2518194D01*
X661301Y2535652D01*
Y2554549D01*
X654070Y2572007D01*
X648277Y2577800D01*
X642111Y2587600D01*
X648277Y2597399D01*
X654070Y2603192D01*
X661301Y2620651D01*
Y2639547D01*
X654070Y2657006D01*
X648274Y2662801D01*
X642112Y2672601D01*
X648274Y2682400D01*
X654070Y2688196D01*
X661301Y2705654D01*
Y2724551D01*
X654070Y2742009D01*
X656225Y2760642D01*
X662886Y2767303D01*
X671211Y2787401D01*
D02*
G37*
G36*
X536210D02*
X478800D01*
X421390D01*
X429715Y2767303D01*
X446002Y2751016D01*
X446257Y2749735D01*
X438532Y2742009D01*
X431300Y2724551D01*
Y2705654D01*
X438532Y2688196D01*
X444327Y2682400D01*
X450489Y2672601D01*
X444327Y2662801D01*
X438532Y2657006D01*
X431300Y2639547D01*
Y2620651D01*
X438532Y2603192D01*
X444325Y2597399D01*
X450490Y2587600D01*
X444325Y2577800D01*
X438532Y2572007D01*
X431300Y2554549D01*
Y2535652D01*
X438532Y2518194D01*
X444325Y2512400D01*
X450490Y2502601D01*
X444325Y2492802D01*
X438532Y2487008D01*
X431300Y2469550D01*
Y2450653D01*
X438532Y2433195D01*
X444327Y2427399D01*
X450489Y2417600D01*
X444327Y2407801D01*
X438532Y2402005D01*
X431300Y2384546D01*
Y2365650D01*
X438532Y2348191D01*
X444325Y2342398D01*
X450490Y2332599D01*
X444325Y2322800D01*
X438532Y2317006D01*
X431300Y2299548D01*
Y2280651D01*
X438532Y2263193D01*
X446257Y2255467D01*
X446002Y2254186D01*
X429715Y2237899D01*
X421390Y2217801D01*
X478800D01*
X536210D01*
X527885Y2237899D01*
X511598Y2254186D01*
X511343Y2255467D01*
X519069Y2263193D01*
X526300Y2280651D01*
Y2299548D01*
X519069Y2317006D01*
X513276Y2322800D01*
X507110Y2332599D01*
X513276Y2342398D01*
X519069Y2348191D01*
X526300Y2365650D01*
Y2384546D01*
X519069Y2402005D01*
X513273Y2407801D01*
X507111Y2417600D01*
X513273Y2427399D01*
X519069Y2433195D01*
X526300Y2450653D01*
Y2469550D01*
X519069Y2487008D01*
X513276Y2492802D01*
X507110Y2502601D01*
X513276Y2512400D01*
X519069Y2518194D01*
X526300Y2535652D01*
Y2554549D01*
X519069Y2572007D01*
X513276Y2577800D01*
X507110Y2587600D01*
X513276Y2597399D01*
X519069Y2603192D01*
X526300Y2620651D01*
Y2639547D01*
X519069Y2657006D01*
X513273Y2662801D01*
X507111Y2672601D01*
X513273Y2682400D01*
X519069Y2688196D01*
X526300Y2705654D01*
Y2724551D01*
X519069Y2742009D01*
X521224Y2760642D01*
X527885Y2767303D01*
X536210Y2787401D01*
D02*
G37*
G36*
X4560577Y2287620D02*
X4537703D01*
X4516569Y2278866D01*
X4500394Y2262691D01*
X4491640Y2241557D01*
Y2218683D01*
X4500394Y2197549D01*
X4516569Y2181374D01*
X4537703Y2172620D01*
X4560577D01*
X4581711Y2181374D01*
X4597886Y2197549D01*
X4606640Y2218683D01*
Y2241557D01*
X4597886Y2262691D01*
X4581711Y2278866D01*
X4560577Y2287620D01*
D02*
G37*
G36*
X3048052Y2195540D02*
X3011460D01*
Y2158948D01*
X3027309Y2165514D01*
X3041486Y2179691D01*
X3048052Y2195540D01*
D02*
G37*
G36*
X2546060D02*
X2509468D01*
X2516034Y2179691D01*
X2530211Y2165514D01*
X2546060Y2158948D01*
Y2195540D01*
D02*
G37*
G36*
X1596397Y2186020D02*
X1573523D01*
X1552389Y2177266D01*
X1536214Y2161091D01*
X1534658Y2157335D01*
X1518422D01*
X1516866Y2161091D01*
X1500691Y2177266D01*
X1479557Y2186020D01*
X1456683D01*
X1435549Y2177266D01*
X1419374Y2161091D01*
X1410620Y2139957D01*
Y2117083D01*
X1419374Y2095949D01*
X1435549Y2079774D01*
X1456683Y2071020D01*
X1479557D01*
X1500691Y2079774D01*
X1516866Y2095949D01*
X1518422Y2099705D01*
X1534658D01*
X1536214Y2095949D01*
X1552389Y2079774D01*
X1573523Y2071020D01*
X1596397D01*
X1617531Y2079774D01*
X1633706Y2095949D01*
X1642460Y2117083D01*
Y2139957D01*
X1633706Y2161091D01*
X1617531Y2177266D01*
X1596397Y2186020D01*
D02*
G37*
G36*
X4382777Y2267300D02*
X4359903D01*
X4338769Y2258546D01*
X4322594Y2242371D01*
X4313840Y2221237D01*
Y2198363D01*
X4322594Y2177229D01*
X4338769Y2161054D01*
X4359903Y2152300D01*
X4382777D01*
X4403911Y2161054D01*
X4420086Y2177229D01*
X4428840Y2198363D01*
Y2221237D01*
X4420086Y2242371D01*
X4403911Y2258546D01*
X4382777Y2267300D01*
D02*
G37*
G36*
X3966217Y2260600D02*
X3943343D01*
X3922209Y2251846D01*
X3906034Y2235671D01*
X3897280Y2214537D01*
Y2191663D01*
X3906034Y2170529D01*
X3922209Y2154354D01*
X3943343Y2145600D01*
X3966217D01*
X3987351Y2154354D01*
X4003526Y2170529D01*
X4012280Y2191663D01*
Y2214537D01*
X4003526Y2235671D01*
X3987351Y2251846D01*
X3966217Y2260600D01*
D02*
G37*
G36*
X671211Y2192401D02*
X613801D01*
X556391D01*
X564716Y2172303D01*
X580912Y2156107D01*
X580907Y2155568D01*
X577798Y2141107D01*
X514803D01*
X511694Y2155568D01*
X511690Y2156107D01*
X527885Y2172303D01*
X536210Y2192401D01*
X478800D01*
X421390D01*
X429715Y2172303D01*
X445911Y2156107D01*
X445906Y2155568D01*
X442797Y2141107D01*
X440803D01*
X422425Y2138688D01*
X405299Y2131594D01*
X390593Y2120310D01*
X379309Y2105604D01*
X372215Y2088478D01*
X371467Y2082800D01*
X660138D01*
X659391Y2088478D01*
X652297Y2105604D01*
X641013Y2120310D01*
X626307Y2131594D01*
X624842Y2132201D01*
X625195Y2143307D01*
X626572Y2147720D01*
X646599Y2156016D01*
X662886Y2172303D01*
X671211Y2192401D01*
D02*
G37*
G36*
X3636017Y2210500D02*
X3613143D01*
X3592009Y2201746D01*
X3575834Y2185571D01*
X3567080Y2164437D01*
Y2141563D01*
X3575834Y2120429D01*
X3592009Y2104254D01*
X3613143Y2095500D01*
X3636017D01*
X3657151Y2104254D01*
X3673326Y2120429D01*
X3682080Y2141563D01*
Y2164437D01*
X3673326Y2185571D01*
X3657151Y2201746D01*
X3636017Y2210500D01*
D02*
G37*
G36*
X217800Y2141107D02*
X190500D01*
Y2082800D01*
X287135D01*
X286388Y2088478D01*
X279294Y2105604D01*
X268010Y2120310D01*
X253304Y2131594D01*
X236178Y2138688D01*
X217800Y2141107D01*
D02*
G37*
G36*
X165100D02*
X137800D01*
X119422Y2138688D01*
X102296Y2131594D01*
X87590Y2120310D01*
X76306Y2105604D01*
X69212Y2088478D01*
X68465Y2082800D01*
X165100D01*
Y2141107D01*
D02*
G37*
G36*
X1212857Y2183480D02*
X1189983D01*
X1168849Y2174726D01*
X1152674Y2158551D01*
X1143920Y2137417D01*
Y2114543D01*
X1152674Y2093409D01*
X1168849Y2077234D01*
X1189983Y2068480D01*
X1212857D01*
X1233991Y2077234D01*
X1250166Y2093409D01*
X1258920Y2114543D01*
Y2137417D01*
X1250166Y2158551D01*
X1233991Y2174726D01*
X1212857Y2183480D01*
D02*
G37*
G36*
X1761497Y2137760D02*
X1738623D01*
X1717489Y2129006D01*
X1701314Y2112831D01*
X1692560Y2091697D01*
Y2068823D01*
X1701314Y2047689D01*
X1717489Y2031514D01*
X1738623Y2022760D01*
X1761497D01*
X1782631Y2031514D01*
X1798806Y2047689D01*
X1807560Y2068823D01*
Y2091697D01*
X1798806Y2112831D01*
X1782631Y2129006D01*
X1761497Y2137760D01*
D02*
G37*
G36*
X5459737Y2125060D02*
X5436863D01*
X5415729Y2116306D01*
X5399554Y2100131D01*
X5390800Y2078997D01*
Y2056123D01*
X5399554Y2034989D01*
X5415729Y2018814D01*
X5436863Y2010060D01*
X5459737D01*
X5480871Y2018814D01*
X5497046Y2034989D01*
X5505800Y2056123D01*
Y2078997D01*
X5497046Y2100131D01*
X5480871Y2116306D01*
X5459737Y2125060D01*
D02*
G37*
G36*
X660138Y2057400D02*
X528503D01*
Y1999093D01*
X590803D01*
X609181Y2001512D01*
X626307Y2008606D01*
X641013Y2019890D01*
X652297Y2034596D01*
X659391Y2051722D01*
X660138Y2057400D01*
D02*
G37*
G36*
X503103D02*
X371467D01*
X372215Y2051722D01*
X379309Y2034596D01*
X390593Y2019890D01*
X405299Y2008606D01*
X422425Y2001512D01*
X440803Y1999093D01*
X503103D01*
Y2057400D01*
D02*
G37*
G36*
X287135D02*
X190500D01*
Y1999093D01*
X217800D01*
X236178Y2001512D01*
X253304Y2008606D01*
X268010Y2019890D01*
X279294Y2034596D01*
X286388Y2051722D01*
X287135Y2057400D01*
D02*
G37*
G36*
X165100D02*
X68465D01*
X69212Y2051722D01*
X76306Y2034596D01*
X87590Y2019890D01*
X102296Y2008606D01*
X119422Y2001512D01*
X137800Y1999093D01*
X165100D01*
Y2057400D01*
D02*
G37*
G36*
X1441457Y1987900D02*
X1418583D01*
X1397449Y1979146D01*
X1381274Y1962971D01*
X1372520Y1941837D01*
Y1918963D01*
X1381274Y1897829D01*
X1397449Y1881654D01*
X1418583Y1872900D01*
X1441457D01*
X1462591Y1881654D01*
X1478766Y1897829D01*
X1487520Y1918963D01*
Y1941837D01*
X1478766Y1962971D01*
X1462591Y1979146D01*
X1441457Y1987900D01*
D02*
G37*
G36*
X3572517Y1974060D02*
X3549643D01*
X3528509Y1965306D01*
X3512334Y1949131D01*
X3503580Y1927997D01*
Y1905123D01*
X3512334Y1883989D01*
X3528509Y1867814D01*
X3549643Y1859060D01*
X3572517D01*
X3593651Y1867814D01*
X3609826Y1883989D01*
X3618580Y1905123D01*
Y1927997D01*
X3609826Y1949131D01*
X3593651Y1965306D01*
X3572517Y1974060D01*
D02*
G37*
G36*
X2284737Y1998060D02*
X2261863D01*
X2240729Y1989306D01*
X2224554Y1973131D01*
X2215800Y1951997D01*
Y1929123D01*
X2224554Y1907989D01*
X2240729Y1891814D01*
X2261863Y1883060D01*
X2284737D01*
X2289700Y1885116D01*
X2304700Y1875093D01*
Y1863083D01*
X2313454Y1841949D01*
X2329629Y1825774D01*
X2350763Y1817020D01*
X2373637D01*
X2394771Y1825774D01*
X2410946Y1841949D01*
X2419700Y1863083D01*
Y1885957D01*
X2410946Y1907091D01*
X2394771Y1923266D01*
X2373637Y1932020D01*
X2350763D01*
X2345800Y1929964D01*
X2330800Y1939987D01*
Y1951997D01*
X2322046Y1973131D01*
X2305871Y1989306D01*
X2284737Y1998060D01*
D02*
G37*
G36*
X5341620Y1847432D02*
Y1793240D01*
X5395812D01*
X5392193Y1806748D01*
X5383254Y1822232D01*
X5370612Y1834874D01*
X5355128Y1843813D01*
X5341620Y1847432D01*
D02*
G37*
G36*
X5316220D02*
X5302712Y1843813D01*
X5287228Y1834874D01*
X5274586Y1822232D01*
X5265647Y1806748D01*
X5262028Y1793240D01*
X5316220D01*
Y1847432D01*
D02*
G37*
G36*
X2533657Y1902732D02*
X2510783D01*
X2489649Y1893978D01*
X2473474Y1877803D01*
X2464720Y1856669D01*
Y1833794D01*
X2473474Y1812661D01*
X2489649Y1796486D01*
X2510783Y1787732D01*
X2533657D01*
X2554791Y1796486D01*
X2570966Y1812661D01*
X2579720Y1833794D01*
Y1856669D01*
X2570966Y1877803D01*
X2554791Y1893978D01*
X2533657Y1902732D01*
D02*
G37*
G36*
X580397Y1896460D02*
X557523D01*
X536389Y1887706D01*
X520214Y1871531D01*
X511460Y1850397D01*
Y1827523D01*
X520214Y1806389D01*
X536389Y1790214D01*
X557523Y1781460D01*
X580397D01*
X601531Y1790214D01*
X617706Y1806389D01*
X626460Y1827523D01*
Y1850397D01*
X617706Y1871531D01*
X601531Y1887706D01*
X580397Y1896460D01*
D02*
G37*
G36*
X1478280Y1824572D02*
Y1770380D01*
X1532472D01*
X1528853Y1783888D01*
X1519914Y1799372D01*
X1507272Y1812014D01*
X1491788Y1820953D01*
X1478280Y1824572D01*
D02*
G37*
G36*
X1452880D02*
X1439372Y1820953D01*
X1423888Y1812014D01*
X1411246Y1799372D01*
X1402307Y1783888D01*
X1398688Y1770380D01*
X1452880D01*
Y1824572D01*
D02*
G37*
G36*
X3874777Y1832960D02*
X3851903D01*
X3830769Y1824206D01*
X3814594Y1808031D01*
X3805840Y1786897D01*
Y1764023D01*
X3814594Y1742889D01*
X3830769Y1726714D01*
X3851903Y1717960D01*
X3874777D01*
X3895911Y1726714D01*
X3912086Y1742889D01*
X3920840Y1764023D01*
Y1786897D01*
X3912086Y1808031D01*
X3895911Y1824206D01*
X3874777Y1832960D01*
D02*
G37*
G36*
X2028197Y1782160D02*
X2005323D01*
X1984189Y1773406D01*
X1968014Y1757231D01*
X1959260Y1736097D01*
Y1725951D01*
X1944260Y1717290D01*
X1936288Y1721893D01*
X1922780Y1725512D01*
Y1671320D01*
X1988526D01*
X1992155Y1672614D01*
X2005323Y1667160D01*
X2028197D01*
X2049331Y1675914D01*
X2065506Y1692089D01*
X2074260Y1713223D01*
Y1736097D01*
X2065506Y1757231D01*
X2049331Y1773406D01*
X2028197Y1782160D01*
D02*
G37*
G36*
X5395812Y1767840D02*
X5341620D01*
Y1713648D01*
X5355128Y1717267D01*
X5370612Y1726206D01*
X5383254Y1738848D01*
X5392193Y1754332D01*
X5395812Y1767840D01*
D02*
G37*
G36*
X5316220D02*
X5262028D01*
X5265647Y1754332D01*
X5274586Y1738848D01*
X5287228Y1726206D01*
X5302712Y1717267D01*
X5316220Y1713648D01*
Y1767840D01*
D02*
G37*
G36*
X1532472Y1744980D02*
X1478280D01*
Y1690788D01*
X1491788Y1694407D01*
X1507272Y1703346D01*
X1519914Y1715988D01*
X1528853Y1731472D01*
X1532472Y1744980D01*
D02*
G37*
G36*
X1452880D02*
X1398688D01*
X1402307Y1731472D01*
X1411246Y1715988D01*
X1423888Y1703346D01*
X1439372Y1694407D01*
X1452880Y1690788D01*
Y1744980D01*
D02*
G37*
G36*
X1897380Y1725512D02*
X1883872Y1721893D01*
X1868388Y1712954D01*
X1855746Y1700312D01*
X1846807Y1684828D01*
X1843188Y1671320D01*
X1897380D01*
Y1725512D01*
D02*
G37*
G36*
X2592077Y1759300D02*
X2569203D01*
X2548069Y1750546D01*
X2531894Y1734371D01*
X2523140Y1713237D01*
Y1690363D01*
X2531894Y1669229D01*
X2548069Y1653054D01*
X2569203Y1644300D01*
X2592077D01*
X2613211Y1653054D01*
X2629386Y1669229D01*
X2638140Y1690363D01*
Y1713237D01*
X2629386Y1734371D01*
X2613211Y1750546D01*
X2592077Y1759300D01*
D02*
G37*
G36*
X3056897Y1902732D02*
X3034023D01*
X3012889Y1893978D01*
X2996714Y1877803D01*
X2987960Y1856669D01*
Y1833794D01*
X2996714Y1812661D01*
X3012889Y1796486D01*
X3034023Y1787732D01*
X3050301D01*
X3056897Y1787732D01*
X3064160Y1774504D01*
Y1766563D01*
X3072914Y1745429D01*
X3089089Y1729254D01*
X3091855Y1728108D01*
X3091940Y1711837D01*
X3077994Y1697891D01*
X3069240Y1676757D01*
Y1653883D01*
X3077994Y1632749D01*
X3094169Y1616574D01*
X3115303Y1607820D01*
X3138177D01*
X3159311Y1616574D01*
X3175486Y1632749D01*
X3184240Y1653883D01*
Y1676757D01*
X3175486Y1697891D01*
X3159311Y1714066D01*
X3156545Y1715212D01*
X3156460Y1731483D01*
X3170406Y1745429D01*
X3179160Y1766563D01*
Y1789437D01*
X3170406Y1810571D01*
X3154231Y1826746D01*
X3133097Y1835500D01*
X3116819D01*
X3110223Y1835500D01*
X3102960Y1848728D01*
Y1856669D01*
X3094206Y1877803D01*
X3078031Y1893978D01*
X3056897Y1902732D01*
D02*
G37*
G36*
X1976972Y1645920D02*
X1922780D01*
Y1591728D01*
X1936288Y1595347D01*
X1951772Y1604286D01*
X1964414Y1616928D01*
X1973353Y1632412D01*
X1976972Y1645920D01*
D02*
G37*
G36*
X1897380D02*
X1843188D01*
X1846807Y1632412D01*
X1855746Y1616928D01*
X1868388Y1604286D01*
X1883872Y1595347D01*
X1897380Y1591728D01*
Y1645920D01*
D02*
G37*
G36*
X2740887Y1759646D02*
X2718012D01*
X2696878Y1750893D01*
X2680703Y1734718D01*
X2671949Y1713584D01*
Y1690709D01*
X2680703Y1669575D01*
X2696878Y1653400D01*
X2718012Y1644646D01*
X2740886D01*
X2750040Y1638530D01*
Y1627048D01*
X2758794Y1605914D01*
X2774969Y1589739D01*
X2796103Y1580985D01*
X2818978D01*
X2840112Y1589739D01*
X2856287Y1605914D01*
X2865040Y1627048D01*
Y1649922D01*
X2856287Y1671056D01*
X2840112Y1687231D01*
X2818978Y1695985D01*
X2796103D01*
X2786949Y1702101D01*
Y1713584D01*
X2778195Y1734718D01*
X2762020Y1750893D01*
X2740887Y1759646D01*
D02*
G37*
G36*
X207017Y1678020D02*
X184143D01*
X163009Y1669266D01*
X146834Y1653091D01*
X138080Y1631957D01*
Y1609083D01*
X146834Y1587949D01*
X163009Y1571774D01*
X184143Y1563020D01*
X207017D01*
X228151Y1571774D01*
X244326Y1587949D01*
X253080Y1609083D01*
Y1631957D01*
X244326Y1653091D01*
X228151Y1669266D01*
X207017Y1678020D01*
D02*
G37*
G36*
X1588777Y1655160D02*
X1565903D01*
X1544769Y1646406D01*
X1528594Y1630231D01*
X1519840Y1609097D01*
Y1586223D01*
X1528594Y1565089D01*
X1544769Y1548914D01*
X1565903Y1540160D01*
X1588777D01*
X1609911Y1548914D01*
X1626086Y1565089D01*
X1634840Y1586223D01*
Y1609097D01*
X1626086Y1630231D01*
X1609911Y1646406D01*
X1588777Y1655160D01*
D02*
G37*
G36*
X5330197Y1650080D02*
X5307323D01*
X5286189Y1641326D01*
X5270014Y1625151D01*
X5261260Y1604017D01*
Y1581143D01*
X5270014Y1560009D01*
X5286189Y1543834D01*
X5307323Y1535080D01*
X5330197D01*
X5351331Y1543834D01*
X5367506Y1560009D01*
X5376260Y1581143D01*
Y1604017D01*
X5367506Y1625151D01*
X5351331Y1641326D01*
X5330197Y1650080D01*
D02*
G37*
G36*
X2447297Y1606900D02*
X2424423D01*
X2403289Y1598146D01*
X2387114Y1581971D01*
X2378360Y1560837D01*
Y1537963D01*
X2385011Y1521905D01*
X2374195Y1510149D01*
X2373637Y1510380D01*
X2350763D01*
X2329629Y1501626D01*
X2313454Y1485451D01*
X2304700Y1464317D01*
Y1441443D01*
X2313454Y1420309D01*
X2329629Y1404134D01*
X2350763Y1395380D01*
X2373637D01*
X2394771Y1404134D01*
X2410946Y1420309D01*
X2419700Y1441443D01*
Y1464317D01*
X2413049Y1480375D01*
X2423865Y1492131D01*
X2424423Y1491900D01*
X2447297D01*
X2468431Y1500654D01*
X2484606Y1516829D01*
X2493360Y1537963D01*
Y1560837D01*
X2484606Y1581971D01*
X2468431Y1598146D01*
X2447297Y1606900D01*
D02*
G37*
G36*
X3023877Y1594200D02*
X3001003D01*
X2979869Y1585446D01*
X2963694Y1569271D01*
X2954940Y1548137D01*
Y1525263D01*
X2963694Y1504129D01*
X2979869Y1487954D01*
X3001003Y1479200D01*
X3023877D01*
X3045011Y1487954D01*
X3061186Y1504129D01*
X3069940Y1525263D01*
Y1548137D01*
X3061186Y1569271D01*
X3045011Y1585446D01*
X3023877Y1594200D01*
D02*
G37*
G36*
X618497Y1581500D02*
X595623D01*
X574489Y1572746D01*
X558314Y1556571D01*
X549560Y1535437D01*
Y1512563D01*
X558314Y1491429D01*
X574489Y1475254D01*
X595623Y1466500D01*
X618497D01*
X639631Y1475254D01*
X655806Y1491429D01*
X664560Y1512563D01*
Y1535437D01*
X655806Y1556571D01*
X639631Y1572746D01*
X618497Y1581500D01*
D02*
G37*
G36*
X3882397Y1556100D02*
X3859523D01*
X3838389Y1547346D01*
X3822214Y1531171D01*
X3813460Y1510037D01*
Y1487163D01*
X3822214Y1466029D01*
X3838389Y1449854D01*
X3859523Y1441100D01*
X3882397D01*
X3903531Y1449854D01*
X3919706Y1466029D01*
X3928460Y1487163D01*
Y1510037D01*
X3919706Y1531171D01*
X3903531Y1547346D01*
X3882397Y1556100D01*
D02*
G37*
G36*
X1440180Y1466432D02*
Y1412240D01*
X1494372D01*
X1490753Y1425748D01*
X1481814Y1441232D01*
X1469172Y1453874D01*
X1453688Y1462813D01*
X1440180Y1466432D01*
D02*
G37*
G36*
X1414780D02*
X1401272Y1462813D01*
X1385788Y1453874D01*
X1373146Y1441232D01*
X1364207Y1425748D01*
X1360588Y1412240D01*
X1414780D01*
Y1466432D01*
D02*
G37*
G36*
X3671577Y1497680D02*
X3648703D01*
X3627569Y1488926D01*
X3611394Y1472751D01*
X3602640Y1451617D01*
Y1428743D01*
X3611394Y1407609D01*
X3627569Y1391434D01*
X3648703Y1382680D01*
X3671577D01*
X3692711Y1391434D01*
X3708886Y1407609D01*
X3717640Y1428743D01*
Y1451617D01*
X3708886Y1472751D01*
X3692711Y1488926D01*
X3671577Y1497680D01*
D02*
G37*
G36*
X2244097Y1403700D02*
X2221223D01*
X2200089Y1394946D01*
X2183914Y1378771D01*
X2175160Y1357637D01*
Y1334763D01*
X2183914Y1313629D01*
X2200089Y1297454D01*
X2221223Y1288700D01*
X2244097D01*
X2265231Y1297454D01*
X2281406Y1313629D01*
X2290160Y1334763D01*
Y1357637D01*
X2281406Y1378771D01*
X2265231Y1394946D01*
X2244097Y1403700D01*
D02*
G37*
G36*
X1494372Y1386840D02*
X1360588D01*
X1364207Y1373332D01*
X1373146Y1357848D01*
X1385788Y1345206D01*
X1396507Y1339018D01*
X1401024Y1322322D01*
X1396514Y1317811D01*
X1387760Y1296677D01*
Y1273803D01*
X1396514Y1252669D01*
X1412689Y1236494D01*
X1433823Y1227740D01*
X1456697D01*
X1477831Y1236494D01*
X1494006Y1252669D01*
X1502760Y1273803D01*
Y1296677D01*
X1494006Y1317811D01*
X1477944Y1333874D01*
X1477825Y1334027D01*
X1475255Y1351289D01*
X1481814Y1357848D01*
X1490753Y1373332D01*
X1494372Y1386840D01*
D02*
G37*
G36*
X2792277Y1256380D02*
X2769402D01*
X2748269Y1247626D01*
X2732094Y1231451D01*
X2723340Y1210317D01*
Y1187443D01*
X2732094Y1166309D01*
X2748269Y1150134D01*
X2769402Y1141380D01*
X2792277D01*
X2813411Y1150134D01*
X2829586Y1166309D01*
X2838340Y1187443D01*
Y1210317D01*
X2829586Y1231451D01*
X2813411Y1247626D01*
X2792277Y1256380D01*
D02*
G37*
G36*
X2922277Y1253840D02*
X2899403D01*
X2878269Y1245086D01*
X2862094Y1228911D01*
X2853340Y1207777D01*
Y1184903D01*
X2862094Y1163769D01*
X2878269Y1147594D01*
X2899403Y1138840D01*
X2922277D01*
X2943411Y1147594D01*
X2959586Y1163769D01*
X2968340Y1184903D01*
Y1207777D01*
X2959586Y1228911D01*
X2943411Y1245086D01*
X2922277Y1253840D01*
D02*
G37*
G36*
X675640Y1080352D02*
Y1026160D01*
X729832D01*
X726213Y1039668D01*
X717274Y1055152D01*
X704632Y1067794D01*
X689148Y1076733D01*
X675640Y1080352D01*
D02*
G37*
G36*
X650240D02*
X636732Y1076733D01*
X621248Y1067794D01*
X608606Y1055152D01*
X599667Y1039668D01*
X596048Y1026160D01*
X650240D01*
Y1080352D01*
D02*
G37*
G36*
X1969777Y1238600D02*
X1946903D01*
X1925769Y1229846D01*
X1909594Y1213671D01*
X1900840Y1192537D01*
Y1169663D01*
X1909594Y1148529D01*
X1921833Y1136289D01*
X1925652Y1131807D01*
X1922581Y1117438D01*
X1914674Y1109531D01*
X1905920Y1088397D01*
Y1065523D01*
X1914674Y1044389D01*
X1930849Y1028214D01*
X1951983Y1019460D01*
X1974857D01*
X1995991Y1028214D01*
X2012166Y1044389D01*
X2020920Y1065523D01*
Y1088397D01*
X2012166Y1109531D01*
X1999927Y1121771D01*
X1996108Y1126253D01*
X1999179Y1140622D01*
X2007086Y1148529D01*
X2015840Y1169663D01*
Y1192537D01*
X2007086Y1213671D01*
X1990911Y1229846D01*
X1969777Y1238600D01*
D02*
G37*
G36*
X1408437Y1101440D02*
X1385563D01*
X1364429Y1092686D01*
X1348254Y1076511D01*
X1339500Y1055377D01*
Y1032503D01*
X1348254Y1011369D01*
X1364429Y995194D01*
X1385563Y986440D01*
X1408437D01*
X1429571Y995194D01*
X1445746Y1011369D01*
X1454500Y1032503D01*
Y1055377D01*
X1445746Y1076511D01*
X1429571Y1092686D01*
X1408437Y1101440D01*
D02*
G37*
G36*
X729832Y1000760D02*
X675640D01*
Y946568D01*
X689148Y950187D01*
X704632Y959126D01*
X717274Y971768D01*
X726213Y987252D01*
X729832Y1000760D01*
D02*
G37*
G36*
X650240D02*
X596048D01*
X599667Y987252D01*
X608606Y971768D01*
X621248Y959126D01*
X636732Y950187D01*
X650240Y946568D01*
Y1000760D01*
D02*
G37*
G36*
X5561337Y1025240D02*
X5538463D01*
X5517329Y1016486D01*
X5501154Y1000311D01*
X5492400Y979177D01*
Y956303D01*
X5501154Y935169D01*
X5517329Y918994D01*
X5538463Y910240D01*
X5561337D01*
X5582471Y918994D01*
X5598646Y935169D01*
X5607400Y956303D01*
Y979177D01*
X5598646Y1000311D01*
X5582471Y1016486D01*
X5561337Y1025240D01*
D02*
G37*
G36*
X2896877Y989680D02*
X2874003D01*
X2852869Y980926D01*
X2836694Y964751D01*
X2827940Y943617D01*
Y920743D01*
X2836694Y899609D01*
X2852869Y883434D01*
X2874003Y874680D01*
X2896877D01*
X2918011Y883434D01*
X2934186Y899609D01*
X2942940Y920743D01*
Y943617D01*
X2934186Y964751D01*
X2918011Y980926D01*
X2896877Y989680D01*
D02*
G37*
G36*
X1177297Y1002380D02*
X1154423D01*
X1133289Y993626D01*
X1117114Y977451D01*
X1108360Y956317D01*
Y933443D01*
X1117114Y912309D01*
X1126381Y903041D01*
X1122989Y885400D01*
X1120589Y884406D01*
X1104414Y868231D01*
X1095660Y847097D01*
Y824223D01*
X1104414Y803089D01*
X1120589Y786914D01*
X1141723Y778160D01*
X1164597D01*
X1185731Y786914D01*
X1201906Y803089D01*
X1210660Y824223D01*
Y847097D01*
X1201906Y868231D01*
X1192639Y877499D01*
X1196031Y895140D01*
X1198431Y896134D01*
X1214606Y912309D01*
X1223360Y933443D01*
Y956317D01*
X1214606Y977451D01*
X1198431Y993626D01*
X1177297Y1002380D01*
D02*
G37*
G36*
X765817Y883000D02*
X742943D01*
X721809Y874246D01*
X705634Y858071D01*
X696880Y836937D01*
Y814063D01*
X705634Y792929D01*
X721809Y776754D01*
X742943Y768000D01*
X765817D01*
X786951Y776754D01*
X803126Y792929D01*
X811880Y814063D01*
Y836937D01*
X803126Y858071D01*
X786951Y874246D01*
X765817Y883000D01*
D02*
G37*
G36*
X3413760Y806032D02*
Y751840D01*
X3467952D01*
X3464333Y765348D01*
X3455394Y780832D01*
X3442752Y793474D01*
X3427268Y802413D01*
X3413760Y806032D01*
D02*
G37*
G36*
X3388360D02*
X3374852Y802413D01*
X3359368Y793474D01*
X3346726Y780832D01*
X3337787Y765348D01*
X3334168Y751840D01*
X3388360D01*
Y806032D01*
D02*
G37*
G36*
X552120Y851880D02*
X548639D01*
Y741680D01*
X658840D01*
Y745160D01*
X650465Y776418D01*
X634284Y804442D01*
X611402Y827324D01*
X583378Y843505D01*
X552120Y851880D01*
D02*
G37*
G36*
X523239D02*
X519760D01*
X488502Y843505D01*
X460478Y827324D01*
X437596Y804442D01*
X421415Y776418D01*
X413040Y745160D01*
Y741680D01*
X523239D01*
Y851880D01*
D02*
G37*
G36*
X2673357Y819500D02*
X2650483D01*
X2629349Y810746D01*
X2613174Y794571D01*
X2604420Y773437D01*
Y750563D01*
X2613174Y729429D01*
X2629349Y713254D01*
X2650483Y704500D01*
X2673357D01*
X2694491Y713254D01*
X2710666Y729429D01*
X2719420Y750563D01*
Y773437D01*
X2710666Y794571D01*
X2694491Y810746D01*
X2673357Y819500D01*
D02*
G37*
G36*
X2240287Y818100D02*
X2217413D01*
X2196279Y809346D01*
X2180104Y793171D01*
X2171350Y772038D01*
Y749163D01*
X2180104Y728029D01*
X2196279Y711854D01*
X2217413Y703100D01*
X2240287D01*
X2261421Y711854D01*
X2277596Y728029D01*
X2286350Y749163D01*
Y772038D01*
X2277596Y793171D01*
X2261421Y809346D01*
X2240287Y818100D01*
D02*
G37*
G36*
X2109477Y816960D02*
X2086603D01*
X2065469Y808206D01*
X2049294Y792031D01*
X2040540Y770897D01*
Y748023D01*
X2049294Y726889D01*
X2065469Y710714D01*
X2086603Y701960D01*
X2109477D01*
X2130611Y710714D01*
X2146786Y726889D01*
X2155540Y748023D01*
Y770897D01*
X2146786Y792031D01*
X2130611Y808206D01*
X2109477Y816960D01*
D02*
G37*
G36*
X1921517Y789020D02*
X1898643D01*
X1877509Y780266D01*
X1861334Y764091D01*
X1852580Y742957D01*
Y720083D01*
X1861334Y698949D01*
X1877509Y682774D01*
X1898643Y674020D01*
X1921517D01*
X1942651Y682774D01*
X1958826Y698949D01*
X1967580Y720083D01*
Y742957D01*
X1958826Y764091D01*
X1942651Y780266D01*
X1921517Y789020D01*
D02*
G37*
G36*
X3467952Y726440D02*
X3413760D01*
Y672248D01*
X3427268Y675867D01*
X3442752Y684806D01*
X3455394Y697448D01*
X3464333Y712932D01*
X3467952Y726440D01*
D02*
G37*
G36*
X3388360D02*
X3334168D01*
X3337787Y712932D01*
X3346726Y697448D01*
X3359368Y684806D01*
X3374852Y675867D01*
X3388360Y672248D01*
Y726440D01*
D02*
G37*
G36*
X5970277Y771240D02*
X5947403D01*
X5926269Y762486D01*
X5910094Y746311D01*
X5901340Y725177D01*
Y702303D01*
X5910094Y681169D01*
X5926269Y664994D01*
X5947403Y656240D01*
X5970277D01*
X5991411Y664994D01*
X6007586Y681169D01*
X6016340Y702303D01*
Y725177D01*
X6007586Y746311D01*
X5991411Y762486D01*
X5970277Y771240D01*
D02*
G37*
G36*
X296751Y841480D02*
X267129D01*
X238517Y833813D01*
X212863Y819002D01*
X191918Y798057D01*
X177107Y772403D01*
X169440Y743791D01*
Y714169D01*
X177107Y685557D01*
X191918Y659903D01*
X212863Y638958D01*
X238517Y624147D01*
X267129Y616480D01*
X296751D01*
X325363Y624147D01*
X351017Y638958D01*
X371962Y659903D01*
X386773Y685557D01*
X394440Y714169D01*
Y743791D01*
X386773Y772403D01*
X371962Y798057D01*
X351017Y819002D01*
X325363Y833813D01*
X296751Y841480D01*
D02*
G37*
G36*
X658840Y716280D02*
X548639D01*
Y606080D01*
X552120D01*
X583378Y614455D01*
X611402Y630636D01*
X634284Y653518D01*
X650465Y681542D01*
X658840Y712800D01*
Y716280D01*
D02*
G37*
G36*
X523239D02*
X413040D01*
Y712800D01*
X421415Y681542D01*
X437596Y653518D01*
X460478Y630636D01*
X488502Y614455D01*
X519760Y606080D01*
X523239D01*
Y716280D01*
D02*
G37*
G36*
X3564897Y715360D02*
X3542023D01*
X3520889Y706606D01*
X3504714Y690431D01*
X3495960Y669297D01*
Y646423D01*
X3504714Y625289D01*
X3520889Y609114D01*
X3542023Y600360D01*
X3564897D01*
X3586031Y609114D01*
X3602206Y625289D01*
X3610960Y646423D01*
Y669297D01*
X3602206Y690431D01*
X3586031Y706606D01*
X3564897Y715360D01*
D02*
G37*
G36*
X2407920Y634012D02*
Y579820D01*
X2462112D01*
X2458493Y593329D01*
X2449554Y608812D01*
X2436912Y621454D01*
X2421428Y630393D01*
X2407920Y634012D01*
D02*
G37*
G36*
X2382520D02*
X2369012Y630393D01*
X2353528Y621454D01*
X2340886Y608812D01*
X2331947Y593329D01*
X2328328Y579820D01*
X2382520D01*
Y634012D01*
D02*
G37*
G36*
X2130284Y659929D02*
X2107409D01*
X2086275Y651175D01*
X2070100Y635000D01*
X2061346Y613866D01*
Y590991D01*
X2070100Y569858D01*
X2086275Y553683D01*
X2107409Y544929D01*
X2130284D01*
X2151417Y553683D01*
X2167592Y569858D01*
X2176346Y590991D01*
Y613866D01*
X2167592Y635000D01*
X2151417Y651175D01*
X2130284Y659929D01*
D02*
G37*
G36*
X1878337Y646780D02*
X1855463D01*
X1834329Y638026D01*
X1818154Y621851D01*
X1809400Y600717D01*
Y577843D01*
X1818154Y556709D01*
X1834329Y540534D01*
X1855463Y531780D01*
X1878337D01*
X1899471Y540534D01*
X1915646Y556709D01*
X1924400Y577843D01*
Y600717D01*
X1915646Y621851D01*
X1899471Y638026D01*
X1878337Y646780D01*
D02*
G37*
G36*
X2462112Y554420D02*
X2407920D01*
Y500228D01*
X2421428Y503847D01*
X2436912Y512786D01*
X2449554Y525428D01*
X2458493Y540912D01*
X2462112Y554420D01*
D02*
G37*
G36*
X2382520D02*
X2328328D01*
X2331947Y540912D01*
X2340886Y525428D01*
X2353528Y512786D01*
X2369012Y503847D01*
X2382520Y500228D01*
Y554420D01*
D02*
G37*
G36*
X2612397Y613760D02*
X2589523D01*
X2568389Y605006D01*
X2552214Y588831D01*
X2543460Y567697D01*
Y544823D01*
X2552214Y523689D01*
X2568389Y507514D01*
X2589523Y498760D01*
X2612397D01*
X2633531Y507514D01*
X2649706Y523689D01*
X2658460Y544823D01*
Y567697D01*
X2649706Y588831D01*
X2633531Y605006D01*
X2612397Y613760D01*
D02*
G37*
G36*
X3814045Y556022D02*
X3812540D01*
Y460822D01*
X3907740D01*
Y462327D01*
X3900387Y489770D01*
X3886181Y514374D01*
X3866092Y534463D01*
X3841488Y548669D01*
X3814045Y556022D01*
D02*
G37*
G36*
X3787140D02*
X3785635D01*
X3758192Y548669D01*
X3733588Y534463D01*
X3713499Y514374D01*
X3699293Y489770D01*
X3691940Y462327D01*
Y460822D01*
X3787140D01*
Y556022D01*
D02*
G37*
G36*
X1399677Y555340D02*
X1376803D01*
X1355669Y546586D01*
X1339494Y530411D01*
X1330740Y509277D01*
Y486403D01*
X1339494Y465269D01*
X1355669Y449094D01*
X1376803Y440340D01*
X1399677D01*
X1420811Y449094D01*
X1436986Y465269D01*
X1445740Y486403D01*
Y509277D01*
X1436986Y530411D01*
X1420811Y546586D01*
X1399677Y555340D01*
D02*
G37*
G36*
X707397Y535020D02*
X684523D01*
X663389Y526266D01*
X647214Y510091D01*
X638460Y488957D01*
Y466083D01*
X647214Y444949D01*
X663389Y428774D01*
X684523Y420020D01*
X707397D01*
X728531Y428774D01*
X744706Y444949D01*
X753460Y466083D01*
Y488957D01*
X744706Y510091D01*
X728531Y526266D01*
X707397Y535020D01*
D02*
G37*
G36*
X2404117Y479140D02*
X2381243D01*
X2360109Y470386D01*
X2343934Y454211D01*
X2335180Y433077D01*
Y410203D01*
X2336787Y406323D01*
X2325306Y394842D01*
X2315217Y399021D01*
X2292343D01*
X2271209Y390267D01*
X2255034Y374092D01*
X2246280Y352958D01*
Y333678D01*
X2237833Y325540D01*
X2233003Y322941D01*
X2223777Y326762D01*
X2200903D01*
X2179769Y318009D01*
X2163594Y301834D01*
X2154840Y280700D01*
Y257825D01*
X2163594Y236691D01*
X2179769Y220516D01*
X2200903Y211762D01*
X2223777D01*
X2244911Y220516D01*
X2261086Y236691D01*
X2269840Y257825D01*
Y277106D01*
X2278287Y285244D01*
X2283117Y287842D01*
X2292343Y284021D01*
X2315217D01*
X2336351Y292775D01*
X2352526Y308950D01*
X2361280Y330084D01*
Y352958D01*
X2359673Y356839D01*
X2371153Y368319D01*
X2381243Y364140D01*
X2404117D01*
X2425251Y372894D01*
X2441426Y389069D01*
X2450180Y410203D01*
Y433077D01*
X2441426Y454211D01*
X2425251Y470386D01*
X2404117Y479140D01*
D02*
G37*
G36*
X481000Y501360D02*
X477519D01*
Y391160D01*
X587720D01*
Y394640D01*
X579345Y425898D01*
X563164Y453922D01*
X540282Y476804D01*
X512258Y492985D01*
X481000Y501360D01*
D02*
G37*
G36*
X452119D02*
X448640D01*
X417382Y492985D01*
X389358Y476804D01*
X366476Y453922D01*
X350295Y425898D01*
X341920Y394640D01*
Y391160D01*
X452119D01*
Y501360D01*
D02*
G37*
G36*
X6017260Y432652D02*
Y378460D01*
X6071452D01*
X6067833Y391968D01*
X6058894Y407452D01*
X6046252Y420094D01*
X6030768Y429033D01*
X6017260Y432652D01*
D02*
G37*
G36*
X5991860D02*
X5978352Y429033D01*
X5962868Y420094D01*
X5950226Y407452D01*
X5941287Y391968D01*
X5937668Y378460D01*
X5991860D01*
Y432652D01*
D02*
G37*
G36*
X5590676Y549620D02*
X5565004D01*
X5540206Y542975D01*
X5517974Y530139D01*
X5499821Y511986D01*
X5486985Y489754D01*
X5480340Y464956D01*
Y439284D01*
X5486985Y414486D01*
X5499821Y392254D01*
X5517974Y374101D01*
X5540206Y361265D01*
X5565004Y354620D01*
X5590676D01*
X5615474Y361265D01*
X5637706Y374101D01*
X5655859Y392254D01*
X5668695Y414486D01*
X5675340Y439284D01*
Y464956D01*
X5668695Y489754D01*
X5655859Y511986D01*
X5637706Y530139D01*
X5615474Y542975D01*
X5590676Y549620D01*
D02*
G37*
G36*
X5336676Y545622D02*
X5311004D01*
X5286206Y538977D01*
X5263974Y526141D01*
X5245821Y507988D01*
X5232985Y485756D01*
X5226340Y460958D01*
Y435286D01*
X5232985Y410488D01*
X5245821Y388256D01*
X5263974Y370103D01*
X5286206Y357267D01*
X5311004Y350622D01*
X5336676D01*
X5361474Y357267D01*
X5383706Y370103D01*
X5401859Y388256D01*
X5414695Y410488D01*
X5421340Y435286D01*
Y460958D01*
X5414695Y485756D01*
X5401859Y507988D01*
X5383706Y526141D01*
X5361474Y538977D01*
X5336676Y545622D01*
D02*
G37*
G36*
X5082676D02*
X5057004D01*
X5032206Y538977D01*
X5009974Y526141D01*
X4991821Y507988D01*
X4978985Y485756D01*
X4972340Y460958D01*
Y435286D01*
X4978985Y410488D01*
X4991821Y388256D01*
X5009974Y370103D01*
X5032206Y357267D01*
X5057004Y350622D01*
X5082676D01*
X5107474Y357267D01*
X5129706Y370103D01*
X5147859Y388256D01*
X5160695Y410488D01*
X5167340Y435286D01*
Y460958D01*
X5160695Y485756D01*
X5147859Y507988D01*
X5129706Y526141D01*
X5107474Y538977D01*
X5082676Y545622D01*
D02*
G37*
G36*
X4828676D02*
X4803004D01*
X4778206Y538977D01*
X4755974Y526141D01*
X4737821Y507988D01*
X4724985Y485756D01*
X4718340Y460958D01*
Y435286D01*
X4724985Y410488D01*
X4737821Y388256D01*
X4755974Y370103D01*
X4778206Y357267D01*
X4803004Y350622D01*
X4828676D01*
X4853474Y357267D01*
X4875706Y370103D01*
X4893859Y388256D01*
X4906695Y410488D01*
X4913340Y435286D01*
Y460958D01*
X4906695Y485756D01*
X4893859Y507988D01*
X4875706Y526141D01*
X4853474Y538977D01*
X4828676Y545622D01*
D02*
G37*
G36*
X4574676D02*
X4549004D01*
X4524206Y538977D01*
X4501974Y526141D01*
X4483821Y507988D01*
X4470985Y485756D01*
X4464340Y460958D01*
Y435286D01*
X4470985Y410488D01*
X4483821Y388256D01*
X4501974Y370103D01*
X4524206Y357267D01*
X4549004Y350622D01*
X4574676D01*
X4599474Y357267D01*
X4621706Y370103D01*
X4639859Y388256D01*
X4652695Y410488D01*
X4659340Y435286D01*
Y460958D01*
X4652695Y485756D01*
X4639859Y507988D01*
X4621706Y526141D01*
X4599474Y538977D01*
X4574676Y545622D01*
D02*
G37*
G36*
X4320676D02*
X4295004D01*
X4270206Y538977D01*
X4247974Y526141D01*
X4229821Y507988D01*
X4216985Y485756D01*
X4210340Y460958D01*
Y435286D01*
X4216985Y410488D01*
X4229821Y388256D01*
X4247974Y370103D01*
X4270206Y357267D01*
X4295004Y350622D01*
X4320676D01*
X4345474Y357267D01*
X4367706Y370103D01*
X4385859Y388256D01*
X4398695Y410488D01*
X4405340Y435286D01*
Y460958D01*
X4398695Y485756D01*
X4385859Y507988D01*
X4367706Y526141D01*
X4345474Y538977D01*
X4320676Y545622D01*
D02*
G37*
G36*
X4066676D02*
X4041004D01*
X4016206Y538977D01*
X3993974Y526141D01*
X3975821Y507988D01*
X3962985Y485756D01*
X3956340Y460958D01*
Y435286D01*
X3962985Y410488D01*
X3975821Y388256D01*
X3993974Y370103D01*
X4016206Y357267D01*
X4041004Y350622D01*
X4066676D01*
X4091474Y357267D01*
X4113706Y370103D01*
X4131859Y388256D01*
X4144695Y410488D01*
X4151340Y435286D01*
Y460958D01*
X4144695Y485756D01*
X4131859Y507988D01*
X4113706Y526141D01*
X4091474Y538977D01*
X4066676Y545622D01*
D02*
G37*
G36*
X3907740Y435422D02*
X3812540D01*
Y340222D01*
X3814045D01*
X3841488Y347575D01*
X3866092Y361781D01*
X3886181Y381870D01*
X3900387Y406474D01*
X3907740Y433917D01*
Y435422D01*
D02*
G37*
G36*
X3787140D02*
X3691940D01*
Y433917D01*
X3699293Y406474D01*
X3713499Y381870D01*
X3733588Y361781D01*
X3758192Y347575D01*
X3785635Y340222D01*
X3787140D01*
Y435422D01*
D02*
G37*
G36*
X6071452Y353060D02*
X6017260D01*
Y298868D01*
X6030768Y302487D01*
X6046252Y311426D01*
X6058894Y324068D01*
X6067833Y339552D01*
X6071452Y353060D01*
D02*
G37*
G36*
X5991860D02*
X5937668D01*
X5941287Y339552D01*
X5950226Y324068D01*
X5962868Y311426D01*
X5978352Y302487D01*
X5991860Y298868D01*
Y353060D01*
D02*
G37*
G36*
X225631Y490960D02*
X196009D01*
X167397Y483293D01*
X141743Y468482D01*
X120798Y447537D01*
X105987Y421883D01*
X98320Y393271D01*
Y363649D01*
X105987Y335037D01*
X120798Y309383D01*
X141743Y288438D01*
X167397Y273627D01*
X196009Y265960D01*
X225631D01*
X254243Y273627D01*
X279897Y288438D01*
X300842Y309383D01*
X315653Y335037D01*
X323320Y363649D01*
Y393271D01*
X315653Y421883D01*
X300842Y447537D01*
X279897Y468482D01*
X254243Y483293D01*
X225631Y490960D01*
D02*
G37*
G36*
X587720Y365760D02*
X477519D01*
Y255560D01*
X481000D01*
X512258Y263935D01*
X540282Y280116D01*
X563164Y302998D01*
X579345Y331022D01*
X587720Y362280D01*
Y365760D01*
D02*
G37*
G36*
X452119D02*
X341920D01*
Y362280D01*
X350295Y331022D01*
X366476Y302998D01*
X389358Y280116D01*
X417382Y263935D01*
X448640Y255560D01*
X452119D01*
Y365760D01*
D02*
G37*
G36*
X2583180Y243353D02*
Y189160D01*
X2637372D01*
X2633753Y202669D01*
X2624814Y218152D01*
X2612172Y230794D01*
X2596688Y239733D01*
X2583180Y243353D01*
D02*
G37*
G36*
X2557780D02*
X2544272Y239733D01*
X2528788Y230794D01*
X2516146Y218152D01*
X2507207Y202669D01*
X2503588Y189160D01*
X2557780D01*
Y243353D01*
D02*
G37*
G36*
X1936757Y237840D02*
X1913883D01*
X1892749Y229086D01*
X1876574Y212911D01*
X1867820Y191777D01*
Y168903D01*
X1876574Y147769D01*
X1892749Y131594D01*
X1913883Y122840D01*
X1936757D01*
X1957891Y131594D01*
X1974066Y147769D01*
X1982820Y168903D01*
Y191777D01*
X1974066Y212911D01*
X1957891Y229086D01*
X1936757Y237840D01*
D02*
G37*
G36*
X2424437Y233960D02*
X2401563D01*
X2380429Y225206D01*
X2364254Y209031D01*
X2355500Y187898D01*
Y165023D01*
X2364254Y143889D01*
X2380429Y127714D01*
X2401563Y118960D01*
X2424437D01*
X2445571Y127714D01*
X2461746Y143889D01*
X2470500Y165023D01*
Y187898D01*
X2461746Y209031D01*
X2445571Y225206D01*
X2424437Y233960D01*
D02*
G37*
G36*
X1171946Y263512D02*
X1149071D01*
X1127937Y254758D01*
X1111762Y238583D01*
X1103008Y217449D01*
Y194574D01*
X1111762Y173441D01*
X1127937Y157266D01*
X1148222Y148863D01*
X1149226Y148207D01*
X1156680Y133512D01*
X1153387Y127808D01*
X1149768Y114300D01*
X1283552D01*
X1279933Y127808D01*
X1270994Y143292D01*
X1258352Y155934D01*
X1242868Y164873D01*
X1225599Y169500D01*
X1223858D01*
X1213835Y184500D01*
X1218008Y194574D01*
Y217449D01*
X1209254Y238583D01*
X1193079Y254758D01*
X1171946Y263512D01*
D02*
G37*
G36*
X1492745Y228490D02*
X1469870D01*
X1448736Y219736D01*
X1432561Y203561D01*
X1423807Y182428D01*
Y159553D01*
X1432561Y138419D01*
X1448736Y122244D01*
X1469870Y113490D01*
X1492745D01*
X1513878Y122244D01*
X1530053Y138419D01*
X1538807Y159553D01*
Y182428D01*
X1530053Y203561D01*
X1513878Y219736D01*
X1492745Y228490D01*
D02*
G37*
G36*
X2637372Y163760D02*
X2583180D01*
Y109568D01*
X2596688Y113187D01*
X2612172Y122127D01*
X2624814Y134769D01*
X2633753Y150252D01*
X2637372Y163760D01*
D02*
G37*
G36*
X2557780D02*
X2503588D01*
X2507207Y150252D01*
X2516146Y134769D01*
X2528788Y122127D01*
X2544272Y113187D01*
X2557780Y109568D01*
Y163760D01*
D02*
G37*
G36*
X394977Y202280D02*
X372103D01*
X350969Y193526D01*
X334794Y177351D01*
X326040Y156217D01*
Y133343D01*
X334794Y112209D01*
X350969Y96034D01*
X372103Y87280D01*
X394977D01*
X416111Y96034D01*
X432286Y112209D01*
X441040Y133343D01*
Y156217D01*
X432286Y177351D01*
X416111Y193526D01*
X394977Y202280D01*
D02*
G37*
G36*
X1283552Y88900D02*
X1229360D01*
Y34708D01*
X1242868Y38327D01*
X1258352Y47266D01*
X1270994Y59908D01*
X1279933Y75392D01*
X1283552Y88900D01*
D02*
G37*
G36*
X1203960D02*
X1149768D01*
X1153387Y75392D01*
X1162326Y59908D01*
X1174968Y47266D01*
X1190452Y38327D01*
X1203960Y34708D01*
Y88900D01*
D02*
G37*
G36*
X1068077Y141320D02*
X1045203D01*
X1024069Y132566D01*
X1007894Y116391D01*
X999140Y95257D01*
Y72383D01*
X1007894Y51249D01*
X1024069Y35074D01*
X1045203Y26320D01*
X1068077D01*
X1089211Y35074D01*
X1105386Y51249D01*
X1114140Y72383D01*
Y95257D01*
X1105386Y116391D01*
X1089211Y132566D01*
X1068077Y141320D01*
D02*
G37*
G36*
X1687837Y136240D02*
X1664963D01*
X1643829Y127486D01*
X1627654Y111311D01*
X1618900Y90177D01*
Y67303D01*
X1627654Y46169D01*
X1643829Y29994D01*
X1664963Y21240D01*
X1687837D01*
X1708971Y29994D01*
X1725146Y46169D01*
X1733900Y67303D01*
Y90177D01*
X1725146Y111311D01*
X1708971Y127486D01*
X1687837Y136240D01*
D02*
G37*
%LPD*%
D59*
X3799840Y448122D02*
D03*
X4307840D02*
D03*
X5323840D02*
D03*
X5069840D02*
D03*
X4815840D02*
D03*
X4561840D02*
D03*
X4053840D02*
D03*
X5577840Y452120D02*
D03*
Y2738120D02*
D03*
X3799840D02*
D03*
X4053840D02*
D03*
X4307840D02*
D03*
X4561840D02*
D03*
X4815840D02*
D03*
X5069840D02*
D03*
X5323840D02*
D03*
D61*
X613801Y2800101D02*
D03*
X478800D02*
D03*
X613801Y2205101D02*
D03*
X478800D02*
D03*
X613801Y2715103D02*
D03*
Y2290100D02*
D03*
X478800D02*
D03*
Y2715103D02*
D03*
X613801Y2545100D02*
D03*
Y2460102D02*
D03*
Y2375098D02*
D03*
X478800D02*
D03*
Y2460102D02*
D03*
Y2545100D02*
D03*
Y2630099D02*
D03*
X613801D02*
D03*
D62*
X515803Y2935102D02*
D03*
Y2070100D02*
D03*
D63*
X177800Y2935102D02*
D03*
Y2070100D02*
D03*
D65*
X535940Y728980D02*
D03*
X464820Y378460D02*
D03*
X281940Y728980D02*
D03*
X210820Y378460D02*
D03*
D66*
X3012440Y1536700D02*
D03*
X2341880Y3068320D02*
D03*
X2197100Y2814320D02*
D03*
X383540Y144780D02*
D03*
X2661920Y762000D02*
D03*
X695960Y477520D02*
D03*
X754380Y825500D02*
D03*
X1056640Y83820D02*
D03*
X1910080Y731520D02*
D03*
X2098040Y759460D02*
D03*
X2118846Y602429D02*
D03*
X1866900Y589280D02*
D03*
X3553460Y657860D02*
D03*
X2228850Y760600D02*
D03*
X2600960Y556260D02*
D03*
X2395220Y567120D02*
D03*
X1963420Y1076960D02*
D03*
X2435860Y1549400D02*
D03*
X2362200Y1452880D02*
D03*
X2780840Y1198880D02*
D03*
X2910840Y1196340D02*
D03*
X1584960Y2128520D02*
D03*
X6004560Y365760D02*
D03*
X5958840Y713740D02*
D03*
X5448300Y2067560D02*
D03*
X5913120Y3822700D02*
D03*
X3721100Y3180080D02*
D03*
X5549900Y967740D02*
D03*
X3322320Y3190240D02*
D03*
X4549140Y2230120D02*
D03*
X3942080Y2443480D02*
D03*
X3944620Y2966720D02*
D03*
X5318760Y1592580D02*
D03*
X6400800Y3726180D02*
D03*
X6131560Y4140200D02*
D03*
X5745480Y3172460D02*
D03*
X4998720Y3808380D02*
D03*
X4427220Y3078480D02*
D03*
X3060700Y3159760D02*
D03*
X3233420Y2923540D02*
D03*
X2608580Y3004820D02*
D03*
X1638300Y4305300D02*
D03*
X586300Y3558100D02*
D03*
X2729449Y1702146D02*
D03*
X2354047Y2389607D02*
D03*
X5328920Y1780540D02*
D03*
X5748507Y3766820D02*
D03*
X4041140Y3530600D02*
D03*
X3231515Y3321685D02*
D03*
X5565140Y3258820D02*
D03*
X3324860Y2880360D02*
D03*
X3870960Y1498600D02*
D03*
X3863340Y1775460D02*
D03*
X4023360Y2354580D02*
D03*
X4371340Y2209800D02*
D03*
X3243581Y2760838D02*
D03*
X1219200Y2880360D02*
D03*
X2964348Y3132996D02*
D03*
X1963420Y2931160D02*
D03*
X2362200Y1874520D02*
D03*
X1330960Y2981960D02*
D03*
X2377440Y3181000D02*
D03*
X2791460D02*
D03*
X1882140Y3070860D02*
D03*
X1468120Y2128520D02*
D03*
X1201420Y2125980D02*
D03*
X6855460Y4150360D02*
D03*
X5011420Y4810760D02*
D03*
X4899660Y3784600D02*
D03*
X5740400Y3464560D02*
D03*
X5687060Y3273140D02*
D03*
X3721100Y2440940D02*
D03*
X2832100Y4800600D02*
D03*
X2283460Y3779520D02*
D03*
X3401060Y739140D02*
D03*
X2570480Y176460D02*
D03*
X1544320Y2692400D02*
D03*
X2223370Y2390140D02*
D03*
X1910080Y1658620D02*
D03*
X1465580Y1757680D02*
D03*
X629920Y3380740D02*
D03*
X1427480Y1399540D02*
D03*
X1216660Y101600D02*
D03*
X662940Y1013460D02*
D03*
X1750060Y2080260D02*
D03*
X2885440Y932180D02*
D03*
X4054540Y3360420D02*
D03*
X3314700Y3014980D02*
D03*
X3126740Y1665320D02*
D03*
X2522220Y1845232D02*
D03*
X3954780Y2203100D02*
D03*
X3517900Y3647440D02*
D03*
X3909060Y3357880D02*
D03*
X840740Y3383280D02*
D03*
X2298700Y2306320D02*
D03*
X2580640Y1701800D02*
D03*
X1165860Y944880D02*
D03*
X1153160Y835660D02*
D03*
X2413000Y176460D02*
D03*
X1397000Y1043940D02*
D03*
X1676400Y78740D02*
D03*
X1036769Y3145006D02*
D03*
X6189980Y3820160D02*
D03*
X5092700Y4691380D02*
D03*
X3503147Y2397760D02*
D03*
X6042660Y4282440D02*
D03*
X4630420Y3738880D02*
D03*
X4897120Y3627120D02*
D03*
X4362100Y3616960D02*
D03*
X195580Y1620520D02*
D03*
X1925320Y180340D02*
D03*
X2303780Y341521D02*
D03*
X1481307Y170990D02*
D03*
X1160508Y206012D02*
D03*
X5234940Y4569460D02*
D03*
X1388240Y497840D02*
D03*
X2392680Y421640D02*
D03*
X2212340Y269262D02*
D03*
X1430020Y1930400D02*
D03*
X5078380Y4439920D02*
D03*
X3415975Y2754310D02*
D03*
X3624580Y2153000D02*
D03*
X3121660Y1778000D02*
D03*
X3045460Y1845232D02*
D03*
X3660140Y1440180D02*
D03*
X3233101Y2659699D02*
D03*
X3502660Y2517140D02*
D03*
X3561080Y1916560D02*
D03*
X2273300Y1940560D02*
D03*
X2016760Y1724660D02*
D03*
X2807540Y1638485D02*
D03*
X6292412Y3906520D02*
D03*
X5184140Y3164840D02*
D03*
X1577340Y1597660D02*
D03*
X568960Y1838960D02*
D03*
X607060Y1524000D02*
D03*
X800100Y2885440D02*
D03*
X1445260Y1285240D02*
D03*
X2052320Y3235960D02*
D03*
X1958340Y1181100D02*
D03*
X2232660Y1346200D02*
D03*
X797560Y3098800D02*
D03*
D67*
X2778760Y2648240D02*
D03*
X2998760D02*
D03*
X2888762D02*
D03*
Y2538242D02*
D03*
X2668763D02*
D03*
X2778760D02*
D03*
X2668763Y2648240D02*
D03*
X2558760Y2538242D02*
D03*
Y2648240D02*
D03*
X2998760Y2428240D02*
D03*
Y2538242D02*
D03*
X2888762Y2318243D02*
D03*
Y2428240D02*
D03*
X2778760Y2318243D02*
D03*
X2998760Y2208240D02*
D03*
Y2318243D02*
D03*
X2778760Y2208240D02*
D03*
X2888762D02*
D03*
X2668763Y2428240D02*
D03*
X2558760D02*
D03*
X2778760D02*
D03*
X2668763Y2318243D02*
D03*
Y2208240D02*
D03*
X2558760Y2318243D02*
D03*
Y2208240D02*
D03*
X1873641Y2559441D02*
D03*
X1763639D02*
D03*
X1873641Y2449439D02*
D03*
X1763639D02*
D03*
%TF.MD5,1969a6a2b4164933f45911cd3c81ad89*%
M02*
