%TF.GenerationSoftware,Altium Limited,Altium Designer,26.5.0 (11)*%
G04 Layer_Color=0*
G04 Board_Origin=23340945|23900000*
%FSLAX45Y45*%
%MOMM*%
%TF.SameCoordinates,B825AC53-504F-4258-B26F-6CDAE949C360*%
%TF.FilePolarity,Positive*%
%TF.FileFunction,Plated,1,4,PTH,Drill*%
%TF.Part,Single*%
G01*
G75*
%TA.AperFunction,ComponentDrill*%
%ADD82C,1.10000*%
%ADD83C,0.40000*%
%ADD84O,2.10000X0.60000*%
%ADD85O,1.40000X0.60000*%
%ADD86C,1.30000*%
%TA.AperFunction,ViaDrill,NotFilled*%
%ADD87C,0.35000*%
%ADD88C,0.20000*%
D82*
X3799840Y448122D02*
D03*
X4307840D02*
D03*
X5323840D02*
D03*
X5069840D02*
D03*
X4815840D02*
D03*
X4561840D02*
D03*
X4053840D02*
D03*
X5577840Y452120D02*
D03*
Y2738120D02*
D03*
X3799840D02*
D03*
X4053840D02*
D03*
X4307840D02*
D03*
X4561840D02*
D03*
X4815840D02*
D03*
X5069840D02*
D03*
X5323840D02*
D03*
D83*
X613801Y2800101D02*
D03*
X478800D02*
D03*
X613801Y2205101D02*
D03*
X478800D02*
D03*
X613801Y2715103D02*
D03*
Y2290100D02*
D03*
X478800D02*
D03*
Y2715103D02*
D03*
X613801Y2545100D02*
D03*
Y2460102D02*
D03*
Y2375098D02*
D03*
X478800D02*
D03*
Y2460102D02*
D03*
Y2545100D02*
D03*
Y2630099D02*
D03*
X613801D02*
D03*
D84*
X515803Y2935102D02*
D03*
Y2070100D02*
D03*
D85*
X177800Y2935102D02*
D03*
Y2070100D02*
D03*
D86*
X535940Y728980D02*
D03*
X464820Y378460D02*
D03*
X281940Y728980D02*
D03*
X210820Y378460D02*
D03*
D87*
X3012440Y1536700D02*
D03*
X2341880Y3068320D02*
D03*
X2197100Y2814320D02*
D03*
X383540Y144780D02*
D03*
X2661920Y762000D02*
D03*
X695960Y477520D02*
D03*
X754380Y825500D02*
D03*
X1056640Y83820D02*
D03*
X1910080Y731520D02*
D03*
X2098040Y759460D02*
D03*
X2118846Y602429D02*
D03*
X1866900Y589280D02*
D03*
X3553460Y657860D02*
D03*
X2228850Y760600D02*
D03*
X2600960Y556260D02*
D03*
X2395220Y567120D02*
D03*
X1963420Y1076960D02*
D03*
X2435860Y1549400D02*
D03*
X2362200Y1452880D02*
D03*
X2780840Y1198880D02*
D03*
X2910840Y1196340D02*
D03*
X1584960Y2128520D02*
D03*
X6004560Y365760D02*
D03*
X5958840Y713740D02*
D03*
X5448300Y2067560D02*
D03*
X5913120Y3822700D02*
D03*
X3721100Y3180080D02*
D03*
X5549900Y967740D02*
D03*
X3322320Y3190240D02*
D03*
X4549140Y2230120D02*
D03*
X3942080Y2443480D02*
D03*
X3944620Y2966720D02*
D03*
X5318760Y1592580D02*
D03*
X6400800Y3726180D02*
D03*
X6131560Y4140200D02*
D03*
X5745480Y3172460D02*
D03*
X4998720Y3808380D02*
D03*
X4427220Y3078480D02*
D03*
X3060700Y3159760D02*
D03*
X3233420Y2923540D02*
D03*
X2608580Y3004820D02*
D03*
X1638300Y4305300D02*
D03*
X586300Y3558100D02*
D03*
X2729449Y1702146D02*
D03*
X2354047Y2389607D02*
D03*
X5328920Y1780540D02*
D03*
X5748507Y3766820D02*
D03*
X4041140Y3530600D02*
D03*
X3231515Y3321685D02*
D03*
X5565140Y3258820D02*
D03*
X3324860Y2880360D02*
D03*
X3870960Y1498600D02*
D03*
X3863340Y1775460D02*
D03*
X4023360Y2354580D02*
D03*
X4371340Y2209800D02*
D03*
X3243581Y2760838D02*
D03*
X1219200Y2880360D02*
D03*
X2964348Y3132996D02*
D03*
X1963420Y2931160D02*
D03*
X2362200Y1874520D02*
D03*
X1330960Y2981960D02*
D03*
X2377440Y3181000D02*
D03*
X2791460D02*
D03*
X1882140Y3070860D02*
D03*
X1468120Y2128520D02*
D03*
X1201420Y2125980D02*
D03*
X6855460Y4150360D02*
D03*
X5011420Y4810760D02*
D03*
X4899660Y3784600D02*
D03*
X5740400Y3464560D02*
D03*
X5687060Y3273140D02*
D03*
X3721100Y2440940D02*
D03*
X2832100Y4800600D02*
D03*
X2283460Y3779520D02*
D03*
X3401060Y739140D02*
D03*
X2570480Y176460D02*
D03*
X1544320Y2692400D02*
D03*
X2223370Y2390140D02*
D03*
X1910080Y1658620D02*
D03*
X1465580Y1757680D02*
D03*
X629920Y3380740D02*
D03*
X1427480Y1399540D02*
D03*
X1216660Y101600D02*
D03*
X662940Y1013460D02*
D03*
X1750060Y2080260D02*
D03*
X2885440Y932180D02*
D03*
X4054540Y3360420D02*
D03*
X3314700Y3014980D02*
D03*
X3126740Y1665320D02*
D03*
X2522220Y1845232D02*
D03*
X3954780Y2203100D02*
D03*
X3517900Y3647440D02*
D03*
X3909060Y3357880D02*
D03*
X840740Y3383280D02*
D03*
X2298700Y2306320D02*
D03*
X2580640Y1701800D02*
D03*
X1165860Y944880D02*
D03*
X1153160Y835660D02*
D03*
X2413000Y176460D02*
D03*
X1397000Y1043940D02*
D03*
X1676400Y78740D02*
D03*
X1036769Y3145006D02*
D03*
X6189980Y3820160D02*
D03*
X5092700Y4691380D02*
D03*
X3503147Y2397760D02*
D03*
X6042660Y4282440D02*
D03*
X4630420Y3738880D02*
D03*
X4897120Y3627120D02*
D03*
X4362100Y3616960D02*
D03*
X195580Y1620520D02*
D03*
X1925320Y180340D02*
D03*
X2303780Y341521D02*
D03*
X1481307Y170990D02*
D03*
X1160508Y206012D02*
D03*
X5234940Y4569460D02*
D03*
X1388240Y497840D02*
D03*
X2392680Y421640D02*
D03*
X2212340Y269262D02*
D03*
X1430020Y1930400D02*
D03*
X5078380Y4439920D02*
D03*
X3415975Y2754310D02*
D03*
X3624580Y2153000D02*
D03*
X3121660Y1778000D02*
D03*
X3045460Y1845232D02*
D03*
X3660140Y1440180D02*
D03*
X3233101Y2659699D02*
D03*
X3502660Y2517140D02*
D03*
X3561080Y1916560D02*
D03*
X2273300Y1940560D02*
D03*
X2016760Y1724660D02*
D03*
X2807540Y1638485D02*
D03*
X6292412Y3906520D02*
D03*
X5184140Y3164840D02*
D03*
X1577340Y1597660D02*
D03*
X568960Y1838960D02*
D03*
X607060Y1524000D02*
D03*
X800100Y2885440D02*
D03*
X1445260Y1285240D02*
D03*
X2052320Y3235960D02*
D03*
X1958340Y1181100D02*
D03*
X2232660Y1346200D02*
D03*
X797560Y3098800D02*
D03*
D88*
X2778760Y2648240D02*
D03*
X2998760D02*
D03*
X2888762D02*
D03*
Y2538242D02*
D03*
X2668763D02*
D03*
X2778760D02*
D03*
X2668763Y2648240D02*
D03*
X2558760Y2538242D02*
D03*
Y2648240D02*
D03*
X2998760Y2428240D02*
D03*
Y2538242D02*
D03*
X2888762Y2318243D02*
D03*
Y2428240D02*
D03*
X2778760Y2318243D02*
D03*
X2998760Y2208240D02*
D03*
Y2318243D02*
D03*
X2778760Y2208240D02*
D03*
X2888762D02*
D03*
X2668763Y2428240D02*
D03*
X2558760D02*
D03*
X2778760D02*
D03*
X2668763Y2318243D02*
D03*
Y2208240D02*
D03*
X2558760Y2318243D02*
D03*
Y2208240D02*
D03*
X1873641Y2559441D02*
D03*
X1763639D02*
D03*
X1873641Y2449439D02*
D03*
X1763639D02*
D03*
%TF.MD5,a216d700774a853481b468b46b997a68*%
M02*
